<svg xmlns="http://www.w3.org/2000/svg" xmlns:xlink="http://www.w3.org/1999/xlink" width="197" height="190" viewBox="0 0 197 190">
  <defs>
    <clipPath id="clip-path">
      <rect id="Rectangle_544" data-name="Rectangle 544" width="197" height="190" transform="translate(541.55 261)" fill="#fff" stroke="#707070" stroke-width="1"/>
    </clipPath>
    <clipPath id="clip-path-2">
      <rect id="Rectangle_542" data-name="Rectangle 542" width="90.681" height="227.785" fill="none"/>
    </clipPath>
    <clipPath id="clip-path-3">
      <rect id="Rectangle_546" data-name="Rectangle 546" width="79.684" height="133.432" transform="translate(0)" fill="none"/>
    </clipPath>
  </defs>
  <g id="Mask_Group_817" data-name="Mask Group 817" transform="translate(-541.55 -261)" clip-path="url(#clip-path)">
    <g id="Group_930" data-name="Group 930" transform="translate(547.46 207.523)">
      <g id="Group_929" data-name="Group 929" clip-path="url(#clip-path-2)">
        <path id="Path_3817" data-name="Path 3817" d="M98.134,355.257a45.687,45.687,0,0,0-12.889-29.833,35.981,35.981,0,0,0-8.4-6.4c-1.691-.908-10.128-3.753-10.507-4.131-1.109-1.11.133-3.944-.567-5.3s-3.29-1.39-4.6-1.612c-.5-.084-.831.074-1.223-.284.306-.664.989-1.241,1.249-1.928a9.284,9.284,0,0,0,.46-3.107,5.462,5.462,0,0,0-2.762-4.373c-1.3-.744-4-.369-5.408.225a8.93,8.93,0,0,0-3.453,3.228c-.573,1.688.592,3.716,1.5,5.064-1.611.115-3.709-.216-4.258.805-.85,1.582-.286,3.927-.458,5.639-.129,1.287-.546.858-1.617,1.033a64.456,64.456,0,0,0-8.4,2.88c-3.261,1.586-5.906,3.911-8.746,6.214a66.4,66.4,0,0,0-7.567,8.629c-1.96,3.207-6.588,12.777-7.278,21.409-.336,4.2-.229,8.79,1.3,12.659a99.621,99.621,0,0,0,5.262,11.853c1.349,2.512,3.7,4.341,5.524,6.559,9.583,11.649,24.3,12.9,31.532,13.586a28.236,28.236,0,0,0,11.19-1.241,81.774,81.774,0,0,0,8.925-4.98c2.568-1.683,4.8-3.833,7.393-5.525,2.333-1.523,9.3-12.037,9.895-13.35a70.161,70.161,0,0,0,2.877-8.516,33.833,33.833,0,0,0,1.036-9.207m-40.74-49.831-.345.115c-.671.947-3.143.283-3.6-.892a3.67,3.67,0,0,1,1.2-3.916c.975-.546,3.194-.308,3.686.778.46,1.015.046,3.351-.95,3.915" transform="translate(-7.464 -170.406)" fill="#97c935"/>
        <path id="Path_3818" data-name="Path 3818" d="M95.12,322.039c4.855,2.313,3.693-7.18,3.319-9.468a.688.688,0,0,0-.5-.5,67.462,67.462,0,0,0-18.133-.968.715.715,0,0,0-.685.521c-.579,3.075-1.191,7.385,1.574,9.625,2.132,1.728,3.76-1.5,4.139-3.112h-1.37c.76,4.492,5.667,4.08,6.637-.065h-1.37c1.136,4.347,5.843,4.752,6.3-.122H93.611a5.439,5.439,0,0,0,.8,3.248.711.711,0,0,0,1.227-.717,3.323,3.323,0,0,1-.605-2.531c.034-.929-1.338-.9-1.421,0-.312,3.355-2.857,2.224-3.506-.256a.716.716,0,0,0-1.37,0c-.668,2.855-3.389,3.067-3.9.065-.119-.7-1.217-.656-1.37,0a5.358,5.358,0,0,1-.587,1.7c-1.191,2.379-2.491-1.206-2.653-1.86a13.776,13.776,0,0,1,.268-5.6l-.685.521a68.6,68.6,0,0,1,17.021.764c1,.187,1.1,8.518-.994,7.52-.823-.392-1.545.832-.718,1.226" transform="translate(-44.983 -177.86)" fill="#fff"/>
        <path id="Path_3819" data-name="Path 3819" d="M34.3,326.848l-2.909.731c-.726.19-1.426.464-1.963.632l-.888.3c-.212.033-.439.068-.676.12l-.742.208c-.658.189-1.292.41-1.914.651l-.462.188-.443.227-.878.474c-.579.331-1.171.647-1.743,1.026l-1.733,1.2-.775.528-.735.583-1.46,1.157-.194.142a6.215,6.215,0,0,0-.528.428l-1.847,1.576c-.752.666-1.555,1.523-2.453,2.4-.435.452-.841.96-1.277,1.454l-.65.754a8.571,8.571,0,0,0-.629.781l-1.186,1.61c-.192.267-.4.522-.572.795s-.341.544-.507.811c-.331.533-.653,1.048-.957,1.537-.32.479-.532.986-.776,1.424-.454.9-.872,1.624-1.1,2.166l-.36.847-.723,1.172c-.121.2-.239.4-.356.62a7.337,7.337,0,0,0-.285.7,15.148,15.148,0,0,0-.518,1.85c-.062.293-.137.58-.19.887s-.1.628-.171.969c-1.524,7-2.561,13.569-.713,20.372a47.933,47.933,0,0,0,2.024,5.752,51.753,51.753,0,0,0,2.728,5.532c.348.667.778,1.3,1.167,1.953s.853,1.271,1.279,1.906c0,0,.168.235.472.64s.717,1,1.282,1.659a41.431,41.431,0,0,0,4.363,4.623,40.72,40.72,0,0,0,5,3.927c.712.5,1.336.864,1.77,1.126l.68.412c1.009.623,2.024,1.241,3.04,1.756a14.468,14.468,0,0,0,1.36.664c.457.2.91.4,1.365.582.925.323,1.824.668,2.744.9a47.4,47.4,0,0,0,5.419,1.152s.163.034.4.066l.884.13.884.13.087.012.1.011.13.012.113.01c.566.068,1.127.141,1.689.228l2.183.266c.8.069,1.613.1,2.275.093.475-.024.956-.088,1.432-.15s.951-.131,1.414-.21a23.059,23.059,0,0,0,2.389-.252l1.195-.1,1.078-.143c.369-.059.77-.113,1.232-.228s.993-.267,1.634-.463c.03-.129.339-.3.5-.446l.449-.155,1.254-.24c.417-.1.832-.2,1.221-.275a11.475,11.475,0,0,0,1.037-.6,16.386,16.386,0,0,0,6.681-3.314c.568-.305,1.108-.686,1.683-1.073a20.924,20.924,0,0,0,1.908-1.553c.553-.532,1.067-1.053,1.6-1.589l.48-.436c.382-.318.752-.613,1.1-.909s.662-.588.985-.856a18.818,18.818,0,0,1,1.9-1.447c.2-.286.36-.578.534-.858a17.556,17.556,0,0,0,2.518-3.205,11.554,11.554,0,0,0,1.519-3.23c.035-.049.059-.1.091-.149l.865-1.45a15.133,15.133,0,0,0,2.445-5.072,28.71,28.71,0,0,0,.937-2.83c.3-1.186.594-2.375.8-3.616l.167-.923.122-.906.121-.909.03-.227c.017-.122.017-.168.025-.256l.04-.469a44,44,0,0,0,.061-7.622c-.042-.456-.085-.926-.127-1.392a25.225,25.225,0,0,0-.386-3.458,15.143,15.143,0,0,0-.484-1.915,35.33,35.33,0,0,0-1.306-4.44,27.831,27.831,0,0,0-1.882-4.006l-.064-.133c-.162-.368-.318-.739-.488-1.1l-.536-1.082c.009-.1.113-.024.1-.158-.391-.678-.869-1.341-1.307-2.042-.487-.672-.928-1.391-1.418-2.077-.108-.169.12-.053.112-.1-1.072-1.212-1.522-1.9-1.045-1.915-.178-.147-.45-.428-.727-.714s-.582-.556-.785-.718a14.439,14.439,0,0,0-3.092-3.468,29.8,29.8,0,0,0-4.451-3.218A37.111,37.111,0,0,0,63,330.366c-3.156-1.656-4.61-2.023-4.923-1.707l-.688-.259c-.417-.147-.984-.324-1.546-.508s-1.119-.321-1.538-.445l-.7-.191-.107.392-.092-.03a1.1,1.1,0,0,1,.074.1l-.193.7.294.081a.982.982,0,0,1-.106.128c.654.178,1.3.318,1.884.495s1.155.331,1.707.517l1.629.58c.528.219,1.054.444,1.585.68,2.345,1.345,4.835,2.792,7.28,4.511.74.523,1.466,1.124,2.278,1.793a45.578,45.578,0,0,1,3.9,3.764,40.49,40.49,0,0,1,3.364,4.263c1.08,1.586,2.071,3.56,3.011,5.145.116.2.228.362.342.536a45.194,45.194,0,0,1,3.423,9.93s.1.565.207,1.131.162,1.139.162,1.139c0,.228,0,.463,0,.676-.03.778-.074,1.476-.084,2.146-.046.673-.062,1.319-.078,2-.074,1.355-.071,2.837-.265,4.874l-.076.847-.126.9c-.087.6-.164,1.211-.292,1.774s-.216,1.152-.371,1.733-.307,1.161-.46,1.744a41.2,41.2,0,0,1-2.663,6.749,52.891,52.891,0,0,1-8.032,11.64,38.476,38.476,0,0,1-3.729,3.652l-.521.389c-.325.257-.819.583-1.407.979a41.139,41.139,0,0,1-4.5,2.616,42.152,42.152,0,0,1-4.787,2.032c-.663.251-1.237.4-1.629.533l-.62.2a15.6,15.6,0,0,0-2.375.558c-.153-.189-.781-.211-1.673-.126-.9.04-2.064.2-3.308.294-2.483.235-5.269.3-6.648.3-.122.049.008.107-.1.158-.373-.006-.8-.06-1.261-.092s-.982-.058-1.477-.137l-1.656-.219c-.551-.092-1.1-.2-1.643-.306a22.725,22.725,0,0,1-5.1-1.582c-.5-.1-1.045-.211-1.564-.36s-1.02-.294-1.452-.387c0,0-.222-.082-.54-.241l-1.172-.561c-.432-.2-.841-.433-1.154-.6l-.52-.281a14.955,14.955,0,0,1-1.247-1.21c-.2-.2-.409-.407-.642-.617s-.475-.451-.765-.691a3.138,3.138,0,0,1-1.175-.364,16.92,16.92,0,0,1-1.552-.925c-.533-.388-1.081-.815-1.6-1.231l-1.353-1.226c-.347-.329-.76-.784-1.225-1.272s-.923-1.063-1.4-1.6c-.039-.094-.054-.162-.015-.179-.376-.5-.75-.971-1.139-1.43s-.742-.947-1.125-1.44a1.076,1.076,0,0,1,.174.12c-.52-.743-.948-1.433-1.38-1.931a3.6,3.6,0,0,0-1.056-1.015l-.282-.465c-.146-.229-.269-.472-.269-.472-.389-.892-.7-1.677-.985-2.5-.315-.81-.587-1.662-1-2.643a51.22,51.22,0,0,1-2.291-6.572c-.33-1.3-.486-2.177-.695-3,0,0-.032-.17-.06-.471s-.077-.73-.133-1.245-.086-1.118-.126-1.765-.054-1.337-.054-2.028c0-.345-.011-.69,0-1.03s.03-.674.045-1,.028-.636.041-.933.053-.575.077-.833c.049-.516.09-.946.119-1.247.029-.259.072-.464.067-.454.23-1.009.432-1.988.617-2.954.252-.932.5-1.845.725-2.771a43.777,43.777,0,0,1,2.026-5.7c.106-.247.216-.505.331-.772s.272-.522.411-.793L6.9,348.7c.265-.567.613-1.079.892-1.592s.544-1,.751-1.445l.032-.07a2.823,2.823,0,0,1,.2-.3l.606-.822a32.43,32.43,0,0,1,2.254-2.857,41.322,41.322,0,0,1,8.213-7.344,41.8,41.8,0,0,1,9.874-4.886c.716-.231,1.363-.48,1.955-.635l1.538-.386,1.34-.337ZM76.988,342.66l-.852-1.07c-.208-.271-.439-.524-.606-.719l-.28-.322-.023-.091.285.337c.167.2.405.466.615.749l.86,1.116m-6.553-7.012c0,.005.007.011.011.018l-.183-.162Z" transform="translate(0 -186.979)" fill="#fff"/>
        <path id="Path_3820" data-name="Path 3820" d="M96.157,299.421c2.6-1.132,2.989-3.958,2.524-6.481a5.47,5.47,0,0,0-5.224-4.541,7.481,7.481,0,0,0-6.64,3.211c-1.92,2.84-.141,6.6,2.8,7.73.857.328,1.224-1.046.378-1.371-2.988-1.146-3.137-4.8-.956-6.761a6.34,6.34,0,0,1,5.079-1.306c3.607.589,4.8,6.776,1.321,8.292-.838.364-.113,1.588.717,1.227" transform="translate(-49.208 -164.969)" fill="#fff"/>
        <path id="Path_3821" data-name="Path 3821" d="M96.694,301.641c3.56.941,5.238-5.6,1.752-6.642-2.243-.669-4.156,1.526-4.352,3.634-.136,1.461,1.4,2.558,2.6,3.008.86.323,1.227-1.051.378-1.37a3.283,3.283,0,0,1-1.4-1.061c-.706-1.065.967-3.1,2.108-2.927,2.065.319,1.144,4.477-.71,3.987a.711.711,0,0,0-.378,1.37" transform="translate(-53.824 -168.69)" fill="#fff"/>
        <path id="Path_3822" data-name="Path 3822" d="M89.269,44.663C87.164,26.612,86.123,15.443,85.839,0c-.534-.011-.964.014-1.5,0,.283,15.512,1.223,26.715,3.337,44.844l.247,2.117c2.014,17.241,4.1,35.069,3.9,52.768-.051,4.476-.256,9.023-.456,13.42-.231,5.1-.469,10.368-.469,15.589h1.6c0-5.186.238-10.438.468-15.517.2-4.411.407-8.972.457-13.474.2-17.8-1.89-35.679-3.91-52.969Z" transform="translate(-48.249 0)" fill="#fff"/>
        <path id="Path_3823" data-name="Path 3823" d="M54.758,256.975l-.389-1.316c1.24-.367,2.481-.646,3.682-.915,3.492-.784,6.79-1.524,9.42-4.278a27.215,27.215,0,0,0,2.887-3.849c.67-1.01,1.36-2.05,2.144-3.02-3.417,2.587-6.5,4.7-11.665,3.693-2.9-.568-6.811-2.521-8.541-5.469a5.845,5.845,0,0,1-.57-4.955c1-3.051,4.174-4.3,8.719-3.414,4.979.966,10.612,4.326,12.718,7.93,3.626-2.6,13.968-7.513,19.266-4.926,2.015.985,3.058,2.891,3.1,5.668.042,2.626-1.327,4.824-3.958,6.356-4.407,2.568-11.615,2.69-15.739.264a6.137,6.137,0,0,1-2.93-3.413c-.489.669-.95,1.365-1.4,2.046a28.607,28.607,0,0,1-3.04,4.039c-2.917,3.054-6.411,3.839-10.111,4.669-1.179.265-2.4.538-3.595.892m19.309-14.554-.024,1.236a4.344,4.344,0,0,0,2.488,3.9c3.685,2.166,10.391,2.042,14.353-.267a5.877,5.877,0,0,0,3.277-5.148c-.036-2.249-.8-3.707-2.333-4.456-4.455-2.176-14.125,2.176-17.76,4.733m-16.323-7.876c-1.941,0-4,.564-4.712,2.745a4.524,4.524,0,0,0,.448,3.835c1.448,2.467,4.931,4.29,7.622,4.817,4.765.933,7.387-1.019,10.972-3.742-1.761-3.21-7.256-6.5-11.888-7.4a13.034,13.034,0,0,0-2.443-.253" transform="translate(-29.414 -133.391)" fill="#fff"/>
        <path id="Path_3824" data-name="Path 3824" d="M127.092,276.024c-6.419,0-16.2-4.05-20.611-8.557a16.509,16.509,0,0,1-2.531-3.845,10,10,0,0,0-2.277-3.284l.8-1.116a10.791,10.791,0,0,1,2.689,3.754,15.5,15.5,0,0,0,2.3,3.53c4.236,4.324,13.667,8.208,19.769,8.144l.013,1.372h-.152" transform="translate(-58.164 -148.293)" fill="#fff"/>
        <path id="Path_3825" data-name="Path 3825" d="M4.83,428.813l4.937-11.277.713-1.629-.977-.128,5.531,13.168.77,1.834c.151.358.775.607.977.127l5.6-13.255.8-1.889-.978-.128,5.51,13.24.792,1.9c.15.359.775.606.977.127l5.605-13.256.8-1.889h-.923l5.71,13.144.795,1.829a.537.537,0,0,0,.923,0l5.513-12.973.789-1.857h-.923l5.621,13.168.782,1.833a.536.536,0,0,0,.923,0l5.7-13.271.8-1.874-.977-.128,5.433,13.422.767,1.9a.541.541,0,0,0,1.031,0L73.5,417.517l.79-1.88-.978.128,5.569,13.158.8,1.891c.2.481.827.235.978-.128l5.813-13.952q.408-.977.814-1.954c.265-.635-.77-.912-1.031-.285l-5.814,13.952L79.63,430.4l.977-.128-5.569-13.157-.8-1.892c-.2-.482-.825-.234-.977.128l-5.646,13.436-.79,1.88h1.031q-2.716-6.711-5.433-13.422l-.767-1.9c-.148-.365-.775-.6-.978-.128l-5.7,13.271-.8,1.874H55.1L49.477,417.2l-.783-1.833a.537.537,0,0,0-.923,0L42.258,428.34,41.47,430.2h.923l-5.709-13.143q-.4-.915-.8-1.83a.537.537,0,0,0-.923,0l-5.6,13.257-.8,1.888.977.128L24.03,417.256l-.792-1.9c-.15-.36-.775-.607-.978-.128l-5.6,13.256-.8,1.888.977.128L11.3,417.328q-.385-.917-.77-1.833c-.152-.363-.769-.6-.977-.128L4.62,426.644l-.713,1.628c-.273.625.648,1.17.923.54" transform="translate(-2.206 -236.917)" fill="#fff"/>
        <path id="Path_3826" data-name="Path 3826" d="M1.823,412.719l6.054-14.77.846-2.064-.977.128,5.549,12.993.787,1.842a.537.537,0,0,0,.923,0l5.608-12.993.8-1.843-.977-.128L26,409.182l.794,1.895a.541.541,0,0,0,1.031,0l5.576-13.3.794-1.894-.977.128,5.658,13.158.813,1.891a.537.537,0,0,0,.923,0l5.549-12.993.787-1.843h-.923l5.664,13.236.807,1.885c.2.479.827.238.978-.128L59,397.844l.78-1.888H58.746l5.547,13.617.787,1.933a.54.54,0,0,0,1.031,0l5.608-13.617.8-1.932H71.484l5.561,13.211.775,1.839c.152.361.771.6.978.128L84.23,398.58,85,396.8c.271-.625-.65-1.17-.923-.54L78.645,408.81l-.772,1.783.978.128L73.29,397.51l-.774-1.839a.541.541,0,0,0-1.032,0l-5.607,13.617-.8,1.932h1.031L60.565,397.6l-.787-1.932a.54.54,0,0,0-1.031,0l-5.522,13.375-.78,1.888.977-.128-5.664-13.235-.807-1.886a.537.537,0,0,0-.923,0L40.479,408.68l-.787,1.842h.923l-5.657-13.158-.814-1.892c-.206-.48-.825-.236-.977.128l-5.575,13.3-.795,1.895H27.83q-2.786-6.649-5.575-13.3-.4-.948-.794-1.895c-.151-.362-.772-.605-.978-.128l-5.608,12.994-.795,1.842H15L9.456,397.315l-.787-1.843c-.2-.478-.827-.238-.977.128L1.638,410.37l-.846,2.064c-.261.636.773.914,1.031.285" transform="translate(-0.429 -226.084)" fill="#fff"/>
        <path id="Path_3827" data-name="Path 3827" d="M182.6,378.811a1.485,1.485,0,0,0-1.43,1.306,1.118,1.118,0,0,0,1.236,1.321,1.381,1.381,0,0,0,1.438-1.406,1.165,1.165,0,0,0-1.244-1.221" transform="translate(-103.635 -216.705)" fill="#fff"/>
        <line id="Line_94" data-name="Line 94" x2="0.605" y2="0.036" transform="translate(74.608 163.819)" fill="#fff"/>
        <path id="Path_3828" data-name="Path 3828" d="M172.43,382.294a1.871,1.871,0,0,0,1.743-.045,1.071,1.071,0,0,0,.022-1.737,1.642,1.642,0,0,0-1.469-.224,1.082,1.082,0,0,0-.962.895,1.063,1.063,0,0,0,.667,1.111" transform="translate(-98.257 -217.512)" fill="#fff"/>
        <path id="Path_3829" data-name="Path 3829" d="M165.94,378.9c-1.428,0-1.658,2.088-.211,2.09s1.651-2.092.211-2.09" transform="translate(-94.249 -216.757)" fill="#fff"/>
        <line id="Line_95" data-name="Line 95" x2="0.608" y2="0.012" transform="translate(67.331 163.151)" fill="#fff"/>
        <path id="Path_3830" data-name="Path 3830" d="M156.015,380.719l.392.045-.778-.536a1.155,1.155,0,1,0-.015-.708l.752-.564-.384.026a.873.873,0,0,0,.033,1.737" transform="translate(-88.792 -216.697)" fill="#fff"/>
        <path id="Path_3831" data-name="Path 3831" d="M147.494,378.387c-1.446-.1-1.877,2.041-.357,2.152,1.514.09,1.82-2.072.357-2.152" transform="translate(-83.627 -216.461)" fill="#fff"/>
        <path id="Path_3832" data-name="Path 3832" d="M139.451,377.177c-1.738-.217-2.4,2.343-.574,2.571a1.428,1.428,0,0,0,1.631-1.142,1.143,1.143,0,0,0-1.057-1.43" transform="translate(-78.824 -215.763)" fill="#fff"/>
        <line id="Line_96" data-name="Line 96" x2="0.603" y2="0.061" transform="translate(56.053 162.781)" fill="#fff"/>
        <path id="Path_3833" data-name="Path 3833" d="M129.028,379.88a1.857,1.857,0,0,0,1.734.02,1.074,1.074,0,0,0,.1-1.734,1.655,1.655,0,0,0-1.463-.281,1.1,1.1,0,0,0-1,.857,1.046,1.046,0,0,0,.628,1.138" transform="translate(-73.446 -216.15)" fill="#fff"/>
        <path id="Path_3834" data-name="Path 3834" d="M122.712,376.11c-1.454-.087-1.762,2-.337,2.073s1.8-1.981.337-2.073" transform="translate(-69.478 -215.159)" fill="#fff"/>
        <line id="Line_97" data-name="Line 97" x2="0.609" y2="0.018" transform="translate(48.802 161.806)" fill="#fff"/>
        <path id="Path_3835" data-name="Path 3835" d="M112.709,377.585c.13.014.258.027.388.047l-.772-.537a1.184,1.184,0,0,0,2.24-.222c.184-1.266-1.831-1.7-2.258-.486l.761-.564-.391.025a.873.873,0,0,0,.031,1.737" transform="translate(-64.018 -214.907)" fill="#fff"/>
        <path id="Path_3836" data-name="Path 3836" d="M104.106,375.455c-1.5,0-1.719,2.168-.229,2.17s1.739-2.155.229-2.17" transform="translate(-58.845 -214.786)" fill="#fff"/>
        <path id="Path_3837" data-name="Path 3837" d="M95.916,374.946c-1.808.018-2.046,2.644-.243,2.624,1.788-.012,2.065-2.634.243-2.624" transform="translate(-54.023 -214.494)" fill="#fff"/>
        <line id="Line_98" data-name="Line 98" y1="0.009" x2="0.608" transform="translate(37.519 162.379)" fill="#fff"/>
        <path id="Path_3838" data-name="Path 3838" d="M85.806,378.926a1.881,1.881,0,0,0,1.75-.174,1.074,1.074,0,0,0-.111-1.734,1.646,1.646,0,0,0-1.476-.113,1.1,1.1,0,0,0-.905.949,1.043,1.043,0,0,0,.743,1.072" transform="translate(-48.66 -215.547)" fill="#fff"/>
        <path id="Path_3839" data-name="Path 3839" d="M79.186,375.8c-1.43.02-1.626,2.113-.181,2.093s1.621-2.116.181-2.093" transform="translate(-44.629 -214.986)" fill="#fff"/>
        <line id="Line_99" data-name="Line 99" y1="0.003" x2="0.608" transform="translate(30.209 161.905)" fill="#fff"/>
        <path id="Path_3840" data-name="Path 3840" d="M69.288,377.8l.393.036-.791-.517a1.155,1.155,0,1,0-.033-.707l.739-.582c-.128.015-.256.025-.385.036a.873.873,0,0,0,.076,1.735" transform="translate(-39.165 -215.018)" fill="#fff"/>
        <path id="Path_3841" data-name="Path 3841" d="M60.681,375.767c-1.487-.016-1.742,2.151-.243,2.168s1.736-2.154.243-2.168" transform="translate(-33.999 -214.964)" fill="#fff"/>
        <path id="Path_3842" data-name="Path 3842" d="M52.509,375.156c-1.811-.013-2.088,2.61-.287,2.62s2.1-2.6.287-2.62" transform="translate(-29.177 -214.614)" fill="#fff"/>
        <line id="Line_100" data-name="Line 100" y1="0.008" x2="0.607" transform="translate(18.931 162.418)" fill="#fff"/>
        <path id="Path_3843" data-name="Path 3843" d="M42.376,379.016a1.869,1.869,0,0,0,1.737-.166,1.074,1.074,0,0,0-.094-1.734,1.644,1.644,0,0,0-1.481-.121,1.1,1.1,0,0,0-.9.953,1.047,1.047,0,0,0,.742,1.069" transform="translate(-23.816 -215.6)" fill="#fff"/>
        <path id="Path_3844" data-name="Path 3844" d="M35.723,375.975a1.073,1.073,0,0,0-.8.353,1.28,1.28,0,0,0-.331.718.955.955,0,0,0,.194.721.992.992,0,0,0,.815.306c1.411-.057,1.586-2.151.121-2.1" transform="translate(-19.786 -215.082)" fill="#fff"/>
        <line id="Line_101" data-name="Line 101" x2="0.608" y2="0.042" transform="translate(11.642 161.787)" fill="#fff"/>
        <path id="Path_3845" data-name="Path 3845" d="M25.839,377.564l.384.063-.748-.569a1.157,1.157,0,1,0,.01-.708l.787-.531-.392.008c-1.1.025-1.043,1.585-.04,1.737" transform="translate(-14.343 -214.911)" fill="#fff"/>
        <path id="Path_3846" data-name="Path 3846" d="M17.127,375.383a1.282,1.282,0,0,0-.923.446,1.082,1.082,0,0,0-.243.8.994.994,0,0,0,1.119.935,1.257,1.257,0,0,0,1.146-1.136.929.929,0,0,0-1.1-1.047" transform="translate(-9.128 -214.742)" fill="#fff"/>
        <path id="Path_3847" data-name="Path 3847" d="M183.989,462.167a1.493,1.493,0,0,0-1.192,1.517,1.113,1.113,0,0,0,1.443,1.1,1.456,1.456,0,0,0,1-.645,1.332,1.332,0,0,0,.181-.981,1.17,1.17,0,0,0-1.437-.993" transform="translate(-104.572 -264.371)" fill="#fff"/>
        <path id="Path_3848" data-name="Path 3848" d="M176.072,467.519c.2,0,.411-.011.616-.019" transform="translate(-100.725 -267.442)" fill="#fff"/>
        <path id="Path_3849" data-name="Path 3849" d="M174.175,466.989a1.943,1.943,0,0,0,1.817-.207,1.065,1.065,0,0,0-.19-1.728,1.668,1.668,0,0,0-1.459-.086,1.13,1.13,0,0,0-.914.941,1.021,1.021,0,0,0,.746,1.08" transform="translate(-99.211 -265.922)" fill="#fff"/>
        <path id="Path_3850" data-name="Path 3850" d="M167.615,463.7c-1.411-.055-1.749,2.019-.286,2.083,1.464.044,1.7-2.04.286-2.083" transform="translate(-95.181 -265.268)" fill="#fff"/>
        <line id="Line_102" data-name="Line 102" x2="0.61" y2="0.033" transform="translate(68.025 199.259)" fill="#fff"/>
        <path id="Path_3851" data-name="Path 3851" d="M157.6,465.119l.389.059-.76-.56a1.161,1.161,0,1,0,0-.708l.778-.54-.392.014a.872.872,0,0,0-.017,1.737" transform="translate(-89.714 -264.993)" fill="#fff"/>
        <path id="Path_3852" data-name="Path 3852" d="M148.979,462.808c-1.5,0-1.722,2.172-.221,2.17,1.45.015,1.781-2.148.221-2.17" transform="translate(-84.516 -264.757)" fill="#fff"/>
        <path id="Path_3853" data-name="Path 3853" d="M140.771,462.3c-1.81.008-2.069,2.633-.255,2.623s2.076-2.63.255-2.623" transform="translate(-79.676 -264.465)" fill="#fff"/>
        <line id="Line_103" data-name="Line 103" y1="0.005" x2="0.611" transform="translate(56.695 199.736)" fill="#fff"/>
        <path id="Path_3854" data-name="Path 3854" d="M130.605,466.217a1.89,1.89,0,0,0,1.756-.163,1.071,1.071,0,0,0-.1-1.734,1.659,1.659,0,0,0-1.481-.123,1.107,1.107,0,0,0-.915.944,1.044,1.044,0,0,0,.739,1.076" transform="translate(-74.29 -265.487)" fill="#fff"/>
        <path id="Path_3855" data-name="Path 3855" d="M123.974,463.063c-1.442.018-1.63,2.113-.185,2.093s1.636-2.112.185-2.093" transform="translate(-70.247 -264.903)" fill="#fff"/>
        <line id="Line_104" data-name="Line 104" y1="0.011" x2="0.611" transform="translate(49.359 199.261)" fill="#fff"/>
        <path id="Path_3856" data-name="Path 3856" d="M114.042,465.1l.392.03-.8-.5a1.161,1.161,0,1,0-.048-.707l.736-.595-.389.042a.872.872,0,0,0,.107,1.733" transform="translate(-64.756 -264.956)" fill="#fff"/>
        <path id="Path_3857" data-name="Path 3857" d="M105.354,463.3c-1.5.035-1.67,2.212-.169,2.175s1.676-2.209.169-2.175" transform="translate(-59.576 -265.039)" fill="#fff"/>
        <path id="Path_3858" data-name="Path 3858" d="M97.144,462.975c-1.81.051-2.005,2.681-.193,2.629s2.013-2.678.193-2.629" transform="translate(-54.739 -264.853)" fill="#fff"/>
        <line id="Line_105" data-name="Line 105" y1="0.02" x2="0.61" transform="translate(38.053 200.117)" fill="#fff"/>
        <path id="Path_3859" data-name="Path 3859" d="M87.066,467.134a1.889,1.889,0,0,0,1.752-.206,1.071,1.071,0,0,0-.142-1.731,1.662,1.662,0,0,0-1.484-.087,1.1,1.1,0,0,0-.891.966,1.043,1.043,0,0,0,.765,1.058" transform="translate(-49.369 -265.999)" fill="#fff"/>
        <path id="Path_3860" data-name="Path 3860" d="M80.36,464.158c-1.441.056-1.577,2.152-.133,2.1s1.583-2.15.133-2.1" transform="translate(-45.313 -265.529)" fill="#fff"/>
        <line id="Line_106" data-name="Line 106" y1="0.028" x2="0.61" transform="translate(30.707 199.827)" fill="#fff"/>
        <path id="Path_3861" data-name="Path 3861" d="M70.479,466.445l.393.019-.813-.481a1.161,1.161,0,1,0-.067-.705l.72-.615-.387.053a.872.872,0,0,0,.154,1.73" transform="translate(-39.821 -265.715)" fill="#fff"/>
        <path id="Path_3862" data-name="Path 3862" d="M61.755,464.881c-1.49.07-1.62,2.249-.117,2.179s1.618-2.25.117-2.179" transform="translate(-34.652 -265.942)" fill="#fff"/>
        <path id="Path_3863" data-name="Path 3863" d="M53.561,464.714c-1.794.075-1.975,2.705-.153,2.63s1.962-2.711.153-2.63" transform="translate(-29.819 -265.847)" fill="#fff"/>
        <line id="Line_107" data-name="Line 107" y1="0.018" x2="0.612" transform="translate(19.411 200.889)" fill="#fff"/>
        <path id="Path_3864" data-name="Path 3864" d="M43.493,468.935a1.9,1.9,0,0,0,1.764-.2A1.07,1.07,0,0,0,45.111,467a1.663,1.663,0,0,0-1.479-.089,1.109,1.109,0,0,0-.9.958,1.04,1.04,0,0,0,.759,1.066" transform="translate(-24.445 -267.031)" fill="#fff"/>
        <path id="Path_3865" data-name="Path 3865" d="M36.832,465.863c-1.425.015-1.642,2.109-.184,2.093s1.619-2.118.184-2.093" transform="translate(-20.397 -266.505)" fill="#fff"/>
        <line id="Line_108" data-name="Line 108" y1="0.053" x2="0.61" transform="translate(12.058 200.499)" fill="#fff"/>
        <path id="Path_3866" data-name="Path 3866" d="M26.938,468.044l.392,0L26.5,467.6a1.075,1.075,0,0,0,1.269.558,1.158,1.158,0,0,0,.944-1.016,1.037,1.037,0,0,0-1.031-1.084,1.133,1.133,0,0,0-1.28.84l.692-.647-.386.071a.872.872,0,0,0,.233,1.721" transform="translate(-14.888 -266.614)" fill="#fff"/>
        <path id="Path_3867" data-name="Path 3867" d="M18.3,466.619a1.265,1.265,0,0,0-1.219.983.916.916,0,0,0,.092.769,1.018,1.018,0,0,0,.849.411,1.154,1.154,0,0,0,1.26-1.093.959.959,0,0,0-.981-1.069" transform="translate(-9.746 -266.937)" fill="#fff"/>
        <path id="Path_3868" data-name="Path 3868" d="M176.735,368.708a1.468,1.468,0,0,0-1.15,1.393,1.066,1.066,0,0,0,1.247,1.238,1.334,1.334,0,0,0,1.006-.6,1.255,1.255,0,0,0,.136-.983,1.712,1.712,0,0,0-.462-.8.879.879,0,0,0-.777-.254" transform="translate(-100.443 -210.919)" fill="#fff"/>
        <line id="Line_109" data-name="Line 109" x2="0.552" y2="0.013" transform="translate(72.47 159.695)" fill="#fff"/>
        <path id="Path_3869" data-name="Path 3869" d="M167.633,372.652a1.574,1.574,0,0,0,1.567-.109,1.126,1.126,0,0,0-.021-1.737,1.4,1.4,0,0,0-1.367-.172,1.059,1.059,0,0,0-.849.933,1.044,1.044,0,0,0,.671,1.084" transform="translate(-95.512 -211.974)" fill="#fff"/>
        <path id="Path_3870" data-name="Path 3870" d="M161.607,369.381c-1.306-.012-1.544,2.073-.212,2.089s1.528-2.081.212-2.089" transform="translate(-91.82 -211.311)" fill="#fff"/>
        <line id="Line_110" data-name="Line 110" x2="0.558" y2="0.013" transform="translate(65.774 159.045)" fill="#fff"/>
        <path id="Path_3871" data-name="Path 3871" d="M152.479,371.125l.359.046-.711-.537a1.066,1.066,0,1,0-.011-.708l.7-.562c-.117.012-.236.018-.355.025-.98.065-.922,1.621.022,1.737" transform="translate(-86.809 -211.21)" fill="#fff"/>
        <path id="Path_3872" data-name="Path 3872" d="M144.63,368.871c-1.356-.057-1.67,2.1-.289,2.161s1.654-2.109.289-2.161" transform="translate(-82.061 -211.019)" fill="#fff"/>
        <path id="Path_3873" data-name="Path 3873" d="M137.161,368.013c-1.636-.09-2.052,2.512-.383,2.605s2.03-2.522.383-2.605" transform="translate(-77.637 -210.527)" fill="#fff"/>
        <line id="Line_111" data-name="Line 111" x2="0.558" y2="0.038" transform="translate(55.393 159.118)" fill="#fff"/>
        <path id="Path_3874" data-name="Path 3874" d="M127.65,371.308a1.613,1.613,0,0,0,1.622-.041,1.128,1.128,0,0,0,.032-1.736,1.405,1.405,0,0,0-1.339-.225,1.065,1.065,0,0,0-.906.878,1.048,1.048,0,0,0,.591,1.124" transform="translate(-72.68 -211.231)" fill="#fff"/>
        <path id="Path_3875" data-name="Path 3875" d="M121.821,367.678c-1.327-.072-1.621,2.01-.306,2.077s1.639-2,.306-2.077" transform="translate(-69.029 -210.335)" fill="#fff"/>
        <line id="Line_112" data-name="Line 112" x2="0.559" y2="0.022" transform="translate(48.728 158.205)" fill="#fff"/>
        <path id="Path_3876" data-name="Path 3876" d="M112.636,369.172l.356.051-.7-.543a1.067,1.067,0,1,0-.006-.709l.7-.556-.358.021c-.991.06-.929,1.617.007,1.736" transform="translate(-64.02 -210.098)" fill="#fff"/>
        <path id="Path_3877" data-name="Path 3877" d="M104.771,366.931c-1.372-.034-1.629,2.132-.257,2.165s1.638-2.126.257-2.165" transform="translate(-59.269 -209.909)" fill="#fff"/>
        <path id="Path_3878" data-name="Path 3878" d="M97.266,366.24c-1.654-.033-1.957,2.584-.3,2.617s1.963-2.581.3-2.617" transform="translate(-54.841 -209.514)" fill="#fff"/>
        <line id="Line_113" data-name="Line 113" x2="0.559" y2="0.011" transform="translate(38.354 158.527)" fill="#fff"/>
        <path id="Path_3879" data-name="Path 3879" d="M87.874,369.915a1.606,1.606,0,0,0,1.614-.116,1.131,1.131,0,0,0-.045-1.737,1.408,1.408,0,0,0-1.35-.162,1.066,1.066,0,0,0-.864.917,1.044,1.044,0,0,0,.645,1.1" transform="translate(-49.898 -210.411)" fill="#fff"/>
        <path id="Path_3880" data-name="Path 3880" d="M81.909,366.543c-1.312-.031-1.57,2.053-.242,2.085s1.563-2.056.242-2.085" transform="translate(-46.217 -209.687)" fill="#fff"/>
        <line id="Line_114" data-name="Line 114" x2="0.558" y2="0.018" transform="translate(31.663 157.789)" fill="#fff"/>
        <path id="Path_3881" data-name="Path 3881" d="M72.761,368.2l.359.05-.707-.543a1.066,1.066,0,1,0-.006-.709l.7-.557-.355.022c-.982.058-.932,1.615.009,1.737" transform="translate(-41.209 -209.537)" fill="#fff"/>
        <path id="Path_3882" data-name="Path 3882" d="M64.924,365.893c-1.363-.063-1.677,2.095-.3,2.159s1.668-2.1.3-2.159" transform="translate(-36.46 -209.315)" fill="#fff"/>
        <path id="Path_3883" data-name="Path 3883" d="M57.436,365.032c-1.662-.072-2.013,2.539-.36,2.609s2.028-2.532.36-2.609" transform="translate(-32.035 -208.822)" fill="#fff"/>
        <line id="Line_115" data-name="Line 115" x2="0.557" y2="0.014" transform="translate(21.293 157.944)" fill="#fff"/>
        <path id="Path_3884" data-name="Path 3884" d="M48.014,368.554a1.593,1.593,0,0,0,1.6-.105,1.132,1.132,0,0,0-.023-1.737,1.405,1.405,0,0,0-1.355-.172,1.056,1.056,0,0,0-.22,2.014" transform="translate(-27.096 -209.634)" fill="#fff"/>
        <path id="Path_3885" data-name="Path 3885" d="M42,365.249c-1.347.013-1.486,2.109-.182,2.091s1.531-2.09.182-2.091" transform="translate(-23.407 -208.947)" fill="#fff"/>
        <line id="Line_116" data-name="Line 116" x2="0.556" y2="0.001" transform="translate(14.597 157.426)" fill="#fff"/>
        <path id="Path_3886" data-name="Path 3886" d="M32.9,367.328l.363.039-.724-.524a.966.966,0,0,0,1.13.673,1.166,1.166,0,0,0,.635-.317,1.029,1.029,0,0,0,.284-.667,1.068,1.068,0,0,0-.872-1.118,1.02,1.02,0,0,0-1.2.721l.681-.576c-.115.015-.234.022-.35.032-.98.082-.892,1.638.053,1.736" transform="translate(-18.394 -209.03)" fill="#fff"/>
        <path id="Path_3887" data-name="Path 3887" d="M24.85,365.454A1.108,1.108,0,0,0,23.8,366.69a.962.962,0,0,0,1.042.946,1.187,1.187,0,0,0,1.035-1.148.9.9,0,0,0-1.024-1.034" transform="translate(-13.608 -209.062)" fill="#fff"/>
        <path id="Path_3888" data-name="Path 3888" d="M178.117,472.6c-1.692-.062-2.037,2.549-.347,2.611s2.049-2.544.347-2.611" transform="translate(-101.063 -270.357)" fill="#fff"/>
        <line id="Line_117" data-name="Line 117" x2="0.57" y2="0.018" transform="translate(72.872 203.981)" fill="#fff"/>
        <path id="Path_3889" data-name="Path 3889" d="M168.5,476.137a1.664,1.664,0,0,0,1.643-.1,1.116,1.116,0,0,0-.025-1.737,1.461,1.461,0,0,0-1.378-.178,1.072,1.072,0,0,0-.889.91,1.046,1.046,0,0,0,.649,1.1" transform="translate(-96.017 -271.182)" fill="#fff"/>
        <path id="Path_3890" data-name="Path 3890" d="M162.425,472.723c-1.347-.031-1.6,2.055-.247,2.085s1.6-2.051.247-2.085" transform="translate(-92.264 -270.429)" fill="#fff"/>
        <line id="Line_118" data-name="Line 118" x2="0.57" y2="0.009" transform="translate(66.045 203.256)" fill="#fff"/>
        <path id="Path_3891" data-name="Path 3891" d="M153.094,474.436l.365.043-.73-.529a1.088,1.088,0,1,0-.021-.708l.706-.571-.365.029c-1.007.077-.915,1.633.043,1.736" transform="translate(-87.146 -270.308)" fill="#fff"/>
        <path id="Path_3892" data-name="Path 3892" d="M145.035,472.343c-1.4-.012-1.625,2.158-.225,2.169s1.633-2.156.225-2.169" transform="translate(-82.301 -270.212)" fill="#fff"/>
        <path id="Path_3893" data-name="Path 3893" d="M137.371,471.772c-1.692,0-1.948,2.619-.256,2.622s1.959-2.614.256-2.622" transform="translate(-77.782 -269.885)" fill="#fff"/>
        <line id="Line_119" data-name="Line 119" y1="0.002" x2="0.57" transform="translate(55.47 203.767)" fill="#fff"/>
        <path id="Path_3894" data-name="Path 3894" d="M127.862,475.632a1.665,1.665,0,0,0,1.639-.154,1.117,1.117,0,0,0-.084-1.735,1.458,1.458,0,0,0-1.383-.131,1.074,1.074,0,0,0-.858.939,1.047,1.047,0,0,0,.686,1.08" transform="translate(-72.751 -270.876)" fill="#fff"/>
        <path id="Path_3895" data-name="Path 3895" d="M121.671,472.458c-1.358.029-1.5,2.126-.16,2.094s1.527-2.111.16-2.094" transform="translate(-68.977 -270.278)" fill="#fff"/>
        <line id="Line_120" data-name="Line 120" y1="0.023" x2="0.57" transform="translate(48.618 203.323)" fill="#fff"/>
        <path id="Path_3896" data-name="Path 3896" d="M112.416,474.611l.366.023-.757-.489a1.088,1.088,0,1,0-.061-.705l.675-.609-.362.049c-1,.132-.822,1.68.138,1.731" transform="translate(-63.846 -270.389)" fill="#fff"/>
        <path id="Path_3897" data-name="Path 3897" d="M104.268,472.991c-1.4.066-1.5,2.245-.1,2.178s1.507-2.244.1-2.178" transform="translate(-59.018 -270.582)" fill="#fff"/>
        <path id="Path_3898" data-name="Path 3898" d="M96.612,472.816c-1.677.078-1.824,2.708-.125,2.631s1.816-2.711.125-2.631" transform="translate(-54.507 -270.481)" fill="#fff"/>
        <line id="Line_121" data-name="Line 121" y1="0.021" x2="0.571" transform="translate(38.076 204.366)" fill="#fff"/>
        <path id="Path_3899" data-name="Path 3899" d="M87.239,477.062a1.67,1.67,0,0,0,1.646-.208,1.115,1.115,0,0,0-.15-1.731,1.464,1.464,0,0,0-1.381-.084,1.078,1.078,0,0,0-.831.962,1.039,1.039,0,0,0,.717,1.061" transform="translate(-49.496 -271.679)" fill="#fff"/>
        <path id="Path_3900" data-name="Path 3900" d="M81,474.022c-1.327.019-1.521,2.112-.158,2.093s1.5-2.127.158-2.093" transform="translate(-45.712 -271.173)" fill="#fff"/>
        <line id="Line_122" data-name="Line 122" x2="0.569" y2="0.007" transform="translate(31.223 203.906)" fill="#fff"/>
        <path id="Path_3901" data-name="Path 3901" d="M71.727,475.951l.368.042-.733-.528a1.086,1.086,0,1,0-.018-.708l.7-.572-.359.03c-.992.074-.928,1.632.042,1.736" transform="translate(-40.599 -271.173)" fill="#fff"/>
        <path id="Path_3902" data-name="Path 3902" d="M63.7,473.789c-1.4-.024-1.679,2.143-.28,2.166s1.689-2.143.28-2.166" transform="translate(-35.754 -271.039)" fill="#fff"/>
        <path id="Path_3903" data-name="Path 3903" d="M56.038,473.141c-1.7-.028-2,2.59-.315,2.617s2.02-2.589.315-2.617" transform="translate(-31.235 -270.668)" fill="#fff"/>
        <line id="Line_123" data-name="Line 123" x2="0.57" y2="0.009" transform="translate(20.643 204.285)" fill="#fff"/>
        <path id="Path_3904" data-name="Path 3904" d="M46.462,476.841a1.656,1.656,0,0,0,1.64-.121,1.117,1.117,0,0,0-.049-1.737,1.465,1.465,0,0,0-1.381-.158,1.067,1.067,0,0,0-.875.92,1.051,1.051,0,0,0,.665,1.1" transform="translate(-26.196 -271.578)" fill="#fff"/>
        <path id="Path_3905" data-name="Path 3905" d="M40.337,473.5c-1.349-.022-1.559,2.065-.212,2.087s1.569-2.064.212-2.087" transform="translate(-22.433 -270.871)" fill="#fff"/>
        <line id="Line_124" data-name="Line 124" y1="0.01" x2="0.57" transform="translate(13.802 203.64)" fill="#fff"/>
        <path id="Path_3906" data-name="Path 3906" d="M31.045,475.335l.368.031-.749-.507a1.093,1.093,0,0,0,2.091-.316,1.031,1.031,0,0,0-.9-1.134,1.042,1.042,0,0,0-1.231.743l.682-.591-.359.04c-.977.1-.885,1.655.1,1.734" transform="translate(-17.311 -270.811)" fill="#fff"/>
        <path id="Path_3907" data-name="Path 3907" d="M23.165,473.043a1.219,1.219,0,0,0-1.262.839.978.978,0,0,0-.011.768.928.928,0,0,0,.729.5,1.1,1.1,0,0,0,1.308-.937.945.945,0,0,0-.764-1.175" transform="translate(-12.481 -270.606)" fill="#fff"/>
      </g>
    </g>
    <g id="Group_940" data-name="Group 940" transform="translate(654.685 250.095)">
      <g id="Group_937" data-name="Group 937" transform="translate(-6 5)" clip-path="url(#clip-path-3)">
        <path id="Path_4090" data-name="Path 4090" d="M76.279,141.788a39.139,39.139,0,0,0-11.04-25.552,30.812,30.812,0,0,0-7.2-5.479c-1.449-.779-8.675-3.214-9-3.539-.951-.951.113-3.378-.487-4.541s-2.819-1.191-3.942-1.381c-.427-.072-.712.063-1.048-.243.262-.568.847-1.063,1.069-1.652a7.96,7.96,0,0,0,.395-2.661,4.68,4.68,0,0,0-2.366-3.746c-1.113-.638-3.427-.316-4.632.193a7.642,7.642,0,0,0-2.958,2.765c-.491,1.446.508,3.183,1.282,4.337-1.38.1-3.177-.185-3.647.691-.729,1.354-.245,3.363-.392,4.83-.111,1.1-.468.735-1.385.885a55.279,55.279,0,0,0-7.193,2.467,39.841,39.841,0,0,0-7.493,5.323,56.991,56.991,0,0,0-6.481,7.39c-1.678,2.747-5.643,10.945-6.234,18.337-.288,3.6-.2,7.529,1.11,10.844A85.374,85.374,0,0,0,9.15,161.207c1.155,2.152,3.168,3.719,4.732,5.619C22.09,176.8,34.7,177.872,40.89,178.463a24.185,24.185,0,0,0,9.584-1.063,69.7,69.7,0,0,0,7.646-4.265c2.2-1.441,4.112-3.283,6.333-4.732,2-1.3,7.97-10.31,8.475-11.434a60.221,60.221,0,0,0,2.464-7.294,29.025,29.025,0,0,0,.888-7.886m-34.9-42.682-.3.1c-.576.811-2.693.242-3.08-.764a3.143,3.143,0,0,1,1.032-3.354c.834-.468,2.735-.264,3.157.666.394.87.039,2.87-.813,3.354" transform="translate(2.002 -48.257)" fill="#97c935"/>
        <path id="Path_4091" data-name="Path 4091" d="M14.661,157.641a1.561,1.561,0,0,0-.095-.487q-.611.86-1.174,1.757a1.166,1.166,0,0,0,1.269-1.27" transform="translate(-5.61 -86.426)" fill="#fff"/>
        <path id="Path_4092" data-name="Path 4092" d="M13.173,166.492a1.092,1.092,0,0,0,1.12-.76,1.843,1.843,0,0,0-.2-1.77,1.155,1.155,0,0,0-1.822.132,1.6,1.6,0,0,0-.1,1.491,1.146,1.146,0,0,0,1.008.907" transform="translate(-4.862 -89.957)" fill="#fff"/>
        <path id="Path_4093" data-name="Path 4093" d="M13.316,173.156c-.027-1.451-2.228-1.622-2.2-.167s2.229,1.626,2.2.167" transform="translate(-4.358 -94.579)" fill="#fff"/>
        <path id="Path_4094" data-name="Path 4094" d="M13.271,181.932a1.223,1.223,0,0,0-.834-1.9,1.185,1.185,0,0,0-.987,1.884l.007.061c.109,1.059,1.681.938,1.814-.047" transform="translate(-4.424 -99.007)" fill="#fff"/>
        <path id="Path_4095" data-name="Path 4095" d="M13.591,190.87c-.019-1.505-2.3-1.7-2.285-.193s2.3,1.708,2.285.193" transform="translate(-4.463 -104.29)" fill="#fff"/>
        <path id="Path_4096" data-name="Path 4096" d="M13.627,198.171c-.018-1.818-2.779-2.067-2.761-.239s2.778,2.069,2.761.239" transform="translate(-4.221 -108.162)" fill="#fff"/>
        <path id="Path_4097" data-name="Path 4097" d="M12.928,205.811a1.608,1.608,0,0,0-.128,1.49,1.139,1.139,0,0,0,.991.921,1.1,1.1,0,0,0,1.134-.743,1.838,1.838,0,0,0-.172-1.771,1.156,1.156,0,0,0-1.824.1" transform="translate(-5.219 -112.908)" fill="#fff"/>
        <path id="Path_4098" data-name="Path 4098" d="M11.641,214.688c.013,1.449,2.213,1.651,2.2.194s-2.213-1.651-2.2-.194" transform="translate(-4.647 -117.518)" fill="#fff"/>
        <path id="Path_4099" data-name="Path 4099" d="M12.9,221.752a1.186,1.186,0,0,0-1,1.879l.007.062c.106,1.061,1.677.945,1.814-.038a1.222,1.222,0,0,0-.818-1.9" transform="translate(-4.67 -121.949)" fill="#fff"/>
        <path id="Path_4100" data-name="Path 4100" d="M11.728,232.4c.017,1.505,2.3,1.7,2.285.193s-2.3-1.708-2.285-.193" transform="translate(-4.695 -127.234)" fill="#fff"/>
        <path id="Path_4101" data-name="Path 4101" d="M11.309,239.662c.028,1.821,2.79,2.051,2.762.225s-2.791-2.057-2.762-.225" transform="translate(-4.464 -131.108)" fill="#fff"/>
        <path id="Path_4102" data-name="Path 4102" d="M16,247.413a1.094,1.094,0,0,0-1.449-.206c.495.745,1.018,1.468,1.565,2.172a.8.8,0,0,0,.077-.2A1.844,1.844,0,0,0,16,247.413" transform="translate(-6.245 -135.849)" fill="#fff"/>
        <path id="Path_4103" data-name="Path 4103" d="M31.342,140.447a1.153,1.153,0,0,0,.05-1.305c-.629.466-1.239.955-1.836,1.461a.942.942,0,0,0,1.786-.156" transform="translate(-14.499 -76.52)" fill="#fff"/>
        <path id="Path_4104" data-name="Path 4104" d="M31.162,148.371c.018-1.444-2.262-1.695-2.28-.237s2.262,1.69,2.28.237" transform="translate(-14.129 -80.928)" fill="#fff"/>
        <path id="Path_4105" data-name="Path 4105" d="M31.02,155.394c.022-1.744-2.733-2.04-2.755-.278s2.733,2.034,2.755.278" transform="translate(-13.789 -84.654)" fill="#fff"/>
        <path id="Path_4106" data-name="Path 4106" d="M30.156,162.731a1.5,1.5,0,0,0-.16,1.433,1.107,1.107,0,0,0,2.12.195,1.7,1.7,0,0,0-.134-1.7,1.186,1.186,0,0,0-1.826.075" transform="translate(-14.685 -89.234)" fill="#fff"/>
        <path id="Path_4107" data-name="Path 4107" d="M28.778,171.252c.008,1.4,2.208,1.608,2.2.207s-2.208-1.611-2.2-.207" transform="translate(-14.072 -93.657)" fill="#fff"/>
        <path id="Path_4108" data-name="Path 4108" d="M30.006,178.061a1.138,1.138,0,0,0-1.012,1.8l.006.06c.1,1.022,1.672.922,1.814-.023a1.168,1.168,0,0,0-.809-1.836" transform="translate(-14.077 -97.921)" fill="#fff"/>
        <path id="Path_4109" data-name="Path 4109" d="M31.066,188.493c-.009-1.444-2.293-1.658-2.284-.2s2.292,1.655,2.284.2" transform="translate(-14.074 -103.004)" fill="#fff"/>
        <path id="Path_4110" data-name="Path 4110" d="M31.055,195.513c-.009-1.745-2.77-2-2.76-.235s2.77,1.991,2.76.235" transform="translate(-13.806 -106.73)" fill="#fff"/>
        <path id="Path_4111" data-name="Path 4111" d="M32.314,204.46a1.705,1.705,0,0,0-.165-1.7,1.185,1.185,0,0,0-1.825.1,1.5,1.5,0,0,0-.134,1.434,1.107,1.107,0,0,0,2.124.164" transform="translate(-14.784 -111.295)" fill="#fff"/>
        <path id="Path_4112" data-name="Path 4112" d="M31.206,211.582c-.008-1.391-2.207-1.578-2.2-.175.023,1.4,2.23,1.575,2.2.175" transform="translate(-14.197 -115.732)" fill="#fff"/>
        <path id="Path_4113" data-name="Path 4113" d="M29.36,220.069c.117,1.02,1.686.9,1.814-.049a1.169,1.169,0,0,0-.837-1.825,1.138,1.138,0,0,0-.984,1.813Z" transform="translate(-14.269 -119.994)" fill="#fff"/>
        <path id="Path_4114" data-name="Path 4114" d="M31.554,228.613c-.031-1.445-2.318-1.627-2.287-.17s2.317,1.623,2.287.17" transform="translate(-14.341 -125.077)" fill="#fff"/>
        <path id="Path_4115" data-name="Path 4115" d="M31.656,235.629c-.037-1.745-2.8-1.96-2.763-.2s2.8,1.955,2.763.2" transform="translate(-14.135 -128.803)" fill="#fff"/>
        <path id="Path_4116" data-name="Path 4116" d="M31.039,242.986a1.5,1.5,0,0,0-.112,1.435,1.108,1.108,0,0,0,2.126.137,1.708,1.708,0,0,0-.191-1.7,1.184,1.184,0,0,0-1.823.126" transform="translate(-15.183 -133.355)" fill="#fff"/>
        <path id="Path_4117" data-name="Path 4117" d="M32.051,251.7c-.03-1.392-2.232-1.55-2.2-.148s2.231,1.547,2.2.148" transform="translate(-14.66 -137.802)" fill="#fff"/>
        <path id="Path_4118" data-name="Path 4118" d="M31.2,258.324a1.137,1.137,0,0,0-.962,1.825l.008.059c.13,1.019,1.7.878,1.813-.071a1.169,1.169,0,0,0-.859-1.813" transform="translate(-14.753 -142.062)" fill="#fff"/>
        <path id="Path_4119" data-name="Path 4119" d="M52.444,131.9c-.028-1.424-2.23-1.6-2.2-.167s2.23,1.6,2.2.167" transform="translate(-25.875 -71.898)" fill="#fff"/>
        <path id="Path_4120" data-name="Path 4120" d="M51.572,138.664a1.168,1.168,0,0,0-.985,1.86l.007.06c.117,1.042,1.686.913,1.813-.057a1.2,1.2,0,0,0-.835-1.863" transform="translate(-25.947 -76.255)" fill="#fff"/>
        <path id="Path_4121" data-name="Path 4121" d="M50.5,149.147c.031,1.479,2.318,1.66,2.287.171s-2.317-1.659-2.287-.171" transform="translate(-26.018 -81.455)" fill="#fff"/>
        <path id="Path_4122" data-name="Path 4122" d="M52.89,156.5c-.037-1.788-2.8-2.006-2.764-.207s2.8,2.007,2.764.207" transform="translate(-25.812 -85.265)" fill="#fff"/>
        <path id="Path_4123" data-name="Path 4123" d="M52.274,164.02a1.566,1.566,0,0,0-.114,1.467,1.128,1.128,0,0,0,1,.9,1.1,1.1,0,0,0,1.127-.744,1.778,1.778,0,0,0-.189-1.74,1.167,1.167,0,0,0-1.823.122" transform="translate(-26.861 -89.924)" fill="#fff"/>
        <path id="Path_4124" data-name="Path 4124" d="M53.261,172.937c-.025-1.424-2.226-1.6-2.2-.165s2.227,1.6,2.2.165" transform="translate(-26.325 -94.469)" fill="#fff"/>
        <path id="Path_4125" data-name="Path 4125" d="M51.39,181.625c.113,1.042,1.683.913,1.813-.056a1.2,1.2,0,0,0-.83-1.864,1.171,1.171,0,0,0-.99,1.86Z" transform="translate(-26.385 -98.826)" fill="#fff"/>
        <path id="Path_4126" data-name="Path 4126" d="M53.557,190.36c-.026-1.479-2.312-1.659-2.286-.171s2.315,1.662,2.286.171" transform="translate(-26.441 -104.027)" fill="#fff"/>
        <path id="Path_4127" data-name="Path 4127" d="M53.65,197.543c-.035-1.792-2.8-2.012-2.763-.218s2.8,2.022,2.763.218" transform="translate(-26.23 -107.836)" fill="#fff"/>
        <path id="Path_4128" data-name="Path 4128" d="M53,205.062a1.557,1.557,0,0,0-.133,1.464,1.131,1.131,0,0,0,.988.907,1.1,1.1,0,0,0,1.135-.731,1.791,1.791,0,0,0-.166-1.747,1.168,1.168,0,0,0-1.825.107" transform="translate(-27.257 -112.499)" fill="#fff"/>
        <path id="Path_4129" data-name="Path 4129" d="M51.692,213.787c.009,1.419,2.208,1.641,2.2.2s-2.209-1.632-2.2-.2" transform="translate(-26.673 -117.035)" fill="#fff"/>
        <path id="Path_4130" data-name="Path 4130" d="M52.88,220.743a1.168,1.168,0,0,0-1.03,1.833l.006.061c.09,1.043,1.663.956,1.815-.011a1.2,1.2,0,0,0-.791-1.883" transform="translate(-26.651 -121.393)" fill="#fff"/>
        <path id="Path_4131" data-name="Path 4131" d="M53.825,231.423c.017-1.482-2.267-1.725-2.28-.239s2.262,1.73,2.28.239" transform="translate(-26.592 -126.589)" fill="#fff"/>
        <path id="Path_4132" data-name="Path 4132" d="M50.931,238.314c-.021,1.784,2.734,2.1,2.755.3s-2.734-2.093-2.755-.3" transform="translate(-26.254 -130.397)" fill="#fff"/>
        <path id="Path_4133" data-name="Path 4133" d="M52.809,246.111a1.56,1.56,0,0,0-.167,1.462,1.132,1.132,0,0,0,.968.93,1.1,1.1,0,0,0,1.152-.7,1.787,1.787,0,0,0-.127-1.747,1.167,1.167,0,0,0-1.826.058" transform="translate(-27.141 -135.088)" fill="#fff"/>
        <path id="Path_4134" data-name="Path 4134" d="M51.308,254.8c-.025,1.424,2.169,1.682,2.194.248s-2.171-1.681-2.194-.248" transform="translate(-26.462 -139.599)" fill="#fff"/>
        <path id="Path_4135" data-name="Path 4135" d="M52.366,261.783a1.168,1.168,0,0,0-1.055,1.819l0,.061c.077,1.046,1.65.977,1.815.014a1.2,1.2,0,0,0-.764-1.894" transform="translate(-26.359 -143.962)" fill="#fff"/>
        <path id="Path_4136" data-name="Path 4136" d="M50.9,272.213c-.026,1.48,2.253,1.746,2.278.257s-2.253-1.747-2.278-.257" transform="translate(-26.239 -149.156)" fill="#fff"/>
        <path id="Path_4137" data-name="Path 4137" d="M54.021,278.463a1.627,1.627,0,0,0-.844-.3c.279.1.562.2.844.3" transform="translate(-27.49 -152.975)" fill="#fff"/>
        <path id="Path_4138" data-name="Path 4138" d="M71.521,130.881c-.01-1.851-2.77-2.119-2.76-.255s2.77,2.118,2.76.255" transform="translate(-36.06 -71.138)" fill="#fff"/>
        <path id="Path_4139" data-name="Path 4139" d="M70.792,138.665a1.666,1.666,0,0,0-.134,1.518,1.148,1.148,0,0,0,.988.941,1.1,1.1,0,0,0,1.136-.756,1.9,1.9,0,0,0-.166-1.8,1.143,1.143,0,0,0-1.825.1" transform="translate(-37.04 -75.978)" fill="#fff"/>
        <path id="Path_4140" data-name="Path 4140" d="M69.477,147.707c.009,1.476,2.208,1.686,2.2.2s-2.208-1.687-2.2-.2" transform="translate(-36.454 -80.673)" fill="#fff"/>
        <path id="Path_4141" data-name="Path 4141" d="M69.7,156.82l.006.063c.1,1.081,1.672.969,1.814-.034a1.248,1.248,0,0,0-.809-1.941A1.212,1.212,0,0,0,69.7,156.82" transform="translate(-36.461 -85.188)" fill="#fff"/>
        <path id="Path_4142" data-name="Path 4142" d="M71.77,165.956c-.009-1.532-2.293-1.749-2.284-.207s2.293,1.749,2.284.207" transform="translate(-36.459 -90.573)" fill="#fff"/>
        <path id="Path_4143" data-name="Path 4143" d="M71.761,173.4c-.01-1.851-2.77-2.113-2.76-.249s2.77,2.112,2.76.249" transform="translate(-36.192 -94.52)" fill="#fff"/>
        <path id="Path_4144" data-name="Path 4144" d="M71.032,181.18A1.666,1.666,0,0,0,70.9,182.7a1.144,1.144,0,0,0,.988.939,1.1,1.1,0,0,0,1.136-.758,1.9,1.9,0,0,0-.166-1.8,1.143,1.143,0,0,0-1.825.1" transform="translate(-37.172 -99.357)" fill="#fff"/>
        <path id="Path_4145" data-name="Path 4145" d="M69.717,190.226c.009,1.476,2.208,1.681,2.2.2s-2.208-1.682-2.2-.2" transform="translate(-36.586 -104.054)" fill="#fff"/>
        <path id="Path_4146" data-name="Path 4146" d="M69.937,199.338l.006.063c.1,1.081,1.672.965,1.814-.038a1.246,1.246,0,0,0-.809-1.939,1.214,1.214,0,0,0-1.011,1.914" transform="translate(-36.593 -108.57)" fill="#fff"/>
        <path id="Path_4147" data-name="Path 4147" d="M72.01,208.471c-.009-1.532-2.293-1.744-2.284-.2s2.293,1.743,2.284.2" transform="translate(-36.591 -113.955)" fill="#fff"/>
        <path id="Path_4148" data-name="Path 4148" d="M72.033,215.909c-.024-1.851-2.786-2.107-2.762-.243s2.786,2.107,2.762.243" transform="translate(-36.34 -117.902)" fill="#fff"/>
        <path id="Path_4149" data-name="Path 4149" d="M73.364,225.39a1.905,1.905,0,0,0-.179-1.8,1.143,1.143,0,0,0-1.824.108,1.663,1.663,0,0,0-.123,1.518,1.152,1.152,0,0,0,1,.937,1.094,1.094,0,0,0,1.13-.76" transform="translate(-37.356 -122.737)" fill="#fff"/>
        <path id="Path_4150" data-name="Path 4150" d="M72.311,232.936c-.019-1.475-2.221-1.678-2.2-.194s2.221,1.679,2.2.194" transform="translate(-36.802 -127.435)" fill="#fff"/>
        <path id="Path_4151" data-name="Path 4151" d="M70.4,241.917c.108,1.08,1.679.963,1.814-.04a1.252,1.252,0,0,0-.824-1.938,1.208,1.208,0,0,0-1,1.916Z" transform="translate(-36.844 -131.95)" fill="#fff"/>
        <path id="Path_4152" data-name="Path 4152" d="M72.537,250.983c-.02-1.532-2.306-1.742-2.285-.2s2.306,1.741,2.285.2" transform="translate(-36.88 -137.336)" fill="#fff"/>
        <path id="Path_4153" data-name="Path 4153" d="M72.586,258.422c-.024-1.852-2.786-2.1-2.762-.241s2.786,2.1,2.762.241" transform="translate(-36.644 -141.282)" fill="#fff"/>
        <path id="Path_4154" data-name="Path 4154" d="M71.915,266.207a1.663,1.663,0,0,0-.122,1.518,1.15,1.15,0,0,0,.995.936,1.1,1.1,0,0,0,1.13-.76,1.9,1.9,0,0,0-.179-1.8,1.143,1.143,0,0,0-1.824.109" transform="translate(-37.66 -146.116)" fill="#fff"/>
        <path id="Path_4155" data-name="Path 4155" d="M70.664,275.256c.019,1.476,2.221,1.676,2.2.192s-2.221-1.677-2.2-.192" transform="translate(-37.106 -150.815)" fill="#fff"/>
        <path id="Path_4156" data-name="Path 4156" d="M72.143,282.557c.371.041.744.074,1.118.1a1.038,1.038,0,0,0-.541-.208,1.063,1.063,0,0,0-.577.1" transform="translate(-37.92 -155.331)" fill="#fff"/>
        <path id="Path_4157" data-name="Path 4157" d="M87.363,134.053c-.1-1.709-2.867-1.805-2.768-.092s2.867,1.811,2.768.092" transform="translate(-44.766 -72.99)" fill="#fff"/>
        <path id="Path_4158" data-name="Path 4158" d="M87.005,141.262a1.432,1.432,0,0,0-.062,1.4,1.121,1.121,0,0,0,1.032.82,1.1,1.1,0,0,0,1.1-.75,1.647,1.647,0,0,0-.252-1.657,1.2,1.2,0,0,0-1.817.182" transform="translate(-45.975 -77.4)" fill="#fff"/>
        <path id="Path_4159" data-name="Path 4159" d="M88.3,149.757c-.065-1.363-2.276-1.454-2.2-.089s2.262,1.46,2.2.089" transform="translate(-45.592 -81.771)" fill="#fff"/>
        <path id="Path_4160" data-name="Path 4160" d="M86.638,158.1c.137.991,1.7.832,1.811-.1a1.131,1.131,0,0,0-.874-1.759,1.12,1.12,0,0,0-.946,1.8Z" transform="translate(-45.761 -85.926)" fill="#fff"/>
        <path id="Path_4161" data-name="Path 4161" d="M86.712,166.285c.06,1.409,2.351,1.542,2.29.118s-2.35-1.536-2.29-.118" transform="translate(-45.931 -90.895)" fill="#fff"/>
        <path id="Path_4162" data-name="Path 4162" d="M89.253,173.259c-.072-1.712-2.84-1.868-2.766-.155.056,1.7,2.817,1.876,2.766.155" transform="translate(-45.807 -94.532)" fill="#fff"/>
        <path id="Path_4163" data-name="Path 4163" d="M88.7,180.459a1.434,1.434,0,0,0-.1,1.4,1.115,1.115,0,0,0,2.127.119,1.643,1.643,0,0,0-.205-1.663,1.2,1.2,0,0,0-1.821.141" transform="translate(-46.897 -98.969)" fill="#fff"/>
        <path id="Path_4164" data-name="Path 4164" d="M89.779,188.975c-.041-1.363-2.244-1.505-2.2-.137s2.244,1.509,2.2.137" transform="translate(-46.407 -103.323)" fill="#fff"/>
        <path id="Path_4165" data-name="Path 4165" d="M88.006,197.289c.125.995,1.694.865,1.813-.064a1.137,1.137,0,0,0-.852-1.775A1.113,1.113,0,0,0,88,197.23Z" transform="translate(-46.518 -107.485)" fill="#fff"/>
        <path id="Path_4166" data-name="Path 4166" d="M90.238,205.627c-.027-1.415-2.313-1.578-2.286-.157s2.313,1.581,2.286.157" transform="translate(-46.614 -112.453)" fill="#fff"/>
        <path id="Path_4167" data-name="Path 4167" d="M90.321,212.489c-.032-1.711-2.8-1.912-2.762-.194s2.795,1.915,2.762.194" transform="translate(-46.398 -116.095)" fill="#fff"/>
        <path id="Path_4168" data-name="Path 4168" d="M89.685,219.681a1.434,1.434,0,0,0-.116,1.4,1.115,1.115,0,0,0,1,.857,1.1,1.1,0,0,0,1.126-.711,1.642,1.642,0,0,0-.187-1.664,1.2,1.2,0,0,0-1.823.116" transform="translate(-47.434 -120.546)" fill="#fff"/>
        <path id="Path_4169" data-name="Path 4169" d="M90.674,228.205c-.027-1.363-2.228-1.533-2.2-.164s2.229,1.535,2.2.164" transform="translate(-46.9 -124.89)" fill="#fff"/>
        <path id="Path_4170" data-name="Path 4170" d="M88.788,236.5c.109,1,1.679.88,1.814-.046a1.133,1.133,0,0,0-.825-1.784,1.118,1.118,0,0,0-1,1.773Z" transform="translate(-46.954 -129.055)" fill="#fff"/>
        <path id="Path_4171" data-name="Path 4171" d="M90.925,244.859c-.021-1.414-2.306-1.6-2.285-.173s2.307,1.6,2.285.173" transform="translate(-46.992 -134.024)" fill="#fff"/>
        <path id="Path_4172" data-name="Path 4172" d="M90.978,251.723c-.025-1.709-2.787-1.929-2.762-.21s2.787,1.93,2.762.21" transform="translate(-46.759 -137.666)" fill="#fff"/>
        <path id="Path_4173" data-name="Path 4173" d="M90.31,258.911a1.433,1.433,0,0,0-.122,1.4,1.115,1.115,0,0,0,1,.86,1.1,1.1,0,0,0,1.128-.706,1.642,1.642,0,0,0-.18-1.663,1.2,1.2,0,0,0-1.824.108" transform="translate(-47.777 -142.123)" fill="#fff"/>
        <path id="Path_4174" data-name="Path 4174" d="M91.278,267.435c-.023-1.36-2.225-1.537-2.2-.166s2.225,1.535,2.2.166" transform="translate(-47.232 -146.464)" fill="#fff"/>
        <path id="Path_4175" data-name="Path 4175" d="M90.381,273.9a1.118,1.118,0,0,0-.992,1.775l.007.058c.112,1,1.682.877,1.814-.05a1.134,1.134,0,0,0-.829-1.783" transform="translate(-47.287 -150.629)" fill="#fff"/>
        <path id="Path_4176" data-name="Path 4176" d="M107.486,129.693a1.117,1.117,0,0,0,.989.877,1.1,1.1,0,0,0,1.135-.7,3.451,3.451,0,0,0,.142-.888q-1-.43-2.029-.8c-.036.034-.073.064-.105.1a1.464,1.464,0,0,0-.132,1.416" transform="translate(-57.292 -70.49)" fill="#fff"/>
        <path id="Path_4177" data-name="Path 4177" d="M108.512,136.438c-.01-1.376-2.21-1.572-2.2-.187s2.209,1.572,2.2.187" transform="translate(-56.711 -74.41)" fill="#fff"/>
        <path id="Path_4178" data-name="Path 4178" d="M107.55,142.965a1.128,1.128,0,0,0-1.009,1.783l.006.059c.1,1.008,1.673.9,1.814-.032a1.147,1.147,0,0,0-.811-1.809" transform="translate(-56.724 -78.62)" fill="#fff"/>
        <path id="Path_4179" data-name="Path 4179" d="M106.34,153.074c.01,1.429,2.294,1.63,2.284.192s-2.294-1.63-2.284-.192" transform="translate(-56.726 -83.641)" fill="#fff"/>
        <path id="Path_4180" data-name="Path 4180" d="M108.623,160.2c-.012-1.726-2.772-1.969-2.76-.231s2.773,1.968,2.76.231" transform="translate(-56.464 -87.321)" fill="#fff"/>
        <path id="Path_4181" data-name="Path 4181" d="M107.9,167.46a1.463,1.463,0,0,0-.132,1.416,1.112,1.112,0,0,0,2.124.167,1.673,1.673,0,0,0-.168-1.683,1.194,1.194,0,0,0-1.824.1" transform="translate(-57.449 -91.83)" fill="#fff"/>
        <path id="Path_4182" data-name="Path 4182" d="M106.6,175.9c.01,1.376,2.21,1.566,2.2.182s-2.209-1.567-2.2-.182" transform="translate(-56.868 -96.211)" fill="#fff"/>
        <path id="Path_4183" data-name="Path 4183" d="M107.836,182.607a1.13,1.13,0,0,0-1.009,1.785l.006.059c.1,1.008,1.674.9,1.815-.036a1.146,1.146,0,0,0-.811-1.807" transform="translate(-56.881 -100.421)" fill="#fff"/>
        <path id="Path_4184" data-name="Path 4184" d="M108.909,192.9c-.011-1.428-2.3-1.625-2.285-.187s2.294,1.624,2.285.187" transform="translate(-56.883 -105.442)" fill="#fff"/>
        <path id="Path_4185" data-name="Path 4185" d="M108.909,199.84c-.012-1.726-2.772-1.962-2.76-.224s2.772,1.961,2.76.224" transform="translate(-56.621 -109.122)" fill="#fff"/>
        <path id="Path_4186" data-name="Path 4186" d="M110.18,208.679a1.671,1.671,0,0,0-.168-1.681,1.194,1.194,0,0,0-1.824.1,1.466,1.466,0,0,0-.132,1.416,1.111,1.111,0,0,0,2.124.162" transform="translate(-57.606 -113.63)" fill="#fff"/>
        <path id="Path_4187" data-name="Path 4187" d="M106.882,215.54c.01,1.376,2.21,1.561,2.2.177s-2.21-1.562-2.2-.177" transform="translate(-57.024 -118.012)" fill="#fff"/>
        <path id="Path_4188" data-name="Path 4188" d="M108.121,222.247a1.132,1.132,0,0,0-1.009,1.787l.006.059c.1,1.008,1.674.895,1.815-.041a1.144,1.144,0,0,0-.811-1.806" transform="translate(-57.037 -122.221)" fill="#fff"/>
        <path id="Path_4189" data-name="Path 4189" d="M109.194,232.543c-.01-1.429-2.294-1.619-2.284-.181s2.294,1.619,2.284.181" transform="translate(-57.04 -127.243)" fill="#fff"/>
        <path id="Path_4190" data-name="Path 4190" d="M109.219,239.479c-.024-1.726-2.785-1.956-2.762-.218s2.786,1.956,2.762.218" transform="translate(-56.791 -130.923)" fill="#fff"/>
        <path id="Path_4191" data-name="Path 4191" d="M108.547,246.74a1.46,1.46,0,0,0-.122,1.416,1.118,1.118,0,0,0,.994.871,1.1,1.1,0,0,0,1.131-.711,1.672,1.672,0,0,0-.179-1.681,1.193,1.193,0,0,0-1.824.106" transform="translate(-57.806 -135.428)" fill="#fff"/>
        <path id="Path_4192" data-name="Path 4192" d="M109.5,255.354c-.019-1.376-2.22-1.559-2.2-.175s2.221,1.559,2.2.175" transform="translate(-57.251 -139.811)" fill="#fff"/>
        <path id="Path_4193" data-name="Path 4193" d="M107.588,263.733c.108,1.007,1.679.894,1.814-.042a1.148,1.148,0,0,0-.823-1.8,1.127,1.127,0,0,0-1,1.788Z" transform="translate(-57.293 -144.021)" fill="#fff"/>
        <path id="Path_4194" data-name="Path 4194" d="M107.433,272c.02,1.429,2.306,1.619,2.286.181s-2.306-1.618-2.286-.181" transform="translate(-57.327 -149.041)" fill="#fff"/>
        <path id="Path_4195" data-name="Path 4195" d="M107.487,278.172q.61-.213,1.21-.45a1.285,1.285,0,0,0-1.21.45" transform="translate(-57.357 -152.726)" fill="#fff"/>
        <path id="Path_4196" data-name="Path 4196" d="M126.715,140.514c-.048-1.466-2.253-1.617-2.2-.145s2.252,1.621,2.2.145" transform="translate(-66.719 -76.628)" fill="#fff"/>
        <path id="Path_4197" data-name="Path 4197" d="M125.939,147.479a1.2,1.2,0,0,0-.96,1.917l.008.063c.13,1.07,1.7.928,1.813-.069a1.242,1.242,0,0,0-.861-1.91" transform="translate(-66.853 -81.104)" fill="#fff"/>
        <path id="Path_4198" data-name="Path 4198" d="M125,158.257c.049,1.518,2.339,1.7,2.289.168s-2.339-1.7-2.289-.168" transform="translate(-66.988 -86.448)" fill="#fff"/>
        <path id="Path_4199" data-name="Path 4199" d="M127.427,165.806c-.027-1.84-2.789-2.059-2.762-.212s2.79,2.064,2.762.212" transform="translate(-66.804 -90.363)" fill="#fff"/>
        <path id="Path_4200" data-name="Path 4200" d="M126.77,173.543a1.644,1.644,0,0,0-.12,1.508,1.143,1.143,0,0,0,1,.923,1.1,1.1,0,0,0,1.129-.762,1.88,1.88,0,0,0-.182-1.791,1.148,1.148,0,0,0-1.824.123" transform="translate(-67.828 -95.153)" fill="#fff"/>
        <path id="Path_4201" data-name="Path 4201" d="M127.734,182.715c-.022-1.467-2.223-1.654-2.2-.181s2.224,1.656,2.2.181" transform="translate(-67.281 -99.825)" fill="#fff"/>
        <path id="Path_4202" data-name="Path 4202" d="M125.845,191.635c.111,1.072,1.681.954,1.814-.042a1.24,1.24,0,0,0-.827-1.923,1.2,1.2,0,0,0-.994,1.9Z" transform="translate(-67.333 -104.306)" fill="#fff"/>
        <path id="Path_4203" data-name="Path 4203" d="M127.992,200.634c-.022-1.523-2.309-1.73-2.286-.2s2.309,1.733,2.286.2" transform="translate(-67.376 -109.65)" fill="#fff"/>
        <path id="Path_4204" data-name="Path 4204" d="M128.02,208.02c-.009-1.839-2.768-2.1-2.76-.249s2.768,2.1,2.76.249" transform="translate(-67.131 -113.567)" fill="#fff"/>
        <path id="Path_4205" data-name="Path 4205" d="M129.269,217.439a1.881,1.881,0,0,0-.163-1.793,1.148,1.148,0,0,0-1.825.1,1.643,1.643,0,0,0-.136,1.507,1.144,1.144,0,0,0,.987.935,1.1,1.1,0,0,0,1.137-.749" transform="translate(-68.105 -118.37)" fill="#fff"/>
        <path id="Path_4206" data-name="Path 4206" d="M125.954,224.721c.006,1.464,2.206,1.679,2.2.2s-2.206-1.677-2.2-.2" transform="translate(-67.513 -123.032)" fill="#fff"/>
        <path id="Path_4207" data-name="Path 4207" d="M126.161,233.765l.006.063c.1,1.073,1.671.969,1.814-.026a1.239,1.239,0,0,0-.807-1.93,1.2,1.2,0,0,0-1.014,1.892" transform="translate(-67.514 -127.514)" fill="#fff"/>
        <path id="Path_4208" data-name="Path 4208" d="M128.224,242.844c-.007-1.522-2.291-1.749-2.284-.219s2.29,1.75,2.284.219" transform="translate(-67.505 -132.858)" fill="#fff"/>
        <path id="Path_4209" data-name="Path 4209" d="M128.195,250.232c0-1.838-2.761-2.117-2.759-.267s2.761,2.116,2.759.267" transform="translate(-67.228 -136.776)" fill="#fff"/>
        <path id="Path_4210" data-name="Path 4210" d="M127.43,257.954a1.642,1.642,0,0,0-.14,1.507,1.145,1.145,0,0,0,.983.939,1.1,1.1,0,0,0,1.139-.744,1.877,1.877,0,0,0-.157-1.792,1.148,1.148,0,0,0-1.825.09" transform="translate(-68.185 -141.585)" fill="#fff"/>
        <path id="Path_4211" data-name="Path 4211" d="M126.074,266.925a1.26,1.26,0,0,0,.092.482c.566-.388,1.117-.794,1.658-1.214a1.029,1.029,0,0,0-1.75.732" transform="translate(-67.579 -146.244)" fill="#fff"/>
        <path id="Path_4212" data-name="Path 4212" d="M142.713,156.16a1.153,1.153,0,0,0,2.12.624c-.377-.56-.772-1.106-1.179-1.643a.921.921,0,0,0-.941,1.018" transform="translate(-76.729 -85.32)" fill="#fff"/>
        <path id="Path_4213" data-name="Path 4213" d="M143.222,165.149c.133,1.059,1.7.906,1.812-.082a1.223,1.223,0,0,0-.867-1.883,1.185,1.185,0,0,0-.954,1.9Z" transform="translate(-76.88 -89.741)" fill="#fff"/>
        <path id="Path_4214" data-name="Path 4214" d="M143.266,173.859c.054,1.5,2.344,1.655,2.289.142s-2.344-1.655-2.289-.142" transform="translate(-77.033 -95.029)" fill="#fff"/>
        <path id="Path_4215" data-name="Path 4215" d="M145.778,181.3c-.066-1.817-2.833-2-2.766-.171s2.833,2,2.766.171" transform="translate(-76.893 -98.902)" fill="#fff"/>
        <path id="Path_4216" data-name="Path 4216" d="M145.285,188.954a1.609,1.609,0,0,0-.088,1.494,1.142,1.142,0,0,0,1.016.9,1.1,1.1,0,0,0,1.112-.773,1.841,1.841,0,0,0-.22-1.767,1.156,1.156,0,0,0-1.821.151" transform="translate(-78.018 -103.623)" fill="#fff"/>
        <path id="Path_4217" data-name="Path 4217" d="M146.437,198.01c-.053-1.448-2.258-1.594-2.2-.136s2.258,1.593,2.2.136" transform="translate(-77.564 -108.257)" fill="#fff"/>
        <path id="Path_4218" data-name="Path 4218" d="M144.741,206.869c.133,1.059,1.7.9,1.812-.084a1.223,1.223,0,0,0-.867-1.882,1.186,1.186,0,0,0-.953,1.9Z" transform="translate(-77.715 -112.684)" fill="#fff"/>
        <path id="Path_4219" data-name="Path 4219" d="M144.784,215.578c.054,1.5,2.344,1.654,2.289.14s-2.345-1.653-2.289-.14" transform="translate(-77.868 -117.971)" fill="#fff"/>
        <path id="Path_4220" data-name="Path 4220" d="M147.3,223.013c-.066-1.816-2.833-2-2.766-.169s2.833,2,2.766.169" transform="translate(-77.728 -121.845)" fill="#fff"/>
        <path id="Path_4221" data-name="Path 4221" d="M146.8,230.673a1.608,1.608,0,0,0-.088,1.493,1.141,1.141,0,0,0,1.016.9,1.1,1.1,0,0,0,1.113-.775,1.839,1.839,0,0,0-.22-1.766,1.155,1.155,0,0,0-1.82.152" transform="translate(-78.853 -126.566)" fill="#fff"/>
        <path id="Path_4222" data-name="Path 4222" d="M147.955,239.728c-.053-1.449-2.258-1.592-2.2-.135s2.257,1.591,2.2.135" transform="translate(-78.4 -131.199)" fill="#fff"/>
        <path id="Path_4223" data-name="Path 4223" d="M146.05,248.055q.5-.7.971-1.426a1.165,1.165,0,0,0-.971,1.426" transform="translate(-78.552 -135.632)" fill="#fff"/>
        <path id="Path_4224" data-name="Path 4224" d="M78,120.173c4.15,1.977,3.157-6.137,2.837-8.092a.59.59,0,0,0-.424-.424,57.679,57.679,0,0,0-15.5-.828.612.612,0,0,0-.586.446c-.5,2.628-1.018,6.312,1.345,8.227,1.822,1.477,3.214-1.281,3.538-2.66H68.039c.65,3.84,4.844,3.488,5.673-.055H72.541c.971,3.716,4.995,4.062,5.381-.1H76.708a4.646,4.646,0,0,0,.683,2.777.608.608,0,0,0,1.049-.613,2.841,2.841,0,0,1-.518-2.164c.029-.793-1.143-.766-1.214,0-.266,2.868-2.442,1.9-3-.218a.611.611,0,0,0-1.171,0c-.571,2.44-2.9,2.622-3.33.054-.1-.6-1.04-.56-1.171,0a4.563,4.563,0,0,1-.5,1.454c-1.018,2.033-2.129-1.031-2.267-1.59A11.761,11.761,0,0,1,65.5,111.6l-.586.446a58.654,58.654,0,0,1,14.548.653c.857.16.942,7.281-.85,6.428-.7-.335-1.32.712-.613,1.049" transform="translate(-33.389 -60.856)" fill="#fff"/>
        <path id="Path_4225" data-name="Path 4225" d="M29.318,123.613l-2.486.625c-.62.163-1.219.4-1.677.541l-.759.255c-.181.029-.375.058-.578.1l-.635.177c-.562.162-1.1.35-1.635.557l-.4.16-.378.194-.751.405c-.495.283-1,.554-1.49.877l-1.481,1.027-.663.452-.627.5-1.248.988-.167.121a5.555,5.555,0,0,0-.451.366l-1.578,1.347c-.642.569-1.329,1.3-2.1,2.051-.372.387-.719.82-1.091,1.243l-.556.645a7.3,7.3,0,0,0-.537.667l-1.014,1.375c-.163.23-.339.447-.489.68l-.433.694-.818,1.314c-.274.41-.455.841-.664,1.216-.387.766-.745,1.388-.937,1.851l-.307.724-.618,1q-.155.255-.3.529a6.486,6.486,0,0,0-.244.6,13,13,0,0,0-.443,1.581c-.053.251-.117.5-.163.757s-.086.537-.146.829c-1.3,5.979-2.19,11.6-.609,17.412a40.912,40.912,0,0,0,1.73,4.917,44.155,44.155,0,0,0,2.332,4.728c.3.571.664,1.108,1,1.67S6.633,179.88,7,180.423c0,0,.144.2.4.548s.613.854,1.1,1.418a35.382,35.382,0,0,0,3.73,3.952A34.808,34.808,0,0,0,16.5,189.7c.608.426,1.142.738,1.512.962l.581.352c.862.532,1.73,1.06,2.6,1.5a12.63,12.63,0,0,0,1.162.568c.392.171.778.341,1.167.5.791.275,1.559.571,2.345.768a40.629,40.629,0,0,0,4.632.984s.14.029.345.056l.755.111.756.111.074.011.083.009.111.011.1.009c.483.058.963.121,1.444.195l1.866.228c.682.059,1.379.083,1.945.079.406-.021.817-.075,1.224-.128s.813-.113,1.208-.179a19.869,19.869,0,0,0,2.042-.216l1.022-.086.92-.121c.316-.051.658-.1,1.054-.2s.848-.228,1.4-.4c.026-.11.289-.251.427-.382l.384-.132,1.072-.205c.356-.085.71-.167,1.044-.234a9.837,9.837,0,0,0,.886-.516,14.008,14.008,0,0,0,5.711-2.833c.486-.261.947-.586,1.439-.917a17.963,17.963,0,0,0,1.631-1.327c.473-.455.912-.9,1.37-1.359l.41-.372c.327-.271.643-.524.937-.777s.566-.5.842-.732A16.232,16.232,0,0,1,64.61,183.8c.167-.244.308-.494.457-.732a15.09,15.09,0,0,0,2.152-2.74,9.888,9.888,0,0,0,1.3-2.761c.029-.041.05-.082.077-.126l.74-1.239a12.937,12.937,0,0,0,2.09-4.335,24.619,24.619,0,0,0,.8-2.419c.256-1.014.508-2.03.686-3.091l.143-.789.1-.774.1-.776.025-.194c.014-.1.014-.144.022-.219l.035-.4a37.621,37.621,0,0,0,.052-6.515c-.036-.391-.073-.791-.108-1.19a21.561,21.561,0,0,0-.33-2.955,13.016,13.016,0,0,0-.414-1.636,30.155,30.155,0,0,0-1.117-3.8,23.687,23.687,0,0,0-1.608-3.424l-.055-.114c-.138-.314-.272-.631-.417-.942l-.458-.925c.008-.083.1-.021.084-.135-.334-.578-.743-1.145-1.117-1.745-.415-.574-.793-1.189-1.212-1.775-.093-.145.1-.045.1-.085-.916-1.036-1.3-1.627-.894-1.637-.153-.126-.385-.366-.622-.61s-.5-.475-.671-.613a12.336,12.336,0,0,0-2.643-2.965,25.454,25.454,0,0,0-3.8-2.75,31.63,31.63,0,0,0-4.26-2.773c-2.7-1.415-3.941-1.73-4.208-1.459l-.587-.221c-.356-.125-.841-.276-1.322-.434s-.955-.275-1.315-.38l-.6-.164-.092.335-.078-.026a.856.856,0,0,1,.063.082l-.165.6.251.069a.8.8,0,0,1-.09.109c.559.152,1.112.272,1.61.423s.987.283,1.459.441l1.392.5c.451.188.9.379,1.354.581,2,1.15,4.132,2.387,6.223,3.855.632.448,1.253.962,1.947,1.533a38.894,38.894,0,0,1,3.332,3.218,34.655,34.655,0,0,1,2.875,3.643c.923,1.356,1.77,3.043,2.573,4.4.1.173.2.31.293.458a38.7,38.7,0,0,1,2.926,8.488s.09.483.177.967.138.973.138.973c0,.195,0,.4,0,.577-.025.666-.063,1.261-.072,1.834-.04.575-.054,1.127-.067,1.706-.063,1.158-.061,2.425-.226,4.166l-.065.724-.108.766c-.074.51-.14,1.035-.249,1.517s-.185.985-.317,1.481-.262.992-.393,1.49a35.2,35.2,0,0,1-2.275,5.769,45.224,45.224,0,0,1-6.865,9.949,32.968,32.968,0,0,1-3.187,3.122l-.445.333c-.279.219-.7.5-1.2.837a35.173,35.173,0,0,1-3.842,2.236,36.14,36.14,0,0,1-4.091,1.737c-.568.214-1.058.342-1.393.455l-.53.167a13.438,13.438,0,0,0-2.03.477c-.131-.162-.668-.18-1.43-.108-.769.034-1.764.173-2.828.251-2.122.2-4.5.254-5.682.256-.1.041.006.092-.083.135-.318-.006-.68-.052-1.077-.079s-.84-.05-1.262-.116l-1.416-.187c-.471-.08-.938-.174-1.4-.261a19.469,19.469,0,0,1-4.361-1.353c-.424-.084-.894-.181-1.337-.308s-.872-.252-1.241-.33c0,0-.189-.071-.46-.207l-1-.48c-.369-.166-.718-.37-.986-.511l-.445-.241a12.844,12.844,0,0,1-1.066-1.034c-.171-.174-.349-.349-.549-.527s-.406-.386-.655-.591a2.679,2.679,0,0,1-1-.311,14.725,14.725,0,0,1-1.326-.791c-.455-.331-.924-.7-1.365-1.052l-1.156-1.048c-.3-.282-.65-.67-1.047-1.087s-.789-.91-1.2-1.365c-.033-.08-.046-.139-.012-.153-.322-.426-.641-.829-.973-1.222s-.635-.81-.963-1.231a.944.944,0,0,1,.149.1c-.444-.635-.811-1.224-1.179-1.65a3.1,3.1,0,0,0-.9-.868l-.242-.4c-.125-.2-.229-.4-.229-.4-.333-.762-.6-1.433-.843-2.14-.269-.693-.5-1.419-.852-2.258a43.62,43.62,0,0,1-1.957-5.618c-.282-1.11-.416-1.861-.594-2.561,0,0-.028-.145-.052-.4s-.067-.624-.114-1.064-.074-.956-.108-1.509-.046-1.143-.046-1.733c0-.295-.01-.59,0-.881s.025-.576.038-.853.023-.544.035-.8.045-.491.066-.712c.042-.441.077-.808.1-1.065.024-.222.061-.4.057-.388.2-.863.369-1.7.527-2.525.215-.8.423-1.576.619-2.368a37.278,37.278,0,0,1,1.732-4.87c.09-.211.185-.432.282-.66s.232-.446.351-.678c.242-.46.491-.939.739-1.41.226-.485.524-.922.763-1.361s.464-.852.641-1.234l.027-.061a2.524,2.524,0,0,1,.169-.257l.518-.7a27.971,27.971,0,0,1,1.927-2.442,35.338,35.338,0,0,1,7.02-6.277,35.727,35.727,0,0,1,8.439-4.176c.613-.2,1.166-.41,1.671-.544l1.314-.33,1.145-.288ZM65.8,137.128l-.728-.915c-.177-.232-.375-.448-.518-.614l-.24-.275-.019-.078.243.288c.143.175.346.4.526.64l.735.954m-5.6-5.993a.159.159,0,0,1,.009.016l-.157-.138Z" transform="translate(1.755 -67.98)" fill="#fff"/>
        <path id="Path_4226" data-name="Path 4226" d="M78.574,101.788c2.222-.967,2.555-3.382,2.158-5.539a4.675,4.675,0,0,0-4.465-3.881,6.394,6.394,0,0,0-5.676,2.744c-1.641,2.428-.121,5.642,2.393,6.606.733.281,1.046-.894.323-1.171-2.554-.979-2.681-4.1-.817-5.779a5.42,5.42,0,0,1,4.341-1.117c3.084.5,4.1,5.792,1.13,7.087-.716.312-.1,1.358.613,1.049" transform="translate(-36.691 -50.785)" fill="#fff"/>
        <path id="Path_4227" data-name="Path 4227" d="M78.694,103.412c3.043.8,4.477-4.789,1.5-5.677-1.918-.571-3.552,1.3-3.719,3.106-.116,1.249,1.2,2.187,2.222,2.571.734.276,1.048-.9.323-1.171a2.811,2.811,0,0,1-1.2-.906c-.6-.91.826-2.652,1.8-2.5,1.765.273.978,3.827-.606,3.408a.608.608,0,0,0-.323,1.171" transform="translate(-40.297 -53.691)" fill="#fff"/>
        <path id="Path_4228" data-name="Path 4228" d="M80.957.007a155.2,155.2,0,0,1,.811,21.32c-.043,3.825-.219,7.712-.389,11.471-.2,4.357-.4,8.862-.4,13.324h1.369c0-4.432.2-8.921.4-13.263.171-3.77.347-7.668.39-11.516A156.363,156.363,0,0,0,82.382.007c-.461-.026-.964.028-1.425,0" transform="translate(-42.767 0)" fill="#fff"/>
        <path id="Path_4229" data-name="Path 4229" d="M44.643,67.827,44.31,66.7c1.06-.314,2.121-.552,3.148-.782,2.984-.67,5.8-1.3,8.051-3.657a23.26,23.26,0,0,0,2.468-3.29c.572-.863,1.162-1.752,1.832-2.58-2.921,2.211-5.558,4.019-9.97,3.156-2.479-.485-5.822-2.155-7.3-4.675a4.993,4.993,0,0,1-.486-4.235C42.9,48.03,45.62,46.967,49.5,47.72c4.256.826,9.07,3.7,10.87,6.777,3.1-2.218,11.938-6.422,16.467-4.21,1.722.841,2.615,2.471,2.652,4.844a6.058,6.058,0,0,1-3.383,5.433c-3.767,2.195-9.928,2.3-13.453.225a5.248,5.248,0,0,1-2.5-2.917c-.418.572-.812,1.167-1.2,1.749a24.5,24.5,0,0,1-2.6,3.452c-2.493,2.61-5.479,3.281-8.642,3.991-1.007.226-2.049.46-3.071.763m16.5-12.44-.02,1.056a3.71,3.71,0,0,0,2.127,3.335c3.149,1.851,8.881,1.744,12.267-.228a5.021,5.021,0,0,0,2.8-4.4c-.03-1.923-.682-3.168-1.994-3.809-3.807-1.86-12.074,1.861-15.18,4.046M47.194,48.656c-1.658,0-3.417.483-4.026,2.347a3.864,3.864,0,0,0,.383,3.277c1.238,2.108,4.214,3.667,6.514,4.117,4.074.8,6.314-.871,9.378-3.2-1.5-2.744-6.2-5.558-10.161-6.326a11.158,11.158,0,0,0-2.088-.216" transform="translate(-21.226 -26.113)" fill="#fff"/>
        <path id="Path_4230" data-name="Path 4230" d="M104.358,83.014c-5.486,0-13.842-3.461-17.617-7.313a14.114,14.114,0,0,1-2.163-3.286,8.548,8.548,0,0,0-1.946-2.807l.683-.954a9.205,9.205,0,0,1,2.3,3.209A13.249,13.249,0,0,0,87.58,74.88c3.621,3.7,11.682,7.016,16.9,6.961l.011,1.173h-.131" transform="translate(-43.688 -37.755)" fill="#fff"/>
      </g>
    </g>
  </g>
</svg>
