<svg xmlns="http://www.w3.org/2000/svg" xmlns:xlink="http://www.w3.org/1999/xlink" width="340" height="118" viewBox="0 0 340 118">
  <defs>
    <clipPath id="clip-path">
      <rect id="Rectangle_541" data-name="Rectangle 541" width="340" height="118" transform="translate(11 56)" fill="#fff" stroke="#707070" stroke-width="1"/>
    </clipPath>
    <clipPath id="clip-path-2">
      <rect id="Rectangle_539" data-name="Rectangle 539" width="49.004" height="123.094" fill="none"/>
    </clipPath>
    <clipPath id="clip-path-3">
      <rect id="Rectangle_547" data-name="Rectangle 547" width="44.281" height="87.149" transform="translate(0 -13)" fill="none"/>
    </clipPath>
  </defs>
  <g id="Mask_Group_816" data-name="Mask Group 816" transform="translate(-11 -56)" clip-path="url(#clip-path)">
    <g id="Group_926" data-name="Group 926" transform="translate(27.996 33.424)">
      <g id="Group_925" data-name="Group 925" clip-path="url(#clip-path-2)">
        <path id="Path_3635" data-name="Path 3635" d="M59.028,328.885a24.689,24.689,0,0,0-6.965-16.122,19.442,19.442,0,0,0-4.54-3.457c-.914-.491-5.473-2.028-5.678-2.233-.6-.6.072-2.132-.306-2.865s-1.778-.751-2.487-.871c-.269-.045-.449.04-.661-.154.166-.359.534-.67.675-1.042a5.017,5.017,0,0,0,.249-1.679,2.952,2.952,0,0,0-1.493-2.363,4.1,4.1,0,0,0-2.923.121,4.825,4.825,0,0,0-1.866,1.744c-.31.912.32,2.008.808,2.737-.871.062-2-.117-2.3.435-.459.855-.155,2.122-.247,3.047-.07.7-.295.464-.874.558A34.823,34.823,0,0,0,25.88,308.3a25.128,25.128,0,0,0-4.726,3.358,35.877,35.877,0,0,0-4.089,4.663,30.783,30.783,0,0,0-3.933,11.569,15.657,15.657,0,0,0,.7,6.841,53.837,53.837,0,0,0,2.844,6.405,24.009,24.009,0,0,0,2.985,3.545c5.179,6.295,13.131,6.969,17.04,7.342a15.258,15.258,0,0,0,6.047-.67,44.181,44.181,0,0,0,4.823-2.691c1.388-.909,2.595-2.071,4-2.985,1.261-.823,5.028-6.5,5.347-7.214a37.913,37.913,0,0,0,1.554-4.6,18.283,18.283,0,0,0,.56-4.975M37.012,301.956l-.187.062c-.363.512-1.7.153-1.943-.482a1.983,1.983,0,0,1,.651-2.116c.527-.3,1.726-.167,1.992.42a2.076,2.076,0,0,1-.513,2.116" transform="translate(-10.03 -228.992)" fill="#97c935"/>
        <path id="Path_3636" data-name="Path 3636" d="M87.542,316.923c2.624,1.25,2-3.88,1.794-5.116a.372.372,0,0,0-.268-.268,36.455,36.455,0,0,0-9.8-.523.387.387,0,0,0-.37.282c-.313,1.662-.644,3.991.85,5.2,1.152.934,2.032-.81,2.237-1.682h-.74c.411,2.428,3.062,2.2,3.587-.035h-.74c.614,2.349,3.158,2.568,3.4-.066h-.768a2.939,2.939,0,0,0,.432,1.755.384.384,0,0,0,.663-.388,1.8,1.8,0,0,1-.327-1.368c.018-.5-.723-.485-.768,0-.169,1.813-1.544,1.2-1.894-.138a.387.387,0,0,0-.74,0c-.361,1.543-1.831,1.658-2.106.035-.065-.38-.657-.355-.74,0a2.9,2.9,0,0,1-.317.919c-.644,1.286-1.346-.652-1.434-1.005a7.445,7.445,0,0,1,.145-3.025l-.37.282a37.068,37.068,0,0,1,9.2.413c.542.1.6,4.6-.537,4.064-.445-.212-.835.45-.388.663" transform="translate(-60.448 -239.009)" fill="#fff"/>
        <path id="Path_3637" data-name="Path 3637" d="M18.536,326.848l-1.572.395c-.392.1-.771.251-1.061.342l-.48.161c-.114.018-.237.037-.365.065l-.4.112c-.355.1-.7.221-1.034.352l-.25.1-.24.123-.475.256c-.313.179-.633.35-.942.555l-.937.649-.419.285-.4.315-.789.625-.1.077a3.358,3.358,0,0,0-.285.231l-1,.852c-.406.36-.84.823-1.326,1.3-.235.244-.455.519-.69.786l-.352.408a4.63,4.63,0,0,0-.34.422l-.641.87c-.1.145-.215.282-.309.429l-.274.438-.517.83c-.173.259-.288.533-.419.77-.245.484-.471.878-.593,1.17l-.194.458-.391.633c-.065.108-.129.219-.192.335a3.964,3.964,0,0,0-.154.38,8.187,8.187,0,0,0-.28,1c-.034.158-.074.313-.1.479s-.055.339-.093.524c-.823,3.78-1.384,7.333-.385,11.009a25.9,25.9,0,0,0,1.094,3.109A27.966,27.966,0,0,0,3.1,360.68c.188.361.42.7.63,1.056s.461.687.691,1.03c0,0,.091.127.255.346s.388.54.693.9a22.388,22.388,0,0,0,2.358,2.5,22,22,0,0,0,2.7,2.122c.385.269.722.467.956.608l.368.223c.545.337,1.094.67,1.643.949a7.819,7.819,0,0,0,.735.359c.247.108.492.216.738.314.5.174.986.361,1.483.485a25.622,25.622,0,0,0,2.929.623s.088.018.218.036l.478.07.478.07.047.007.052.006.07.007.061.006c.306.037.609.076.913.123l1.18.144c.431.037.872.053,1.229.05.257-.013.516-.048.774-.081s.514-.071.764-.114a12.452,12.452,0,0,0,1.291-.136l.646-.054.583-.077c.2-.032.416-.061.666-.123s.537-.144.883-.25c.016-.07.183-.16.27-.241l.243-.084.678-.129c.225-.054.45-.106.66-.148a6.2,6.2,0,0,0,.56-.326,8.855,8.855,0,0,0,3.61-1.791c.307-.165.6-.37.91-.58a11.309,11.309,0,0,0,1.031-.839c.3-.287.577-.569.866-.859l.259-.235c.207-.172.407-.331.592-.491s.358-.318.532-.462a10.171,10.171,0,0,1,1.025-.782c.106-.155.194-.312.289-.463a9.488,9.488,0,0,0,1.361-1.732,6.243,6.243,0,0,0,.821-1.745c.019-.027.032-.052.049-.08l.468-.783a8.178,8.178,0,0,0,1.321-2.741,15.513,15.513,0,0,0,.506-1.529c.162-.641.321-1.284.434-1.954l.09-.5.066-.489.065-.491.016-.123c.009-.066.009-.091.014-.138l.022-.253a23.778,23.778,0,0,0,.033-4.119c-.023-.247-.046-.5-.069-.752a13.632,13.632,0,0,0-.209-1.868,8.184,8.184,0,0,0-.262-1.035,19.093,19.093,0,0,0-.706-2.4,15.042,15.042,0,0,0-1.017-2.165l-.035-.072c-.087-.2-.172-.4-.264-.6l-.29-.585c0-.052.061-.013.053-.085-.211-.366-.469-.724-.706-1.1-.263-.363-.5-.752-.766-1.122-.059-.092.065-.028.06-.053-.579-.655-.822-1.029-.565-1.035-.1-.08-.243-.231-.393-.386s-.315-.3-.424-.388a7.8,7.8,0,0,0-1.671-1.874,16.109,16.109,0,0,0-2.405-1.739,20.055,20.055,0,0,0-2.693-1.753c-1.705-.895-2.491-1.093-2.66-.922l-.372-.14c-.225-.079-.532-.175-.836-.275s-.6-.173-.831-.24l-.377-.1-.058.212-.049-.016a.587.587,0,0,1,.04.052l-.1.379.159.044a.528.528,0,0,1-.057.069c.353.1.7.172,1.018.267s.624.179.922.279l.88.313c.286.118.569.24.856.368,1.267.727,2.613,1.509,3.934,2.438.4.283.792.608,1.231.969a24.631,24.631,0,0,1,2.107,2.034,21.881,21.881,0,0,1,1.818,2.3c.584.857,1.119,1.924,1.627,2.781.063.109.123.2.185.29a24.422,24.422,0,0,1,1.85,5.366s.056.305.112.611.087.616.087.616c0,.123,0,.25,0,.365-.016.42-.04.8-.045,1.16-.025.364-.034.713-.042,1.079-.04.732-.038,1.533-.143,2.634l-.041.458-.068.485c-.047.323-.089.654-.158.959s-.117.623-.2.936-.166.628-.249.943a22.265,22.265,0,0,1-1.439,3.647A28.582,28.582,0,0,1,38.8,365.4a20.8,20.8,0,0,1-2.015,1.974l-.282.21c-.176.139-.442.315-.761.529a22.237,22.237,0,0,1-2.429,1.414,22.78,22.78,0,0,1-2.587,1.1c-.358.136-.669.216-.88.288l-.335.105a8.43,8.43,0,0,0-1.284.3c-.083-.1-.422-.114-.9-.068-.486.022-1.115.11-1.788.159-1.342.127-2.847.16-3.593.161-.066.026,0,.058-.052.086-.2,0-.43-.032-.681-.05s-.531-.031-.8-.074l-.895-.118c-.3-.05-.593-.11-.888-.165a12.28,12.28,0,0,1-2.758-.855c-.268-.053-.565-.114-.845-.195s-.551-.159-.784-.209c0,0-.12-.044-.292-.13l-.633-.3c-.233-.105-.454-.234-.623-.324l-.281-.152a8.081,8.081,0,0,1-.674-.654c-.108-.11-.221-.22-.347-.333s-.256-.244-.413-.373a1.7,1.7,0,0,1-.635-.2,9.133,9.133,0,0,1-.839-.5c-.288-.21-.584-.44-.863-.665L7.91,365.7c-.187-.178-.411-.424-.662-.688s-.5-.575-.759-.863c-.021-.051-.029-.088-.008-.1-.2-.27-.405-.524-.615-.773s-.4-.512-.608-.778a.58.58,0,0,1,.094.065c-.281-.4-.512-.774-.746-1.043a1.944,1.944,0,0,0-.571-.548l-.152-.251c-.079-.124-.145-.255-.145-.255-.21-.482-.38-.906-.532-1.353-.17-.438-.317-.9-.539-1.428a27.677,27.677,0,0,1-1.238-3.551c-.178-.7-.263-1.176-.376-1.619,0,0-.017-.092-.032-.254s-.042-.394-.072-.673-.047-.6-.068-.954-.029-.722-.029-1.1c0-.187-.006-.373,0-.557s.016-.364.024-.539.015-.344.022-.5.029-.311.042-.45c.027-.279.049-.511.064-.674.016-.14.039-.25.036-.245.124-.546.234-1.074.333-1.6.136-.5.268-1,.392-1.5a23.655,23.655,0,0,1,1.095-3.079l.179-.417c.064-.143.147-.282.222-.428l.467-.892c.143-.306.331-.583.482-.86s.294-.539.406-.781l.017-.038a1.524,1.524,0,0,1,.107-.163l.327-.444a17.527,17.527,0,0,1,1.218-1.544,22.328,22.328,0,0,1,4.438-3.969,22.587,22.587,0,0,1,5.336-2.64c.387-.125.736-.259,1.056-.343l.831-.209.724-.182ZM41.6,335.393l-.46-.578c-.112-.147-.237-.283-.327-.388l-.151-.174-.012-.049.154.182c.09.11.219.252.333.4l.465.6M38.063,331.6l.006.01-.1-.087Z" transform="translate(0 -251.263)" fill="#fff"/>
        <path id="Path_3638" data-name="Path 3638" d="M91.5,294.343c1.405-.612,1.615-2.139,1.364-3.5a2.956,2.956,0,0,0-2.823-2.454,4.042,4.042,0,0,0-3.588,1.735,2.885,2.885,0,0,0,1.513,4.177c.463.177.661-.565.2-.741a2.135,2.135,0,0,1-.516-3.654A3.426,3.426,0,0,1,90.4,289.2c1.949.318,2.595,3.662.714,4.481-.453.2-.061.858.388.663" transform="translate(-66.126 -221.686)" fill="#fff"/>
        <path id="Path_3639" data-name="Path 3639" d="M95.5,298.533c1.924.509,2.831-3.028.947-3.589-1.212-.361-2.246.825-2.352,1.964-.074.79.758,1.382,1.4,1.626.465.175.663-.568.2-.74a1.774,1.774,0,0,1-.756-.573c-.382-.575.522-1.677,1.139-1.582,1.116.172.618,2.419-.383,2.155a.384.384,0,0,0-.2.74" transform="translate(-72.329 -226.686)" fill="#fff"/>
        <path id="Path_3640" data-name="Path 3640" d="M87,24.136A223.4,223.4,0,0,1,85.15,0c-.289-.006-.521.007-.809,0a222.975,222.975,0,0,0,1.8,24.234l.134,1.144c1.089,9.317,2.214,18.951,2.107,28.516-.027,2.419-.139,4.876-.246,7.252-.125,2.754-.254,5.6-.254,8.424h.865c0-2.8.129-5.641.253-8.385.108-2.384.22-4.849.247-7.281.108-9.619-1.021-19.281-2.113-28.625Z" transform="translate(-64.837 0)" fill="#fff"/>
        <path id="Path_3641" data-name="Path 3641" d="M53.222,246.036l-.21-.711c.67-.2,1.341-.349,1.99-.495,1.887-.424,3.669-.824,5.09-2.312a14.707,14.707,0,0,0,1.56-2.08c.362-.546.735-1.108,1.159-1.632-1.847,1.4-3.514,2.541-6.3,2a7.294,7.294,0,0,1-4.616-2.956,3.159,3.159,0,0,1-.308-2.678c.539-1.649,2.256-2.321,4.712-1.845,2.691.522,5.735,2.338,6.873,4.285,1.959-1.4,7.548-4.06,10.411-2.662a3.154,3.154,0,0,1,1.677,3.063,3.829,3.829,0,0,1-2.139,3.435,9.45,9.45,0,0,1-8.505.143,3.316,3.316,0,0,1-1.583-1.844c-.264.362-.514.738-.758,1.106a15.459,15.459,0,0,1-1.643,2.183c-1.576,1.65-3.464,2.074-5.464,2.523-.637.143-1.3.291-1.943.482m10.434-7.865-.013.668a2.347,2.347,0,0,0,1.345,2.108,8.757,8.757,0,0,0,7.756-.144,3.176,3.176,0,0,0,1.771-2.782,2.44,2.44,0,0,0-1.261-2.408c-2.407-1.176-7.633,1.176-9.6,2.558m-8.821-4.256a2.394,2.394,0,0,0-2.546,1.483,2.445,2.445,0,0,0,.242,2.072,6.589,6.589,0,0,0,4.119,2.6c2.575.5,3.992-.551,5.929-2.022-.951-1.735-3.921-3.514-6.424-4a7.044,7.044,0,0,0-1.32-.137" transform="translate(-39.527 -179.251)" fill="#fff"/>
        <path id="Path_3642" data-name="Path 3642" d="M115.41,268.3a18.692,18.692,0,0,1-11.138-4.624A8.92,8.92,0,0,1,102.9,261.6a5.4,5.4,0,0,0-1.23-1.775l.432-.6a5.831,5.831,0,0,1,1.453,2.029,8.374,8.374,0,0,0,1.243,1.908,17.751,17.751,0,0,0,10.683,4.4l.007.742h-.082" transform="translate(-78.162 -199.277)" fill="#fff"/>
        <path id="Path_3643" data-name="Path 3643" d="M4.383,422.07l2.668-6.094.385-.88-.528-.069L9.9,422.142l.416.991c.081.193.419.328.528.069l3.028-7.163.432-1.021-.528-.069L16.75,422.1l.428,1.029c.081.194.419.328.528.069l3.029-7.164.431-1.021h-.5l3.086,7.1.429.989a.29.29,0,0,0,.5,0l2.979-7.01.426-1h-.5l3.038,7.116.423.99a.29.29,0,0,0,.5,0l3.08-7.172.435-1.013-.528-.069L37.47,422.2l.415,1.024a.292.292,0,0,0,.557,0l3.051-7.261.427-1.016-.528.069,3.009,7.11.433,1.022c.11.26.447.127.528-.069l3.142-7.54.44-1.056c.143-.343-.416-.493-.557-.154l-3.142,7.54-.44,1.056.528-.069-3.009-7.11-.433-1.022c-.11-.26-.446-.126-.528.069l-3.051,7.261-.427,1.016h.557l-2.936-7.253-.414-1.024c-.08-.2-.419-.325-.528-.069l-3.08,7.172-.435,1.013h.5l-3.037-7.116-.423-.991a.29.29,0,0,0-.5,0l-2.979,7.011-.426,1h.5l-3.085-7.1-.43-.989a.29.29,0,0,0-.5,0l-3.029,7.164-.432,1.021.528.069-2.977-7.155L14.33,414.8c-.081-.194-.419-.328-.528-.069l-3.028,7.163-.432,1.021.528.069-2.989-7.116-.416-.991c-.082-.2-.416-.326-.528-.069L4.269,420.9l-.385.88c-.148.338.35.632.5.292" transform="translate(-2.965 -318.37)" fill="#fff"/>
        <path id="Path_3644" data-name="Path 3644" d="M1.33,404.669,4.6,396.688l.457-1.115-.528.069,3,7.022.425,1a.29.29,0,0,0,.5,0l3.03-7.021.43-1-.528-.069,3.013,7.186.429,1.024a.292.292,0,0,0,.557,0L18.4,396.6l.429-1.024-.528.069,3.057,7.111.439,1.022a.29.29,0,0,0,.5,0l3-7.021.425-1h-.5l3.061,7.152.436,1.019c.111.259.447.128.528-.069l2.984-7.228.421-1.021h-.557l3,7.358.425,1.044a.292.292,0,0,0,.557,0l3.031-7.359.43-1.044h-.558l3.005,7.139.419.994c.082.2.417.327.528.069l2.936-6.784.417-.964c.146-.338-.352-.632-.5-.292l-2.936,6.784-.417.964.528.069-3.005-7.139-.418-.994a.292.292,0,0,0-.558,0l-3.03,7.359-.43,1.044h.557l-3-7.359-.426-1.044a.292.292,0,0,0-.557,0l-2.984,7.228-.421,1.02.528-.069-3.061-7.152-.436-1.019a.29.29,0,0,0-.5,0l-3,7.022-.425,1h.5l-3.057-7.11-.44-1.022c-.111-.259-.446-.127-.528.069L15.256,402.6l-.429,1.024h.557l-3.013-7.186-.429-1.024c-.082-.2-.417-.327-.528-.069l-3.03,7.022-.429,1h.5l-3-7.021-.425-1c-.11-.258-.447-.128-.528.069L1.23,403.4l-.457,1.115c-.141.344.418.494.557.154" transform="translate(-0.577 -303.813)" fill="#fff"/>
        <path id="Path_3645" data-name="Path 3645" d="M181.939,378.81a.8.8,0,0,0-.773.706.6.6,0,0,0,.668.714.746.746,0,0,0,.777-.76.63.63,0,0,0-.672-.66" transform="translate(-139.265 -291.209)" fill="#fff"/>
        <line id="Line_32" data-name="Line 32" x2="0.327" y2="0.019" transform="translate(40.318 88.527)" fill="#fff"/>
        <path id="Path_3646" data-name="Path 3646" d="M172.121,381.342a1.011,1.011,0,0,0,.942-.024.579.579,0,0,0,.012-.939.887.887,0,0,0-.794-.121.585.585,0,0,0-.52.484.574.574,0,0,0,.361.6" transform="translate(-132.038 -292.294)" fill="#fff"/>
        <path id="Path_3647" data-name="Path 3647" d="M165.394,378.9c-.771,0-.9,1.129-.114,1.13s.892-1.13.114-1.13" transform="translate(-126.652 -291.28)" fill="#fff"/>
        <line id="Line_33" data-name="Line 33" x2="0.328" y2="0.006" transform="translate(36.385 88.166)" fill="#fff"/>
        <path id="Path_3648" data-name="Path 3648" d="M155.646,379.836l.212.025-.421-.29a.624.624,0,1,0-.008-.383l.406-.3-.208.014a.472.472,0,0,0,.018.938" transform="translate(-119.319 -291.199)" fill="#fff"/>
        <path id="Path_3649" data-name="Path 3649" d="M146.892,378.385c-.782-.054-1.015,1.1-.193,1.163s.984-1.12.193-1.163" transform="translate(-112.378 -290.881)" fill="#fff"/>
        <path id="Path_3650" data-name="Path 3650" d="M138.687,377.171c-.939-.117-1.3,1.266-.31,1.39a.771.771,0,0,0,.882-.617.618.618,0,0,0-.571-.773" transform="translate(-105.925 -289.943)" fill="#fff"/>
        <line id="Line_34" data-name="Line 34" x2="0.326" y2="0.033" transform="translate(30.291 87.966)" fill="#fff"/>
        <path id="Path_3651" data-name="Path 3651" d="M128.733,378.943a1,1,0,0,0,.937.011.581.581,0,0,0,.053-.937.894.894,0,0,0-.791-.152.6.6,0,0,0-.539.463.565.565,0,0,0,.339.615" transform="translate(-98.697 -290.463)" fill="#fff"/>
        <path id="Path_3652" data-name="Path 3652" d="M122.132,376.109c-.786-.047-.952,1.079-.182,1.12s.971-1.071.182-1.12" transform="translate(-93.365 -289.132)" fill="#fff"/>
        <line id="Line_35" data-name="Line 35" x2="0.329" y2="0.01" transform="translate(26.372 87.44)" fill="#fff"/>
        <path id="Path_3653" data-name="Path 3653" d="M112.34,376.7c.07.008.14.015.21.025l-.417-.29a.64.64,0,0,0,1.211-.12c.1-.684-.99-.92-1.22-.263l.411-.305-.211.014a.472.472,0,0,0,.017.938" transform="translate(-86.027 -288.793)" fill="#fff"/>
        <path id="Path_3654" data-name="Path 3654" d="M103.536,375.455c-.811,0-.929,1.172-.124,1.173s.94-1.165.124-1.173" transform="translate(-79.077 -288.63)" fill="#fff"/>
        <path id="Path_3655" data-name="Path 3655" d="M95.235,374.946c-.977.01-1.106,1.429-.131,1.418s1.116-1.424.131-1.418" transform="translate(-72.596 -288.238)" fill="#fff"/>
        <line id="Line_36" data-name="Line 36" y1="0.005" x2="0.329" transform="translate(20.275 87.749)" fill="#fff"/>
        <path id="Path_3656" data-name="Path 3656" d="M85.463,377.942a1.017,1.017,0,0,0,.946-.094.58.58,0,0,0-.06-.937.889.889,0,0,0-.8-.061.6.6,0,0,0-.489.513.564.564,0,0,0,.4.58" transform="translate(-65.39 -289.653)" fill="#fff"/>
        <path id="Path_3657" data-name="Path 3657" d="M78.647,375.8c-.773.011-.879,1.142-.1,1.131s.876-1.143.1-1.131" transform="translate(-59.972 -288.898)" fill="#fff"/>
        <line id="Line_37" data-name="Line 37" y1="0.002" x2="0.329" transform="translate(16.325 87.493)" fill="#fff"/>
        <path id="Path_3658" data-name="Path 3658" d="M68.909,376.908l.212.019-.427-.28a.624.624,0,1,0-.018-.382l.4-.314c-.069.008-.139.014-.208.019a.472.472,0,0,0,.041.938" transform="translate(-52.631 -288.942)" fill="#fff"/>
        <path id="Path_3659" data-name="Path 3659" d="M60.107,375.767c-.8-.009-.941,1.162-.131,1.172s.938-1.164.131-1.172" transform="translate(-45.688 -288.869)" fill="#fff"/>
        <path id="Path_3660" data-name="Path 3660" d="M51.816,375.156c-.979-.007-1.128,1.41-.155,1.416s1.137-1.406.155-1.416" transform="translate(-39.208 -288.4)" fill="#fff"/>
        <line id="Line_38" data-name="Line 38" y1="0.004" x2="0.328" transform="translate(10.23 87.77)" fill="#fff"/>
        <path id="Path_3661" data-name="Path 3661" d="M42.034,378.034a1.01,1.01,0,0,0,.938-.09.58.58,0,0,0-.051-.937.889.889,0,0,0-.8-.065.593.593,0,0,0-.488.515.566.566,0,0,0,.4.577" transform="translate(-32.004 -289.725)" fill="#fff"/>
        <path id="Path_3662" data-name="Path 3662" d="M35.2,375.974a.58.58,0,0,0-.432.19.692.692,0,0,0-.179.388.516.516,0,0,0,.1.39.536.536,0,0,0,.44.165c.763-.031.857-1.162.065-1.133" transform="translate(-26.588 -289.028)" fill="#fff"/>
        <line id="Line_39" data-name="Line 39" x2="0.328" y2="0.023" transform="translate(6.292 87.429)" fill="#fff"/>
        <path id="Path_3663" data-name="Path 3663" d="M25.487,376.7l.208.034-.4-.307a.625.625,0,1,0,.005-.382l.425-.287-.212,0c-.593.014-.564.856-.022.938" transform="translate(-19.274 -288.799)" fill="#fff"/>
        <path id="Path_3664" data-name="Path 3664" d="M16.589,375.381a.693.693,0,0,0-.5.241.585.585,0,0,0-.131.433.537.537,0,0,0,.6.506.679.679,0,0,0,.619-.614.5.5,0,0,0-.594-.566" transform="translate(-12.266 -288.572)" fill="#fff"/>
        <path id="Path_3665" data-name="Path 3665" d="M183.441,462.151a.807.807,0,0,0-.644.82.6.6,0,0,0,.78.6.787.787,0,0,0,.543-.349.72.72,0,0,0,.1-.53.632.632,0,0,0-.777-.536" transform="translate(-140.524 -355.263)" fill="#fff"/>
        <path id="Path_3666" data-name="Path 3666" d="M176.072,467.51c.111,0,.222-.006.333-.01" transform="translate(-135.355 -359.389)" fill="#fff"/>
        <path id="Path_3667" data-name="Path 3667" d="M173.83,466a1.05,1.05,0,0,0,.982-.112.575.575,0,0,0-.1-.934.9.9,0,0,0-.788-.047.611.611,0,0,0-.494.508.552.552,0,0,0,.4.583" transform="translate(-133.32 -357.347)" fill="#fff"/>
        <path id="Path_3668" data-name="Path 3668" d="M167.048,463.7c-.763-.03-.945,1.091-.154,1.126s.92-1.1.154-1.126" transform="translate(-127.905 -356.468)" fill="#fff"/>
        <line id="Line_40" data-name="Line 40" x2="0.33" y2="0.018" transform="translate(36.761 107.679)" fill="#fff"/>
        <path id="Path_3669" data-name="Path 3669" d="M157.246,464.246l.21.032-.411-.3a.627.627,0,1,0,0-.383l.42-.292-.212.007a.471.471,0,0,0-.009.938" transform="translate(-120.558 -356.099)" fill="#fff"/>
        <path id="Path_3670" data-name="Path 3670" d="M148.409,462.808c-.81,0-.93,1.174-.12,1.173.784.008.963-1.161.12-1.173" transform="translate(-113.573 -355.782)" fill="#fff"/>
        <path id="Path_3671" data-name="Path 3671" d="M140.085,462.3c-.978,0-1.118,1.423-.138,1.418s1.122-1.421.138-1.418" transform="translate(-107.069 -355.389)" fill="#fff"/>
        <line id="Line_41" data-name="Line 41" y1="0.003" x2="0.33" transform="translate(30.638 107.937)" fill="#fff"/>
        <path id="Path_3672" data-name="Path 3672" d="M130.264,465.237a1.021,1.021,0,0,0,.949-.088.579.579,0,0,0-.054-.937.9.9,0,0,0-.8-.066.6.6,0,0,0-.494.51.564.564,0,0,0,.4.582" transform="translate(-99.831 -356.763)" fill="#fff"/>
        <path id="Path_3673" data-name="Path 3673" d="M123.432,463.063c-.779.01-.881,1.142-.1,1.131s.884-1.141.1-1.131" transform="translate(-94.398 -355.978)" fill="#fff"/>
        <line id="Line_42" data-name="Line 42" y1="0.006" x2="0.33" transform="translate(26.673 107.68)" fill="#fff"/>
        <path id="Path_3674" data-name="Path 3674" d="M113.654,464.208l.212.016-.432-.272a.627.627,0,1,0-.026-.382l.4-.321-.21.022a.471.471,0,0,0,.058.937" transform="translate(-87.02 -356.049)" fill="#fff"/>
        <path id="Path_3675" data-name="Path 3675" d="M104.8,463.3c-.809.019-.9,1.2-.092,1.175s.906-1.194.092-1.175" transform="translate(-80.059 -356.161)" fill="#fff"/>
        <path id="Path_3676" data-name="Path 3676" d="M96.474,462.975c-.978.028-1.084,1.449-.1,1.421s1.088-1.447.1-1.421" transform="translate(-73.558 -355.91)" fill="#fff"/>
        <line id="Line_43" data-name="Line 43" y1="0.011" x2="0.33" transform="translate(20.564 108.143)" fill="#fff"/>
        <path id="Path_3677" data-name="Path 3677" d="M86.713,466.143a1.021,1.021,0,0,0,.947-.111.579.579,0,0,0-.077-.936.9.9,0,0,0-.8-.047.6.6,0,0,0-.482.522.564.564,0,0,0,.413.572" transform="translate(-66.342 -357.45)" fill="#fff"/>
        <path id="Path_3678" data-name="Path 3678" d="M79.831,464.157c-.779.03-.852,1.163-.072,1.133s.856-1.162.072-1.133" transform="translate(-60.892 -356.819)" fill="#fff"/>
        <line id="Line_44" data-name="Line 44" y1="0.015" x2="0.33" transform="translate(16.594 107.986)" fill="#fff"/>
        <path id="Path_3679" data-name="Path 3679" d="M70.079,465.543l.213.01-.439-.26a.627.627,0,1,0-.036-.381l.389-.332-.209.028a.471.471,0,0,0,.083.935" transform="translate(-53.511 -357.068)" fill="#fff"/>
        <path id="Path_3680" data-name="Path 3680" d="M61.212,464.88c-.805.038-.876,1.215-.063,1.177s.875-1.216.063-1.177" transform="translate(-46.565 -357.374)" fill="#fff"/>
        <path id="Path_3681" data-name="Path 3681" d="M52.9,464.713c-.97.04-1.067,1.462-.083,1.422s1.06-1.465.083-1.422" transform="translate(-40.071 -357.246)" fill="#fff"/>
        <line id="Line_45" data-name="Line 45" y1="0.01" x2="0.33" transform="translate(10.49 108.56)" fill="#fff"/>
        <path id="Path_3682" data-name="Path 3682" d="M43.143,467.946a1.026,1.026,0,0,0,.953-.11.578.578,0,0,0-.079-.935.9.9,0,0,0-.8-.048.6.6,0,0,0-.486.518.562.562,0,0,0,.41.576" transform="translate(-32.849 -358.838)" fill="#fff"/>
        <path id="Path_3683" data-name="Path 3683" d="M36.291,465.863c-.77.008-.887,1.14-.1,1.131s.875-1.145.1-1.131" transform="translate(-27.409 -358.13)" fill="#fff"/>
        <line id="Line_46" data-name="Line 46" y1="0.029" x2="0.33" transform="translate(6.516 108.349)" fill="#fff"/>
        <path id="Path_3684" data-name="Path 3684" d="M26.518,467.129h.212l-.45-.24a.581.581,0,0,0,.686.3.626.626,0,0,0,.51-.549.56.56,0,0,0-.557-.586.612.612,0,0,0-.692.454l.374-.35-.209.038a.471.471,0,0,0,.126.93" transform="translate(-20.007 -358.276)" fill="#fff"/>
        <path id="Path_3685" data-name="Path 3685" d="M17.718,466.619a.684.684,0,0,0-.659.531.5.5,0,0,0,.049.415.55.55,0,0,0,.459.222.624.624,0,0,0,.681-.591.518.518,0,0,0-.53-.578" transform="translate(-13.096 -358.712)" fill="#fff"/>
        <path id="Path_3686" data-name="Path 3686" d="M176.2,368.7a.793.793,0,0,0-.622.753.576.576,0,0,0,.674.669.721.721,0,0,0,.544-.323.678.678,0,0,0,.073-.531.925.925,0,0,0-.25-.43.475.475,0,0,0-.42-.137" transform="translate(-134.976 -283.434)" fill="#fff"/>
        <line id="Line_47" data-name="Line 47" x2="0.298" y2="0.007" transform="translate(39.162 86.299)" fill="#fff"/>
        <path id="Path_3687" data-name="Path 3687" d="M167.323,371.681a.85.85,0,0,0,.847-.059.609.609,0,0,0-.012-.938.757.757,0,0,0-.739-.093.572.572,0,0,0-.459.5.564.564,0,0,0,.362.586" transform="translate(-128.349 -284.852)" fill="#fff"/>
        <path id="Path_3688" data-name="Path 3688" d="M161.1,369.381c-.706-.007-.834,1.12-.115,1.129s.826-1.124.115-1.129" transform="translate(-123.388 -283.96)" fill="#fff"/>
        <line id="Line_48" data-name="Line 48" x2="0.302" y2="0.007" transform="translate(35.544 85.947)" fill="#fff"/>
        <path id="Path_3689" data-name="Path 3689" d="M152.142,370.243l.194.025-.384-.29a.576.576,0,1,0-.006-.383l.376-.3c-.063.007-.127.009-.192.013-.53.035-.5.876.012.938" transform="translate(-116.654 -283.826)" fill="#fff"/>
        <path id="Path_3690" data-name="Path 3690" d="M144.086,368.871c-.733-.031-.9,1.136-.156,1.168s.894-1.14.156-1.168" transform="translate(-110.274 -283.568)" fill="#fff"/>
        <path id="Path_3691" data-name="Path 3691" d="M136.5,368.012c-.884-.049-1.109,1.357-.207,1.408s1.1-1.363.207-1.408" transform="translate(-104.329 -282.907)" fill="#fff"/>
        <line id="Line_49" data-name="Line 49" x2="0.302" y2="0.02" transform="translate(29.934 85.987)" fill="#fff"/>
        <path id="Path_3692" data-name="Path 3692" d="M127.373,370.358a.872.872,0,0,0,.877-.022.61.61,0,0,0,.017-.938.759.759,0,0,0-.723-.121.575.575,0,0,0-.49.475.566.566,0,0,0,.319.607" transform="translate(-97.667 -283.853)" fill="#fff"/>
        <path id="Path_3693" data-name="Path 3693" d="M121.29,367.677c-.717-.039-.876,1.086-.165,1.122s.886-1.083.165-1.122" transform="translate(-92.761 -282.65)" fill="#fff"/>
        <line id="Line_50" data-name="Line 50" x2="0.302" y2="0.012" transform="translate(26.332 85.494)" fill="#fff"/>
        <path id="Path_3694" data-name="Path 3694" d="M112.3,368.293l.193.028-.38-.294a.577.577,0,1,0,0-.383l.381-.3-.194.011c-.535.032-.5.874,0,.938" transform="translate(-86.03 -282.33)" fill="#fff"/>
        <path id="Path_3695" data-name="Path 3695" d="M104.235,366.931c-.741-.018-.88,1.152-.139,1.17s.885-1.149.139-1.17" transform="translate(-79.646 -282.077)" fill="#fff"/>
        <path id="Path_3696" data-name="Path 3696" d="M96.622,366.239c-.894-.018-1.058,1.4-.16,1.414s1.061-1.395.16-1.414" transform="translate(-73.696 -281.545)" fill="#fff"/>
        <line id="Line_51" data-name="Line 51" x2="0.302" y2="0.006" transform="translate(20.726 85.667)" fill="#fff"/>
        <path id="Path_3697" data-name="Path 3697" d="M87.575,368.947a.868.868,0,0,0,.872-.063.611.611,0,0,0-.024-.938.761.761,0,0,0-.73-.087.576.576,0,0,0-.467.5.564.564,0,0,0,.348.593" transform="translate(-67.053 -282.751)" fill="#fff"/>
        <path id="Path_3698" data-name="Path 3698" d="M81.395,366.542c-.709-.017-.848,1.109-.131,1.127s.845-1.111.131-1.127" transform="translate(-62.107 -281.778)" fill="#fff"/>
        <line id="Line_52" data-name="Line 52" x2="0.302" y2="0.01" transform="translate(17.11 85.269)" fill="#fff"/>
        <path id="Path_3699" data-name="Path 3699" d="M72.427,367.316l.194.027-.382-.293a.576.576,0,1,0,0-.383l.378-.3-.192.012c-.53.031-.5.873.005.939" transform="translate(-55.377 -281.577)" fill="#fff"/>
        <path id="Path_3700" data-name="Path 3700" d="M64.377,365.893c-.736-.034-.907,1.132-.163,1.167s.9-1.135.163-1.167" transform="translate(-48.995 -281.278)" fill="#fff"/>
        <path id="Path_3701" data-name="Path 3701" d="M56.775,365.031c-.9-.039-1.088,1.372-.195,1.41s1.1-1.368.195-1.41" transform="translate(-43.049 -280.616)" fill="#fff"/>
        <line id="Line_53" data-name="Line 53" x2="0.301" y2="0.008" transform="translate(11.507 85.352)" fill="#fff"/>
        <path id="Path_3702" data-name="Path 3702" d="M47.716,367.587a.861.861,0,0,0,.864-.057.612.612,0,0,0-.012-.939.759.759,0,0,0-.732-.093.57.57,0,0,0-.119,1.088" transform="translate(-36.412 -281.707)" fill="#fff"/>
        <path id="Path_3703" data-name="Path 3703" d="M41.5,365.249c-.728.007-.8,1.14-.1,1.13s.827-1.13.1-1.13" transform="translate(-31.454 -280.784)" fill="#fff"/>
        <line id="Line_54" data-name="Line 54" x2="0.301" y2="0.001" transform="translate(7.888 85.072)" fill="#fff"/>
        <path id="Path_3704" data-name="Path 3704" d="M32.559,366.439l.2.021-.391-.283a.522.522,0,0,0,.611.364.63.63,0,0,0,.343-.171.556.556,0,0,0,.154-.36.577.577,0,0,0-.471-.6.551.551,0,0,0-.648.389l.368-.311c-.062.008-.126.012-.189.017-.53.044-.482.885.029.938" transform="translate(-24.718 -280.895)" fill="#fff"/>
        <path id="Path_3705" data-name="Path 3705" d="M24.362,365.452a.6.6,0,0,0-.569.668.52.52,0,0,0,.563.511.642.642,0,0,0,.559-.62.487.487,0,0,0-.553-.559" transform="translate(-18.287 -280.939)" fill="#fff"/>
        <path id="Path_3706" data-name="Path 3706" d="M177.449,472.6c-.914-.034-1.1,1.378-.188,1.411s1.107-1.375.188-1.411" transform="translate(-135.809 -363.307)" fill="#fff"/>
        <line id="Line_55" data-name="Line 55" x2="0.308" y2="0.009" transform="translate(39.38 110.23)" fill="#fff"/>
        <path id="Path_3707" data-name="Path 3707" d="M168.2,475.172a.9.9,0,0,0,.888-.053.6.6,0,0,0-.014-.939.789.789,0,0,0-.744-.1.579.579,0,0,0-.481.492.565.565,0,0,0,.351.6" transform="translate(-129.028 -364.415)" fill="#fff"/>
        <path id="Path_3708" data-name="Path 3708" d="M161.9,472.722c-.728-.017-.862,1.111-.134,1.127s.866-1.109.134-1.127" transform="translate(-123.985 -363.403)" fill="#fff"/>
        <line id="Line_56" data-name="Line 56" x2="0.308" y2="0.005" transform="translate(35.69 109.839)" fill="#fff"/>
        <path id="Path_3709" data-name="Path 3709" d="M152.745,473.551l.2.023-.394-.286a.588.588,0,1,0-.011-.382l.382-.309-.2.016c-.544.042-.494.882.023.938" transform="translate(-117.107 -363.241)" fill="#fff"/>
        <path id="Path_3710" data-name="Path 3710" d="M144.5,472.343c-.756-.007-.878,1.166-.121,1.172s.882-1.165.121-1.172" transform="translate(-110.597 -363.112)" fill="#fff"/>
        <path id="Path_3711" data-name="Path 3711" d="M136.726,471.772c-.914,0-1.052,1.415-.139,1.417s1.058-1.413.139-1.417" transform="translate(-104.524 -362.673)" fill="#fff"/>
        <line id="Line_57" data-name="Line 57" y1="0.001" x2="0.308" transform="translate(29.976 110.115)" fill="#fff"/>
        <path id="Path_3712" data-name="Path 3712" d="M127.545,474.653a.9.9,0,0,0,.886-.083.6.6,0,0,0-.046-.937.788.788,0,0,0-.747-.071.58.58,0,0,0-.464.508.566.566,0,0,0,.371.584" transform="translate(-97.763 -364.004)" fill="#fff"/>
        <path id="Path_3713" data-name="Path 3713" d="M121.167,472.458c-.734.016-.811,1.149-.086,1.132s.825-1.141.086-1.132" transform="translate(-92.692 -363.2)" fill="#fff"/>
        <line id="Line_58" data-name="Line 58" y1="0.012" x2="0.308" transform="translate(26.273 109.875)" fill="#fff"/>
        <path id="Path_3714" data-name="Path 3714" d="M112.044,473.711l.2.012-.409-.264a.588.588,0,1,0-.033-.381l.365-.329-.2.026c-.543.071-.444.908.075.935" transform="translate(-85.796 -363.35)" fill="#fff"/>
        <path id="Path_3715" data-name="Path 3715" d="M103.762,472.99c-.754.036-.812,1.213-.056,1.177s.814-1.213.056-1.177" transform="translate(-79.309 -363.609)" fill="#fff"/>
        <path id="Path_3716" data-name="Path 3716" d="M96,472.815c-.907.042-.986,1.464-.068,1.422s.981-1.465.068-1.422" transform="translate(-73.247 -363.474)" fill="#fff"/>
        <line id="Line_59" data-name="Line 59" y1="0.011" x2="0.308" transform="translate(20.576 110.439)" fill="#fff"/>
        <path id="Path_3717" data-name="Path 3717" d="M86.909,476.072a.9.9,0,0,0,.89-.113.6.6,0,0,0-.081-.935.791.791,0,0,0-.746-.046.583.583,0,0,0-.449.52.562.562,0,0,0,.387.573" transform="translate(-66.513 -365.083)" fill="#fff"/>
        <path id="Path_3718" data-name="Path 3718" d="M80.5,474.022c-.717.01-.822,1.141-.086,1.131s.809-1.149.086-1.131" transform="translate(-61.428 -364.403)" fill="#fff"/>
        <line id="Line_60" data-name="Line 60" x2="0.307" y2="0.004" transform="translate(16.873 110.19)" fill="#fff"/>
        <path id="Path_3719" data-name="Path 3719" d="M71.379,475.065l.2.023-.4-.285a.587.587,0,1,0-.009-.383l.379-.309-.194.016c-.536.04-.5.882.023.938" transform="translate(-54.557 -364.404)" fill="#fff"/>
        <path id="Path_3720" data-name="Path 3720" d="M63.149,473.789c-.757-.013-.907,1.158-.151,1.171s.913-1.158.151-1.171" transform="translate(-48.047 -364.223)" fill="#fff"/>
        <path id="Path_3721" data-name="Path 3721" d="M55.377,473.141c-.916-.015-1.083,1.4-.17,1.414s1.092-1.4.17-1.414" transform="translate(-41.974 -363.725)" fill="#fff"/>
        <line id="Line_61" data-name="Line 61" x2="0.308" y2="0.005" transform="translate(11.155 110.395)" fill="#fff"/>
        <path id="Path_3722" data-name="Path 3722" d="M46.154,475.871a.9.9,0,0,0,.886-.065.6.6,0,0,0-.027-.938.792.792,0,0,0-.746-.085.577.577,0,0,0-.473.5.568.568,0,0,0,.36.592" transform="translate(-35.202 -364.947)" fill="#fff"/>
        <path id="Path_3723" data-name="Path 3723" d="M39.821,473.5c-.729-.012-.842,1.116-.114,1.128s.848-1.116.114-1.128" transform="translate(-30.146 -363.998)" fill="#fff"/>
        <line id="Line_62" data-name="Line 62" y1="0.005" x2="0.308" transform="translate(7.459 110.047)" fill="#fff"/>
        <path id="Path_3724" data-name="Path 3724" d="M30.684,474.441l.2.017-.4-.274a.591.591,0,0,0,1.13-.171.557.557,0,0,0-.485-.613.563.563,0,0,0-.665.4l.369-.319-.194.022c-.528.054-.478.894.052.937" transform="translate(-23.263 -363.917)" fill="#fff"/>
        <path id="Path_3725" data-name="Path 3725" d="M22.546,473.038a.658.658,0,0,0-.682.453.529.529,0,0,0-.006.415.5.5,0,0,0,.394.273.594.594,0,0,0,.707-.506.511.511,0,0,0-.413-.635" transform="translate(-16.772 -363.641)" fill="#fff"/>
      </g>
    </g>
    <g id="Group_941" data-name="Group 941" transform="translate(292.136 63.378)" clip-path="url(#clip-path-3)">
      <path id="Path_4231" data-name="Path 4231" d="M43.9,119.952a21.75,21.75,0,0,0-6.135-14.2,17.122,17.122,0,0,0-4-3.045c-.805-.433-4.821-1.786-5-1.967-.528-.528.063-1.877-.27-2.523s-1.566-.662-2.191-.767c-.237-.04-.4.035-.582-.135.146-.316.47-.59.594-.918a4.423,4.423,0,0,0,.219-1.479,2.6,2.6,0,0,0-1.315-2.082,3.606,3.606,0,0,0-2.574.107A4.247,4.247,0,0,0,21,94.48a3.059,3.059,0,0,0,.712,2.41c-.767.055-1.765-.1-2.027.384-.4.753-.136,1.869-.218,2.684-.062.612-.26.408-.77.492a30.718,30.718,0,0,0-4,1.371,22.14,22.14,0,0,0-4.164,2.958,31.67,31.67,0,0,0-3.6,4.107,27.123,27.123,0,0,0-3.464,10.19,13.793,13.793,0,0,0,.617,6.026,47.443,47.443,0,0,0,2.5,5.642,21.111,21.111,0,0,0,2.63,3.122c4.561,5.544,11.566,6.138,15.009,6.467a13.439,13.439,0,0,0,5.326-.591,38.728,38.728,0,0,0,4.249-2.37c1.222-.8,2.285-1.824,3.519-2.63,1.11-.725,4.429-5.729,4.71-6.354a33.465,33.465,0,0,0,1.369-4.053,16.129,16.129,0,0,0,.493-4.382M24.507,96.233l-.164.055c-.32.451-1.5.135-1.712-.425A1.747,1.747,0,0,1,23.2,94c.464-.26,1.52-.147,1.754.37a1.829,1.829,0,0,1-.452,1.864" transform="translate(-0.397 -67.976)" fill="#97c935"/>
      <path id="Path_4232" data-name="Path 4232" d="M14.1,157.425a.867.867,0,0,0-.053-.271q-.34.478-.653.976a.648.648,0,0,0,.705-.706" transform="translate(-9.068 -117.85)" fill="#fff"/>
      <path id="Path_4233" data-name="Path 4233" d="M12.666,165.2a.607.607,0,0,0,.622-.422,1.024,1.024,0,0,0-.113-.983.642.642,0,0,0-1.012.074.891.891,0,0,0-.057.828.637.637,0,0,0,.56.5" transform="translate(-8.048 -122.665)" fill="#fff"/>
      <path id="Path_4234" data-name="Path 4234" d="M12.338,172.634c-.015-.806-1.238-.9-1.223-.093s1.239.9,1.223.093" transform="translate(-7.36 -128.968)" fill="#fff"/>
      <path id="Path_4235" data-name="Path 4235" d="M12.367,181.087a.68.68,0,0,0-.463-1.055.659.659,0,0,0-.549,1.047l0,.034c.061.589.934.521,1.008-.026" transform="translate(-7.451 -135.005)" fill="#fff"/>
      <path id="Path_4236" data-name="Path 4236" d="M12.576,190.323c-.011-.837-1.28-.947-1.27-.107s1.281.949,1.27.107" transform="translate(-7.503 -142.21)" fill="#fff"/>
      <path id="Path_4237" data-name="Path 4237" d="M12.4,197.508c-.01-1.01-1.544-1.148-1.534-.133s1.544,1.15,1.534.133" transform="translate(-7.173 -147.49)" fill="#fff"/>
      <path id="Path_4238" data-name="Path 4238" d="M12.818,205.587a.894.894,0,0,0-.071.828.633.633,0,0,0,.551.512.61.61,0,0,0,.63-.413,1.022,1.022,0,0,0-.1-.984.643.643,0,0,0-1.014.058" transform="translate(-8.534 -153.961)" fill="#fff"/>
      <path id="Path_4239" data-name="Path 4239" d="M11.641,214.245c.007.805,1.23.917,1.223.108s-1.23-.917-1.223-.108" transform="translate(-7.754 -160.247)" fill="#fff"/>
      <path id="Path_4240" data-name="Path 4240" d="M12.357,221.75a.659.659,0,0,0-.557,1.044l0,.035c.059.59.932.525,1.008-.021a.679.679,0,0,0-.454-1.057" transform="translate(-7.786 -166.289)" fill="#fff"/>
      <path id="Path_4241" data-name="Path 4241" d="M11.728,231.935c.009.837,1.28.947,1.27.107s-1.279-.949-1.27-.107" transform="translate(-7.82 -173.495)" fill="#fff"/>
      <path id="Path_4242" data-name="Path 4242" d="M11.309,239.1c.016,1.012,1.551,1.14,1.535.125s-1.551-1.143-1.535-.125" transform="translate(-7.505 -178.779)" fill="#fff"/>
      <path id="Path_4243" data-name="Path 4243" d="M15.352,247.239a.608.608,0,0,0-.805-.115c.275.414.566.816.87,1.207a.443.443,0,0,0,.043-.112,1.025,1.025,0,0,0-.108-.981" transform="translate(-9.934 -185.243)" fill="#fff"/>
      <path id="Path_4244" data-name="Path 4244" d="M30.548,139.867a.641.641,0,0,0,.028-.725c-.349.259-.689.531-1.02.812a.523.523,0,0,0,.992-.087" transform="translate(-21.189 -104.343)" fill="#fff"/>
      <path id="Path_4245" data-name="Path 4245" d="M30.149,147.831c.01-.8-1.257-.942-1.267-.132s1.257.939,1.267.132" transform="translate(-20.683 -110.353)" fill="#fff"/>
      <path id="Path_4246" data-name="Path 4246" d="M29.8,154.744c.012-.969-1.519-1.134-1.531-.154s1.519,1.13,1.531.154" transform="translate(-20.221 -115.433)" fill="#fff"/>
      <path id="Path_4247" data-name="Path 4247" d="M30.04,162.522a.835.835,0,0,0-.089.8.615.615,0,0,0,1.178.108.946.946,0,0,0-.075-.946.659.659,0,0,0-1.015.042" transform="translate(-21.442 -121.679)" fill="#fff"/>
      <path id="Path_4248" data-name="Path 4248" d="M28.778,170.83c0,.775,1.227.893,1.222.115s-1.227-.9-1.222-.115" transform="translate(-20.606 -127.71)" fill="#fff"/>
      <path id="Path_4249" data-name="Path 4249" d="M29.465,178.059a.633.633,0,0,0-.562,1l0,.034c.056.568.929.512,1.008-.013a.649.649,0,0,0-.449-1.02" transform="translate(-20.613 -133.524)" fill="#fff"/>
      <path id="Path_4250" data-name="Path 4250" d="M30.051,187.962c0-.8-1.274-.922-1.269-.112s1.274.92,1.269.112" transform="translate(-20.609 -140.456)" fill="#fff"/>
      <path id="Path_4251" data-name="Path 4251" d="M29.829,194.874c-.005-.97-1.539-1.11-1.534-.131s1.539,1.107,1.534.131" transform="translate(-20.243 -145.537)" fill="#fff"/>
      <path id="Path_4252" data-name="Path 4252" d="M31.319,203.534a.948.948,0,0,0-.092-.945.659.659,0,0,0-1.014.057.834.834,0,0,0-.075.8.615.615,0,0,0,1.18.091" transform="translate(-21.578 -151.762)" fill="#fff"/>
      <path id="Path_4253" data-name="Path 4253" d="M30.229,211.076c0-.773-1.226-.877-1.222-.1s1.239.875,1.222.1" transform="translate(-20.777 -157.811)" fill="#fff"/>
      <path id="Path_4254" data-name="Path 4254" d="M29.261,219.235c.065.567.937.5,1.008-.027a.65.65,0,0,0-.465-1.014.632.632,0,0,0-.547,1.008Z" transform="translate(-20.875 -163.623)" fill="#fff"/>
      <path id="Path_4255" data-name="Path 4255" d="M30.538,228.09c-.017-.8-1.288-.9-1.271-.094s1.288.9,1.271.094" transform="translate(-20.972 -170.555)" fill="#fff"/>
      <path id="Path_4256" data-name="Path 4256" d="M30.429,235c-.021-.97-1.556-1.089-1.535-.11s1.556,1.086,1.535.11" transform="translate(-20.692 -175.635)" fill="#fff"/>
      <path id="Path_4257" data-name="Path 4257" d="M30.933,242.765a.831.831,0,0,0-.062.8.616.616,0,0,0,1.181.076.949.949,0,0,0-.106-.944.658.658,0,0,0-1.013.07" transform="translate(-22.121 -181.842)" fill="#fff"/>
      <path id="Path_4258" data-name="Path 4258" d="M31.072,251.2c-.017-.773-1.24-.862-1.224-.082s1.24.86,1.224.082" transform="translate(-21.408 -187.907)" fill="#fff"/>
      <path id="Path_4259" data-name="Path 4259" d="M30.676,258.322a.632.632,0,0,0-.534,1.014l0,.033c.072.566.943.488,1.007-.04a.649.649,0,0,0-.477-1.008" transform="translate(-21.534 -193.715)" fill="#fff"/>
      <path id="Path_4260" data-name="Path 4260" d="M51.466,131.38c-.016-.791-1.239-.889-1.224-.093s1.239.889,1.224.093" transform="translate(-36.701 -98.039)" fill="#fff"/>
      <path id="Path_4261" data-name="Path 4261" d="M51.038,138.662a.649.649,0,0,0-.547,1.033l0,.034c.065.579.937.507,1.008-.032a.665.665,0,0,0-.464-1.035" transform="translate(-36.798 -103.981)" fill="#fff"/>
      <path id="Path_4262" data-name="Path 4262" d="M50.5,148.689c.017.822,1.288.922,1.271.1s-1.288-.922-1.271-.1" transform="translate(-36.895 -111.072)" fill="#fff"/>
      <path id="Path_4263" data-name="Path 4263" d="M51.662,155.851c-.021-.993-1.556-1.115-1.536-.115s1.556,1.115,1.536.115" transform="translate(-36.615 -116.267)" fill="#fff"/>
      <path id="Path_4264" data-name="Path 4264" d="M52.168,163.8a.87.87,0,0,0-.063.815.627.627,0,0,0,.555.5.612.612,0,0,0,.626-.413.988.988,0,0,0-.105-.967.649.649,0,0,0-1.013.068" transform="translate(-38.046 -122.619)" fill="#fff"/>
      <path id="Path_4265" data-name="Path 4265" d="M52.282,172.422c-.014-.791-1.237-.889-1.224-.092s1.238.889,1.224.092" transform="translate(-37.314 -128.817)" fill="#fff"/>
      <path id="Path_4266" data-name="Path 4266" d="M51.292,180.77c.063.579.935.507,1.008-.031a.664.664,0,0,0-.461-1.036.651.651,0,0,0-.55,1.033Z" transform="translate(-37.397 -134.758)" fill="#fff"/>
      <path id="Path_4267" data-name="Path 4267" d="M52.541,189.826c-.014-.822-1.285-.922-1.27-.095s1.286.923,1.27.095" transform="translate(-37.473 -141.85)" fill="#fff"/>
      <path id="Path_4268" data-name="Path 4268" d="M52.422,196.9c-.02-1-1.555-1.118-1.536-.121s1.555,1.123,1.536.121" transform="translate(-37.185 -147.044)" fill="#fff"/>
      <path id="Path_4269" data-name="Path 4269" d="M52.893,204.841a.865.865,0,0,0-.074.814.629.629,0,0,0,.549.5.611.611,0,0,0,.631-.406,1,1,0,0,0-.092-.971.649.649,0,0,0-1.014.06" transform="translate(-38.585 -153.403)" fill="#fff"/>
      <path id="Path_4270" data-name="Path 4270" d="M51.692,213.354c.005.789,1.227.912,1.222.113s-1.227-.907-1.222-.113" transform="translate(-37.789 -159.588)" fill="#fff"/>
      <path id="Path_4271" data-name="Path 4271" d="M52.334,220.74a.649.649,0,0,0-.572,1.019l0,.034c.05.579.924.531,1.008-.006a.665.665,0,0,0-.439-1.046" transform="translate(-37.758 -165.531)" fill="#fff"/>
      <path id="Path_4272" data-name="Path 4272" d="M52.812,230.873c.01-.823-1.26-.958-1.267-.133s1.257.961,1.267.133" transform="translate(-37.678 -172.616)" fill="#fff"/>
      <path id="Path_4273" data-name="Path 4273" d="M50.931,237.779c-.012.991,1.519,1.167,1.531.166s-1.519-1.163-1.531-.166" transform="translate(-37.218 -177.809)" fill="#fff"/>
      <path id="Path_4274" data-name="Path 4274" d="M52.69,245.9a.867.867,0,0,0-.093.812.629.629,0,0,0,.538.517.61.61,0,0,0,.64-.391.993.993,0,0,0-.071-.971.649.649,0,0,0-1.015.032" transform="translate(-38.426 -184.205)" fill="#fff"/>
      <path id="Path_4275" data-name="Path 4275" d="M51.308,254.374c-.014.791,1.205.935,1.219.138s-1.206-.934-1.219-.138" transform="translate(-37.501 -190.357)" fill="#fff"/>
      <path id="Path_4276" data-name="Path 4276" d="M51.813,261.779a.649.649,0,0,0-.586,1.011l0,.034c.043.581.917.543,1.008.008a.665.665,0,0,0-.425-1.052" transform="translate(-37.361 -196.306)" fill="#fff"/>
      <path id="Path_4277" data-name="Path 4277" d="M50.9,271.772c-.014.823,1.252.97,1.266.143s-1.252-.971-1.266-.143" transform="translate(-37.198 -203.389)" fill="#fff"/>
      <path id="Path_4278" data-name="Path 4278" d="M53.646,278.331a.9.9,0,0,0-.469-.166c.155.058.312.112.469.166" transform="translate(-38.902 -208.597)" fill="#fff"/>
      <path id="Path_4279" data-name="Path 4279" d="M70.295,130.2c-.006-1.029-1.539-1.177-1.534-.142s1.539,1.177,1.534.142" transform="translate(-50.589 -97.003)" fill="#fff"/>
      <path id="Path_4280" data-name="Path 4280" d="M70.681,138.438a.926.926,0,0,0-.074.844.638.638,0,0,0,.549.523.611.611,0,0,0,.631-.42,1.057,1.057,0,0,0-.092-1,.635.635,0,0,0-1.014.056" transform="translate(-51.925 -103.603)" fill="#fff"/>
      <path id="Path_4281" data-name="Path 4281" d="M69.477,147.256c0,.82,1.227.937,1.222.112s-1.227-.937-1.222-.112" transform="translate(-51.126 -110.005)" fill="#fff"/>
      <path id="Path_4282" data-name="Path 4282" d="M69.6,155.969l0,.035c.056.6.929.538,1.008-.019a.693.693,0,0,0-.45-1.078.673.673,0,0,0-.562,1.062" transform="translate(-51.136 -116.162)" fill="#fff"/>
      <path id="Path_4283" data-name="Path 4283" d="M70.755,165.4c0-.851-1.274-.972-1.269-.115s1.274.972,1.269.115" transform="translate(-51.133 -123.505)" fill="#fff"/>
      <path id="Path_4284" data-name="Path 4284" d="M70.535,172.718C70.529,171.69,69,171.544,69,172.58s1.539,1.174,1.534.138" transform="translate(-50.769 -128.887)" fill="#fff"/>
      <path id="Path_4285" data-name="Path 4285" d="M70.921,180.952a.926.926,0,0,0-.074.844.636.636,0,0,0,.549.522.612.612,0,0,0,.631-.421,1.056,1.056,0,0,0-.092-1,.635.635,0,0,0-1.014.058" transform="translate(-52.105 -135.483)" fill="#fff"/>
      <path id="Path_4286" data-name="Path 4286" d="M69.717,189.774c0,.82,1.227.934,1.222.109s-1.227-.935-1.222-.109" transform="translate(-51.306 -141.888)" fill="#fff"/>
      <path id="Path_4287" data-name="Path 4287" d="M69.845,198.485l0,.035c.056.6.929.536,1.008-.021a.692.692,0,0,0-.45-1.078.675.675,0,0,0-.562,1.064" transform="translate(-51.316 -148.045)" fill="#fff"/>
      <path id="Path_4288" data-name="Path 4288" d="M70.995,207.911c0-.851-1.274-.969-1.269-.112s1.274.969,1.269.112" transform="translate(-51.313 -155.389)" fill="#fff"/>
      <path id="Path_4289" data-name="Path 4289" d="M70.806,215.234c-.014-1.029-1.548-1.171-1.535-.135s1.548,1.171,1.535.135" transform="translate(-50.971 -160.77)" fill="#fff"/>
      <path id="Path_4290" data-name="Path 4290" d="M72.366,224.408a1.059,1.059,0,0,0-.1-1,.635.635,0,0,0-1.013.06.924.924,0,0,0-.068.844.64.64,0,0,0,.553.521.608.608,0,0,0,.628-.422" transform="translate(-52.356 -167.363)" fill="#fff"/>
      <path id="Path_4291" data-name="Path 4291" d="M71.333,232.4c-.011-.82-1.234-.933-1.223-.108s1.234.933,1.223.108" transform="translate(-51.6 -173.77)" fill="#fff"/>
      <path id="Path_4292" data-name="Path 4292" d="M70.308,241.035c.06.6.933.535,1.008-.022a.7.7,0,0,0-.458-1.077A.672.672,0,0,0,70.3,241Z" transform="translate(-51.658 -179.927)" fill="#fff"/>
      <path id="Path_4293" data-name="Path 4293" d="M71.522,250.425c-.011-.851-1.281-.968-1.27-.111s1.281.968,1.27.111" transform="translate(-51.707 -187.27)" fill="#fff"/>
      <path id="Path_4294" data-name="Path 4294" d="M71.359,257.746c-.013-1.029-1.548-1.17-1.535-.134s1.548,1.169,1.535.134" transform="translate(-51.386 -192.651)" fill="#fff"/>
      <path id="Path_4295" data-name="Path 4295" d="M71.806,265.979a.924.924,0,0,0-.068.844.639.639,0,0,0,.553.52.609.609,0,0,0,.628-.422,1.057,1.057,0,0,0-.1-1,.635.635,0,0,0-1.013.061" transform="translate(-52.771 -199.243)" fill="#fff"/>
      <path id="Path_4296" data-name="Path 4296" d="M70.664,274.8c.011.82,1.234.932,1.223.107s-1.234-.932-1.223-.107" transform="translate(-52.016 -205.651)" fill="#fff"/>
      <path id="Path_4297" data-name="Path 4297" d="M72.143,282.508c.206.023.414.041.621.058a.577.577,0,0,0-.3-.116.591.591,0,0,0-.321.058" transform="translate(-53.125 -211.808)" fill="#fff"/>
      <path id="Path_4298" data-name="Path 4298" d="M86.132,133.462c-.055-.95-1.593-1-1.538-.051s1.593,1.007,1.538.051" transform="translate(-62.461 -99.529)" fill="#fff"/>
      <path id="Path_4299" data-name="Path 4299" d="M86.91,141.031a.8.8,0,0,0-.034.781.623.623,0,0,0,.573.456.609.609,0,0,0,.611-.417.915.915,0,0,0-.14-.921.667.667,0,0,0-1.01.1" transform="translate(-64.109 -105.542)" fill="#fff"/>
      <path id="Path_4300" data-name="Path 4300" d="M87.319,149.283c-.036-.757-1.265-.808-1.225-.049s1.257.811,1.225.049" transform="translate(-63.586 -111.502)" fill="#fff"/>
      <path id="Path_4301" data-name="Path 4301" d="M86.533,157.279c.076.551.947.462,1.007-.055a.629.629,0,0,0-.485-.978.622.622,0,0,0-.526,1Z" transform="translate(-63.817 -117.169)" fill="#fff"/>
      <path id="Path_4302" data-name="Path 4302" d="M86.711,165.838c.034.783,1.307.857,1.272.066s-1.306-.853-1.272-.066" transform="translate(-64.049 -123.944)" fill="#fff"/>
      <path id="Path_4303" data-name="Path 4303" d="M88.023,172.653c-.04-.951-1.578-1.038-1.537-.086s1.565,1.043,1.537.086" transform="translate(-63.88 -128.904)" fill="#fff"/>
      <path id="Path_4304" data-name="Path 4304" d="M88.6,180.238a.8.8,0,0,0-.056.78.62.62,0,0,0,1.182.066.913.913,0,0,0-.114-.924.668.668,0,0,0-1.012.078" transform="translate(-65.366 -134.954)" fill="#fff"/>
      <path id="Path_4305" data-name="Path 4305" d="M88.8,188.488c-.023-.757-1.247-.836-1.224-.076s1.247.838,1.224.076" transform="translate(-64.697 -140.891)" fill="#fff"/>
      <path id="Path_4306" data-name="Path 4306" d="M87.9,196.471c.069.553.941.48,1.008-.036a.632.632,0,0,0-.473-.987.618.618,0,0,0-.539.99Z" transform="translate(-64.85 -146.566)" fill="#fff"/>
      <path id="Path_4307" data-name="Path 4307" d="M89.222,205.118c-.015-.786-1.285-.877-1.271-.087s1.285.878,1.271.087" transform="translate(-64.98 -153.341)" fill="#fff"/>
      <path id="Path_4308" data-name="Path 4308" d="M89.094,211.873c-.018-.951-1.553-1.062-1.535-.108s1.553,1.064,1.535.108" transform="translate(-64.685 -158.306)" fill="#fff"/>
      <path id="Path_4309" data-name="Path 4309" d="M89.578,219.466a.8.8,0,0,0-.065.779.62.62,0,0,0,.555.476.611.611,0,0,0,.626-.4.913.913,0,0,0-.1-.925.667.667,0,0,0-1.013.065" transform="translate(-66.099 -164.376)" fill="#fff"/>
      <path id="Path_4310" data-name="Path 4310" d="M89.7,227.712c-.015-.757-1.238-.852-1.224-.091s1.238.853,1.224.091" transform="translate(-65.37 -170.299)" fill="#fff"/>
      <path id="Path_4311" data-name="Path 4311" d="M88.691,235.688c.061.554.933.489,1.008-.026a.63.63,0,0,0-.458-.992.621.621,0,0,0-.553.985Z" transform="translate(-65.444 -175.979)" fill="#fff"/>
      <path id="Path_4312" data-name="Path 4312" d="M89.91,244.346c-.011-.786-1.281-.887-1.27-.1s1.282.887,1.27.1" transform="translate(-65.496 -182.755)" fill="#fff"/>
      <path id="Path_4313" data-name="Path 4313" d="M89.751,251.1c-.014-.95-1.549-1.072-1.535-.117s1.549,1.072,1.535.117" transform="translate(-65.178 -187.721)" fill="#fff"/>
      <path id="Path_4314" data-name="Path 4314" d="M90.2,258.7a.8.8,0,0,0-.068.779.62.62,0,0,0,.554.478.61.61,0,0,0,.627-.392.912.912,0,0,0-.1-.924.668.668,0,0,0-1.013.06" transform="translate(-66.566 -193.799)" fill="#fff"/>
      <path id="Path_4315" data-name="Path 4315" d="M90.3,266.941c-.013-.756-1.236-.854-1.223-.092s1.236.853,1.223.092" transform="translate(-65.824 -199.717)" fill="#fff"/>
      <path id="Path_4316" data-name="Path 4316" d="M89.845,273.9a.621.621,0,0,0-.551.986l0,.032c.062.554.935.487,1.008-.028a.63.63,0,0,0-.46-.991" transform="translate(-65.898 -205.397)" fill="#fff"/>
      <path id="Path_4317" data-name="Path 4317" d="M107.434,129.019a.621.621,0,0,0,.55.487.612.612,0,0,0,.631-.392,1.918,1.918,0,0,0,.079-.494q-.555-.239-1.127-.445c-.02.019-.041.036-.059.056a.814.814,0,0,0-.074.787" transform="translate(-79.541 -96.12)" fill="#fff"/>
      <path id="Path_4318" data-name="Path 4318" d="M107.535,135.934c-.006-.765-1.228-.873-1.223-.1s1.228.873,1.223.1" transform="translate(-78.748 -101.465)" fill="#fff"/>
      <path id="Path_4319" data-name="Path 4319" d="M107.01,142.963a.627.627,0,0,0-.561.991l0,.033c.057.56.93.5,1.008-.018a.638.638,0,0,0-.451-1.005" transform="translate(-78.766 -107.206)" fill="#fff"/>
      <path id="Path_4320" data-name="Path 4320" d="M106.34,152.637c.006.794,1.275.906,1.269.107s-1.275-.906-1.269-.107" transform="translate(-78.769 -114.053)" fill="#fff"/>
      <path id="Path_4321" data-name="Path 4321" d="M107.4,159.57c-.007-.959-1.541-1.094-1.534-.128s1.541,1.094,1.534.128" transform="translate(-78.412 -119.07)" fill="#fff"/>
      <path id="Path_4322" data-name="Path 4322" d="M107.792,167.247a.813.813,0,0,0-.074.787.618.618,0,0,0,1.18.093.93.93,0,0,0-.093-.935.663.663,0,0,0-1.014.055" transform="translate(-79.755 -125.219)" fill="#fff"/>
      <path id="Path_4323" data-name="Path 4323" d="M106.6,175.474c.005.765,1.228.87,1.222.1s-1.228-.871-1.222-.1" transform="translate(-78.962 -131.193)" fill="#fff"/>
      <path id="Path_4324" data-name="Path 4324" d="M107.3,182.6a.628.628,0,0,0-.561.992l0,.033c.057.56.93.5,1.008-.02a.637.637,0,0,0-.451-1" transform="translate(-78.98 -136.934)" fill="#fff"/>
      <path id="Path_4325" data-name="Path 4325" d="M107.894,192.383c-.006-.794-1.275-.9-1.27-.1s1.275.9,1.27.1" transform="translate(-78.982 -143.78)" fill="#fff"/>
      <path id="Path_4326" data-name="Path 4326" d="M107.683,199.211c-.007-.959-1.541-1.09-1.534-.125s1.541,1.09,1.534.125" transform="translate(-78.626 -148.798)" fill="#fff"/>
      <path id="Path_4327" data-name="Path 4327" d="M109.185,207.764a.929.929,0,0,0-.093-.934.663.663,0,0,0-1.014.057.815.815,0,0,0-.074.787.618.618,0,0,0,1.18.09" transform="translate(-79.969 -154.945)" fill="#fff"/>
      <path id="Path_4328" data-name="Path 4328" d="M106.882,215.117c.006.765,1.228.868,1.222.1s-1.228-.868-1.222-.1" transform="translate(-79.176 -160.92)" fill="#fff"/>
      <path id="Path_4329" data-name="Path 4329" d="M107.581,222.245a.629.629,0,0,0-.561.993l0,.033c.057.56.93.5,1.008-.023a.636.636,0,0,0-.451-1" transform="translate(-79.193 -166.66)" fill="#fff"/>
      <path id="Path_4330" data-name="Path 4330" d="M108.179,232.023c-.005-.794-1.275-.9-1.269-.1s1.275.9,1.269.1" transform="translate(-79.197 -173.507)" fill="#fff"/>
      <path id="Path_4331" data-name="Path 4331" d="M107.992,238.851c-.013-.959-1.548-1.087-1.535-.121s1.548,1.087,1.535.121" transform="translate(-78.858 -178.526)" fill="#fff"/>
      <path id="Path_4332" data-name="Path 4332" d="M108.438,246.526a.811.811,0,0,0-.068.787.621.621,0,0,0,.552.484.611.611,0,0,0,.628-.4.929.929,0,0,0-.1-.934.663.663,0,0,0-1.013.059" transform="translate(-80.241 -184.669)" fill="#fff"/>
      <path id="Path_4333" data-name="Path 4333" d="M108.517,254.854c-.011-.765-1.234-.866-1.223-.1s1.234.866,1.223.1" transform="translate(-79.485 -190.646)" fill="#fff"/>
      <path id="Path_4334" data-name="Path 4334" d="M107.491,262.91c.06.56.933.5,1.008-.023a.638.638,0,0,0-.457-1,.626.626,0,0,0-.554.994Z" transform="translate(-79.542 -196.386)" fill="#fff"/>
      <path id="Path_4335" data-name="Path 4335" d="M107.433,271.56c.011.794,1.281.9,1.27.1s-1.281-.9-1.27-.1" transform="translate(-79.589 -203.232)" fill="#fff"/>
      <path id="Path_4336" data-name="Path 4336" d="M107.487,277.967q.339-.119.673-.25a.714.714,0,0,0-.673.25" transform="translate(-79.63 -208.256)" fill="#fff"/>
      <path id="Path_4337" data-name="Path 4337" d="M125.736,139.991c-.027-.815-1.252-.9-1.225-.081s1.251.9,1.225.081" transform="translate(-92.395 -104.489)" fill="#fff"/>
      <path id="Path_4338" data-name="Path 4338" d="M125.413,147.477a.665.665,0,0,0-.534,1.065l0,.035c.072.594.943.516,1.007-.039a.69.69,0,0,0-.478-1.061" transform="translate(-92.579 -110.592)" fill="#fff"/>
      <path id="Path_4339" data-name="Path 4339" d="M125,157.784c.027.843,1.3.945,1.272.094s-1.3-.942-1.272-.094" transform="translate(-92.762 -117.88)" fill="#fff"/>
      <path id="Path_4340" data-name="Path 4340" d="M126.2,165.143c-.015-1.023-1.55-1.144-1.535-.118s1.55,1.147,1.535.118" transform="translate(-92.511 -123.219)" fill="#fff"/>
      <path id="Path_4341" data-name="Path 4341" d="M126.662,173.312a.913.913,0,0,0-.067.838.635.635,0,0,0,.554.513.612.612,0,0,0,.627-.424,1.045,1.045,0,0,0-.1-1,.638.638,0,0,0-1.013.068" transform="translate(-93.907 -129.75)" fill="#fff"/>
      <path id="Path_4342" data-name="Path 4342" d="M126.756,182.184c-.012-.815-1.235-.919-1.223-.1s1.236.92,1.223.1" transform="translate(-93.162 -136.121)" fill="#fff"/>
      <path id="Path_4343" data-name="Path 4343" d="M125.747,190.76c.062.6.934.53,1.008-.023a.689.689,0,0,0-.459-1.068.666.666,0,0,0-.552,1.057Z" transform="translate(-93.232 -142.23)" fill="#fff"/>
      <path id="Path_4344" data-name="Path 4344" d="M126.976,200.079c-.012-.846-1.283-.962-1.27-.112s1.283.963,1.27.112" transform="translate(-93.292 -149.519)" fill="#fff"/>
      <path id="Path_4345" data-name="Path 4345" d="M126.794,207.348c0-1.022-1.538-1.165-1.534-.138s1.538,1.167,1.534.138" transform="translate(-92.958 -154.86)" fill="#fff"/>
      <path id="Path_4346" data-name="Path 4346" d="M128.274,216.462a1.045,1.045,0,0,0-.091-1,.638.638,0,0,0-1.014.056.913.913,0,0,0-.076.837.636.636,0,0,0,.548.519.611.611,0,0,0,.632-.416" transform="translate(-94.285 -161.409)" fill="#fff"/>
      <path id="Path_4347" data-name="Path 4347" d="M125.954,224.275c0,.814,1.226.933,1.222.114s-1.226-.932-1.222-.114" transform="translate(-93.478 -167.765)" fill="#fff"/>
      <path id="Path_4348" data-name="Path 4348" d="M126.07,232.921l0,.035c.055.6.929.538,1.008-.015a.688.688,0,0,0-.448-1.072.667.667,0,0,0-.563,1.052" transform="translate(-93.48 -173.877)" fill="#fff"/>
      <path id="Path_4349" data-name="Path 4349" d="M127.209,242.284c0-.846-1.273-.972-1.269-.122s1.273.972,1.269.122" transform="translate(-93.468 -181.165)" fill="#fff"/>
      <path id="Path_4350" data-name="Path 4350" d="M126.969,249.555c0-1.022-1.534-1.176-1.533-.148s1.534,1.176,1.533.148" transform="translate(-93.09 -186.507)" fill="#fff"/>
      <path id="Path_4351" data-name="Path 4351" d="M127.317,257.731a.912.912,0,0,0-.078.837.636.636,0,0,0,.546.522.61.61,0,0,0,.633-.414,1.043,1.043,0,0,0-.087-1,.638.638,0,0,0-1.014.05" transform="translate(-94.395 -193.064)" fill="#fff"/>
      <path id="Path_4352" data-name="Path 4352" d="M126.074,266.481a.7.7,0,0,0,.051.268c.314-.216.62-.441.921-.674a.572.572,0,0,0-.972.407" transform="translate(-93.568 -199.418)" fill="#fff"/>
      <path id="Path_4353" data-name="Path 4353" d="M142.712,155.708a.641.641,0,0,0,1.178.347c-.21-.311-.429-.614-.655-.913a.512.512,0,0,0-.523.566" transform="translate(-106.045 -116.341)" fill="#fff"/>
      <path id="Path_4354" data-name="Path 4354" d="M143.118,164.276c.074.588.945.5,1.007-.046a.68.68,0,0,0-.482-1.046.659.659,0,0,0-.53,1.057Z" transform="translate(-106.251 -122.371)" fill="#fff"/>
      <path id="Path_4355" data-name="Path 4355" d="M143.265,173.387c.03.836,1.3.92,1.272.079s-1.3-.92-1.272-.079" transform="translate(-106.46 -129.581)" fill="#fff"/>
      <path id="Path_4356" data-name="Path 4356" d="M144.548,180.649c-.037-1.01-1.574-1.111-1.537-.1s1.574,1.111,1.537.1" transform="translate(-106.269 -134.862)" fill="#fff"/>
      <path id="Path_4357" data-name="Path 4357" d="M145.183,188.719a.894.894,0,0,0-.049.83.635.635,0,0,0,.565.5.609.609,0,0,0,.618-.43,1.023,1.023,0,0,0-.122-.982.642.642,0,0,0-1.012.084" transform="translate(-107.803 -141.3)" fill="#fff"/>
      <path id="Path_4358" data-name="Path 4358" d="M145.457,197.495c-.029-.8-1.255-.886-1.225-.076s1.255.885,1.225.076" transform="translate(-107.184 -147.618)" fill="#fff"/>
      <path id="Path_4359" data-name="Path 4359" d="M144.637,205.994c.074.588.945.5,1.007-.047a.679.679,0,0,0-.482-1.046.659.659,0,0,0-.53,1.058Z" transform="translate(-107.39 -153.655)" fill="#fff"/>
      <path id="Path_4360" data-name="Path 4360" d="M144.783,215.106c.03.836,1.3.919,1.272.078s-1.3-.919-1.272-.078" transform="translate(-107.598 -160.865)" fill="#fff"/>
      <path id="Path_4361" data-name="Path 4361" d="M146.067,222.366c-.037-1.009-1.574-1.11-1.537-.094s1.574,1.11,1.537.094" transform="translate(-107.408 -166.147)" fill="#fff"/>
      <path id="Path_4362" data-name="Path 4362" d="M146.7,230.437a.893.893,0,0,0-.049.83.634.634,0,0,0,.564.5.61.61,0,0,0,.618-.43,1.022,1.022,0,0,0-.122-.981.642.642,0,0,0-1.012.085" transform="translate(-108.942 -172.584)" fill="#fff"/>
      <path id="Path_4363" data-name="Path 4363" d="M146.975,239.213c-.029-.805-1.255-.885-1.225-.075s1.254.884,1.225.075" transform="translate(-108.323 -178.903)" fill="#fff"/>
      <path id="Path_4364" data-name="Path 4364" d="M146.04,247.422q.279-.389.539-.793a.647.647,0,0,0-.539.793" transform="translate(-108.531 -184.948)" fill="#fff"/>
      <path id="Path_4365" data-name="Path 4365" d="M71.737,115.946c2.306,1.1,1.754-3.41,1.576-4.5a.328.328,0,0,0-.236-.236,32.052,32.052,0,0,0-8.613-.46.34.34,0,0,0-.325.248c-.275,1.46-.566,3.507.747,4.572,1.013.821,1.786-.712,1.966-1.478H66.2c.361,2.134,2.692,1.938,3.152-.031H68.7c.539,2.065,2.776,2.257,2.99-.058H71.02a2.582,2.582,0,0,0,.379,1.543.338.338,0,0,0,.583-.341,1.579,1.579,0,0,1-.288-1.2c.016-.441-.635-.426-.675,0-.148,1.594-1.357,1.056-1.665-.121a.34.34,0,0,0-.651,0c-.317,1.356-1.609,1.457-1.851.03-.057-.334-.578-.311-.651,0a2.536,2.536,0,0,1-.279.808c-.565,1.13-1.183-.573-1.26-.883a6.536,6.536,0,0,1,.127-2.659l-.325.248a32.594,32.594,0,0,1,8.085.363c.476.089.523,4.046-.472,3.572-.391-.186-.733.4-.341.583" transform="translate(-46.947 -82.983)" fill="#fff"/>
      <path id="Path_4366" data-name="Path 4366" d="M16.292,123.613l-1.382.347c-.345.091-.677.22-.932.3l-.422.142c-.1.016-.209.032-.321.057l-.353.1c-.312.09-.614.195-.909.31l-.22.089-.21.108-.417.225c-.275.157-.556.308-.828.487l-.823.571-.369.251-.348.277-.694.549-.093.068a3.088,3.088,0,0,0-.251.2l-.877.749c-.357.316-.739.723-1.165,1.14-.207.215-.4.456-.606.691l-.309.358a4.057,4.057,0,0,0-.3.371l-.563.764c-.091.128-.189.249-.272.378l-.241.385-.455.73c-.152.228-.253.467-.369.676-.215.426-.414.771-.521,1.029l-.171.4-.344.557q-.086.141-.169.294a3.606,3.606,0,0,0-.136.334,7.228,7.228,0,0,0-.246.879c-.03.139-.065.275-.091.421s-.048.3-.081.46c-.724,3.323-1.217,6.445-.339,9.676a22.736,22.736,0,0,0,.961,2.732,24.539,24.539,0,0,0,1.3,2.628c.165.317.369.616.554.928s.405.6.607.905c0,0,.08.112.224.3s.341.474.609.788a19.661,19.661,0,0,0,2.073,2.2,19.344,19.344,0,0,0,2.374,1.865c.338.237.635.41.84.535l.323.2c.479.3.962.589,1.444.834a7.017,7.017,0,0,0,.646.316c.218.095.432.19.649.276.439.153.866.317,1.3.427a22.575,22.575,0,0,0,2.574.547s.078.016.192.031l.42.062.42.062.041.006.046,0,.062.006.054,0c.269.032.535.067.8.108l1.037.127c.379.033.766.046,1.081.044.226-.012.454-.042.68-.071s.452-.063.672-.1a11.041,11.041,0,0,0,1.135-.12l.568-.048.511-.068c.176-.029.366-.054.585-.109s.471-.127.776-.22c.015-.061.161-.14.237-.212l.213-.073.6-.114c.2-.047.395-.093.58-.13a5.465,5.465,0,0,0,.492-.287A7.784,7.784,0,0,0,31.32,160.8c.27-.145.526-.326.8-.51a9.98,9.98,0,0,0,.906-.738c.263-.253.507-.5.761-.755l.228-.207c.182-.151.357-.291.521-.432s.315-.279.468-.407a9.017,9.017,0,0,1,.9-.687c.093-.136.171-.275.254-.407a8.386,8.386,0,0,0,1.2-1.523,5.5,5.5,0,0,0,.722-1.534c.016-.023.028-.046.043-.07l.411-.689a7.189,7.189,0,0,0,1.161-2.409,13.679,13.679,0,0,0,.445-1.344c.142-.563.282-1.128.381-1.717l.08-.438.058-.43.058-.431.014-.108c.008-.058.008-.08.012-.122l.019-.223a20.906,20.906,0,0,0,.029-3.62c-.02-.217-.041-.44-.06-.661a11.982,11.982,0,0,0-.183-1.642,7.232,7.232,0,0,0-.23-.909,16.757,16.757,0,0,0-.621-2.109,13.163,13.163,0,0,0-.893-1.9l-.031-.064c-.077-.174-.151-.351-.232-.524l-.255-.514c0-.046.054-.012.047-.075-.186-.321-.413-.637-.621-.97-.231-.319-.441-.661-.673-.986-.052-.081.057-.025.053-.047-.509-.575-.723-.9-.5-.91-.085-.07-.214-.2-.345-.339s-.276-.264-.373-.341a6.855,6.855,0,0,0-1.469-1.648,14.146,14.146,0,0,0-2.114-1.528,17.578,17.578,0,0,0-2.367-1.541c-1.5-.786-2.19-.961-2.338-.811l-.326-.123c-.2-.07-.467-.154-.735-.241s-.531-.153-.731-.211l-.331-.091-.051.186-.044-.014a.478.478,0,0,1,.035.046l-.092.333.14.038a.442.442,0,0,1-.05.061c.311.085.618.151.895.235s.548.157.811.245l.774.275c.251.1.5.211.753.323,1.114.639,2.3,1.326,3.458,2.142.351.249.7.534,1.082.852a21.614,21.614,0,0,1,1.852,1.788,19.257,19.257,0,0,1,1.6,2.025c.513.754.983,1.691,1.43,2.444.055.1.109.172.163.255a21.507,21.507,0,0,1,1.626,4.717s.05.269.1.537.077.541.077.541c0,.108,0,.22,0,.321-.014.37-.035.7-.04,1.019-.022.32-.03.626-.037.948-.035.644-.034,1.348-.126,2.315l-.036.4-.06.426c-.041.284-.078.575-.138.843s-.1.547-.176.823-.146.551-.219.828a19.562,19.562,0,0,1-1.264,3.206A25.132,25.132,0,0,1,34.1,157.5a18.321,18.321,0,0,1-1.771,1.735l-.247.185c-.155.122-.389.277-.669.465a19.546,19.546,0,0,1-2.135,1.243,20.08,20.08,0,0,1-2.274.965c-.315.119-.588.19-.774.253l-.295.093a7.469,7.469,0,0,0-1.128.265c-.073-.09-.371-.1-.795-.06-.427.019-.98.1-1.571.14-1.179.111-2.5.141-3.158.142-.058.023,0,.051-.046.075-.177,0-.378-.029-.6-.044s-.467-.028-.7-.064l-.787-.1c-.262-.044-.521-.1-.78-.145a10.818,10.818,0,0,1-2.424-.752c-.236-.047-.5-.1-.743-.171s-.484-.14-.69-.184c0,0-.105-.039-.256-.115l-.557-.267c-.2-.092-.4-.206-.548-.284l-.247-.134a7.135,7.135,0,0,1-.592-.574c-.1-.1-.194-.194-.3-.293s-.226-.215-.364-.328a1.489,1.489,0,0,1-.558-.173,8.185,8.185,0,0,1-.737-.44c-.253-.184-.513-.387-.759-.585l-.643-.582c-.165-.157-.361-.372-.582-.6s-.439-.505-.667-.758c-.018-.045-.026-.077-.007-.085-.179-.237-.356-.461-.541-.679s-.353-.45-.535-.684A.524.524,0,0,1,4.7,155c-.247-.353-.45-.68-.655-.917a1.722,1.722,0,0,0-.5-.482l-.134-.221c-.069-.109-.127-.224-.127-.224-.185-.424-.334-.8-.468-1.189-.15-.385-.279-.789-.473-1.255a24.24,24.24,0,0,1-1.088-3.122c-.157-.617-.231-1.034-.33-1.423,0,0-.016-.081-.029-.224l-.063-.591c-.032-.244-.041-.531-.06-.838s-.026-.635-.026-.963c0-.164-.006-.328,0-.489s.014-.32.021-.474.013-.3.02-.443.025-.273.037-.4c.023-.245.043-.449.056-.592.014-.123.034-.22.032-.216.109-.48.205-.944.293-1.4.12-.443.235-.876.344-1.316a20.715,20.715,0,0,1,.962-2.706l.157-.367c.057-.126.129-.248.2-.377l.411-.784c.126-.269.291-.512.424-.756s.258-.473.356-.686l.015-.034a1.4,1.4,0,0,1,.094-.143l.288-.39a15.543,15.543,0,0,1,1.071-1.357,19.638,19.638,0,0,1,3.9-3.488,19.854,19.854,0,0,1,4.69-2.321c.34-.11.648-.228.929-.3l.73-.183.636-.16Zm20.275,7.51-.4-.508c-.1-.129-.208-.249-.288-.341l-.133-.153-.01-.044.135.16c.079.1.192.221.292.356l.408.53m-3.112-3.331.005.009-.087-.077Z" transform="translate(0.975 -92.698)" fill="#fff"/>
      <path id="Path_4367" data-name="Path 4367" d="M74.724,97.593c1.235-.537,1.42-1.879,1.2-3.078a2.6,2.6,0,0,0-2.481-2.157,3.553,3.553,0,0,0-3.154,1.525,2.535,2.535,0,0,0,1.33,3.671c.407.156.581-.5.18-.651a1.877,1.877,0,0,1-.454-3.211,3.012,3.012,0,0,1,2.412-.62c1.714.28,2.281,3.219.628,3.938-.4.173-.054.755.341.583" transform="translate(-51.449 -69.25)" fill="#fff"/>
      <path id="Path_4368" data-name="Path 4368" d="M77.7,100.843c1.691.447,2.488-2.662.832-3.155-1.066-.317-1.974.725-2.067,1.726-.065.694.666,1.215,1.235,1.429.408.154.582-.5.179-.651a1.562,1.562,0,0,1-.664-.5c-.335-.506.459-1.474,1-1.39.981.152.543,2.127-.337,1.894a.338.338,0,0,0-.179.651" transform="translate(-56.366 -73.213)" fill="#fff"/>
      <path id="Path_4369" data-name="Path 4369" d="M80.957.006c.486,6.97.507,9.377.45,16.388-.024,2.941-.122,5.928-.216,8.817-.11,3.349-.223,6.812-.223,10.242h.761c0-3.407.113-6.858.223-10.195.095-2.9.193-5.894.217-8.852.057-7,.064-9.453-.419-16.4-.256-.02-.536.022-.792,0" transform="translate(-59.735 -9.822)" fill="#fff"/>
      <path id="Path_4370" data-name="Path 4370" d="M43.374,58.789l-.185-.625c.589-.174,1.179-.307,1.749-.435A8.076,8.076,0,0,0,49.412,55.7a12.926,12.926,0,0,0,1.372-1.828c.318-.48.646-.974,1.018-1.434-1.623,1.228-3.089,2.233-5.54,1.754a6.412,6.412,0,0,1-4.057-2.6,2.774,2.774,0,0,1-.27-2.354c.473-1.449,1.983-2.04,4.141-1.622,2.365.459,5.04,2.054,6.04,3.766,1.722-1.232,6.634-3.569,9.151-2.339a2.772,2.772,0,0,1,1.474,2.692,3.367,3.367,0,0,1-1.88,3.019,8.307,8.307,0,0,1-7.476.125,2.917,2.917,0,0,1-1.392-1.621c-.232.318-.451.648-.666.972a13.616,13.616,0,0,1-1.444,1.918c-1.386,1.45-3.045,1.823-4.8,2.218-.56.126-1.139.256-1.707.424m9.171-6.913-.011.587a2.062,2.062,0,0,0,1.182,1.853,7.7,7.7,0,0,0,6.817-.127,2.79,2.79,0,0,0,1.556-2.445,2.144,2.144,0,0,0-1.108-2.117c-2.116-1.034-6.71,1.034-8.436,2.249m-7.753-3.741a2.1,2.1,0,0,0-2.237,1.3,2.147,2.147,0,0,0,.213,1.821,5.792,5.792,0,0,0,3.62,2.288c2.264.443,3.509-.484,5.212-1.777-.836-1.525-3.446-3.089-5.646-3.516a6.2,6.2,0,0,0-1.16-.12" transform="translate(-30.361 -35.608)" fill="#fff"/>
      <path id="Path_4371" data-name="Path 4371" d="M94.7,76.633a16.43,16.43,0,0,1-9.79-4.064,7.843,7.843,0,0,1-1.2-1.826,4.75,4.75,0,0,0-1.081-1.56l.38-.53a5.115,5.115,0,0,1,1.277,1.783,7.363,7.363,0,0,0,1.093,1.677,15.6,15.6,0,0,0,9.39,3.868l.006.652H94.7" transform="translate(-60.991 -51.483)" fill="#fff"/>
    </g>
  </g>
</svg>
