<svg xmlns="http://www.w3.org/2000/svg" xmlns:xlink="http://www.w3.org/1999/xlink" width="375" height="536.283" viewBox="0 0 375 536.283">
  <defs>
    <clipPath id="clip-path">
      <rect id="Rectangle_6" data-name="Rectangle 6" width="536.283" height="375" fill="none"/>
    </clipPath>
  </defs>
  <g id="Group_934" data-name="Group 934" transform="translate(375.004) rotate(90)" opacity="0.412">
    <g id="Group_134" data-name="Group 134" transform="translate(0 0.004)" clip-path="url(#clip-path)">
      <path id="Path_267" data-name="Path 267" d="M1978.193,476.061q2.986-1.671,0-3.342-2.986,1.671,0,3.342" transform="translate(-1443.997 -330.084)" fill="#fff"/>
      <path id="Path_268" data-name="Path 268" d="M1384.226,277.165q2.751-1.538,0-3.078-2.75,1.539,0,3.078" transform="translate(-1010.185 -191.386)" fill="#fff"/>
      <path id="Path_269" data-name="Path 269" d="M1213.591,262.814q-2.669,1.494,0,2.987,2.668-1.493,0-2.987" transform="translate(-885.564 -183.515)" fill="#fff"/>
      <path id="Path_270" data-name="Path 270" d="M1134.118,271.344q1.523,3.409,3.046,0-1.523-3.408-3.046,0" transform="translate(-828.484 -188.281)" fill="#fff"/>
      <path id="Path_271" data-name="Path 271" d="M1092.876,236.5q-2.743,1.535,0,3.07,2.743-1.535,0-3.07" transform="translate(-797.354 -165.143)" fill="#fff"/>
      <path id="Path_272" data-name="Path 272" d="M953.28,314.629q-1.294-2.9-2.588,0,1.294,2.9,2.588,0" transform="translate(-694.489 -218.684)" fill="#fff"/>
      <path id="Path_273" data-name="Path 273" d="M800.64,300.566q1.268,2.839,2.536,0-1.268-2.838-2.536,0" transform="translate(-584.875 -208.885)" fill="#fff"/>
      <path id="Path_274" data-name="Path 274" d="M717.649,254.156q1.534,3.433,3.068,0-1.534-3.433-3.068,0" transform="translate(-524.249 -176.27)" fill="#fff"/>
      <path id="Path_275" data-name="Path 275" d="M559.757,235.541q2.613-1.462,0-2.925-2.613,1.462,0,2.925" transform="translate(-407.953 -162.429)" fill="#fff"/>
      <path id="Path_276" data-name="Path 276" d="M344.024,214.3q-1.37-3.068-2.741,0,1.371,3.067,2.741,0" transform="translate(-249.31 -148.565)" fill="#fff"/>
      <path id="Path_277" data-name="Path 277" d="M74.52,59.344q-1.26-2.822-2.521,0,1.26,2.822,2.521,0" transform="translate(-52.596 -40.454)" fill="#fff"/>
      <path id="Path_278" data-name="Path 278" d="M1956.654,108.3q2.857-1.6,0-3.2-2.857,1.6,0,3.2" transform="translate(-1428.31 -73.392)" fill="#fff"/>
      <path id="Path_279" data-name="Path 279" d="M1663.394,139.862q3.01-1.685,0-3.369-3.01,1.684,0,3.369" transform="translate(-1214.025 -95.309)" fill="#fff"/>
      <path id="Path_280" data-name="Path 280" d="M1516.6,193.168q3.007-1.683,0-3.365-3.006,1.682,0,3.365" transform="translate(-1106.792 -132.534)" fill="#fff"/>
      <path id="Path_281" data-name="Path 281" d="M1073.221,266.686q-2.787,1.559,0,3.119,2.787-1.559,0-3.119" transform="translate(-782.98 -186.218)" fill="#fff"/>
      <path id="Path_282" data-name="Path 282" d="M873.072,301.936c0-2.066-1.6-1.87-1.6-.128,0,2.317,1.6,1.566,1.6.128" transform="translate(-636.619 -209.791)" fill="#fff"/>
      <path id="Path_283" data-name="Path 283" d="M771.675,362.5q1.393,3.118,2.786,0-1.393-3.118-2.786,0" transform="translate(-563.716 -252.033)" fill="#fff"/>
      <path id="Path_284" data-name="Path 284" d="M609.482,357.462q1.366,3.058,2.732,0-1.366-3.058-2.732,0" transform="translate(-445.232 -248.536)" fill="#fff"/>
      <path id="Path_285" data-name="Path 285" d="M557.194,399.325c-.451-1.148-2.7-1.572-2.7.633,0,2.134,3.269,1.54,2.7-.633" transform="translate(-405.064 -278.177)" fill="#fff"/>
      <path id="Path_286" data-name="Path 286" d="M287.068,459.7c-.908-.218-3.465,3.218-.306,3.218,3.832,0,.368-2.967.306-3.218" transform="translate(-208.363 -320.99)" fill="#fff"/>
      <path id="Path_287" data-name="Path 287" d="M249.348,472.724c2.174,0,.934-2.982,0-2.982q-2.665,1.491,0,2.982" transform="translate(-181.178 -328.005)" fill="#fff"/>
      <path id="Path_288" data-name="Path 288" d="M1979.13,246.277q-3.027,1.694,0,3.388,3.027-1.694,0-3.388" transform="translate(-1444.667 -171.968)" fill="#fff"/>
      <path id="Path_289" data-name="Path 289" d="M1814.748,284.636q1.263,2.827,2.526,0-1.263-2.827-2.526,0" transform="translate(-1325.69 -197.765)" fill="#fff"/>
      <path id="Path_290" data-name="Path 290" d="M1777.785,237.695q2.8-1.566,0-3.133-2.8,1.566,0,3.133" transform="translate(-1297.666 -163.787)" fill="#fff"/>
      <path id="Path_291" data-name="Path 291" d="M1696.258,265.518q2.6-1.455,0-2.911-2.6,1.455,0,2.911" transform="translate(-1238.182 -183.37)" fill="#fff"/>
      <path id="Path_292" data-name="Path 292" d="M1609.485,220.31q-2.5,1.4,0,2.795,2.5-1.4,0-2.795" transform="translate(-1174.832 -153.836)" fill="#fff"/>
      <path id="Path_293" data-name="Path 293" d="M1452.457,169.846c0,2.733,1.6-.194,2.588.552.451-1.273-2.588-3.614-2.588-.552" transform="translate(-1061.033 -117.546)" fill="#fff"/>
      <path id="Path_294" data-name="Path 294" d="M1383.495,157.129q1.388,3.1,2.774,0-1.387-3.1-2.774,0" transform="translate(-1010.656 -108.635)" fill="#fff"/>
      <path id="Path_295" data-name="Path 295" d="M1373.461,143.953q2.752-1.54,0-3.081-2.753,1.54,0,3.081" transform="translate(-1002.32 -98.367)" fill="#fff"/>
      <path id="Path_296" data-name="Path 296" d="M1307.039,100.018q-2.713,1.518,0,3.037,2.713-1.519,0-3.037" transform="translate(-953.813 -69.84)" fill="#fff"/>
      <path id="Path_297" data-name="Path 297" d="M1519.22,213.73q1.3,2.9,2.593,0-1.3-2.9-2.593,0" transform="translate(-1109.804 -148.227)" fill="#fff"/>
      <path id="Path_298" data-name="Path 298" d="M1451.225,237.654q2.913-1.63,0-3.261-2.914,1.631,0,3.261" transform="translate(-1059.069 -163.669)" fill="#fff"/>
      <path id="Path_299" data-name="Path 299" d="M1403.451,215.207q-2.937,1.644,0,3.287,2.937-1.643,0-3.287" transform="translate(-1024.161 -150.272)" fill="#fff"/>
      <path id="Path_300" data-name="Path 300" d="M1318.123,177.685q2.8-1.567,0-3.135-2.8,1.567,0,3.135" transform="translate(-961.877 -121.883)" fill="#fff"/>
      <path id="Path_301" data-name="Path 301" d="M943.253,203.09q1.307,2.926,2.614,0-1.307-2.926-2.614,0" transform="translate(-689.055 -140.79)" fill="#fff"/>
      <path id="Path_302" data-name="Path 302" d="M933.976,176.21q1.542,3.452,3.084,0-1.542-3.452-3.084,0" transform="translate(-682.278 -121.837)" fill="#fff"/>
      <path id="Path_303" data-name="Path 303" d="M505.362,229.088q-2.742,1.535,0,3.069,2.742-1.535,0-3.069" transform="translate(-368.17 -159.965)" fill="#fff"/>
      <path id="Path_304" data-name="Path 304" d="M362.726,225.209q2.571-1.439,0-2.877-2.571,1.439,0,2.877" transform="translate(-264.036 -155.248)" fill="#fff"/>
      <path id="Path_305" data-name="Path 305" d="M188.766,204.135q2.881-1.613,0-3.225-2.881,1.613,0,3.225" transform="translate(-136.843 -140.289)" fill="#fff"/>
      <path id="Path_306" data-name="Path 306" d="M1793.828,983.6q-1.306-2.924-2.612,0,1.306,2.923,2.612,0" transform="translate(-1308.5 -685.79)" fill="#fff"/>
      <path id="Path_307" data-name="Path 307" d="M1726.938,984.725q3.1-1.733,0-3.465-3.1,1.733,0,3.465" transform="translate(-1260.413 -685.18)" fill="#fff"/>
      <path id="Path_308" data-name="Path 308" d="M1576.39,1000.821q2.689-1.5,0-3.009-2.688,1.5,0,3.009" transform="translate(-1150.585 -696.737)" fill="#fff"/>
      <path id="Path_309" data-name="Path 309" d="M1462.485,975.082q-1.444-3.234-2.889,0,1.445,3.234,2.889,0" transform="translate(-1066.248 -679.736)" fill="#fff"/>
      <path id="Path_310" data-name="Path 310" d="M1326.528,994.737q-2.522,1.411,0,2.823,2.522-1.411,0-2.823" transform="translate(-968.12 -694.59)" fill="#fff"/>
      <path id="Path_311" data-name="Path 311" d="M1238.679,927.235q1.3,2.9,2.591,0-1.3-2.9-2.591,0" transform="translate(-904.866 -646.443)" fill="#fff"/>
      <path id="Path_312" data-name="Path 312" d="M767.78,820.983q-3.114,1.743,0,3.485,3.114-1.743,0-3.485" transform="translate(-559.733 -573.264)" fill="#fff"/>
      <path id="Path_313" data-name="Path 313" d="M713.773,823.254q-1.247-2.792-2.495,0,1.247,2.792,2.495,0" transform="translate(-519.595 -573.875)" fill="#fff"/>
      <path id="Path_314" data-name="Path 314" d="M672.264,822.9q-1.319-2.953-2.639,0,1.319,2.954,2.639,0" transform="translate(-489.167 -573.571)" fill="#fff"/>
      <path id="Path_315" data-name="Path 315" d="M543.125,840.192q2.656-1.486,0-2.973-2.657,1.487,0,2.973" transform="translate(-395.788 -584.601)" fill="#fff"/>
      <path id="Path_316" data-name="Path 316" d="M442.639,814.775q-1.3-2.9-2.594,0,1.3,2.9,2.594,0" transform="translate(-321.457 -567.916)" fill="#fff"/>
      <path id="Path_317" data-name="Path 317" d="M261.207,760.778q-1.344-3.009-2.689,0,1.344,3.009,2.689,0" transform="translate(-188.85 -530.174)" fill="#fff"/>
      <path id="Path_318" data-name="Path 318" d="M116.582,742.181q1.246,2.789,2.492,0-1.246-2.79-2.492,0" transform="translate(-85.164 -517.265)" fill="#fff"/>
      <path id="Path_319" data-name="Path 319" d="M1872.289,1035.336q-1.346-3.013-2.692,0,1.346,3.013,2.692,0" transform="translate(-1365.758 -721.887)" fill="#fff"/>
      <path id="Path_320" data-name="Path 320" d="M1782.953,987.821q-3.094,1.731,0,3.462,3.093-1.732,0-3.462" transform="translate(-1301.333 -689.761)" fill="#fff"/>
      <path id="Path_321" data-name="Path 321" d="M1753.184,1023.638q-2.91,1.628,0,3.257,2.91-1.629,0-3.257" transform="translate(-1279.654 -714.771)" fill="#fff"/>
      <path id="Path_322" data-name="Path 322" d="M1723.866,992.627q-3.1,1.735,0,3.471,3.1-1.736,0-3.471" transform="translate(-1258.167 -693.117)" fill="#fff"/>
      <path id="Path_323" data-name="Path 323" d="M1676.078,1006.057q-1.4-3.128-2.795,0,1.4,3.127,2.795,0" transform="translate(-1222.348 -701.402)" fill="#fff"/>
      <path id="Path_324" data-name="Path 324" d="M1654.62,991.243q-1.3-2.9-2.593,0,1.3,2.9,2.593,0" transform="translate(-1206.821 -691.137)" fill="#fff"/>
      <path id="Path_325" data-name="Path 325" d="M1602.785,1005.157q-2.975,1.666,0,3.331,2.975-1.665,0-3.331" transform="translate(-1169.762 -701.866)" fill="#fff"/>
      <path id="Path_326" data-name="Path 326" d="M1531.745,978.264q3.129-1.751,0-3.5-3.129,1.751,0,3.5" transform="translate(-1117.811 -680.642)" fill="#fff"/>
      <path id="Path_327" data-name="Path 327" d="M1483.774,1001.7q-1.478-3.308-2.956,0,1.478,3.309,2.956,0" transform="translate(-1081.751 -698.295)" fill="#fff"/>
      <path id="Path_328" data-name="Path 328" d="M1390.436,992.4q-2.539,1.421,0,2.842,2.539-1.421,0-2.842" transform="translate(-1014.799 -692.961)" fill="#fff"/>
      <path id="Path_329" data-name="Path 329" d="M1360.165,983.228q-2.87,1.606,0,3.212,2.87-1.606,0-3.212" transform="translate(-992.564 -686.554)" fill="#fff"/>
      <path id="Path_330" data-name="Path 330" d="M1316.222,978.978q-2.929,1.639,0,3.278,2.929-1.639,0-3.278" transform="translate(-960.442 -683.586)" fill="#fff"/>
      <path id="Path_331" data-name="Path 331" d="M1173.9,969.985q-3.008,1.683,0,3.365,3.007-1.682,0-3.365" transform="translate(-856.448 -677.307)" fill="#fff"/>
      <path id="Path_332" data-name="Path 332" d="M1133.456,985.031q-1.446-3.236-2.891,0,1.446,3.236,2.891,0" transform="translate(-825.888 -686.683)" fill="#fff"/>
      <path id="Path_333" data-name="Path 333" d="M997.018,968.712q-2.669,1.494,0,2.988,2.67-1.494,0-2.988" transform="translate(-727.355 -676.418)" fill="#fff"/>
      <path id="Path_334" data-name="Path 334" d="M962.438,936.976q-2.509,1.4,0,2.809,2.51-1.4,0-2.809" transform="translate(-702.153 -654.258)" fill="#fff"/>
      <path id="Path_335" data-name="Path 335" d="M868.829,987.465q-1.3-2.914-2.6,0,1.3,2.913,2.6,0" transform="translate(-632.786 -688.495)" fill="#fff"/>
      <path id="Path_336" data-name="Path 336" d="M746.205,982.726q-2.52,1.41,0,2.82,2.519-1.41,0-2.82" transform="translate(-544.189 -686.203)" fill="#fff"/>
      <path id="Path_337" data-name="Path 337" d="M707.036,950.168q-1.345-3.011-2.69,0,1.345,3.011,2.69,0" transform="translate(-514.531 -662.418)" fill="#fff"/>
      <path id="Path_338" data-name="Path 338" d="M545.406,1008.147q-1.408-3.152-2.815,0c0,1.817,2.815,2.374,2.815,0" transform="translate(-396.368 -702.853)" fill="#fff"/>
      <path id="Path_339" data-name="Path 339" d="M490.378,994.572q3.018-1.688,0-3.377-3.017,1.688,0,3.377" transform="translate(-357.123 -692.117)" fill="#fff"/>
      <path id="Path_340" data-name="Path 340" d="M1866.474,1090.44q-2.49,1.394,0,2.787,2.49-1.393,0-2.787" transform="translate(-1362.566 -761.416)" fill="#fff"/>
      <path id="Path_341" data-name="Path 341" d="M1677.768,1087.425q-1.316-2.945-2.631,0,1.315,2.945,2.631,0" transform="translate(-1223.703 -758.283)" fill="#fff"/>
      <path id="Path_342" data-name="Path 342" d="M1623.1,1069.728q-2.784,1.558,0,3.116,2.785-1.558,0-3.116" transform="translate(-1184.673 -746.954)" fill="#fff"/>
      <path id="Path_343" data-name="Path 343" d="M1270.588,1068.635q3.07-1.718,0-3.436-3.07,1.718,0,3.436" transform="translate(-927.055 -743.791)" fill="#fff"/>
      <path id="Path_344" data-name="Path 344" d="M1054.95,1061.32q3.118-1.745,0-3.489-3.118,1.744,0,3.489" transform="translate(-769.512 -738.646)" fill="#fff"/>
      <path id="Path_345" data-name="Path 345" d="M923.714,1068.121q2.652-1.484,0-2.969-2.652,1.484,0,2.969" transform="translate(-673.813 -743.758)" fill="#fff"/>
      <path id="Path_346" data-name="Path 346" d="M796.449,1070.43q3.124-1.748,0-3.5-3.123,1.748,0,3.5" transform="translate(-580.673 -745.003)" fill="#fff"/>
      <path id="Path_347" data-name="Path 347" d="M1979.338,1164.494q-2.636,1.476,0,2.951,2.637-1.475,0-2.951" transform="translate(-1444.961 -813.125)" fill="#fff"/>
      <path id="Path_348" data-name="Path 348" d="M1959.438,1216.612q-2.926,1.638,0,3.275,2.926-1.638,0-3.275" transform="translate(-1430.319 -849.518)" fill="#fff"/>
      <path id="Path_349" data-name="Path 349" d="M1930.223,1159.119q-2.823,1.579,0,3.159,2.823-1.58,0-3.159" transform="translate(-1409.015 -809.372)" fill="#fff"/>
      <path id="Path_350" data-name="Path 350" d="M1765.883,1186.8q-2.974,1.665,0,3.329,2.975-1.665,0-3.329" transform="translate(-1288.907 -828.697)" fill="#fff"/>
      <path id="Path_351" data-name="Path 351" d="M1536.811,1209.778q-2.906,1.626,0,3.251,2.905-1.625,0-3.251" transform="translate(-1121.593 -844.745)" fill="#fff"/>
      <path id="Path_352" data-name="Path 352" d="M1149.731,1220.72q-2.575,1.441,0,2.882,2.575-1.441,0-2.882" transform="translate(-838.948 -852.386)" fill="#fff"/>
      <path id="Path_353" data-name="Path 353" d="M1063.433,1197.026q-2.831,1.584,0,3.168,2.83-1.584,0-3.168" transform="translate(-775.813 -835.841)" fill="#fff"/>
      <path id="Path_354" data-name="Path 354" d="M790.467,1204.875q-2.377,1.684.271,3.094c4.346,0-.367-3.358-.271-3.094" transform="translate(-576.622 -841.311)" fill="#fff"/>
      <path id="Path_355" data-name="Path 355" d="M756.51,1190.677c-2.336,0-1.546,3.276,0,3.276q2.927-1.639,0-3.276" transform="translate(-551.563 -831.408)" fill="#fff"/>
      <path id="Path_356" data-name="Path 356" d="M713.883,1230.266q-2.791,1.561,0,3.124,2.791-1.562,0-3.124" transform="translate(-520.479 -859.052)" fill="#fff"/>
      <path id="Path_357" data-name="Path 357" d="M342.458,1208.932q-2.652,1.484,0,2.968,2.652-1.484,0-2.968" transform="translate(-249.2 -844.155)" fill="#fff"/>
      <path id="Path_358" data-name="Path 358" d="M282.484,1147.348q-1.562-3.5-3.125,0,1.562,3.5,3.125,0" transform="translate(-204.075 -799.932)" fill="#fff"/>
      <path id="Path_359" data-name="Path 359" d="M202.925,1178.77q-2.655,1.485,0,2.971,2.654-1.486,0-2.971" transform="translate(-147.269 -823.094)" fill="#fff"/>
      <path id="Path_360" data-name="Path 360" d="M1.958,1189.2q-2.887,1.615,0,3.231,2.887-1.615,0-3.231" transform="translate(-0.376 -830.377)" fill="#fff"/>
      <path id="Path_361" data-name="Path 361" d="M1556.986,1072.671q-1.452-3.249-2.9,0,1.451,3.249,2.9,0" transform="translate(-1135.272 -747.874)" fill="#fff"/>
      <path id="Path_362" data-name="Path 362" d="M1505.325,1098.656q-2.989,1.672,0,3.345,2.989-1.672,0-3.345" transform="translate(-1098.562 -767.153)" fill="#fff"/>
      <path id="Path_363" data-name="Path 363" d="M1387.718,1133.295q2.8-1.567,0-3.134-2.8,1.567,0,3.134" transform="translate(-1012.718 -789.152)" fill="#fff"/>
      <path id="Path_364" data-name="Path 364" d="M1367.065,1086.594q-2.688,1.5,0,3.009,2.689-1.5,0-3.009" transform="translate(-997.672 -758.731)" fill="#fff"/>
      <path id="Path_365" data-name="Path 365" d="M1161.056,1128.423c.852-2.444-3.377-3.013-2.673-.155-.164.286,1.407,1.532,2.673.155" transform="translate(-846.151 -786.49)" fill="#fff"/>
      <path id="Path_366" data-name="Path 366" d="M687.493,1060.278q-2.5,1.4,0,2.8,2.5-1.4,0-2.8" transform="translate(-501.306 -740.355)" fill="#fff"/>
      <path id="Path_367" data-name="Path 367" d="M106.874,934.742q-1.332-2.982-2.665,0,1.332,2.983,2.665,0" transform="translate(-76.126 -651.657)" fill="#fff"/>
      <path id="Path_368" data-name="Path 368" d="M1591.006,897.048q-2.526,1.414,0,2.829,2.528-1.414,0-2.829" transform="translate(-1161.322 -626.377)" fill="#fff"/>
      <path id="Path_369" data-name="Path 369" d="M1550.084,927.262q-3.126,1.749,0,3.5,3.126-1.75,0-3.5" transform="translate(-1131.208 -647.475)" fill="#fff"/>
      <path id="Path_370" data-name="Path 370" d="M1491.94,901.665q-3.013,1.686,0,3.372,3.013-1.686,0-3.372" transform="translate(-1088.775 -629.601)" fill="#fff"/>
      <path id="Path_371" data-name="Path 371" d="M1397.064,904.924c0-1.358-2.313-2.6-2.313,0s2.313,1.36,2.313,0" transform="translate(-1018.878 -630.817)" fill="#fff"/>
      <path id="Path_372" data-name="Path 372" d="M1357,922.824q-1.556-3.483-3.112,0,1.556,3.484,3.112,0" transform="translate(-989.029 -643.159)" fill="#fff"/>
      <path id="Path_373" data-name="Path 373" d="M1135.214,1012.034q3.017-1.688,0-3.377-3.017,1.688,0,3.377" transform="translate(-828.182 -704.31)" fill="#fff"/>
      <path id="Path_374" data-name="Path 374" d="M972.124,1005.746q3.03-1.7,0-3.391-3.03,1.7,0,3.391" transform="translate(-709.039 -699.909)" fill="#fff"/>
      <path id="Path_375" data-name="Path 375" d="M818.357,998.481q-1.389-3.108-2.777,0,1.389,3.108,2.777,0" transform="translate(-595.789 -696.119)" fill="#fff"/>
      <path id="Path_376" data-name="Path 376" d="M776.037,1045.971q-2.894,1.62,0,3.24,2.895-1.62,0-3.24" transform="translate(-565.845 -730.365)" fill="#fff"/>
      <path id="Path_377" data-name="Path 377" d="M769.917,1018.582q-1.411-3.159-2.823,0,1.412,3.159,2.823,0" transform="translate(-560.369 -710.137)" fill="#fff"/>
      <path id="Path_378" data-name="Path 378" d="M628.319,973.357q-2.861,1.6,0,3.2,2.861-1.6,0-3.2" transform="translate(-457.948 -679.661)" fill="#fff"/>
      <path id="Path_379" data-name="Path 379" d="M593.706,1009.747q-3,1.676,0,3.352,3-1.676,0-3.352" transform="translate(-432.614 -705.071)" fill="#fff"/>
      <path id="Path_380" data-name="Path 380" d="M482.252,980.93q2.905-1.626,0-3.251-2.905,1.625,0,3.251" transform="translate(-351.229 -682.679)" fill="#fff"/>
      <path id="Path_381" data-name="Path 381" d="M245.959,935.718q3.024-1.692,0-3.385-3.024,1.692,0,3.385" transform="translate(-178.571 -651.016)" fill="#fff"/>
      <path id="Path_382" data-name="Path 382" d="M215.654,920.408q2.748-1.538,0-3.076c-1.34,0-2.263,3.076,0,3.076" transform="translate(-156.534 -640.541)" fill="#fff"/>
      <path id="Path_383" data-name="Path 383" d="M141.3,886.127q-1.369-3.064-2.737,0,1.369,3.064,2.737,0" transform="translate(-101.223 -617.682)" fill="#fff"/>
      <path id="Path_384" data-name="Path 384" d="M81.337,886.9q-1.364-3.052-2.727,0,1.363,3.052,2.727,0" transform="translate(-57.425 -618.226)" fill="#fff"/>
      <path id="Path_385" data-name="Path 385" d="M58.885,887.745q2.537-1.421,0-2.841-2.538,1.42,0,2.841" transform="translate(-42.089 -617.898)" fill="#fff"/>
      <path id="Path_386" data-name="Path 386" d="M37.371,892.25q-1.3-2.913-2.6,0,1.3,2.913,2.6,0" transform="translate(-25.399 -622.01)" fill="#fff"/>
      <path id="Path_387" data-name="Path 387" d="M1970.035,114.3q3.084-1.726,0-3.451-3.083,1.725,0,3.451" transform="translate(-1438.002 -77.402)" fill="#fff"/>
      <path id="Path_388" data-name="Path 388" d="M1527.546,154.842q-3.061,1.713,0,3.426,3.061-1.713,0-3.426" transform="translate(-1114.768 -108.122)" fill="#fff"/>
      <path id="Path_389" data-name="Path 389" d="M1352.991,149.093c-2.157,0-1.95,3.462,0,3.462q3.093-1.732,0-3.462" transform="translate(-987.246 -104.107)" fill="#fff"/>
      <path id="Path_390" data-name="Path 390" d="M1344.533,135.685q2.882-1.613,0-3.225-2.882,1.613,0,3.225" transform="translate(-981.141 -92.493)" fill="#fff"/>
      <path id="Path_391" data-name="Path 391" d="M1119.119,226.017q1.486,3.325,2.971,0a1.492,1.492,0,1,0-2.971,0" transform="translate(-817.527 -156.684)" fill="#fff"/>
      <path id="Path_392" data-name="Path 392" d="M1000.063,216.3q1.33,2.979,2.661,0-1.331-2.978-2.661,0" transform="translate(-730.555 -149.999)" fill="#fff"/>
      <path id="Path_393" data-name="Path 393" d="M940.646,229.78q-3.1,1.736,0,3.472,3.1-1.736,0-3.472" transform="translate(-686.017 -160.448)" fill="#fff"/>
      <path id="Path_394" data-name="Path 394" d="M758.086,220.895q2.948-1.65,0-3.3-2.948,1.65,0,3.3" transform="translate(-552.712 -151.94)" fill="#fff"/>
      <path id="Path_395" data-name="Path 395" d="M671.223,253.227q-2.67,1.495,0,2.987,2.67-1.493,0-2.987" transform="translate(-489.359 -176.821)" fill="#fff"/>
      <path id="Path_396" data-name="Path 396" d="M568.19,299.064c0-1.828,2.88,4.492,2.88,0q-1.44-3.223-2.88,0" transform="translate(-415.068 -207.702)" fill="#fff"/>
      <path id="Path_397" data-name="Path 397" d="M468.626,347.726c-.875,0-2.2,2.8.2,2.8,2.721,0,.717-2.8-.2-2.8" transform="translate(-341.488 -242.806)" fill="#fff"/>
      <path id="Path_398" data-name="Path 398" d="M224.354,318.765q-2.758,1.543,0,3.087,2.758-1.544,0-3.087" transform="translate(-162.885 -222.583)" fill="#fff"/>
      <path id="Path_399" data-name="Path 399" d="M189.281,273.736c0-1.633-1.367-1.914-1.367.087,0,2.292,1.367,1.428,1.367-.087" transform="translate(-137.273 -190.219)" fill="#fff"/>
      <path id="Path_400" data-name="Path 400" d="M36.228,244.942q1.385,3.1,2.768,0-1.384-3.1-2.768,0" transform="translate(-26.465 -169.953)" fill="#fff"/>
      <path id="Path_401" data-name="Path 401" d="M1519.976,3.034q2.706-1.514,0-3.029-2.707,1.514,0,3.029" transform="translate(-1109.367 -0.005)" fill="#fff"/>
      <path id="Path_402" data-name="Path 402" d="M1382.843,40.21q2.543-1.423,0-2.846-2.543,1.423,0,2.846" transform="translate(-1009.251 -26.091)" fill="#fff"/>
      <path id="Path_403" data-name="Path 403" d="M1384.914,79.977q1.54,3.445,3.079,0-1.54-3.445-3.079,0" transform="translate(-1011.692 -54.644)" fill="#fff"/>
      <path id="Path_404" data-name="Path 404" d="M1296.682,44.948c1.773,0,2.305-3.428,0-3.428q-3.063,1.714,0,3.428" transform="translate(-946.119 -28.993)" fill="#fff"/>
      <path id="Path_405" data-name="Path 405" d="M1175.1,112.165c0,1.551,2.266,1.056,2.266-.727a1.841,1.841,0,0,0-.463-1.209c-2.065-2.219-1.8,1.557-1.8,1.936" transform="translate(-858.415 -76.486)" fill="#fff"/>
      <path id="Path_406" data-name="Path 406" d="M1105.014,121.084q2.917-1.632,0-3.264-2.917,1.632,0,3.264" transform="translate(-806.157 -82.271)" fill="#fff"/>
      <path id="Path_407" data-name="Path 407" d="M954.166,118.751q2.6-1.452,0-2.905-2.6,1.453,0,2.905" transform="translate(-696.079 -80.892)" fill="#fff"/>
      <path id="Path_408" data-name="Path 408" d="M711.607,70.344c0,1.132,2.532,1.4,2.532,0q-1.266-2.833-2.532,0" transform="translate(-519.835 -48.13)" fill="#fff"/>
      <path id="Path_409" data-name="Path 409" d="M696.056,35.332q2.748-1.537,0-3.076-2.747,1.538,0,3.076" transform="translate(-507.472 -22.524)" fill="#fff"/>
      <path id="Path_410" data-name="Path 410" d="M556.72,61.664c0,.374-3.713,3.205.164,3.205,4.039,0-.164-3.25-.164-3.205" transform="translate(-405.518 -43.059)" fill="#fff"/>
      <path id="Path_411" data-name="Path 411" d="M451.483,49.963q1.374,3.076,2.748,0-1.374-3.075-2.748,0" transform="translate(-329.812 -33.815)" fill="#fff"/>
      <path id="Path_412" data-name="Path 412" d="M444,16.349q-2.962,1.657,0,3.315,2.963-1.658,0-3.315" transform="translate(-323.265 -11.417)" fill="#fff"/>
      <path id="Path_413" data-name="Path 413" d="M401.947,36.879q2.643-1.479,0-2.958-2.643,1.479,0,2.958" transform="translate(-292.661 -23.687)" fill="#fff"/>
      <path id="Path_414" data-name="Path 414" d="M385.914,28.718q2.756-1.542,0-3.085-2.756,1.543,0,3.085" transform="translate(-280.907 -17.9)" fill="#fff"/>
      <path id="Path_415" data-name="Path 415" d="M345.275,33.61q2.72-1.523,0-3.045-2.72,1.523,0,3.045" transform="translate(-251.233 -21.344)" fill="#fff"/>
      <path id="Path_416" data-name="Path 416" d="M217.472,38.477q2.955-1.654,0-3.308-2.956,1.654,0,3.308" transform="translate(-157.786 -24.558)" fill="#fff"/>
      <path id="Path_417" data-name="Path 417" d="M876.337,106.475q1.322,2.96,2.645,0-1.322-2.96-2.645,0" transform="translate(-640.172 -73.315)" fill="#fff"/>
      <path id="Path_418" data-name="Path 418" d="M832.5,105.157q1.412,3.161,2.825,0-1.412-3.161-2.825,0" transform="translate(-608.148 -72.325)" fill="#fff"/>
      <path id="Path_419" data-name="Path 419" d="M794.708,180.165q2.765-1.548,0-3.1-2.765,1.548,0,3.1" transform="translate(-579.531 -123.642)" fill="#fff"/>
      <path id="Path_420" data-name="Path 420" d="M503.507,53.371q1.435,3.212,2.87,0-1.435-3.212-2.87,0" transform="translate(-367.816 -36.147)" fill="#fff"/>
      <path id="Path_421" data-name="Path 421" d="M440.651,6.636c1.687,0,2.175-3.3,0-3.3q-2.948,1.65,0,3.3" transform="translate(-320.823 -2.331)" fill="#fff"/>
      <path id="Path_422" data-name="Path 422" d="M1579.2,1074.686q-3.107,1.739,0,3.476,3.106-1.737,0-3.476" transform="translate(-1152.488 -750.416)" fill="#fff"/>
      <path id="Path_423" data-name="Path 423" d="M1486.547,1083.416q-2.972,1.663,0,3.326,2.973-1.663,0-3.326" transform="translate(-1084.851 -756.511)" fill="#fff"/>
      <path id="Path_424" data-name="Path 424" d="M1318.669,1085.819q-1.39-3.112-2.78,0,1.39,3.112,2.78,0" transform="translate(-961.269 -757.103)" fill="#fff"/>
      <path id="Path_425" data-name="Path 425" d="M1240.751,1117.633q-1.511-3.383-3.023,0,1.512,3.384,3.023,0" transform="translate(-904.172 -779.223)" fill="#fff"/>
      <path id="Path_426" data-name="Path 426" d="M882.439,1155.909q-1.358-3.04-2.716,0,1.358,3.04,2.716,0" transform="translate(-642.646 -806.069)" fill="#fff"/>
      <path id="Path_427" data-name="Path 427" d="M148.194,1169.46q-2.778,1.555,0,3.109,2.778-1.555,0-3.109" transform="translate(-107.243 -816.593)" fill="#fff"/>
      <path id="Path_428" data-name="Path 428" d="M168.839,1229.347q-3.125,1.748,0,3.5,3.125-1.749,0-3.5" transform="translate(-122.197 -858.41)" fill="#fff"/>
      <path id="Path_429" data-name="Path 429" d="M341.5,1192.6q2.59-1.449,0-2.9-2.59,1.45,0,2.9" transform="translate(-248.524 -830.728)" fill="#fff"/>
      <path id="Path_430" data-name="Path 430" d="M382.4,1227.576q-2.714,1.518,0,3.037,2.714-1.519,0-3.037" transform="translate(-278.358 -857.173)" fill="#fff"/>
      <path id="Path_431" data-name="Path 431" d="M565.318,1196.125q-1.515-3.392-3.031,0,1.515,3.393,3.031,0" transform="translate(-410.756 -834.028)" fill="#fff"/>
      <path id="Path_432" data-name="Path 432" d="M628.347,1218.873q-2.805,1.57,0,3.14,2.805-1.57,0-3.14" transform="translate(-457.988 -851.096)" fill="#fff"/>
      <path id="Path_433" data-name="Path 433" d="M1213.428,1207.339q-2.848,1.594,0,3.188,2.848-1.594,0-3.187" transform="translate(-885.38 -843.042)" fill="#fff"/>
      <path id="Path_434" data-name="Path 434" d="M1389.184,1205.38q-2.685,1.5,0,3.005,2.686-1.5,0-3.005" transform="translate(-1013.831 -841.675)" fill="#fff"/>
      <path id="Path_435" data-name="Path 435" d="M1471.8,1224.372q-2.805,1.57,0,3.14,2.805-1.57,0-3.14" transform="translate(-1074.138 -854.936)" fill="#fff"/>
      <path id="Path_436" data-name="Path 436" d="M1891.515,365.564q-1.351-3.025-2.7,0,1.351,3.025,2.7,0" transform="translate(-1379.795 -254.205)" fill="#fff"/>
      <path id="Path_437" data-name="Path 437" d="M1839.186,376.651q-1.288-2.885-2.577,0,1.289,2.884,2.577,0" transform="translate(-1341.66 -261.996)" fill="#fff"/>
      <path id="Path_438" data-name="Path 438" d="M1584.329,322.337q-1.432-3.205-2.864,0,1.432,3.205,2.864,0" transform="translate(-1155.274 -223.959)" fill="#fff"/>
      <path id="Path_439" data-name="Path 439" d="M1557.5,321.364q-2.941,1.646,0,3.292,2.941-1.646,0-3.292" transform="translate(-1136.697 -224.398)" fill="#fff"/>
      <path id="Path_440" data-name="Path 440" d="M1449.981,287.355q3.005-1.681,0-3.363-3,1.681,0,3.363" transform="translate(-1058.127 -198.303)" fill="#fff"/>
      <path id="Path_441" data-name="Path 441" d="M1392.645,304.084q-2.644,1.479,0,2.959,2.643-1.48,0-2.959" transform="translate(-1016.374 -212.332)" fill="#fff"/>
      <path id="Path_442" data-name="Path 442" d="M1246.754,251.724q-2.587,1.448,0,2.9,2.587-1.447,0-2.9" transform="translate(-909.82 -175.771)" fill="#fff"/>
      <path id="Path_443" data-name="Path 443" d="M1212.77,252.681q3-1.679,0-3.358-3,1.679,0,3.358" transform="translate(-884.844 -174.094)" fill="#fff"/>
      <path id="Path_444" data-name="Path 444" d="M1147.456,247.534q-2.748,1.538,0,3.076,2.748-1.538,0-3.076" transform="translate(-837.223 -172.845)" fill="#fff"/>
      <path id="Path_445" data-name="Path 445" d="M1082.225,247.923c-1.578,0-1.7,2.8,0,2.8q2.5-1.4,0-2.8" transform="translate(-789.676 -173.117)" fill="#fff"/>
      <path id="Path_446" data-name="Path 446" d="M1979.945,836.185q-3.127,1.75,0,3.5,3.126-1.75,0-3.5" transform="translate(-1445.226 -583.879)" fill="#fff"/>
      <path id="Path_447" data-name="Path 447" d="M1906.392,822.983c0-.943-2.52-2.544-2.52.5s2.52.4,2.52-.5" transform="translate(-1390.796 -573.772)" fill="#fff"/>
      <path id="Path_448" data-name="Path 448" d="M1842.863,804.344q1.339,3,2.678,0-1.339-3-2.678,0" transform="translate(-1346.228 -560.599)" fill="#fff"/>
      <path id="Path_449" data-name="Path 449" d="M1816.061,788.372q-1.255-2.807-2.509,0,1.254,2.808,2.509,0" transform="translate(-1324.816 -549.512)" fill="#fff"/>
      <path id="Path_450" data-name="Path 450" d="M1559.918,872.47c1.772,0-2.57-5-2.57-.533q.913,2.955,2.57.533" transform="translate(-1137.658 -607.548)" fill="#fff"/>
      <path id="Path_451" data-name="Path 451" d="M1418.292,874.907q-1.524-3.412-3.049,0,1.525,3.412,3.049,0" transform="translate(-1033.848 -609.726)" fill="#fff"/>
      <path id="Path_452" data-name="Path 452" d="M1391.183,857.818q-1.332-2.98-2.663,0,1.332,2.98,2.663,0" transform="translate(-1014.327 -597.944)" fill="#fff"/>
      <path id="Path_453" data-name="Path 453" d="M1306.619,878.432q-2.545,1.424,0,2.848,2.545-1.424,0-2.848" transform="translate(-953.567 -613.379)" fill="#fff"/>
      <path id="Path_454" data-name="Path 454" d="M1235.31,884.758q1.766-1.839-.736-3.054c-4.7,0,.906,3.583.736,3.054" transform="translate(-900.493 -615.663)" fill="#fff"/>
      <path id="Path_455" data-name="Path 455" d="M1023.79,847.23c-1.34,0-2.112,2.894,0,2.894q2.586-1.447,0-2.894" transform="translate(-746.931 -591.591)" fill="#fff"/>
      <path id="Path_456" data-name="Path 456" d="M888.222,862.457q-1.552-3.475-3.1,0,1.552,3.475,3.1,0" transform="translate(-646.586 -601.01)" fill="#fff"/>
      <path id="Path_457" data-name="Path 457" d="M803.606,836.655q-2.732,1.529,0,3.058,2.732-1.529,0-3.058" transform="translate(-586.043 -584.207)" fill="#fff"/>
      <path id="Path_458" data-name="Path 458" d="M722.942,841.827c0-3.865-1.267,2.894-2.965.222.34,2.842,2.965.867,2.965-.222" transform="translate(-525.95 -586.964)" fill="#fff"/>
      <path id="Path_459" data-name="Path 459" d="M701.574,851.864c.994.266,3.584-3.319.35-3.319-4.014,0-.436,3.022-.35,3.319" transform="translate(-511.374 -592.51)" fill="#fff"/>
      <path id="Path_460" data-name="Path 460" d="M642.77,835.583q2.828-1.583,0-3.166-2.828,1.583,0,3.166" transform="translate(-468.517 -581.248)" fill="#fff"/>
      <path id="Path_461" data-name="Path 461" d="M194.063,860.206q2.636-1.288.735-3.208c1.157,1.843-4.77,3.208-.735,3.208" transform="translate(-140.723 -598.412)" fill="#fff"/>
      <path id="Path_462" data-name="Path 462" d="M173.778,815.044q-2.91,1.628,0,3.257,2.91-1.629,0-3.257" transform="translate(-125.884 -569.117)" fill="#fff"/>
      <path id="Path_463" data-name="Path 463" d="M43.946,847.5q-2.975,1.665,0,3.329,2.974-1.665,0-3.329" transform="translate(-31.016 -591.778)" fill="#fff"/>
      <path id="Path_464" data-name="Path 464" d="M1597.38,318.107q-1.451-3.25-2.9,0,1.451,3.25,2.9,0" transform="translate(-1164.78 -220.989)" fill="#fff"/>
      <path id="Path_465" data-name="Path 465" d="M1576.464,309.8q2.807-1.571,0-3.141-2.806,1.571,0,3.141" transform="translate(-1150.597 -214.128)" fill="#fff"/>
      <path id="Path_466" data-name="Path 466" d="M1293.074,298.41q-1.356-3.034-2.711,0,1.356,3.034,2.711,0" transform="translate(-942.622 -207.311)" fill="#fff"/>
      <path id="Path_467" data-name="Path 467" d="M1268.206,361.555q-2.559,1.432,0,2.864,2.559-1.432,0-2.864" transform="translate(-925.502 -252.462)" fill="#fff"/>
      <path id="Path_468" data-name="Path 468" d="M1196.874,392.281q2.716-1.52,0-3.04-2.716,1.52,0,3.04" transform="translate(-873.335 -271.794)" fill="#fff"/>
      <path id="Path_469" data-name="Path 469" d="M1172.184,353.759q-2.8,1.568,0,3.136,2.8-1.568,0-3.136" transform="translate(-855.268 -247.018)" fill="#fff"/>
      <path id="Path_470" data-name="Path 470" d="M1119.938,357.485q3.115-1.744,0-3.487-3.115,1.743,0,3.487" transform="translate(-816.987 -247.185)" fill="#fff"/>
      <path id="Path_471" data-name="Path 471" d="M1008.185,412.14q1.438,3.219,2.876,0-1.438-3.218-2.876,0" transform="translate(-736.488 -286.66)" fill="#fff"/>
      <path id="Path_472" data-name="Path 472" d="M931.655,404.141q2.8-1.57,0-3.14-2.8,1.57,0,3.14" transform="translate(-679.558 -280.006)" fill="#fff"/>
      <path id="Path_473" data-name="Path 473" d="M928.177,458.611q1.274,2.851,2.547,0-1.273-2.852-2.547,0" transform="translate(-678.042 -319.237)" fill="#fff"/>
      <path id="Path_474" data-name="Path 474" d="M883.8,458.083q1.389,3.109,2.778,0-1.389-3.109-2.778,0" transform="translate(-645.623 -318.779)" fill="#fff"/>
      <path id="Path_475" data-name="Path 475" d="M851.417,449.865q2.632-1.473,0-2.946-2.632,1.473,0,2.946" transform="translate(-621.007 -312.069)" fill="#fff"/>
      <path id="Path_476" data-name="Path 476" d="M512.849,398.339q1.265,2.833,2.531,0-1.266-2.833-2.531,0" transform="translate(-374.641 -277.158)" fill="#fff"/>
      <path id="Path_477" data-name="Path 477" d="M358.306,450.782q-1.465-3.28-2.931,0,1.465,3.28,2.931,0" transform="translate(-259.605 -313.621)" fill="#fff"/>
      <path id="Path_478" data-name="Path 478" d="M13.258,417.356q-1.53-3.425-3.06,0,1.53,3.425,3.06,0" transform="translate(-7.45 -290.23)" fill="#fff"/>
      <path id="Path_479" data-name="Path 479" d="M1508.782,346.03q1.377,3.083,2.754,0-1.377-3.083-2.754,0" transform="translate(-1102.179 -240.545)" fill="#fff"/>
      <path id="Path_480" data-name="Path 480" d="M1302.82,384.068c2.349,0,1.711-3.474,0-3.474q-3.1,1.737,0,3.474" transform="translate(-950.588 -265.756)" fill="#fff"/>
      <path id="Path_481" data-name="Path 481" d="M1191.519,350.489q2.99-1.674,0-3.348-2.991,1.674,0,3.348" transform="translate(-869.323 -242.397)" fill="#fff"/>
      <path id="Path_482" data-name="Path 482" d="M1101.292,357.786q1.485,3.324,2.97,0-1.485-3.324-2.97,0" transform="translate(-804.504 -248.67)" fill="#fff"/>
      <path id="Path_483" data-name="Path 483" d="M797.792,354.823q2.658-1.488,0-2.975-2.658,1.487,0,2.975" transform="translate(-581.823 -245.684)" fill="#fff"/>
      <path id="Path_484" data-name="Path 484" d="M658.981,338.55q-3.067,1.717,0,3.433,3.068-1.717,0-3.433" transform="translate(-480.271 -236.398)" fill="#fff"/>
      <path id="Path_485" data-name="Path 485" d="M909.609,205.426q-3.025,1.693,0,3.385,3.025-1.693,0-3.385" transform="translate(-663.373 -143.443)" fill="#fff"/>
      <path id="Path_486" data-name="Path 486" d="M791.871,191.693q-1.254-2.807-2.508,0,1.254,2.806,2.508,0" transform="translate(-576.637 -132.873)" fill="#fff"/>
      <path id="Path_487" data-name="Path 487" d="M576.909,121.479q2.7-1.51,0-3.021-2.7,1.51,0,3.021" transform="translate(-420.452 -82.716)" fill="#fff"/>
      <path id="Path_488" data-name="Path 488" d="M561.065,58.139a1.257,1.257,0,1,0,2.5,0c0-3.083-2.5-.638-2.5,0" transform="translate(-409.863 -39.534)" fill="#fff"/>
      <path id="Path_489" data-name="Path 489" d="M517.216,62.153q2.841-1.59,0-3.18-2.841,1.59,0,3.18" transform="translate(-376.793 -41.18)" fill="#fff"/>
      <path id="Path_490" data-name="Path 490" d="M9.13,56.687q1.338,2.994,2.676,0-1.338-2.995-2.676,0" transform="translate(-6.67 -38.538)" fill="#fff"/>
      <path id="Path_491" data-name="Path 491" d="M1271.85,11.26q2.674-1.5,0-2.994-2.674,1.5,0,2.994" transform="translate(-928.121 -5.773)" fill="#fff"/>
      <path id="Path_492" data-name="Path 492" d="M1575.916,15.553c.852,0,3.137-3.4,0-3.4-2.245,0-1.75,3.4,0,3.4" transform="translate(-1150.122 -8.49)" fill="#fff"/>
      <path id="Path_493" data-name="Path 493" d="M1593.141,54.956q2.679-1.5,0-3-2.679,1.5,0,3" transform="translate(-1162.826 -36.281)" fill="#fff"/>
      <path id="Path_494" data-name="Path 494" d="M1934.179,208.963q2.781-1.556,0-3.112-2.781,1.556,0,3.112" transform="translate(-1411.92 -143.74)" fill="#fff"/>
      <path id="Path_495" data-name="Path 495" d="M1972.153,214.876q1.486,3.327,2.972,0-1.486-3.327-2.972,0" transform="translate(-1440.676 -148.88)" fill="#fff"/>
      <path id="Path_496" data-name="Path 496" d="M1812.083,92.762q2.611-1.461,0-2.922-2.611,1.461,0,2.922" transform="translate(-1322.79 -62.733)" fill="#fff"/>
      <path id="Path_497" data-name="Path 497" d="M1798.766,1163.628q-1.5-3.351-2.995,0,1.5,3.352,2.995,0" transform="translate(-1311.827 -811.351)" fill="#fff"/>
      <path id="Path_498" data-name="Path 498" d="M1686.717,1134.089q-1.264-2.83-2.529,0,1.265,2.83,2.529,0" transform="translate(-1230.315 -790.906)" fill="#fff"/>
      <path id="Path_499" data-name="Path 499" d="M1485.63,1149q-2.909,1.629,0,3.256,2.909-1.628,0-3.256" transform="translate(-1084.204 -802.303)" fill="#fff"/>
      <path id="Path_500" data-name="Path 500" d="M379.151,927.577q1.272,2.846,2.543,0-1.272-2.847-2.543,0" transform="translate(-276.973 -646.701)" fill="#fff"/>
      <path id="Path_501" data-name="Path 501" d="M619.073,864.345q-1.482-3.316-2.963,0,1.482,3.316,2.963,0" transform="translate(-450.074 -602.384)" fill="#fff"/>
      <path id="Path_502" data-name="Path 502" d="M720.439,840.479c2.092,0,1.522-3.045,0-3.045-2.039,0-1.53,3.045,0,3.045" transform="translate(-525.305 -584.751)" fill="#fff"/>
      <path id="Path_503" data-name="Path 503" d="M735.04,814.829q-2.532,1.417,0,2.834,2.533-1.417,0-2.834" transform="translate(-536.029 -568.967)" fill="#fff"/>
      <path id="Path_504" data-name="Path 504" d="M805.121,808.949q-2.613,1.462,0,2.924,2.613-1.462,0-2.924" transform="translate(-587.194 -564.861)" fill="#fff"/>
      <path id="Path_505" data-name="Path 505" d="M901.264,770.378q2.575-1.441,0-2.882-2.575,1.442,0,2.882" transform="translate(-657.441 -535.916)" fill="#fff"/>
      <path id="Path_506" data-name="Path 506" d="M925.078,810.395q3.127-1.75,0-3.5-3.127,1.75,0,3.5" transform="translate(-674.636 -563.427)" fill="#fff"/>
      <path id="Path_507" data-name="Path 507" d="M991.447,756.633q-1.28-2.866-2.56,0,1.28,2.866,2.56,0" transform="translate(-722.391 -527.33)" fill="#fff"/>
      <path id="Path_508" data-name="Path 508" d="M1146.892,794q-2.626,1.47,0,2.939,2.626-1.47,0-2.939" transform="translate(-836.856 -554.426)" fill="#fff"/>
      <path id="Path_509" data-name="Path 509" d="M1260.32,799.445q1.489,3.333,2.978,0-1.489-3.333-2.978,0" transform="translate(-920.675 -557.061)" fill="#fff"/>
      <path id="Path_510" data-name="Path 510" d="M1274.96,736.44q1.514,3.389,3.027,0-1.514-3.388-3.027,0" transform="translate(-931.37 -513.047)" fill="#fff"/>
      <path id="Path_511" data-name="Path 511" d="M1362.048,757.97q-3.038,1.7,0,3.4,3.037-1.7,0-3.4" transform="translate(-993.879 -529.264)" fill="#fff"/>
      <path id="Path_512" data-name="Path 512" d="M1465.844,731.168c-1.87,0-1.542,3.323,0,3.323q2.969-1.661,0-3.323" transform="translate(-1069.876 -510.549)" fill="#fff"/>
      <path id="Path_513" data-name="Path 513" d="M1531.553,733.9q1.307,2.927,2.615,0-1.307-2.927-2.615,0" transform="translate(-1118.813 -511.437)" fill="#fff"/>
      <path id="Path_514" data-name="Path 514" d="M1575.77,716.947q-1.453-3.253-2.906,0,1.453,3.253,2.906,0" transform="translate(-1148.991 -499.484)" fill="#fff"/>
      <path id="Path_515" data-name="Path 515" d="M1802.138,725.085q1.313,2.94,2.626,0-1.313-2.94-2.626,0" transform="translate(-1316.478 -505.275)" fill="#fff"/>
      <path id="Path_516" data-name="Path 516" d="M1841.253,724.95q2.819-1.571.026-3.166c.023-.108-4,3.166-.026,3.166" transform="translate(-1343.77 -503.995)" fill="#fff"/>
      <path id="Path_517" data-name="Path 517" d="M762.035,896.4q2.491-1.394,0-2.788-2.491,1.394,0,2.788" transform="translate(-555.764 -623.975)" fill="#fff"/>
      <path id="Path_518" data-name="Path 518" d="M812.9,920.755q-1.461-3.271-2.923,0,1.462,3.271,2.923,0" transform="translate(-591.693 -641.789)" fill="#fff"/>
      <path id="Path_519" data-name="Path 519" d="M858.527,914.665q2.946-1.649,0-3.3-2.946,1.649,0,3.3" transform="translate(-626.086 -636.377)" fill="#fff"/>
      <path id="Path_520" data-name="Path 520" d="M1470.555,915.773q-2.727,1.526,0,3.052,2.727-1.526,0-3.052" transform="translate(-1073.258 -639.453)" fill="#fff"/>
      <path id="Path_521" data-name="Path 521" d="M1563.022,878.025c-2.062-.484-2.738,3.416-.318,3.416q2.918-1.548.318-3.416" transform="translate(-1140.443 -613.065)" fill="#fff"/>
      <path id="Path_522" data-name="Path 522" d="M1613.794,931.393q-1.439-3.22-2.877,0,1.438,3.219,2.877,0" transform="translate(-1176.79 -649.235)" fill="#fff"/>
      <path id="Path_523" data-name="Path 523" d="M1736.138,923.955q-2.991,1.674,0,3.348,2.991-1.674,0-3.348" transform="translate(-1267.172 -645.166)" fill="#fff"/>
      <path id="Path_524" data-name="Path 524" d="M1755.953,892.05q1.455,3.257,2.91,0-1.455-3.257-2.91,0" transform="translate(-1282.74 -621.751)" fill="#fff"/>
      <path id="Path_525" data-name="Path 525" d="M1898.4,923.862q-2.527,1.414,0,2.828,2.526-1.414,0-2.828" transform="translate(-1385.877 -645.101)" fill="#fff"/>
      <path id="Path_526" data-name="Path 526" d="M1838.037,717.711c.453-2.128-2.976-2.414-2.976-.392,0,2.577,2.667,1.843,2.976.392" transform="translate(-1340.529 -499.922)" fill="#fff"/>
      <path id="Path_527" data-name="Path 527" d="M1727.584,700.605q3.008-1.684,0-3.367-3.008,1.684,0,3.367" transform="translate(-1260.917 -486.857)" fill="#fff"/>
      <path id="Path_528" data-name="Path 528" d="M1689.93,722.739q-1.362-3.048-2.723,0,1.361,3.047,2.723,0" transform="translate(-1232.52 -503.599)" fill="#fff"/>
      <path id="Path_529" data-name="Path 529" d="M1588.226,805.059c2.078-1.144-.375-3.969-1.609-2.915,0,2.923-.54,1.078,1.609,2.915" transform="translate(-1158.994 -559.948)" fill="#fff"/>
      <path id="Path_530" data-name="Path 530" d="M1547.73,785.389q-2.92,1.633,0,3.267,2.919-1.633,0-3.267" transform="translate(-1129.564 -548.41)" fill="#fff"/>
      <path id="Path_531" data-name="Path 531" d="M1534.92,783.358q-3,1.678,0,3.356,3-1.678,0-3.356" transform="translate(-1120.178 -546.992)" fill="#fff"/>
      <path id="Path_532" data-name="Path 532" d="M1413.149,789.984q2.8-1.57,0-3.14-2.8,1.57,0,3.14" transform="translate(-1031.294 -549.426)" fill="#fff"/>
      <path id="Path_533" data-name="Path 533" d="M1398.767,845.058q2.8-1.566,0-3.134-2.8,1.567,0,3.134" transform="translate(-1020.789 -587.886)" fill="#fff"/>
      <path id="Path_534" data-name="Path 534" d="M1338.754,835.415q-2.505,1.4,0,2.8,2.5-1.4,0-2.8" transform="translate(-977.057 -583.341)" fill="#fff"/>
      <path id="Path_535" data-name="Path 535" d="M1278.741,824.268q-1.282-2.868-2.563,0,1.282,2.868,2.563,0" transform="translate(-932.26 -574.556)" fill="#fff"/>
      <path id="Path_536" data-name="Path 536" d="M1259.885,848.72q-1.346-3.013-2.692,0,1.346,3.013,2.692,0" transform="translate(-918.391 -591.58)" fill="#fff"/>
      <path id="Path_537" data-name="Path 537" d="M1248.758,884.46q-1.454-3.253-2.907,0,1.454,3.253,2.907,0" transform="translate(-910.105 -616.452)" fill="#fff"/>
      <path id="Path_538" data-name="Path 538" d="M1004.513,925.832q2.746-1.537,0-3.074-2.746,1.537,0,3.074" transform="translate(-732.803 -644.33)" fill="#fff"/>
      <path id="Path_539" data-name="Path 539" d="M619.592,953.471q-1.272-2.848-2.544,0c0,1.521,2.544,2.275,2.544,0" transform="translate(-450.759 -664.781)" fill="#fff"/>
      <path id="Path_540" data-name="Path 540" d="M553.634,972.3q3.126-1.749,0-3.5-3.126,1.75,0,3.5" transform="translate(-403.293 -676.481)" fill="#fff"/>
      <path id="Path_541" data-name="Path 541" d="M455.791,972.493q-1.319-2.951-2.636,0,1.318,2.95,2.636,0" transform="translate(-331.034 -678.027)" fill="#fff"/>
      <path id="Path_542" data-name="Path 542" d="M334.531,975.2a1.507,1.507,0,1,0-3,.2c.172,1.577,3,2.494,3-.2" transform="translate(-242.179 -679.879)" fill="#fff"/>
      <path id="Path_543" data-name="Path 543" d="M108.7,891.724q-1.35-3.021-2.7,0a1.358,1.358,0,1,0,2.7,0" transform="translate(-77.436 -621.605)" fill="#fff"/>
      <path id="Path_544" data-name="Path 544" d="M120.612,847.162q-1.389-3.109-2.778,0,1.389,3.11,2.778,0" transform="translate(-86.079 -590.458)" fill="#fff"/>
      <path id="Path_545" data-name="Path 545" d="M192.717,857.909c2.08,0,1.567-3.112,0-3.112-2.1,0-1.536,3.112,0,3.112" transform="translate(-139.778 -596.875)" fill="#fff"/>
      <path id="Path_546" data-name="Path 546" d="M425.152,711.043q1.284,2.873,2.567,0-1.284-2.874-2.567,0" transform="translate(-310.577 -495.493)" fill="#fff"/>
      <path id="Path_547" data-name="Path 547" d="M721.838,710.422q2.832-1.585,0-3.17-2.832,1.585,0,3.17" transform="translate(-526.275 -493.85)" fill="#fff"/>
      <path id="Path_548" data-name="Path 548" d="M768.278,671.583q-1.393-3.12-2.788,0,1.394,3.12,2.788,0" transform="translate(-559.197 -467.854)" fill="#fff"/>
      <path id="Path_549" data-name="Path 549" d="M853.22,643.977q-1.494-3.344-2.987,0,1.494,3.343,2.987,0" transform="translate(-621.103 -448.5)" fill="#fff"/>
      <path id="Path_550" data-name="Path 550" d="M1049.583,720.817q-1.357-3.038-2.714,0,1.357,3.038,2.714,0" transform="translate(-764.747 -502.261)" fill="#fff"/>
      <path id="Path_551" data-name="Path 551" d="M1341.911,736.449q2.782-1.557,0-3.114-2.783,1.557,0,3.114" transform="translate(-979.262 -512.063)" fill="#fff"/>
      <path id="Path_552" data-name="Path 552" d="M1397.869,743.591q-2.509,1.4,0,2.807,2.508-1.4,0-2.807" transform="translate(-1020.24 -519.224)" fill="#fff"/>
      <path id="Path_553" data-name="Path 553" d="M1579.8,799.059c0-.643-2.577-3.2-2.577,0,0,2.144,2.577,1.649,2.577,0" transform="translate(-1152.174 -556.854)" fill="#fff"/>
      <path id="Path_554" data-name="Path 554" d="M1751.844,791.553q2.6-1.457,0-2.914-2.6,1.457,0,2.914" transform="translate(-1278.787 -550.679)" fill="#fff"/>
      <path id="Path_555" data-name="Path 555" d="M1947.592,593.409q-3.045,1.7,0,3.409,3.046-1.7,0-3.409" transform="translate(-1421.622 -414.357)" fill="#fff"/>
      <path id="Path_556" data-name="Path 556" d="M1838.729,598.964q2.726-1.526,0-3.051-2.726,1.525,0,3.051" transform="translate(-1342.213 -416.106)" fill="#fff"/>
      <path id="Path_557" data-name="Path 557" d="M1814.458,637.739q2.766-1.548,0-3.1-2.766,1.548,0,3.1" transform="translate(-1324.468 -443.15)" fill="#fff"/>
      <path id="Path_558" data-name="Path 558" d="M1450.278,693.472q-1.353-3.028-2.706,0,1.353,3.029,2.706,0" transform="translate(-1057.464 -483.17)" fill="#fff"/>
      <path id="Path_559" data-name="Path 559" d="M1438.434,669.211q-1.422-3.183-2.844,0,1.422,3.183,2.844,0" transform="translate(-1048.711 -466.176)" fill="#fff"/>
      <path id="Path_560" data-name="Path 560" d="M1351.109,678.771q2.846-1.593,0-3.185-2.845,1.592,0,3.185" transform="translate(-985.958 -471.738)" fill="#fff"/>
      <path id="Path_561" data-name="Path 561" d="M1268.87,671.008q-1.49-3.336-2.98,0,1.49,3.336,2.98,0" transform="translate(-924.744 -467.378)" fill="#fff"/>
      <path id="Path_562" data-name="Path 562" d="M1219.1,729.364q-2.792,1.562,0,3.124,2.792-1.562,0-3.124" transform="translate(-889.545 -509.29)" fill="#fff"/>
      <path id="Path_563" data-name="Path 563" d="M1139.23,684.164q-1.4-3.145-2.81,0,1.405,3.146,2.81,0" transform="translate(-830.165 -476.63)" fill="#fff"/>
      <path id="Path_564" data-name="Path 564" d="M1096.469,754.311c1.684,0,2.307-3.368,0-3.368q-3.01,1.684,0,3.368" transform="translate(-799.881 -524.358)" fill="#fff"/>
      <path id="Path_565" data-name="Path 565" d="M683.841,806.107q2.588-1.448,0-2.9-2.588,1.449,0,2.9" transform="translate(-498.607 -560.854)" fill="#fff"/>
      <path id="Path_566" data-name="Path 566" d="M600.323,825.285q-1.433-3.208-2.866,0,1.433,3.208,2.866,0" transform="translate(-436.448 -575.148)" fill="#fff"/>
      <path id="Path_567" data-name="Path 567" d="M344.1,886.345q-2.6,1.455,0,2.91,2.6-1.455,0-2.91" transform="translate(-250.416 -618.904)" fill="#fff"/>
      <path id="Path_568" data-name="Path 568" d="M212.708,972.281q-3.1,1.734,0,3.468,3.1-1.734,0-3.468" transform="translate(-154.254 -678.91)" fill="#fff"/>
      <path id="Path_569" data-name="Path 569" d="M324.868,552.555q-1.455-3.257-2.91,0,1.455,3.257,2.91,0" transform="translate(-235.193 -384.694)" fill="#fff"/>
      <path id="Path_570" data-name="Path 570" d="M511.347,498.5q3.033-1.7,0-3.393-3.032,1.7,0,3.393" transform="translate(-372.436 -345.716)" fill="#fff"/>
      <path id="Path_571" data-name="Path 571" d="M606.994,536.255q1.4,3.137,2.8,0-1.4-3.137-2.8,0" transform="translate(-443.415 -373.353)" fill="#fff"/>
      <path id="Path_572" data-name="Path 572" d="M671.273,509.391q2.843-1.591,0-3.183-2.843,1.591,0,3.183" transform="translate(-489.333 -353.468)" fill="#fff"/>
      <path id="Path_573" data-name="Path 573" d="M684.312,512.961q-2.722,1.523,0,3.047,2.722-1.524,0-3.047" transform="translate(-498.902 -358.183)" fill="#fff"/>
      <path id="Path_574" data-name="Path 574" d="M717.15,497.314q-2.83,1.584,0,3.168,2.83-1.584,0-3.168" transform="translate(-522.851 -347.258)" fill="#fff"/>
      <path id="Path_575" data-name="Path 575" d="M1027.121,505.423q2.681-1.5,0-3-2.681,1.5,0,3" transform="translate(-749.342 -350.824)" fill="#fff"/>
      <path id="Path_576" data-name="Path 576" d="M1149.45,514.639q-1.5-3.35-2.993,0,1.5,3.35,2.993,0" transform="translate(-837.497 -358.185)" fill="#fff"/>
      <path id="Path_577" data-name="Path 577" d="M1271.388,486.38q-1.291-2.89-2.583,0,1.291,2.891,2.583,0" transform="translate(-926.874 -338.613)" fill="#fff"/>
      <path id="Path_578" data-name="Path 578" d="M1283.25,531.978c1.914,0,1.891-3.4,0-3.4q-3.036,1.7,0,3.4" transform="translate(-936.317 -369.09)" fill="#fff"/>
      <path id="Path_579" data-name="Path 579" d="M1330.81,496.726q-1.334-2.984-2.667,0,1.333,2.985,2.667,0" transform="translate(-970.22 -345.805)" fill="#fff"/>
      <path id="Path_580" data-name="Path 580" d="M1419.5,497.052q-2.572,1.44,0,2.879,2.572-1.439,0-2.879" transform="translate(-1036.022 -347.075)" fill="#fff"/>
      <path id="Path_581" data-name="Path 581" d="M1526.617,509.723q3.085-1.726,0-3.452-3.084,1.726,0,3.452" transform="translate(-1114.081 -353.512)" fill="#fff"/>
      <path id="Path_582" data-name="Path 582" d="M1576.261,513.143q2.544-1.424,0-2.848-2.544,1.424,0,2.848" transform="translate(-1150.543 -356.322)" fill="#fff"/>
      <path id="Path_583" data-name="Path 583" d="M1696.378,510.935q-2.967,1.66,0,3.32,2.966-1.66,0-3.32" transform="translate(-1238.136 -356.769)" fill="#fff"/>
      <path id="Path_584" data-name="Path 584" d="M1791.116,438.017q-2.647,1.481,0,2.963,2.647-1.481,0-2.963" transform="translate(-1307.459 -305.853)" fill="#fff"/>
      <path id="Path_585" data-name="Path 585" d="M1802.979,437.758q-3.1,1.733,0,3.466,3.1-1.733,0-3.466" transform="translate(-1315.961 -305.672)" fill="#fff"/>
      <path id="Path_586" data-name="Path 586" d="M1877.984,414.776c2.066,0,1.374-3-.089-2.888q-2.455,1.489.089,2.888" transform="translate(-1370.938 -287.605)" fill="#fff"/>
      <path id="Path_587" data-name="Path 587" d="M1679.278,321.217q-2.9,1.623,0,3.246,2.9-1.623,0-3.246" transform="translate(-1225.668 -224.295)" fill="#fff"/>
      <path id="Path_588" data-name="Path 588" d="M1673.889,334.16q2.72-1.522,0-3.044-2.72,1.522,0,3.044" transform="translate(-1221.797 -231.208)" fill="#fff"/>
      <path id="Path_589" data-name="Path 589" d="M1187.67,385.477q-1.481-3.315-2.962,0,1.481,3.315,2.962,0" transform="translate(-865.44 -268.009)" fill="#fff"/>
      <path id="Path_590" data-name="Path 590" d="M1094.745,391.889q-1.451-3.248-2.9,0,1.451,3.248,2.9,0" transform="translate(-797.601 -272.509)" fill="#fff"/>
      <path id="Path_591" data-name="Path 591" d="M1037.37,420.948q1.452,3.251,2.9,0-1.452-3.25-2.9,0" transform="translate(-757.808 -292.799)" fill="#fff"/>
      <path id="Path_592" data-name="Path 592" d="M877.009,445.887q1.407,3.15,2.815,0-1.407-3.15-2.815,0" transform="translate(-640.663 -310.248)" fill="#fff"/>
      <path id="Path_593" data-name="Path 593" d="M852.825,426.661q-2.833,1.585,0,3.171,2.833-1.585,0-3.171" transform="translate(-621.961 -297.923)" fill="#fff"/>
      <path id="Path_594" data-name="Path 594" d="M841.714,469.862q2.87-1.606,0-3.212-2.87,1.606,0,3.212" transform="translate(-613.831 -325.846)" fill="#fff"/>
      <path id="Path_595" data-name="Path 595" d="M819.1,469.027q1.257,2.815,2.515,0-1.258-2.816-2.515,0" transform="translate(-598.359 -326.523)" fill="#fff"/>
      <path id="Path_596" data-name="Path 596" d="M699.829,443.991q-3.118,1.745,0,3.49,3.118-1.745,0-3.49" transform="translate(-510.092 -310.024)" fill="#fff"/>
      <path id="Path_597" data-name="Path 597" d="M1920.015,243.313q-1.313-2.938-2.625,0,1.313,2.938,2.625,0" transform="translate(-1400.671 -168.872)" fill="#fff"/>
      <path id="Path_598" data-name="Path 598" d="M1902.472,231.729q2.814-1.575,0-3.15-2.814,1.575,0,3.15" transform="translate(-1388.745 -159.61)" fill="#fff"/>
      <path id="Path_599" data-name="Path 599" d="M1781.562,211.417q-2.715,1.519,0,3.039,2.715-1.519,0-3.039" transform="translate(-1300.455 -147.626)" fill="#fff"/>
      <path id="Path_600" data-name="Path 600" d="M1689.289,244.449q3.025-1.692,0-3.385-3.024,1.693,0,3.385" transform="translate(-1232.936 -168.328)" fill="#fff"/>
      <path id="Path_601" data-name="Path 601" d="M1656.129,244.352q2.681-1.5,0-3-2.681,1.5,0,3" transform="translate(-1208.838 -168.529)" fill="#fff"/>
      <path id="Path_602" data-name="Path 602" d="M1488.078,235.295c2.224,0,1.51-3.148,0-3.148q-2.812,1.574,0,3.148" transform="translate(-1086.027 -162.101)" fill="#fff"/>
      <path id="Path_603" data-name="Path 603" d="M1349.852,202.147q-2.677,1.5,0,3,2.677-1.5,0-3" transform="translate(-985.102 -141.153)" fill="#fff"/>
      <path id="Path_604" data-name="Path 604" d="M1054.616,166.427q-2.734,1.53,0,3.06,2.734-1.53,0-3.06" transform="translate(-769.408 -116.211)" fill="#fff"/>
      <path id="Path_605" data-name="Path 605" d="M1657.972,203.111q1.406,3.148,2.813,0-1.406-3.148-2.813,0" transform="translate(-1211.164 -140.727)" fill="#fff"/>
      <path id="Path_606" data-name="Path 606" d="M1390.174,140.027q-3.127,1.75,0,3.5,3.127-1.75,0-3.5" transform="translate(-1014.393 -97.777)" fill="#fff"/>
      <path id="Path_607" data-name="Path 607" d="M1271.263,154.852q-1.319-2.952-2.638,0,1.319,2.953,2.638,0" transform="translate(-926.742 -107.098)" fill="#fff"/>
      <path id="Path_608" data-name="Path 608" d="M1139.52,1093.566q-2.57,1.438,0,2.876,2.57-1.438,0-2.876" transform="translate(-831.491 -763.599)" fill="#fff"/>
      <path id="Path_609" data-name="Path 609" d="M1123.949,1107.264q-2.5,1.4,0,2.794,2.5-1.4,0-2.794" transform="translate(-820.143 -773.164)" fill="#fff"/>
      <path id="Path_610" data-name="Path 610" d="M995.826,1127.654q-2.858,1.6,0,3.2,2.857-1.6,0-3.2" transform="translate(-726.416 -787.401)" fill="#fff"/>
      <path id="Path_611" data-name="Path 611" d="M942.958,1071.4q-3.091,1.73,0,3.46,3.091-1.73,0-3.46" transform="translate(-687.711 -748.124)" fill="#fff"/>
      <path id="Path_612" data-name="Path 612" d="M932.228,1112.765q-3.034,1.7,0,3.4,3.034-1.7,0-3.4" transform="translate(-679.892 -777.005)" fill="#fff"/>
      <path id="Path_613" data-name="Path 613" d="M884.15,1101.278q1.553,3.476,3.106,0c0-2.8-3.106-1.8-3.106,0" transform="translate(-645.88 -767.764)" fill="#fff"/>
      <path id="Path_614" data-name="Path 614" d="M828.31,1140.134q-2.615,1.463,0,2.926,2.613-1.463,0-2.926" transform="translate(-604.133 -796.116)" fill="#fff"/>
      <path id="Path_615" data-name="Path 615" d="M328.558,1106.46q-2.692,1.506,0,3.013,2.692-1.506,0-3.013" transform="translate(-239.031 -772.602)" fill="#fff"/>
      <path id="Path_616" data-name="Path 616" d="M231.942,1101.219q-1.361-3.046-2.722,0,1.361,3.046,2.722,0" transform="translate(-167.447 -767.879)" fill="#fff"/>
      <path id="Path_617" data-name="Path 617" d="M147.253,1083.332q-1.389-3.11-2.778,0,1.389,3.109,2.778,0" transform="translate(-105.54 -755.367)" fill="#fff"/>
      <path id="Path_618" data-name="Path 618" d="M68.149,966.695q-1.271-2.845-2.542,0,1.271,2.845,2.542,0" transform="translate(-47.927 -674.016)" fill="#fff"/>
      <path id="Path_619" data-name="Path 619" d="M130.756,943.19q-3.058,1.711,0,3.423,3.058-1.712,0-3.423" transform="translate(-94.401 -658.597)" fill="#fff"/>
      <path id="Path_620" data-name="Path 620" d="M152.612,937.857q3.04-1.7,0-3.4-3.04,1.7,0,3.4" transform="translate(-110.374 -652.497)" fill="#fff"/>
      <path id="Path_621" data-name="Path 621" d="M253.44,979.926q2.522-1.412,0-2.823-2.522,1.411,0,2.823" transform="translate(-184.219 -682.277)" fill="#fff"/>
      <path id="Path_622" data-name="Path 622" d="M434.506,937.474q-1.285-2.875-2.569,0,1.284,2.875,2.569,0" transform="translate(-315.534 -653.601)" fill="#fff"/>
      <path id="Path_623" data-name="Path 623" d="M438.354,983.408q-1.422-3.182-2.843,0,1.422,3.183,2.843,0" transform="translate(-318.145 -685.568)" fill="#fff"/>
      <path id="Path_624" data-name="Path 624" d="M557.1,1037.022q-1.342-3-2.684,0,1.342,3,2.684,0" transform="translate(-405.005 -723.067)" fill="#fff"/>
      <path id="Path_625" data-name="Path 625" d="M630.46,1035.682q-1.476-3.3-2.952,0,1.476,3.3,2.952,0" transform="translate(-458.4 -722.027)" fill="#fff"/>
      <path id="Path_626" data-name="Path 626" d="M505.324,1146.51q-1.382-3.093-2.764,0,1.382,3.094,2.764,0" transform="translate(-367.125 -799.488)" fill="#fff"/>
      <path id="Path_627" data-name="Path 627" d="M338.737,1229.069q-2.673,1.5,0,2.992,2.673-1.5,0-2.992" transform="translate(-246.474 -858.216)" fill="#fff"/>
      <path id="Path_628" data-name="Path 628" d="M1518.193,1043.131q3.1-1.736,0-3.472-3.1,1.736,0,3.472" transform="translate(-1107.921 -725.958)" fill="#fff"/>
      <path id="Path_629" data-name="Path 629" d="M1454.947,1099.429c1.21,0,2.751-3.43,0-3.43-2.127,0-1.952,3.43,0,3.43" transform="translate(-1061.734 -765.298)" fill="#fff"/>
      <path id="Path_630" data-name="Path 630" d="M1422.339,1070.581c-1.871,0-1.4,2.8,0,2.8.979,0,2.25-2.8,0-2.8" transform="translate(-1038.13 -747.549)" fill="#fff"/>
      <path id="Path_631" data-name="Path 631" d="M1406.25,1123.9q-1.274-2.852-2.548,0,1.274,2.853,2.548,0" transform="translate(-1025.417 -783.782)" fill="#fff"/>
      <path id="Path_632" data-name="Path 632" d="M1273.987,1088.229q-3.1,1.736,0,3.472,3.1-1.736,0-3.472" transform="translate(-929.526 -759.872)" fill="#fff"/>
      <path id="Path_633" data-name="Path 633" d="M1102.13,1134.189q-2.572,1.44,0,2.879,2.572-1.439,0-2.879" transform="translate(-804.176 -791.964)" fill="#fff"/>
      <path id="Path_634" data-name="Path 634" d="M1063.27,1188.73q2.584-1.446,0-2.891-2.583,1.445,0,2.891" transform="translate(-775.784 -828.029)" fill="#fff"/>
      <path id="Path_635" data-name="Path 635" d="M675.583,1206.369q-3.073,1.72,0,3.439,3.073-1.719,0-3.439" transform="translate(-492.397 -842.365)" fill="#fff"/>
      <path id="Path_636" data-name="Path 636" d="M651.755,1186.991q-2.636,1.475,0,2.95,2.636-1.474,0-2.95" transform="translate(-475.15 -828.834)" fill="#fff"/>
      <path id="Path_637" data-name="Path 637" d="M583.89,1105.08c0-1.388-2.5-2.333-2.5,0q1.248,2.794,2.5,0" transform="translate(-424.714 -770.649)" fill="#fff"/>
      <path id="Path_638" data-name="Path 638" d="M462.459,989.945q-2.623,1.468,0,2.936,2.622-1.468,0-2.936" transform="translate(-336.873 -691.244)" fill="#fff"/>
      <path id="Path_639" data-name="Path 639" d="M424.427,1046.105q2.945-1.648,0-3.3-2.945,1.648,0,3.3" transform="translate(-308.972 -728.157)" fill="#fff"/>
      <path id="Path_640" data-name="Path 640" d="M238.394,1016.19q2.642-1.478,0-2.957-2.642,1.479,0,2.957" transform="translate(-173.184 -707.505)" fill="#fff"/>
      <path id="Path_641" data-name="Path 641" d="M546.713,1103.03c-1.509,0-2.011,2.966,0,2.966q2.651-1.483,0-2.966" transform="translate(-398.41 -770.207)" fill="#fff"/>
      <path id="Path_642" data-name="Path 642" d="M573.066,1207.221q-3.091,1.73,0,3.46,3.091-1.73,0-3.46" transform="translate(-417.501 -842.96)" fill="#fff"/>
      <path id="Path_643" data-name="Path 643" d="M484.659,1199.094q-2.583,1.445,0,2.89,2.583-1.445,0-2.89" transform="translate(-353.104 -837.285)" fill="#fff"/>
      <path id="Path_644" data-name="Path 644" d="M420.8,1194.381c-2.287,0-1.855,3.486,0,3.486q3.114-1.743,0-3.486" transform="translate(-306.261 -833.994)" fill="#fff"/>
      <path id="Path_645" data-name="Path 645" d="M473.638,1077.992q-3,1.679,0,3.357,3-1.679,0-3.357" transform="translate(-344.901 -752.724)" fill="#fff"/>
      <path id="Path_646" data-name="Path 646" d="M565,1013.985q-1.253-2.8-2.506,0,1.253,2.8,2.506,0" transform="translate(-410.911 -707.051)" fill="#fff"/>
      <path id="Path_647" data-name="Path 647" d="M693.7,956.382q-2.847,1.593,0,3.186,2.847-1.594,0-3.186" transform="translate(-505.718 -667.808)" fill="#fff"/>
      <path id="Path_648" data-name="Path 648" d="M732.722,1000.12q-2.794,1.563,0,3.127,2.793-1.564,0-3.127" transform="translate(-534.239 -698.349)" fill="#fff"/>
      <path id="Path_649" data-name="Path 649" d="M1069.917,903.884q-1.308-2.93-2.617,0,1.308,2.929,2.617,0" transform="translate(-779.672 -630.128)" fill="#fff"/>
      <path id="Path_650" data-name="Path 650" d="M811.09,1233.862c0-2.551-3.024-1.933-3.024,0a1.512,1.512,0,1,0,3.024,0" transform="translate(-590.299 -860.383)" fill="#fff"/>
      <path id="Path_651" data-name="Path 651" d="M794.568,1197.541c-2.2,0-1.691,3.564.237,3.2q2.526-1.722-.237-3.2" transform="translate(-579.387 -836.201)" fill="#fff"/>
      <path id="Path_652" data-name="Path 652" d="M708.815,1157.263q-1.295-2.9-2.59,0,1.295,2.9,2.59,0" transform="translate(-515.904 -807.064)" fill="#fff"/>
      <path id="Path_653" data-name="Path 653" d="M651.385,1174.684q-1.33-2.976-2.659,0,1.33,2.976,2.659,0" transform="translate(-473.9 -819.202)" fill="#fff"/>
      <path id="Path_654" data-name="Path 654" d="M683.3,318.218q3.116-1.744,0-3.487-3.116,1.744,0,3.487" transform="translate(-498.022 -219.766)" fill="#fff"/>
      <path id="Path_655" data-name="Path 655" d="M538.463,272.839q1.441,3.227,2.883,0-1.441-3.227-2.883,0" transform="translate(-393.352 -189.388)" fill="#fff"/>
      <path id="Path_656" data-name="Path 656" d="M462.312,314.766q-2.531,1.418,0,2.834,2.532-1.417,0-2.834" transform="translate(-336.799 -219.791)" fill="#fff"/>
      <path id="Path_657" data-name="Path 657" d="M251.32,236.337q1.323,2.962,2.647,0-1.323-2.962-2.647,0" transform="translate(-183.592 -163.993)" fill="#fff"/>
      <path id="Path_658" data-name="Path 658" d="M62.754,282.756q-1.449-3.243-2.9,0,1.449,3.243,2.9,0" transform="translate(-43.725 -196.307)" fill="#fff"/>
      <path id="Path_659" data-name="Path 659" d="M880.136,498.838q1.538,3.443,3.076,0-1.538-3.443-3.076,0" transform="translate(-642.947 -347.12)" fill="#fff"/>
      <path id="Path_660" data-name="Path 660" d="M1129.487,62.156q2.8-1.568,0-3.136-2.8,1.568,0,3.136" transform="translate(-824.077 -41.213)" fill="#fff"/>
      <path id="Path_661" data-name="Path 661" d="M1052.146,55.185q3.041-1.7,0-3.4-3.041,1.7,0,3.4" transform="translate(-767.492 -36.158)" fill="#fff"/>
      <path id="Path_662" data-name="Path 662" d="M846.026,38.357q1.461,3.271,2.923,0c0-.38-2.923-2.337-2.923,0" transform="translate(-618.03 -25.997)" fill="#fff"/>
      <path id="Path_663" data-name="Path 663" d="M781.414,89.982q2.517-1.408,0-2.817-2.517,1.409,0,2.817" transform="translate(-569.911 -60.865)" fill="#fff"/>
      <path id="Path_664" data-name="Path 664" d="M600.675,95.352q2.5-1.4,0-2.8-2.5,1.4,0,2.8" transform="translate(-437.887 -64.63)" fill="#fff"/>
      <path id="Path_665" data-name="Path 665" d="M1428.566,80.543q2.512-1.405,0-2.811-2.512,1.405,0,2.811" transform="translate(-1042.663 -54.279)" fill="#fff"/>
      <path id="Path_666" data-name="Path 666" d="M1295.191,70.837q2.506-1.4,0-2.8-2.506,1.4,0,2.8" transform="translate(-945.233 -47.506)" fill="#fff"/>
      <path id="Path_667" data-name="Path 667" d="M1120.048,113.942q1.254,2.808,2.509,0c0-1.551-2.509-2.181-2.509,0" transform="translate(-818.205 -78.578)" fill="#fff"/>
      <path id="Path_668" data-name="Path 668" d="M1072.732,80.227q3.094-1.732,0-3.463-3.094,1.732,0,3.463" transform="translate(-782.51 -53.603)" fill="#fff"/>
      <path id="Path_669" data-name="Path 669" d="M848.289,55q2.775-1.553,0-3.106-2.775,1.553,0,3.106" transform="translate(-618.67 -36.239)" fill="#fff"/>
      <path id="Path_670" data-name="Path 670" d="M1329.38,210.776q2.761-1.545,0-3.09-2.76,1.545,0,3.09" transform="translate(-970.116 -145.021)" fill="#fff"/>
      <path id="Path_671" data-name="Path 671" d="M1297.152,143.482q-1.251-2.8-2.5,0,1.251,2.8,2.5,0" transform="translate(-945.754 -99.212)" fill="#fff"/>
      <path id="Path_672" data-name="Path 672" d="M1212.714,198.493q1.319,2.952,2.638,0-1.319-2.951-2.638,0" transform="translate(-885.898 -137.571)" fill="#fff"/>
      <path id="Path_673" data-name="Path 673" d="M1146.507,179.041a1.328,1.328,0,1,0,2.645,0q-1.322-2.96-2.645,0" transform="translate(-837.534 -123.985)" fill="#fff"/>
      <path id="Path_674" data-name="Path 674" d="M1053.871,138.8q-2.765,1.547,0,3.095,2.765-1.547,0-3.095" transform="translate(-768.853 -96.921)" fill="#fff"/>
      <path id="Path_675" data-name="Path 675" d="M953.449,135.363q2.741-1.534,0-3.068-2.741,1.534,0,3.068" transform="translate(-695.502 -92.378)" fill="#fff"/>
      <path id="Path_676" data-name="Path 676" d="M1438.756,260.42q2.529-1.415,0-2.831-2.53,1.416,0,2.831" transform="translate(-1050.101 -179.866)" fill="#fff"/>
      <path id="Path_677" data-name="Path 677" d="M1188,216.166q2.658-1.487,0-2.975-2.658,1.488,0,2.975" transform="translate(-866.872 -148.865)" fill="#fff"/>
      <path id="Path_678" data-name="Path 678" d="M1175.685,227.678q-1.51-3.379-3.019,0,1.51,3.379,3.019,0" transform="translate(-856.643 -157.801)" fill="#fff"/>
      <path id="Path_679" data-name="Path 679" d="M1034.875,254.565q-2.7,1.513,0,3.025,2.7-1.512,0-3.025" transform="translate(-754.998 -177.755)" fill="#fff"/>
      <path id="Path_680" data-name="Path 680" d="M261.938,568.7q-2.808,1.572,0,3.143,2.808-1.572,0-3.143" transform="translate(-190.322 -397.105)" fill="#fff"/>
      <path id="Path_681" data-name="Path 681" d="M173.716,573.569q-3.049,1.706,0,3.413,3.049-1.706,0-3.413" transform="translate(-125.788 -400.504)" fill="#fff"/>
      <path id="Path_682" data-name="Path 682" d="M127.82,588.058q2.77-1.55,0-3.1-2.77,1.55,0,3.1" transform="translate(-92.362 -408.456)" fill="#fff"/>
      <path id="Path_683" data-name="Path 683" d="M82.5,570.936q-1.28-2.865-2.56,0,1.28,2.865,2.56,0" transform="translate(-58.396 -397.665)" fill="#fff"/>
      <path id="Path_684" data-name="Path 684" d="M547.893,472.029q1.31,2.932,2.62,0-1.311-2.932-2.62,0" transform="translate(-400.241 -328.578)" fill="#fff"/>
      <path id="Path_685" data-name="Path 685" d="M589.6,504.773q1.251,2.8,2.5,0-1.251-2.8-2.5,0" transform="translate(-430.711 -351.488)" fill="#fff"/>
      <path id="Path_686" data-name="Path 686" d="M737.892,533.725q-1.457-3.262-2.914,0,1.457,3.262,2.914,0" transform="translate(-536.908 -371.544)" fill="#fff"/>
      <path id="Path_687" data-name="Path 687" d="M876.732,548.334q-1.539-3.445-3.078,0,1.539,3.445,3.078,0" transform="translate(-638.212 -381.68)" fill="#fff"/>
      <path id="Path_688" data-name="Path 688" d="M1211.247,518.558q2.927-1.638,0-3.276-2.927,1.639,0,3.276" transform="translate(-883.758 -359.804)" fill="#fff"/>
      <path id="Path_689" data-name="Path 689" d="M738.543,394.317q1.321,2.956,2.641,0-1.321-2.956-2.641,0" transform="translate(-539.512 -274.306)" fill="#fff"/>
      <path id="Path_690" data-name="Path 690" d="M693.12,370.524c0-2.476-3.149-1.783-2.8.3q1.517,2.707,2.8-.3" transform="translate(-504.268 -257.621)" fill="#fff"/>
      <path id="Path_691" data-name="Path 691" d="M675.178,391.831q-2.57,1.438,0,2.876,2.57-1.438,0-2.876" transform="translate(-492.285 -273.603)" fill="#fff"/>
      <path id="Path_692" data-name="Path 692" d="M392.512,427q1.268,2.838,2.536,0-1.268-2.839-2.536,0" transform="translate(-286.734 -297.171)" fill="#fff"/>
      <path id="Path_693" data-name="Path 693" d="M291.837,454.614c0,1.641,2.856,2.632,2.856,0q-1.428-3.2-2.856,0" transform="translate(-213.19 -316.326)" fill="#fff"/>
      <path id="Path_694" data-name="Path 694" d="M233.832,498.573q-2.589,1.449,0,2.9,2.589-1.449,0-2.9" transform="translate(-169.871 -348.137)" fill="#fff"/>
      <path id="Path_695" data-name="Path 695" d="M189.933,494.231q1.485,3.323,2.97,0-1.485-3.324-2.97,0" transform="translate(-138.748 -343.944)" fill="#fff"/>
      <path id="Path_696" data-name="Path 696" d="M148.659,491.921q3.125-1.748,0-3.5-3.125,1.748,0,3.5" transform="translate(-107.455 -341.05)" fill="#fff"/>
      <path id="Path_697" data-name="Path 697" d="M95.643,562.529q-2.528,1.414,0,2.829,2.528-1.414,0-2.829" transform="translate(-68.945 -392.795)" fill="#fff"/>
      <path id="Path_698" data-name="Path 698" d="M159.921,585.266q-1.53-3.424-3.06,0,1.53,3.424,3.06,0" transform="translate(-114.588 -407.476)" fill="#fff"/>
      <path id="Path_699" data-name="Path 699" d="M485.291,618.042q2.64-1.477,0-2.954-2.639,1.477,0,2.954" transform="translate(-353.545 -429.495)" fill="#fff"/>
      <path id="Path_700" data-name="Path 700" d="M725.659,624.821q1.324,2.964,2.648,0-1.324-2.964-2.648,0" transform="translate(-530.101 -435.257)" fill="#fff"/>
      <path id="Path_701" data-name="Path 701" d="M878.625,606.068q-1.373-3.073-2.745,0,1.373,3.073,2.745,0" transform="translate(-639.838 -422.124)" fill="#fff"/>
      <path id="Path_702" data-name="Path 702" d="M891.84,608.256q-2.488,1.393,0,2.785,2.488-1.393,0-2.785" transform="translate(-650.588 -424.724)" fill="#fff"/>
      <path id="Path_703" data-name="Path 703" d="M925.207,584.922q1.519,3.4,3.037,0-1.518-3.4-3.037,0" transform="translate(-675.872 -407.244)" fill="#fff"/>
      <path id="Path_704" data-name="Path 704" d="M1043.208,558.035q-2.627,1.47,0,2.94,2.627-1.47,0-2.94" transform="translate(-761.113 -389.657)" fill="#fff"/>
      <path id="Path_705" data-name="Path 705" d="M1213.559,604.4q-1.454-3.255-2.908,0,1.454,3.255,2.908,0" transform="translate(-884.392 -420.893)" fill="#fff"/>
      <path id="Path_706" data-name="Path 706" d="M1292.293,531.011q1.644,2.281,2.819-.644c0-2.912-3.606-1.42-2.819.644" transform="translate(-943.949 -369.202)" fill="#fff"/>
      <path id="Path_707" data-name="Path 707" d="M1331.036,567.733q2.964-1.658,0-3.317-2.963,1.658,0,3.317" transform="translate(-971.252 -394.113)" fill="#fff"/>
      <path id="Path_708" data-name="Path 708" d="M1392.776,563.735q-2.934,1.642,0,3.284,2.934-1.642,0-3.284" transform="translate(-1016.364 -393.637)" fill="#fff"/>
      <path id="Path_709" data-name="Path 709" d="M1457.115,587.308q1.51,3.381,3.021,0-1.51-3.381-3.021,0" transform="translate(-1064.436 -408.917)" fill="#fff"/>
      <path id="Path_710" data-name="Path 710" d="M1957.4,734.459c-1.632-1.353-3.9,3.094-.91,3.094,1.828,0,1.818-2.341.91-3.094" transform="translate(-1428.167 -512.668)" fill="#fff"/>
      <path id="Path_711" data-name="Path 711" d="M1944.206,746.894q3.093-1.731,0-3.462-3.092,1.731,0,3.462" transform="translate(-1419.13 -519.113)" fill="#fff"/>
      <path id="Path_712" data-name="Path 712" d="M1885.834,744.349q-1.5-3.357-3,0,1.5,3.357,3,0" transform="translate(-1375.428 -518.582)" fill="#fff"/>
      <path id="Path_713" data-name="Path 713" d="M1802.567,747.233q-3.06,1.713,0,3.425,3.06-1.713,0-3.425" transform="translate(-1315.674 -521.767)" fill="#fff"/>
      <path id="Path_714" data-name="Path 714" d="M1700.813,787.078q-1.492-3.34-2.984,0,1.492,3.34,2.984,0" transform="translate(-1240.28 -548.423)" fill="#fff"/>
      <path id="Path_715" data-name="Path 715" d="M1684.274,781.2q-1.293-2.894-2.585,0,1.292,2.893,2.585,0" transform="translate(-1228.489 -544.471)" fill="#fff"/>
      <path id="Path_716" data-name="Path 716" d="M1658.726,759.221q2.9-1.625,0-3.25-2.9,1.625,0,3.25" transform="translate(-1210.654 -527.869)" fill="#fff"/>
      <path id="Path_717" data-name="Path 717" d="M1586.673,812.938a1.546,1.546,0,1,0-3.077,0q1.538,3.443,3.077,0" transform="translate(-1156.831 -566.463)" fill="#fff"/>
      <path id="Path_718" data-name="Path 718" d="M1565.482,787.134q-2.647,1.48,0,2.962,2.646-1.481,0-2.962" transform="translate(-1142.632 -549.628)" fill="#fff"/>
      <path id="Path_719" data-name="Path 719" d="M1278.967,841.342q-1.443-3.232-2.887,0,1.444,3.231,2.887,0" transform="translate(-932.188 -586.351)" fill="#fff"/>
      <path id="Path_720" data-name="Path 720" d="M1233.762,891.515c2.026,0,1.7-3.147,0-3.147-1.346,0-2.289,3.147,0,3.147" transform="translate(-900.262 -620.317)" fill="#fff"/>
      <path id="Path_721" data-name="Path 721" d="M1073.192,842.945q-1.265-2.833-2.531,0,1.266,2.832,2.531,0" transform="translate(-782.128 -587.61)" fill="#fff"/>
      <path id="Path_722" data-name="Path 722" d="M1007.974,854.794q-1.558-3.489-3.117,0,1.558,3.488,3.117,0" transform="translate(-734.057 -595.655)" fill="#fff"/>
      <path id="Path_723" data-name="Path 723" d="M894.774,874.535q2.866-1.6,0-3.208-2.866,1.6,0,3.208" transform="translate(-652.594 -608.417)" fill="#fff"/>
      <path id="Path_724" data-name="Path 724" d="M867.8,836.689q-1.476-3.3-2.952,0,1.476,3.3,2.952,0" transform="translate(-631.778 -583.077)" fill="#fff"/>
      <path id="Path_725" data-name="Path 725" d="M768.964,856.881q-1.445-3.235-2.891,0,1.446,3.235,2.891,0" transform="translate(-559.623 -597.201)" fill="#fff"/>
      <path id="Path_726" data-name="Path 726" d="M667.382,670.741q-1.422-3.184-2.845,0,1.423,3.185,2.845,0" transform="translate(-485.45 -467.244)" fill="#fff"/>
      <path id="Path_727" data-name="Path 727" d="M555.4,565.177q2.513-1.406,0-2.812-2.513,1.406,0,2.813" transform="translate(-404.804 -392.68)" fill="#fff"/>
      <path id="Path_728" data-name="Path 728" d="M557.116,513.28q-2.558,1.432,0,2.863,2.558-1.432,0-2.863" transform="translate(-406.044 -358.406)" fill="#fff"/>
      <path id="Path_729" data-name="Path 729" d="M525.474,484.564a1.236,1.236,0,1,0-2.457,0c0,2.118,2.457,1.466,2.457,0" transform="translate(-382.069 -337.397)" fill="#fff"/>
      <path id="Path_730" data-name="Path 730" d="M255.028,495.12q2.778-1.555,0-3.109-2.777,1.555,0,3.109" transform="translate(-185.286 -343.555)" fill="#fff"/>
      <path id="Path_731" data-name="Path 731" d="M1955.332,578.6q1.618,2.159,2.749-.685c0-4.945-2.671.551-2.749.685" transform="translate(-1428.388 -402.098)" fill="#fff"/>
      <path id="Path_732" data-name="Path 732" d="M1947.037,579.972c1.828,0,1.926-3.191,0-3.191q-2.852,1.6,0,3.191" transform="translate(-1421.286 -402.747)" fill="#fff"/>
      <path id="Path_733" data-name="Path 733" d="M1757.123,576.568q3.005-1.682,0-3.364-3.006,1.682,0,3.364" transform="translate(-1282.497 -400.249)" fill="#fff"/>
      <path id="Path_734" data-name="Path 734" d="M1682.6,640.623q3.07-1.718,0-3.437-3.071,1.719,0,3.437" transform="translate(-1228.032 -444.925)" fill="#fff"/>
      <path id="Path_735" data-name="Path 735" d="M1630.184,586.708q-1.41-3.157-2.821,0,1.41,3.157,2.821,0" transform="translate(-1188.803 -408.576)" fill="#fff"/>
      <path id="Path_736" data-name="Path 736" d="M1383.395,640.189q-1.34-3-2.681,0,1.34,3,2.681,0" transform="translate(-1008.624 -445.975)" fill="#fff"/>
      <path id="Path_737" data-name="Path 737" d="M1337.4,650.842q-1.518-3.4-3.036,0,1.518,3.4,3.036,0" transform="translate(-974.765 -453.274)" fill="#fff"/>
      <path id="Path_738" data-name="Path 738" d="M1240.326,725.68q1.49,3.334,2.979,0-1.49-3.334-2.979,0" transform="translate(-906.069 -505.554)" fill="#fff"/>
      <path id="Path_739" data-name="Path 739" d="M1136.177,751.987q-1.286-2.877-2.571,0,1.285,2.877,2.571,0" transform="translate(-828.109 -524.083)" fill="#fff"/>
      <path id="Path_740" data-name="Path 740" d="M958.225,772.857q2.492-1.268.487-2.987a1.649,1.649,0,0,0-.487-.1c-1.587,0-2.048,3.091,0,3.091" transform="translate(-698.992 -537.501)" fill="#fff"/>
      <path id="Path_741" data-name="Path 741" d="M856.9,716.283q1.308,2.928,2.616,0-1.308-2.928-2.616,0" transform="translate(-625.975 -499.134)" fill="#fff"/>
      <path id="Path_742" data-name="Path 742" d="M776.779,719.728q-1.394-3.121-2.788,0,1.395,3.121,2.788,0" transform="translate(-565.407 -501.472)" fill="#fff"/>
      <path id="Path_743" data-name="Path 743" d="M730.247,734.7q-1.311-2.936-2.623,0,1.311,2.935,2.623,0" transform="translate(-531.536 -511.994)" fill="#fff"/>
      <path id="Path_744" data-name="Path 744" d="M714.915,694.331q2.493-1.4,0-2.791-2.494,1.4,0,2.791" transform="translate(-521.341 -482.879)" fill="#fff"/>
      <path id="Path_745" data-name="Path 745" d="M489.8,712.224q2.8-1.565,0-3.13-2.8,1.565,0,3.13" transform="translate(-356.785 -495.136)" fill="#fff"/>
      <path id="Path_746" data-name="Path 746" d="M337.867,797.156q1.337,2.992,2.673,0-1.337-2.991-2.673,0" transform="translate(-246.815 -555.582)" fill="#fff"/>
      <path id="Path_747" data-name="Path 747" d="M278.855,810.067q1.613,3.223,3.091-.167c0-2.858-3.257-1.761-3.091.167" transform="translate(-203.702 -564.309)" fill="#fff"/>
      <path id="Path_748" data-name="Path 748" d="M91.962,794.5q3.039-1.7,0-3.4-3.04,1.7,0,3.4" transform="translate(-66.069 -552.393)" fill="#fff"/>
      <path id="Path_749" data-name="Path 749" d="M36.413,803.841q-1.331-2.979-2.661,0,1.331,2.979,2.661,0" transform="translate(-24.656 -560.254)" fill="#fff"/>
      <path id="Path_750" data-name="Path 750" d="M627.131,318.6q2.8-1.43.536-3.358a1.078,1.078,0,0,1-.718-.093q-2.825,1.818.182,3.451" transform="translate(-456.992 -220.06)" fill="#fff"/>
      <path id="Path_751" data-name="Path 751" d="M492.726,343.246q1.278,2.861,2.556,0-1.278-2.861-2.556,0" transform="translate(-359.941 -238.679)" fill="#fff"/>
      <path id="Path_752" data-name="Path 752" d="M238.039,241.152q2.781-1.556,0-3.112-2.781,1.556,0,3.112" transform="translate(-172.873 -166.216)" fill="#fff"/>
      <path id="Path_753" data-name="Path 753" d="M155.711,258.742q1.4,3.126,2.793,0-1.4-3.125-2.793,0" transform="translate(-113.748 -179.58)" fill="#fff"/>
      <path id="Path_754" data-name="Path 754" d="M59.949,259.413q2.738-1.533,0-3.064-2.738,1.532,0,3.064" transform="translate(-42.793 -179)" fill="#fff"/>
      <path id="Path_755" data-name="Path 755" d="M1622.191,141.712q2.765-1.547,0-3.094-2.765,1.547,0,3.094" transform="translate(-1184.015 -96.793)" fill="#fff"/>
      <path id="Path_756" data-name="Path 756" d="M1530.924,145.566q2.828-1.583,0-3.166-2.828,1.583,0,3.166" transform="translate(-1117.321 -99.434)" fill="#fff"/>
      <path id="Path_757" data-name="Path 757" d="M1288.477,219.4q-2.584,1.446,0,2.892,2.584-1.446,0-2.892" transform="translate(-940.301 -153.199)" fill="#fff"/>
      <path id="Path_758" data-name="Path 758" d="M1187.141,238.357q-3.048,1.706,0,3.411,3.047-1.706,0-3.411" transform="translate(-866.104 -166.437)" fill="#fff"/>
      <path id="Path_759" data-name="Path 759" d="M1164.874,208.045q-1.444-3.232-2.887,0,1.443,3.232,2.887,0" transform="translate(-848.842 -144.143)" fill="#fff"/>
      <path id="Path_760" data-name="Path 760" d="M1158.421,223.585q2.922-1.635,0-3.27-2.922,1.635,0,3.27" transform="translate(-845.17 -153.839)" fill="#fff"/>
      <path id="Path_761" data-name="Path 761" d="M1093.7,223.256q1.246,2.788,2.491,0-1.246-2.788-2.491,0" transform="translate(-798.957 -154.919)" fill="#fff"/>
      <path id="Path_762" data-name="Path 762" d="M954.188,256.67q2.856-1.6,0-3.2-2.857,1.6,0,3.2" transform="translate(-696 -176.992)" fill="#fff"/>
      <path id="Path_763" data-name="Path 763" d="M889.448,227.655q2.94-1.645,0-3.29-2.94,1.645,0,3.29" transform="translate(-648.676 -156.667)" fill="#fff"/>
      <path id="Path_764" data-name="Path 764" d="M887.469,279.359q3.124-1.748,0-3.5-3.124,1.748,0,3.5" transform="translate(-647.164 -192.626)" fill="#fff"/>
      <path id="Path_765" data-name="Path 765" d="M765.1,304.683q3-1.681,0-3.361-3,1.681,0,3.361" transform="translate(-557.815 -210.403)" fill="#fff"/>
      <path id="Path_766" data-name="Path 766" d="M508.8,370.011q1.56,3.492,3.12,0-1.56-3.492-3.12,0" transform="translate(-371.684 -257.147)" fill="#fff"/>
      <path id="Path_767" data-name="Path 767" d="M349.861,369.507q-1.478-3.309-2.957,0,1.479,3.309,2.957,0" transform="translate(-253.417 -256.86)" fill="#fff"/>
      <path id="Path_768" data-name="Path 768" d="M215.011,472.443q2.72-1.522,0-3.044-2.72,1.522,0,3.044" transform="translate(-156.074 -327.766)" fill="#fff"/>
      <path id="Path_769" data-name="Path 769" d="M149.928,444.64c2.108,0,1.59-3.137,0-3.137q-2.8,1.568,0,3.137" transform="translate(-108.5 -308.287)" fill="#fff"/>
      <path id="Path_770" data-name="Path 770" d="M129.568,483.438q2.747-1.537,0-3.074-2.747,1.537,0,3.074" transform="translate(-93.647 -335.422)" fill="#fff"/>
      <path id="Path_771" data-name="Path 771" d="M1419.274,11.9q2.673-1.5,0-2.991-2.672,1.5,0,2.991" transform="translate(-1035.816 -6.22)" fill="#fff"/>
      <path id="Path_772" data-name="Path 772" d="M1165.589,116.067c2.16,0,1.724-3.326,0-3.326q-2.972,1.663,0,3.326" transform="translate(-850.388 -78.724)" fill="#fff"/>
      <path id="Path_773" data-name="Path 773" d="M725.235,174.936q2.533-1.418,0-2.835-2.533,1.418,0,2.835" transform="translate(-528.866 -120.173)" fill="#fff"/>
      <path id="Path_774" data-name="Path 774" d="M693.994,197.5c2,0,1.273-2.787,0-2.787q-2.49,1.393,0,2.787" transform="translate(-506.059 -135.963)" fill="#fff"/>
      <path id="Path_775" data-name="Path 775" d="M526.016,170.311q-2.5,1.4,0,2.8,2.5-1.4,0-2.8" transform="translate(-383.347 -118.923)" fill="#fff"/>
      <path id="Path_776" data-name="Path 776" d="M485.892,147.173q1.323,2.962,2.646,0-1.323-2.961-2.646,0" transform="translate(-354.949 -101.733)" fill="#fff"/>
      <path id="Path_777" data-name="Path 777" d="M1109.458,14.393q2.652-1.484,0-2.968-2.651,1.484,0,2.968" transform="translate(-809.501 -7.979)" fill="#fff"/>
      <path id="Path_778" data-name="Path 778" d="M1027.282,24.045q3.034-1.7,0-3.4-3.035,1.7,0,3.4" transform="translate(-749.33 -14.42)" fill="#fff"/>
      <path id="Path_779" data-name="Path 779" d="M930.8,36.51q2.74-1.534,0-3.067-2.74,1.533,0,3.067" transform="translate(-678.96 -23.353)" fill="#fff"/>
      <path id="Path_780" data-name="Path 780" d="M868.18,35.781c1.614,0,2.316-3.3,0-3.3q-2.953,1.652,0,3.3" transform="translate(-633.135 -22.679)" fill="#fff"/>
      <path id="Path_781" data-name="Path 781" d="M860.361,53.172q3.075-1.721,0-3.441-3.075,1.72,0,3.441" transform="translate(-627.378 -34.727)" fill="#fff"/>
      <path id="Path_782" data-name="Path 782" d="M654.64,47.706q2.531-1.416,0-2.833-2.531,1.416,0,2.833" transform="translate(-477.296 -31.334)" fill="#fff"/>
      <path id="Path_783" data-name="Path 783" d="M541,69.737q2.79-1.561,0-3.123-2.791,1.562,0,3.123" transform="translate(-394.189 -46.515)" fill="#fff"/>
      <path id="Path_784" data-name="Path 784" d="M401.651,86.449q-1.306-2.925-2.613,0,1.306,2.924,2.613,0" transform="translate(-291.501 -59.344)" fill="#fff"/>
      <path id="Path_785" data-name="Path 785" d="M307.432,76.215q2.981-1.668,0-3.336-2.981,1.668,0,3.336" transform="translate(-223.493 -50.89)" fill="#fff"/>
      <path id="Path_786" data-name="Path 786" d="M800.848,1156.181q-2.8,1.569,0,3.139,2.8-1.569,0-3.139" transform="translate(-584.003 -807.321)" fill="#fff"/>
      <path id="Path_787" data-name="Path 787" d="M746.751,1177.922q-2.52,1.41,0,2.821,2.52-1.411,0-2.821" transform="translate(-544.588 -822.502)" fill="#fff"/>
      <path id="Path_788" data-name="Path 788" d="M544.669,1179.813q-1.365-3.055-2.73,0,1.365,3.056,2.73,0" transform="translate(-395.891 -822.755)" fill="#fff"/>
      <path id="Path_789" data-name="Path 789" d="M509.057,1178.524q-2.648,1.481,0,2.963,2.647-1.482,0-2.963" transform="translate(-370.903 -822.922)" fill="#fff"/>
      <path id="Path_790" data-name="Path 790" d="M238.135,1187.434q-3.109,1.74,0,3.481,3.109-1.741,0-3.481" transform="translate(-172.824 -829.143)" fill="#fff"/>
      <path id="Path_791" data-name="Path 791" d="M1.321,1119.313q2.641-1.478,0-2.956-2.642,1.478,0,2.956" transform="translate(0 -779.513)" fill="#fff"/>
    </g>
  </g>
</svg>
