<svg xmlns="http://www.w3.org/2000/svg" xmlns:xlink="http://www.w3.org/1999/xlink" width="935.609" height="491" viewBox="0 0 935.609 491">
  <defs>
    <clipPath id="clip-path">
      <rect id="Rectangle_6" data-name="Rectangle 6" width="935.609" height="491" fill="none"/>
    </clipPath>
  </defs>
  <g id="Group_933" data-name="Group 933" transform="translate(0 -0.004)" opacity="0.412">
    <g id="Group_134" data-name="Group 134" transform="translate(0 0.004)" clip-path="url(#clip-path)">
      <path id="Path_267" data-name="Path 267" d="M1979.3,477.094q5.21-2.188,0-4.375-5.21,2.187,0,4.375" transform="translate(-1047.337 -285.962)" fill="#fff"/>
      <path id="Path_268" data-name="Path 268" d="M1385.25,278.117q4.8-2.014,0-4.03-4.8,2.015,0,4.03" transform="translate(-732.691 -165.804)" fill="#fff"/>
      <path id="Path_269" data-name="Path 269" d="M1214.584,262.814q-4.656,1.956,0,3.91,4.655-1.955,0-3.91" transform="translate(-642.303 -158.985)" fill="#fff"/>
      <path id="Path_270" data-name="Path 270" d="M1134.118,271.871q2.656,4.464,5.313,0-2.657-4.462-5.313,0" transform="translate(-600.902 -163.114)" fill="#fff"/>
      <path id="Path_271" data-name="Path 271" d="M1093.9,236.5q-4.785,2.01,0,4.019,4.785-2.009,0-4.019" transform="translate(-578.324 -143.069)" fill="#fff"/>
      <path id="Path_272" data-name="Path 272" d="M955.207,315.077q-2.257-3.792-4.515,0,2.258,3.792,4.515,0" transform="translate(-503.716 -189.453)" fill="#fff"/>
      <path id="Path_273" data-name="Path 273" d="M800.64,301q2.212,3.717,4.424,0-2.212-3.716-4.424,0" transform="translate(-424.212 -180.963)" fill="#fff"/>
      <path id="Path_274" data-name="Path 274" d="M717.649,254.687q2.676,4.5,5.352,0-2.676-4.495-5.352,0" transform="translate(-380.24 -152.709)" fill="#fff"/>
      <path id="Path_275" data-name="Path 275" d="M560.73,236.445q4.559-1.915,0-3.829-4.559,1.915,0,3.829" transform="translate(-295.89 -140.717)" fill="#fff"/>
      <path id="Path_276" data-name="Path 276" d="M346.065,214.77q-2.391-4.017-4.782,0,2.391,4.016,4.782,0" transform="translate(-180.826 -128.707)" fill="#fff"/>
      <path id="Path_277" data-name="Path 277" d="M76.4,59.781q-2.2-3.694-4.4,0,2.2,3.694,4.4,0" transform="translate(-38.148 -35.047)" fill="#fff"/>
      <path id="Path_278" data-name="Path 278" d="M1957.717,109.292q4.985-2.094,0-4.188-4.985,2.095,0,4.188" transform="translate(-1035.958 -63.582)" fill="#fff"/>
      <path id="Path_279" data-name="Path 279" d="M1664.515,140.9q5.251-2.206,0-4.411-5.251,2.205,0,4.411" transform="translate(-880.537 -82.57)" fill="#fff"/>
      <path id="Path_280" data-name="Path 280" d="M1517.72,194.209q5.245-2.2,0-4.406-5.245,2.2,0,4.406" transform="translate(-802.761 -114.818)" fill="#fff"/>
      <path id="Path_281" data-name="Path 281" d="M1074.259,266.686q-4.862,2.042,0,4.084,4.862-2.042,0-4.084" transform="translate(-567.898 -161.327)" fill="#fff"/>
      <path id="Path_282" data-name="Path 282" d="M874.263,302.4c0-2.7-2.79-2.448-2.79-.168,0,3.034,2.79,2.05,2.79.168" transform="translate(-461.742 -181.748)" fill="#fff"/>
      <path id="Path_283" data-name="Path 283" d="M771.675,362.982q2.43,4.083,4.86,0-2.43-4.082-4.86,0" transform="translate(-408.865 -218.344)" fill="#fff"/>
      <path id="Path_284" data-name="Path 284" d="M609.482,357.935q2.383,4,4.766,0-2.384-4-4.766,0" transform="translate(-322.929 -215.315)" fill="#fff"/>
      <path id="Path_285" data-name="Path 285" d="M559.2,399.616c-.787-1.5-4.708-2.058-4.708.829,0,2.794,5.7,2.017,4.708-.829" transform="translate(-293.795 -240.994)" fill="#fff"/>
      <path id="Path_286" data-name="Path 286" d="M288.438,459.708c-1.585-.286-6.044,4.213-.534,4.213,6.685,0,.643-3.885.534-4.213" transform="translate(-151.126 -278.083)" fill="#fff"/>
      <path id="Path_287" data-name="Path 287" d="M250.34,473.647c3.793,0,1.629-3.9,0-3.9q-4.649,1.952,0,3.9" transform="translate(-131.409 -284.161)" fill="#fff"/>
      <path id="Path_288" data-name="Path 288" d="M1980.257,246.277q-5.281,2.218,0,4.436,5.281-2.218,0-4.436" transform="translate(-1047.822 -148.981)" fill="#fff"/>
      <path id="Path_289" data-name="Path 289" d="M1814.748,285.073q2.2,3.7,4.407,0-2.2-3.7-4.407,0" transform="translate(-961.528 -171.33)" fill="#fff"/>
      <path id="Path_290" data-name="Path 290" d="M1778.827,238.664q4.883-2.051,0-4.1-4.883,2.05,0,4.1" transform="translate(-941.202 -141.894)" fill="#fff"/>
      <path id="Path_291" data-name="Path 291" d="M1697.226,266.418q4.537-1.905,0-3.811-4.538,1.905,0,3.811" transform="translate(-898.058 -158.859)" fill="#fff"/>
      <path id="Path_292" data-name="Path 292" d="M1610.415,220.31q-4.356,1.83,0,3.66,4.356-1.829,0-3.66" transform="translate(-852.11 -133.273)" fill="#fff"/>
      <path id="Path_293" data-name="Path 293" d="M1452.457,170.313c0,3.578,2.793-.254,4.516.723.787-1.667-4.516-4.732-4.516-.723" transform="translate(-769.571 -101.834)" fill="#fff"/>
      <path id="Path_294" data-name="Path 294" d="M1383.495,157.61q2.421,4.065,4.84,0-2.42-4.065-4.84,0" transform="translate(-733.032 -94.114)" fill="#fff"/>
      <path id="Path_295" data-name="Path 295" d="M1374.486,144.906q4.8-2.017,0-4.034-4.8,2.017,0,4.034" transform="translate(-726.987 -85.219)" fill="#fff"/>
      <path id="Path_296" data-name="Path 296" d="M1308.049,100.018q-4.733,1.988,0,3.976,4.733-1.989,0-3.976" transform="translate(-691.804 -60.505)" fill="#fff"/>
      <path id="Path_297" data-name="Path 297" d="M1519.22,214.178q2.262,3.8,4.524,0-2.262-3.8-4.524,0" transform="translate(-804.945 -128.414)" fill="#fff"/>
      <path id="Path_298" data-name="Path 298" d="M1452.31,238.663q5.083-2.135,0-4.27-5.083,2.135,0,4.27" transform="translate(-768.146 -141.792)" fill="#fff"/>
      <path id="Path_299" data-name="Path 299" d="M1404.544,215.207q-5.124,2.152,0,4.3,5.124-2.152,0-4.3" transform="translate(-742.828 -130.186)" fill="#fff"/>
      <path id="Path_300" data-name="Path 300" d="M1319.165,178.654q4.887-2.052,0-4.1-4.887,2.052,0,4.1" transform="translate(-697.653 -105.591)" fill="#fff"/>
      <path id="Path_301" data-name="Path 301" d="M943.253,203.542q2.28,3.831,4.56,0-2.279-3.831-4.56,0" transform="translate(-499.774 -121.971)" fill="#fff"/>
      <path id="Path_302" data-name="Path 302" d="M933.976,176.744q2.69,4.52,5.38,0-2.69-4.519-5.38,0" transform="translate(-494.859 -105.552)" fill="#fff"/>
      <path id="Path_303" data-name="Path 303" d="M506.383,229.088q-4.784,2.01,0,4.019,4.784-2.01,0-4.019" transform="translate(-267.035 -138.583)" fill="#fff"/>
      <path id="Path_304" data-name="Path 304" d="M363.684,226.1q4.485-1.884,0-3.767-4.485,1.884,0,3.767" transform="translate(-191.506 -134.496)" fill="#fff"/>
      <path id="Path_305" data-name="Path 305" d="M189.838,205.133q5.027-2.111,0-4.223-5.027,2.111,0,4.223" transform="translate(-99.252 -121.537)" fill="#fff"/>
      <path id="Path_306" data-name="Path 306" d="M1795.772,984.048q-2.278-3.828-4.556,0,2.278,3.827,4.556,0" transform="translate(-949.06 -594.12)" fill="#fff"/>
      <path id="Path_307" data-name="Path 307" d="M1728.091,985.8q5.4-2.268,0-4.537-5.4,2.268,0,4.537" transform="translate(-914.183 -593.592)" fill="#fff"/>
      <path id="Path_308" data-name="Path 308" d="M1577.391,1001.752q4.69-1.97,0-3.94-4.691,1.97,0,3.94" transform="translate(-834.524 -603.604)" fill="#fff"/>
      <path id="Path_309" data-name="Path 309" d="M1464.637,975.582q-2.52-4.235-5.041,0,2.52,4.234,5.041,0" transform="translate(-773.354 -588.876)" fill="#fff"/>
      <path id="Path_310" data-name="Path 310" d="M1327.467,994.737q-4.4,1.847,0,3.7,4.4-1.848,0-3.7" transform="translate(-702.181 -601.744)" fill="#fff"/>
      <path id="Path_311" data-name="Path 311" d="M1238.679,927.683q2.26,3.8,4.521,0-2.26-3.8-4.521,0" transform="translate(-656.303 -560.033)" fill="#fff"/>
      <path id="Path_312" data-name="Path 312" d="M768.939,820.983q-5.433,2.282,0,4.563,5.432-2.281,0-4.563" transform="translate(-405.976 -496.636)" fill="#fff"/>
      <path id="Path_313" data-name="Path 313" d="M715.63,823.686q-2.176-3.655-4.352,0,2.176,3.656,4.352,0" transform="translate(-376.864 -497.165)" fill="#fff"/>
      <path id="Path_314" data-name="Path 314" d="M674.229,823.357q-2.3-3.867-4.6,0,2.3,3.867,4.6,0" transform="translate(-354.795 -496.902)" fill="#fff"/>
      <path id="Path_315" data-name="Path 315" d="M544.114,841.112q4.634-1.946,0-3.893-4.635,1.947,0,3.893" transform="translate(-287.066 -506.457)" fill="#fff"/>
      <path id="Path_316" data-name="Path 316" d="M444.57,815.224q-2.263-3.8-4.525,0,2.262,3.8,4.525,0" transform="translate(-233.154 -492.002)" fill="#fff"/>
      <path id="Path_317" data-name="Path 317" d="M263.209,761.243q-2.345-3.94-4.691,0,2.346,3.94,4.691,0" transform="translate(-136.973 -459.306)" fill="#fff"/>
      <path id="Path_318" data-name="Path 318" d="M116.582,742.612q2.174,3.652,4.348,0-2.174-3.653-4.348,0" transform="translate(-61.77 -448.123)" fill="#fff"/>
      <path id="Path_319" data-name="Path 319" d="M1874.294,1035.8q-2.349-3.946-4.7,0,2.348,3.945,4.7,0" transform="translate(-990.589 -625.392)" fill="#fff"/>
      <path id="Path_320" data-name="Path 320" d="M1784.1,987.821q-5.4,2.266,0,4.533,5.4-2.267,0-4.533" transform="translate(-943.862 -597.56)" fill="#fff"/>
      <path id="Path_321" data-name="Path 321" d="M1754.268,1023.638q-5.076,2.132,0,4.264,5.076-2.132,0-4.264" transform="translate(-928.138 -619.227)" fill="#fff"/>
      <path id="Path_322" data-name="Path 322" d="M1725.021,992.627q-5.41,2.272,0,4.545,5.411-2.273,0-4.545" transform="translate(-912.553 -600.468)" fill="#fff"/>
      <path id="Path_323" data-name="Path 323" d="M1678.158,1006.541q-2.438-4.1-4.875,0,2.437,4.095,4.875,0" transform="translate(-886.574 -607.646)" fill="#fff"/>
      <path id="Path_324" data-name="Path 324" d="M1656.551,991.692q-2.262-3.8-4.524,0,2.262,3.8,4.524,0" transform="translate(-875.312 -598.753)" fill="#fff"/>
      <path id="Path_325" data-name="Path 325" d="M1603.893,1005.157q-5.191,2.181,0,4.361,5.191-2.18,0-4.361" transform="translate(-848.433 -608.047)" fill="#fff"/>
      <path id="Path_326" data-name="Path 326" d="M1532.91,979.347q5.459-2.293,0-4.585-5.459,2.293,0,4.585" transform="translate(-810.753 -589.661)" fill="#fff"/>
      <path id="Path_327" data-name="Path 327" d="M1485.975,1002.209q-2.578-4.331-5.157,0,2.578,4.332,5.157,0" transform="translate(-784.598 -604.954)" fill="#fff"/>
      <path id="Path_328" data-name="Path 328" d="M1391.381,992.4q-4.429,1.86,0,3.721,4.43-1.861,0-3.721" transform="translate(-736.038 -600.333)" fill="#fff"/>
      <path id="Path_329" data-name="Path 329" d="M1361.233,983.228q-5.006,2.1,0,4.206,5.007-2.1,0-4.206" transform="translate(-719.911 -594.782)" fill="#fff"/>
      <path id="Path_330" data-name="Path 330" d="M1317.313,978.978q-5.11,2.146,0,4.292,5.109-2.146,0-4.292" transform="translate(-696.612 -592.211)" fill="#fff"/>
      <path id="Path_331" data-name="Path 331" d="M1175.022,969.985q-5.247,2.2,0,4.407,5.245-2.2,0-4.407" transform="translate(-621.185 -586.771)" fill="#fff"/>
      <path id="Path_332" data-name="Path 332" d="M1135.609,985.532q-2.522-4.237-5.044,0,2.522,4.237,5.044,0" transform="translate(-599.02 -594.894)" fill="#fff"/>
      <path id="Path_333" data-name="Path 333" d="M998.012,968.712q-4.657,1.956,0,3.912,4.657-1.956,0-3.912" transform="translate(-527.554 -586.001)" fill="#fff"/>
      <path id="Path_334" data-name="Path 334" d="M963.372,936.976q-4.378,1.839,0,3.678,4.378-1.839,0-3.678" transform="translate(-509.274 -566.803)" fill="#fff"/>
      <path id="Path_335" data-name="Path 335" d="M870.768,987.915q-2.271-3.815-4.542,0,2.271,3.815,4.542,0" transform="translate(-458.962 -596.463)" fill="#fff"/>
      <path id="Path_336" data-name="Path 336" d="M747.143,982.726q-4.4,1.846,0,3.692,4.4-1.846,0-3.692" transform="translate(-394.703 -594.478)" fill="#fff"/>
      <path id="Path_337" data-name="Path 337" d="M709.04,950.634q-2.347-3.942-4.694,0,2.347,3.943,4.694,0" transform="translate(-373.191 -573.873)" fill="#fff"/>
      <path id="Path_338" data-name="Path 338" d="M547.5,1008.634q-2.456-4.126-4.912,0c0,2.379,4.912,3.108,4.912,0" transform="translate(-287.487 -608.903)" fill="#fff"/>
      <path id="Path_339" data-name="Path 339" d="M491.5,995.617q5.265-2.211,0-4.422-5.264,2.21,0,4.422" transform="translate(-259.023 -599.602)" fill="#fff"/>
      <path id="Path_340" data-name="Path 340" d="M1867.4,1090.44q-4.345,1.825,0,3.649,4.344-1.825,0-3.649" transform="translate(-988.274 -659.637)" fill="#fff"/>
      <path id="Path_341" data-name="Path 341" d="M1679.727,1087.881q-2.3-3.856-4.59,0,2.295,3.855,4.59,0" transform="translate(-887.556 -656.923)" fill="#fff"/>
      <path id="Path_342" data-name="Path 342" d="M1624.138,1069.728q-4.858,2.04,0,4.08,4.859-2.04,0-4.08" transform="translate(-859.248 -647.108)" fill="#fff"/>
      <path id="Path_343" data-name="Path 343" d="M1271.731,1069.7q5.356-2.25,0-4.5-5.356,2.249,0,4.5" transform="translate(-672.396 -644.368)" fill="#fff"/>
      <path id="Path_344" data-name="Path 344" d="M1056.111,1062.4q5.44-2.284,0-4.569-5.44,2.284,0,4.569" transform="translate(-558.13 -639.911)" fill="#fff"/>
      <path id="Path_345" data-name="Path 345" d="M924.7,1069.039q4.628-1.943,0-3.887-4.627,1.943,0,3.887" transform="translate(-488.719 -644.34)" fill="#fff"/>
      <path id="Path_346" data-name="Path 346" d="M797.612,1071.511q5.45-2.289,0-4.577-5.449,2.289,0,4.577" transform="translate(-421.164 -645.418)" fill="#fff"/>
      <path id="Path_347" data-name="Path 347" d="M1980.319,1164.494q-4.6,1.932,0,3.864,4.6-1.932,0-3.864" transform="translate(-1048.036 -704.435)" fill="#fff"/>
      <path id="Path_348" data-name="Path 348" d="M1960.528,1216.612q-5.1,2.144,0,4.288,5.1-2.145,0-4.288" transform="translate(-1037.416 -735.962)" fill="#fff"/>
      <path id="Path_349" data-name="Path 349" d="M1931.274,1159.119q-4.925,2.068,0,4.137,4.925-2.069,0-4.137" transform="translate(-1021.964 -701.183)" fill="#fff"/>
      <path id="Path_350" data-name="Path 350" d="M1766.99,1186.8q-5.189,2.18,0,4.359,5.19-2.18,0-4.359" transform="translate(-934.849 -717.925)" fill="#fff"/>
      <path id="Path_351" data-name="Path 351" d="M1537.893,1209.778q-5.069,2.129,0,4.257,5.069-2.128,0-4.257" transform="translate(-813.496 -731.828)" fill="#fff"/>
      <path id="Path_352" data-name="Path 352" d="M1150.69,1220.72q-4.492,1.887,0,3.774,4.492-1.887,0-3.774" transform="translate(-608.492 -738.447)" fill="#fff"/>
      <path id="Path_353" data-name="Path 353" d="M1064.487,1197.026q-4.939,2.074,0,4.148,4.938-2.074,0-4.148" transform="translate(-562.7 -724.114)" fill="#fff"/>
      <path id="Path_354" data-name="Path 354" d="M791.3,1204.879q-4.148,2.205.473,4.051c7.582,0-.64-4.4-.473-4.051" transform="translate(-418.226 -728.853)" fill="#fff"/>
      <path id="Path_355" data-name="Path 355" d="M757.6,1190.677c-4.075,0-2.7,4.29,0,4.29q5.107-2.145,0-4.29" transform="translate(-400.051 -720.273)" fill="#fff"/>
      <path id="Path_356" data-name="Path 356" d="M714.922,1230.266q-4.869,2.044,0,4.09,4.869-2.046,0-4.09" transform="translate(-377.505 -744.222)" fill="#fff"/>
      <path id="Path_357" data-name="Path 357" d="M343.445,1208.932q-4.626,1.943,0,3.885,4.626-1.942,0-3.885" transform="translate(-180.746 -731.316)" fill="#fff"/>
      <path id="Path_358" data-name="Path 358" d="M284.811,1147.889q-2.726-4.579-5.451,0,2.726,4.579,5.451,0" transform="translate(-148.016 -693.005)" fill="#fff"/>
      <path id="Path_359" data-name="Path 359" d="M203.913,1178.77q-4.631,1.945,0,3.89,4.631-1.945,0-3.89" transform="translate(-106.815 -713.071)" fill="#fff"/>
      <path id="Path_360" data-name="Path 360" d="M3.032,1189.2q-5.036,2.115,0,4.23,5.036-2.115,0-4.23" transform="translate(-0.272 -719.381)" fill="#fff"/>
      <path id="Path_361" data-name="Path 361" d="M1559.147,1073.174q-2.533-4.254-5.064,0,2.532,4.255,5.064,0" transform="translate(-823.417 -647.906)" fill="#fff"/>
      <path id="Path_362" data-name="Path 362" d="M1506.438,1098.656q-5.214,2.19,0,4.38,5.215-2.19,0-4.38" transform="translate(-796.791 -664.607)" fill="#fff"/>
      <path id="Path_363" data-name="Path 363" d="M1388.76,1134.264q4.885-2.052,0-4.1-4.884,2.052,0,4.1" transform="translate(-734.528 -683.666)" fill="#fff"/>
      <path id="Path_364" data-name="Path 364" d="M1368.066,1086.594q-4.69,1.97,0,3.94,4.691-1.97,0-3.94" transform="translate(-723.615 -657.311)" fill="#fff"/>
      <path id="Path_365" data-name="Path 365" d="M1163.106,1129.065c1.486-3.2-5.892-3.944-4.664-.2-.286.375,2.455,2.005,4.664.2" transform="translate(-613.716 -681.359)" fill="#fff"/>
      <path id="Path_366" data-name="Path 366" d="M688.424,1060.278q-4.364,1.833,0,3.666,4.364-1.833,0-3.666" transform="translate(-363.599 -641.392)" fill="#fff"/>
      <path id="Path_367" data-name="Path 367" d="M108.858,935.2q-2.324-3.9-4.649,0,2.324,3.905,4.649,0" transform="translate(-55.214 -564.55)" fill="#fff"/>
      <path id="Path_368" data-name="Path 368" d="M1591.947,897.048q-4.408,1.852,0,3.7,4.41-1.851,0-3.7" transform="translate(-842.311 -542.649)" fill="#fff"/>
      <path id="Path_369" data-name="Path 369" d="M1551.248,927.262q-5.454,2.291,0,4.582,5.454-2.291,0-4.582" transform="translate(-820.47 -560.927)" fill="#fff"/>
      <path id="Path_370" data-name="Path 370" d="M1493.062,901.665q-5.257,2.208,0,4.416,5.257-2.208,0-4.416" transform="translate(-789.693 -545.443)" fill="#fff"/>
      <path id="Path_371" data-name="Path 371" d="M1398.787,905.394c0-1.779-4.036-3.4-4.036,0s4.036,1.781,4.036,0" transform="translate(-738.996 -546.496)" fill="#fff"/>
      <path id="Path_372" data-name="Path 372" d="M1359.32,923.362q-2.715-4.561-5.43,0,2.715,4.561,5.43,0" transform="translate(-717.346 -557.188)" fill="#fff"/>
      <path id="Path_373" data-name="Path 373" d="M1136.338,1013.078q5.264-2.21,0-4.421-5.264,2.211,0,4.421" transform="translate(-600.684 -610.165)" fill="#fff"/>
      <path id="Path_374" data-name="Path 374" d="M973.252,1006.8q5.287-2.221,0-4.44-5.286,2.22,0,4.44" transform="translate(-514.268 -606.352)" fill="#fff"/>
      <path id="Path_375" data-name="Path 375" d="M820.425,998.962q-2.423-4.07-4.845,0,2.423,4.069,4.845,0" transform="translate(-432.128 -603.069)" fill="#fff"/>
      <path id="Path_376" data-name="Path 376" d="M777.115,1045.971q-5.049,2.121,0,4.242,5.05-2.121,0-4.242" transform="translate(-410.41 -632.737)" fill="#fff"/>
      <path id="Path_377" data-name="Path 377" d="M772.019,1019.07q-2.462-4.137-4.925,0,2.463,4.136,4.925,0" transform="translate(-406.438 -615.213)" fill="#fff"/>
      <path id="Path_378" data-name="Path 378" d="M629.384,973.357q-4.991,2.1,0,4.192,4.991-2.1,0-4.192" transform="translate(-332.151 -588.811)" fill="#fff"/>
      <path id="Path_379" data-name="Path 379" d="M594.821,1009.747q-5.226,2.195,0,4.39,5.227-2.195,0-4.39" transform="translate(-313.776 -610.824)" fill="#fff"/>
      <path id="Path_380" data-name="Path 380" d="M483.334,981.936q5.069-2.129,0-4.257-5.069,2.128,0,4.257" transform="translate(-254.747 -591.425)" fill="#fff"/>
      <path id="Path_381" data-name="Path 381" d="M247.085,936.765q5.276-2.216,0-4.432-5.275,2.216,0,4.432" transform="translate(-129.518 -563.994)" fill="#fff"/>
      <path id="Path_382" data-name="Path 382" d="M216.676,921.36q4.795-2.014,0-4.028c-2.338,0-3.949,4.028,0,4.028" transform="translate(-113.535 -554.92)" fill="#fff"/>
      <path id="Path_383" data-name="Path 383" d="M143.34,886.6q-2.388-4.012-4.775,0,2.388,4.012,4.775,0" transform="translate(-73.417 -535.116)" fill="#fff"/>
      <path id="Path_384" data-name="Path 384" d="M83.368,887.372q-2.379-4-4.758,0,2.379,4,4.758,0" transform="translate(-41.651 -535.588)" fill="#fff"/>
      <path id="Path_385" data-name="Path 385" d="M59.83,888.623q4.427-1.86,0-3.719-4.427,1.86,0,3.719" transform="translate(-30.528 -535.303)" fill="#fff"/>
      <path id="Path_386" data-name="Path 386" d="M39.309,892.7q-2.27-3.814-4.54,0,2.27,3.814,4.54,0" transform="translate(-18.422 -538.866)" fill="#fff"/>
      <path id="Path_387" data-name="Path 387" d="M1971.183,115.367q5.381-2.26,0-4.519-5.379,2.259,0,4.519" transform="translate(-1042.988 -67.056)" fill="#fff"/>
      <path id="Path_388" data-name="Path 388" d="M1528.686,154.842q-5.341,2.243,0,4.486,5.341-2.243,0-4.486" transform="translate(-808.546 -93.67)" fill="#fff"/>
      <path id="Path_389" data-name="Path 389" d="M1354.138,149.093c-3.764,0-3.4,4.533,0,4.533q5.4-2.267,0-4.533" transform="translate(-716.053 -90.192)" fill="#fff"/>
      <path id="Path_390" data-name="Path 390" d="M1345.606,136.683q5.027-2.111,0-4.223-5.027,2.111,0,4.223" transform="translate(-711.625 -80.13)" fill="#fff"/>
      <path id="Path_391" data-name="Path 391" d="M1119.119,226.521q2.592,4.354,5.182,0c0-2.918-5.182-2.767-5.182,0" transform="translate(-592.955 -135.74)" fill="#fff"/>
      <path id="Path_392" data-name="Path 392" d="M1000.063,216.765q2.321,3.9,4.643,0-2.322-3.9-4.643,0" transform="translate(-529.874 -129.949)" fill="#fff"/>
      <path id="Path_393" data-name="Path 393" d="M941.8,229.78q-5.412,2.273,0,4.546,5.412-2.273,0-4.546" transform="translate(-497.571 -139.002)" fill="#fff"/>
      <path id="Path_394" data-name="Path 394" d="M759.184,221.916q5.143-2.161,0-4.321-5.143,2.16,0,4.321" transform="translate(-400.884 -131.631)" fill="#fff"/>
      <path id="Path_395" data-name="Path 395" d="M672.217,253.227q-4.657,1.957,0,3.912,4.657-1.954,0-3.912" transform="translate(-354.934 -153.185)" fill="#fff"/>
      <path id="Path_396" data-name="Path 396" d="M568.19,299.563c0-2.393,5.024,5.881,5.024,0q-2.512-4.219-5.024,0" transform="translate(-301.05 -179.939)" fill="#fff"/>
      <path id="Path_397" data-name="Path 397" d="M469.49,347.726c-1.526,0-3.834,3.662.355,3.662,4.746,0,1.252-3.662-.355-3.662" transform="translate(-247.683 -210.35)" fill="#fff"/>
      <path id="Path_398" data-name="Path 398" d="M225.381,318.765q-4.812,2.021,0,4.042,4.812-2.021,0-4.042" transform="translate(-118.141 -192.831)" fill="#fff"/>
      <path id="Path_399" data-name="Path 399" d="M190.3,274.144c0-2.138-2.384-2.506-2.384.114,0,3,2.384,1.869,2.384-.114" transform="translate(-99.565 -164.793)" fill="#fff"/>
      <path id="Path_400" data-name="Path 400" d="M36.228,245.421q2.415,4.057,4.829,0-2.414-4.057-4.829,0" transform="translate(-19.195 -147.236)" fill="#fff"/>
      <path id="Path_401" data-name="Path 401" d="M1520.983,3.97q4.721-1.983,0-3.965-4.722,1.983,0,3.965" transform="translate(-804.628 -0.005)" fill="#fff"/>
      <path id="Path_402" data-name="Path 402" d="M1383.79,41.091q4.436-1.864,0-3.727-4.437,1.863,0,3.727" transform="translate(-732.013 -22.604)" fill="#fff"/>
      <path id="Path_403" data-name="Path 403" d="M1384.914,80.51q2.685,4.511,5.371,0-2.685-4.51-5.371,0" transform="translate(-733.784 -47.34)" fill="#fff"/>
      <path id="Path_404" data-name="Path 404" d="M1297.822,46.009c3.094,0,4.022-4.489,0-4.489q-5.344,2.244,0,4.489" transform="translate(-686.224 -25.118)" fill="#fff"/>
      <path id="Path_405" data-name="Path 405" d="M1175.11,112.979c0,2.031,3.953,1.382,3.953-.952a2.117,2.117,0,0,0-.808-1.583c-3.6-2.905-3.145,2.039-3.145,2.535" transform="translate(-622.611 -66.262)" fill="#fff"/>
      <path id="Path_406" data-name="Path 406" d="M1106.1,122.094q5.089-2.137,0-4.274-5.089,2.137,0,4.274" transform="translate(-584.709 -71.274)" fill="#fff"/>
      <path id="Path_407" data-name="Path 407" d="M955.133,119.65q4.529-1.9,0-3.8-4.529,1.9,0,3.8" transform="translate(-504.869 -70.08)" fill="#fff"/>
      <path id="Path_408" data-name="Path 408" d="M711.607,70.782c0,1.483,4.417,1.829,4.417,0q-2.208-3.71-4.417,0" transform="translate(-377.039 -41.697)" fill="#fff"/>
      <path id="Path_409" data-name="Path 409" d="M697.079,36.283q4.794-2.013,0-4.027-4.794,2.013,0,4.027" transform="translate(-368.071 -19.514)" fill="#fff"/>
      <path id="Path_410" data-name="Path 410" d="M557.913,61.664c0,.49-6.478,4.2.285,4.2,7.047,0-.285-4.255-.285-4.2" transform="translate(-294.124 -37.303)" fill="#fff"/>
      <path id="Path_411" data-name="Path 411" d="M451.483,50.439q2.4,4.027,4.794,0-2.4-4.027-4.794,0" transform="translate(-239.214 -29.296)" fill="#fff"/>
      <path id="Path_412" data-name="Path 412" d="M445.1,16.349q-5.168,2.17,0,4.341,5.169-2.171,0-4.341" transform="translate(-234.465 -9.892)" fill="#fff"/>
      <path id="Path_413" data-name="Path 413" d="M402.931,37.794q4.611-1.937,0-3.873-4.611,1.937,0,3.873" transform="translate(-212.268 -20.521)" fill="#fff"/>
      <path id="Path_414" data-name="Path 414" d="M386.94,29.673q4.808-2.02,0-4.04-4.809,2.02,0,4.04" transform="translate(-203.743 -15.508)" fill="#fff"/>
      <path id="Path_415" data-name="Path 415" d="M346.288,34.552q4.746-1.994,0-3.987-4.746,1.994,0,3.987" transform="translate(-182.22 -18.491)" fill="#fff"/>
      <path id="Path_416" data-name="Path 416" d="M218.573,39.5q5.156-2.166,0-4.332-5.157,2.165,0,4.332" transform="translate(-114.443 -21.276)" fill="#fff"/>
      <path id="Path_417" data-name="Path 417" d="M876.337,106.933q2.307,3.876,4.614,0-2.307-3.876-4.614,0" transform="translate(-464.319 -63.516)" fill="#fff"/>
      <path id="Path_418" data-name="Path 418" d="M832.5,105.646q2.464,4.139,4.928,0-2.464-4.139-4.928,0" transform="translate(-441.092 -62.658)" fill="#fff"/>
      <path id="Path_419" data-name="Path 419" d="M795.737,181.122q4.825-2.027,0-4.053-4.824,2.027,0,4.053" transform="translate(-420.336 -107.115)" fill="#fff"/>
      <path id="Path_420" data-name="Path 420" d="M503.507,53.868q2.5,4.205,5.006,0-2.5-4.206-5.006,0" transform="translate(-266.779 -31.316)" fill="#fff"/>
      <path id="Path_421" data-name="Path 421" d="M441.749,7.657c2.943,0,3.794-4.32,0-4.32q-5.143,2.161,0,4.32" transform="translate(-232.694 -2.02)" fill="#fff"/>
      <path id="Path_422" data-name="Path 422" d="M1580.36,1074.686q-5.42,2.276,0,4.552,5.419-2.275,0-4.552" transform="translate(-835.904 -650.107)" fill="#fff"/>
      <path id="Path_423" data-name="Path 423" d="M1487.654,1083.416q-5.186,2.178,0,4.355,5.186-2.177,0-4.355" transform="translate(-786.846 -655.388)" fill="#fff"/>
      <path id="Path_424" data-name="Path 424" d="M1320.739,1086.3q-2.424-4.074-4.85,0,2.425,4.074,4.85,0" transform="translate(-697.212 -655.901)" fill="#fff"/>
      <path id="Path_425" data-name="Path 425" d="M1243,1118.157q-2.637-4.43-5.274,0,2.637,4.43,5.274,0" transform="translate(-655.799 -675.064)" fill="#fff"/>
      <path id="Path_426" data-name="Path 426" d="M884.462,1156.379q-2.369-3.98-4.739,0,2.369,3.981,4.739,0" transform="translate(-466.113 -698.322)" fill="#fff"/>
      <path id="Path_427" data-name="Path 427" d="M149.229,1169.46q-4.847,2.036,0,4.071,4.846-2.036,0-4.071" transform="translate(-77.783 -707.439)" fill="#fff"/>
      <path id="Path_428" data-name="Path 428" d="M170,1229.347q-5.452,2.289,0,4.58,5.451-2.29,0-4.58" transform="translate(-88.63 -743.666)" fill="#fff"/>
      <path id="Path_429" data-name="Path 429" d="M342.466,1193.5q4.519-1.9,0-3.8-4.518,1.9,0,3.8" transform="translate(-180.255 -719.684)" fill="#fff"/>
      <path id="Path_430" data-name="Path 430" d="M383.414,1227.576q-4.735,1.988,0,3.977,4.734-1.988,0-3.977" transform="translate(-201.894 -742.595)" fill="#fff"/>
      <path id="Path_431" data-name="Path 431" d="M567.575,1196.65q-2.644-4.442-5.288,0,2.644,4.442,5.288,0" transform="translate(-297.923 -722.543)" fill="#fff"/>
      <path id="Path_432" data-name="Path 432" d="M629.391,1218.873q-4.894,2.056,0,4.112,4.894-2.056,0-4.112" transform="translate(-332.181 -737.33)" fill="#fff"/>
      <path id="Path_433" data-name="Path 433" d="M1214.488,1207.339q-4.969,2.086,0,4.173,4.969-2.086,0-4.173" transform="translate(-642.169 -730.353)" fill="#fff"/>
      <path id="Path_434" data-name="Path 434" d="M1390.184,1205.38q-4.685,1.967,0,3.935,4.685-1.967,0-3.935" transform="translate(-735.335 -729.168)" fill="#fff"/>
      <path id="Path_435" data-name="Path 435" d="M1472.844,1224.372q-4.894,2.056,0,4.111,4.894-2.055,0-4.111" transform="translate(-779.077 -740.656)" fill="#fff"/>
      <path id="Path_436" data-name="Path 436" d="M1893.528,366.032q-2.358-3.96-4.715,0,2.357,3.961,4.715,0" transform="translate(-1000.77 -220.226)" fill="#fff"/>
      <path id="Path_437" data-name="Path 437" d="M1841.105,377.1q-2.248-3.777-4.5,0,2.248,3.777,4.5,0" transform="translate(-973.111 -226.975)" fill="#fff"/>
      <path id="Path_438" data-name="Path 438" d="M1586.461,322.833q-2.5-4.2-5,0,2.5,4.2,5,0" transform="translate(-837.925 -194.022)" fill="#fff"/>
      <path id="Path_439" data-name="Path 439" d="M1558.6,321.364q-5.131,2.155,0,4.31,5.131-2.155,0-4.31" transform="translate(-824.451 -194.403)" fill="#fff"/>
      <path id="Path_440" data-name="Path 440" d="M1451.1,288.4q5.243-2.2,0-4.4-5.242,2.2,0,4.4" transform="translate(-767.464 -171.796)" fill="#fff"/>
      <path id="Path_441" data-name="Path 441" d="M1393.63,304.084q-4.613,1.937,0,3.874,4.612-1.938,0-3.874" transform="translate(-737.18 -183.95)" fill="#fff"/>
      <path id="Path_442" data-name="Path 442" d="M1247.717,251.724q-4.513,1.9,0,3.791,4.514-1.9,0-3.791" transform="translate(-659.896 -152.276)" fill="#fff"/>
      <path id="Path_443" data-name="Path 443" d="M1213.887,253.72q5.234-2.2,0-4.4-5.235,2.2,0,4.4" transform="translate(-641.78 -150.824)" fill="#fff"/>
      <path id="Path_444" data-name="Path 444" d="M1148.479,247.534q-4.795,2.014,0,4.027,4.794-2.014,0-4.027" transform="translate(-607.241 -149.741)" fill="#fff"/>
      <path id="Path_445" data-name="Path 445" d="M1083.141,247.923c-2.753,0-2.969,3.664,0,3.664q4.362-1.832,0-3.664" transform="translate(-572.755 -149.977)" fill="#fff"/>
      <path id="Path_446" data-name="Path 446" d="M1981.11,836.185q-5.456,2.291,0,4.582,5.454-2.291,0-4.582" transform="translate(-1048.228 -505.832)" fill="#fff"/>
      <path id="Path_447" data-name="Path 447" d="M1908.269,823.376c0-1.235-4.4-3.331-4.4.653s4.4.519,4.4-.653" transform="translate(-1008.749 -497.076)" fill="#fff"/>
      <path id="Path_448" data-name="Path 448" d="M1842.863,804.808q2.336,3.925,4.673,0-2.336-3.925-4.673,0" transform="translate(-976.424 -485.664)" fill="#fff"/>
      <path id="Path_449" data-name="Path 449" d="M1817.929,788.806q-2.189-3.676-4.377,0,2.188,3.676,4.377,0" transform="translate(-960.894 -476.059)" fill="#fff"/>
      <path id="Path_450" data-name="Path 450" d="M1561.832,873.209c3.091,0-4.483-6.543-4.483-.7q1.592,3.869,4.483.7" transform="translate(-825.147 -526.337)" fill="#fff"/>
      <path id="Path_451" data-name="Path 451" d="M1420.563,875.435q-2.659-4.467-5.319,0,2.66,4.468,5.319,0" transform="translate(-749.854 -528.224)" fill="#fff"/>
      <path id="Path_452" data-name="Path 452" d="M1393.166,858.278q-2.323-3.9-4.646,0,2.323,3.9,4.646,0" transform="translate(-735.695 -518.017)" fill="#fff"/>
      <path id="Path_453" data-name="Path 453" d="M1307.566,878.432q-4.44,1.864,0,3.729,4.441-1.865,0-3.729" transform="translate(-691.626 -531.388)" fill="#fff"/>
      <path id="Path_454" data-name="Path 454" d="M1237.259,885.7q3.081-2.408-1.283-4c-8.2,0,1.581,4.692,1.283,4" transform="translate(-653.131 -533.367)" fill="#fff"/>
      <path id="Path_455" data-name="Path 455" d="M1024.766,847.23c-2.338,0-3.686,3.79,0,3.79q4.511-1.895,0-3.79" transform="translate(-541.752 -512.513)" fill="#fff"/>
      <path id="Path_456" data-name="Path 456" d="M890.533,862.994q-2.708-4.55-5.416,0,2.708,4.549,5.416,0" transform="translate(-468.971 -520.673)" fill="#fff"/>
      <path id="Path_457" data-name="Path 457" d="M804.623,836.655q-4.767,2,0,4,4.766-2,0-4" transform="translate(-425.059 -506.116)" fill="#fff"/>
      <path id="Path_458" data-name="Path 458" d="M725.15,842.206c0-5.06-2.21,3.789-5.173.29.593,3.721,5.173,1.135,5.173-.29" transform="translate(-381.473 -508.504)" fill="#fff"/>
      <path id="Path_459" data-name="Path 459" d="M702.728,852.891c1.733.349,6.253-4.346.611-4.346-7,0-.761,3.956-.611,4.346" transform="translate(-370.901 -513.309)" fill="#fff"/>
      <path id="Path_460" data-name="Path 460" d="M643.823,836.562q4.934-2.072,0-4.145-4.935,2.073,0,4.145" transform="translate(-339.817 -503.553)" fill="#fff"/>
      <path id="Path_461" data-name="Path 461" d="M195.125,861.2q4.6-1.687,1.282-4.2c2.019,2.413-8.322,4.2-1.282,4.2" transform="translate(-102.067 -518.422)" fill="#fff"/>
      <path id="Path_462" data-name="Path 462" d="M174.862,815.044q-5.076,2.132,0,4.264,5.076-2.132,0-4.264" transform="translate(-91.304 -493.043)" fill="#fff"/>
      <path id="Path_463" data-name="Path 463" d="M45.054,847.5q-5.19,2.18,0,4.359,5.189-2.18,0-4.359" transform="translate(-22.496 -512.675)" fill="#fff"/>
      <path id="Path_464" data-name="Path 464" d="M1599.542,318.609q-2.533-4.255-5.065,0,2.532,4.256,5.065,0" transform="translate(-844.819 -191.45)" fill="#fff"/>
      <path id="Path_465" data-name="Path 465" d="M1577.509,310.769q4.9-2.056,0-4.113-4.9,2.057,0,4.113" transform="translate(-834.532 -185.506)" fill="#fff"/>
      <path id="Path_466" data-name="Path 466" d="M1295.093,298.879q-2.365-3.973-4.73,0,2.365,3.973,4.73,0" transform="translate(-683.687 -179.6)" fill="#fff"/>
      <path id="Path_467" data-name="Path 467" d="M1269.159,361.555q-4.464,1.875,0,3.75,4.463-1.875,0-3.75" transform="translate(-671.27 -218.716)" fill="#fff"/>
      <path id="Path_468" data-name="Path 468" d="M1197.885,393.221q4.738-1.99,0-3.98-4.738,1.99,0,3.98" transform="translate(-633.433 -235.464)" fill="#fff"/>
      <path id="Path_469" data-name="Path 469" d="M1173.227,353.759q-4.889,2.053,0,4.106,4.889-2.053,0-4.106" transform="translate(-620.329 -214)" fill="#fff"/>
      <path id="Path_470" data-name="Path 470" d="M1121.1,358.563q5.434-2.283,0-4.565-5.435,2.283,0,4.565" transform="translate(-592.564 -214.144)" fill="#fff"/>
      <path id="Path_471" data-name="Path 471" d="M1008.185,412.638q2.509,4.215,5.018,0-2.509-4.214-5.018,0" transform="translate(-534.178 -248.342)" fill="#fff"/>
      <path id="Path_472" data-name="Path 472" d="M932.7,405.112q4.894-2.056,0-4.111-4.894,2.056,0,4.111" transform="translate(-492.886 -242.578)" fill="#fff"/>
      <path id="Path_473" data-name="Path 473" d="M928.177,459.052q2.222,3.733,4.444,0-2.222-3.734-4.444,0" transform="translate(-491.786 -276.565)" fill="#fff"/>
      <path id="Path_474" data-name="Path 474" d="M883.8,458.564q2.424,4.071,4.847,0-2.424-4.071-4.847,0" transform="translate(-468.272 -276.168)" fill="#fff"/>
      <path id="Path_475" data-name="Path 475" d="M852.4,450.776q4.592-1.928,0-3.857-4.591,1.928,0,3.857" transform="translate(-450.419 -270.355)" fill="#fff"/>
      <path id="Path_476" data-name="Path 476" d="M512.849,398.777q2.207,3.71,4.416,0-2.208-3.709-4.416,0" transform="translate(-271.728 -240.111)" fill="#fff"/>
      <path id="Path_477" data-name="Path 477" d="M360.488,451.29q-2.556-4.3-5.113,0,2.556,4.295,5.113,0" transform="translate(-188.292 -271.699)" fill="#fff"/>
      <path id="Path_478" data-name="Path 478" d="M15.537,417.885q-2.669-4.485-5.339,0,2.67,4.484,5.339,0" transform="translate(-5.403 -251.435)" fill="#fff"/>
      <path id="Path_479" data-name="Path 479" d="M1508.782,346.506q2.4,4.036,4.805,0-2.4-4.037-4.805,0" transform="translate(-799.415 -208.391)" fill="#fff"/>
      <path id="Path_480" data-name="Path 480" d="M1303.975,385.142c4.1,0,2.986-4.548,0-4.548q-5.416,2.274,0,4.548" transform="translate(-689.465 -230.233)" fill="#fff"/>
      <path id="Path_481" data-name="Path 481" d="M1192.633,351.524q5.217-2.191,0-4.383-5.218,2.192,0,4.383" transform="translate(-630.523 -209.996)" fill="#fff"/>
      <path id="Path_482" data-name="Path 482" d="M1101.292,358.3q2.59,4.352,5.181,0-2.59-4.352-5.181,0" transform="translate(-583.51 -215.43)" fill="#fff"/>
      <path id="Path_483" data-name="Path 483" d="M798.781,355.743q4.637-1.948,0-3.9-4.637,1.947,0,3.9" transform="translate(-421.999 -212.844)" fill="#fff"/>
      <path id="Path_484" data-name="Path 484" d="M660.123,338.55q-5.351,2.248,0,4.5,5.352-2.248,0-4.5" transform="translate(-348.342 -204.799)" fill="#fff"/>
      <path id="Path_485" data-name="Path 485" d="M910.735,205.426q-5.277,2.216,0,4.433,5.277-2.217,0-4.433" transform="translate(-481.147 -124.269)" fill="#fff"/>
      <path id="Path_486" data-name="Path 486" d="M793.738,192.127q-2.188-3.675-4.375,0,2.188,3.674,4.375,0" transform="translate(-418.237 -115.113)" fill="#fff"/>
      <path id="Path_487" data-name="Path 487" d="M577.914,122.413q4.709-1.978,0-3.955-4.708,1.978,0,3.955" transform="translate(-304.955 -71.66)" fill="#fff"/>
      <path id="Path_488" data-name="Path 488" d="M561.065,58.611c0,2.628,4.359,2.233,4.359,0,0-4.037-4.359-.836-4.359,0" transform="translate(-297.275 -34.25)" fill="#fff"/>
      <path id="Path_489" data-name="Path 489" d="M518.273,63.136q4.956-2.082,0-4.163-4.956,2.082,0,4.163" transform="translate(-273.289 -35.676)" fill="#fff"/>
      <path id="Path_490" data-name="Path 490" d="M9.13,57.15q2.335,3.921,4.669,0-2.334-3.921-4.669,0" transform="translate(-4.837 -33.387)" fill="#fff"/>
      <path id="Path_491" data-name="Path 491" d="M1272.846,12.186q4.666-1.96,0-3.92-4.666,1.96,0,3.92" transform="translate(-673.17 -5.002)" fill="#fff"/>
      <path id="Path_492" data-name="Path 492" d="M1577.036,16.6c1.486,0,5.473-4.447,0-4.447-3.917,0-3.053,4.447,0,4.447" transform="translate(-834.188 -7.356)" fill="#fff"/>
      <path id="Path_493" data-name="Path 493" d="M1594.138,55.883q4.674-1.963,0-3.926-4.674,1.963,0,3.926" transform="translate(-843.402 -31.432)" fill="#fff"/>
      <path id="Path_494" data-name="Path 494" d="M1935.214,209.926q4.851-2.037,0-4.075-4.852,2.037,0,4.075" transform="translate(-1024.071 -124.526)" fill="#fff"/>
      <path id="Path_495" data-name="Path 495" d="M1972.153,215.391q2.593,4.356,5.186,0-2.593-4.356-5.186,0" transform="translate(-1044.927 -128.98)" fill="#fff"/>
      <path id="Path_496" data-name="Path 496" d="M1813.055,93.666q4.555-1.914,0-3.826-4.554,1.913,0,3.826" transform="translate(-959.424 -54.348)" fill="#fff"/>
      <path id="Path_497" data-name="Path 497" d="M1801,1164.146q-2.612-4.388-5.224,0,2.612,4.389,5.224,0" transform="translate(-951.473 -702.897)" fill="#fff"/>
      <path id="Path_498" data-name="Path 498" d="M1688.6,1134.526q-2.206-3.706-4.412,0,2.206,3.706,4.412,0" transform="translate(-892.352 -685.186)" fill="#fff"/>
      <path id="Path_499" data-name="Path 499" d="M1486.713,1148.995q-5.075,2.132,0,4.263,5.076-2.132,0-4.263" transform="translate(-786.377 -695.059)" fill="#fff"/>
      <path id="Path_500" data-name="Path 500" d="M379.151,928.017q2.219,3.727,4.437,0-2.219-3.727-4.437,0" transform="translate(-200.89 -560.256)" fill="#fff"/>
      <path id="Path_501" data-name="Path 501" d="M621.279,864.858q-2.585-4.342-5.169,0,2.585,4.341,5.169,0" transform="translate(-326.44 -521.864)" fill="#fff"/>
      <path id="Path_502" data-name="Path 502" d="M721.44,841.421c3.65,0,2.655-3.987,0-3.987-3.558,0-2.669,3.987,0,3.987" transform="translate(-381.005 -506.587)" fill="#fff"/>
      <path id="Path_503" data-name="Path 503" d="M735.983,814.829q-4.418,1.856,0,3.711,4.418-1.855,0-3.711" transform="translate(-388.783 -492.913)" fill="#fff"/>
      <path id="Path_504" data-name="Path 504" d="M806.094,808.949q-4.558,1.914,0,3.829,4.558-1.914,0-3.829" transform="translate(-425.894 -489.356)" fill="#fff"/>
      <path id="Path_505" data-name="Path 505" d="M902.223,771.27q4.492-1.887,0-3.774-4.492,1.887,0,3.774" transform="translate(-476.844 -464.28)" fill="#fff"/>
      <path id="Path_506" data-name="Path 506" d="M926.242,811.478q5.455-2.291,0-4.583-5.455,2.292,0,4.583" transform="translate(-489.316 -488.114)" fill="#fff"/>
      <path id="Path_507" data-name="Path 507" d="M993.354,757.076q-2.234-3.752-4.467,0,2.233,3.752,4.467,0" transform="translate(-523.953 -456.842)" fill="#fff"/>
      <path id="Path_508" data-name="Path 508" d="M1147.87,794q-4.582,1.924,0,3.848,4.582-1.924,0-3.848" transform="translate(-606.975 -480.315)" fill="#fff"/>
      <path id="Path_509" data-name="Path 509" d="M1260.32,799.961q2.6,4.364,5.2,0-2.6-4.365-5.2,0" transform="translate(-667.769 -482.599)" fill="#fff"/>
      <path id="Path_510" data-name="Path 510" d="M1274.96,736.964q2.641,4.437,5.282,0-2.641-4.436-5.282,0" transform="translate(-675.526 -444.468)" fill="#fff"/>
      <path id="Path_511" data-name="Path 511" d="M1363.179,757.97q-5.3,2.226,0,4.451,5.3-2.226,0-4.451" transform="translate(-720.864 -458.518)" fill="#fff"/>
      <path id="Path_512" data-name="Path 512" d="M1466.8,731.168c-3.262,0-2.691,4.35,0,4.35q5.179-2.175,0-4.35" transform="translate(-775.985 -442.304)" fill="#fff"/>
      <path id="Path_513" data-name="Path 513" d="M1531.553,734.356q2.281,3.833,4.562,0-2.281-3.832-4.562,0" transform="translate(-811.48 -443.074)" fill="#fff"/>
      <path id="Path_514" data-name="Path 514" d="M1577.934,717.45q-2.535-4.259-5.07,0,2.535,4.259,5.07,0" transform="translate(-833.368 -432.718)" fill="#fff"/>
      <path id="Path_515" data-name="Path 515" d="M1802.138,725.539q2.291,3.849,4.582,0-2.291-3.849-4.582,0" transform="translate(-954.847 -437.735)" fill="#fff"/>
      <path id="Path_516" data-name="Path 516" d="M1842.56,725.93q4.918-2.056.045-4.146c.04-.142-6.981,4.146-.045,4.146" transform="translate(-974.641 -436.626)" fill="#fff"/>
      <path id="Path_517" data-name="Path 517" d="M762.962,897.258q4.345-1.825,0-3.65-4.346,1.825,0,3.65" transform="translate(-403.098 -540.569)" fill="#fff"/>
      <path id="Path_518" data-name="Path 518" d="M815.073,921.261q-2.549-4.283-5.1,0,2.55,4.283,5.1,0" transform="translate(-429.157 -556.001)" fill="#fff"/>
      <path id="Path_519" data-name="Path 519" d="M859.623,915.685q5.139-2.159,0-4.317-5.139,2.159,0,4.317" transform="translate(-454.102 -551.312)" fill="#fff"/>
      <path id="Path_520" data-name="Path 520" d="M1471.57,915.773q-4.757,2,0,4,4.758-2,0-4" transform="translate(-778.438 -553.977)" fill="#fff"/>
      <path id="Path_521" data-name="Path 521" d="M1564.407,878.037c-3.6-.634-4.776,4.473-.555,4.473q5.091-2.027.555-4.473" transform="translate(-827.167 -531.117)" fill="#fff"/>
      <path id="Path_522" data-name="Path 522" d="M1615.936,931.89q-2.51-4.216-5.019,0,2.509,4.215,5.019,0" transform="translate(-853.53 -562.451)" fill="#fff"/>
      <path id="Path_523" data-name="Path 523" d="M1737.252,923.955q-5.218,2.191,0,4.383,5.218-2.192,0-4.383" transform="translate(-919.085 -558.926)" fill="#fff"/>
      <path id="Path_524" data-name="Path 524" d="M1755.953,892.554q2.539,4.264,5.077,0-2.539-4.265-5.077,0" transform="translate(-930.376 -538.641)" fill="#fff"/>
      <path id="Path_525" data-name="Path 525" d="M1899.343,923.862q-4.408,1.851,0,3.7,4.408-1.852,0-3.7" transform="translate(-1005.182 -558.87)" fill="#fff"/>
      <path id="Path_526" data-name="Path 526" d="M1840.253,718.256c.79-2.787-5.192-3.161-5.192-.513,0,3.375,4.654,2.413,5.192.513" transform="translate(-972.29 -433.098)" fill="#fff"/>
      <path id="Path_527" data-name="Path 527" d="M1728.7,701.647q5.248-2.2,0-4.409-5.249,2.2,0,4.409" transform="translate(-914.548 -421.779)" fill="#fff"/>
      <path id="Path_528" data-name="Path 528" d="M1691.958,723.21q-2.375-3.991-4.75,0,2.375,3.99,4.75,0" transform="translate(-893.951 -436.283)" fill="#fff"/>
      <path id="Path_529" data-name="Path 529" d="M1589.47,806.032c3.626-1.5-.655-5.2-2.808-3.817,0,3.827-.943,1.411,2.808,3.817" transform="translate(-840.623 -485.1)" fill="#fff"/>
      <path id="Path_530" data-name="Path 530" d="M1548.817,785.389q-5.094,2.139,0,4.278,5.092-2.139,0-4.278" transform="translate(-819.277 -475.104)" fill="#fff"/>
      <path id="Path_531" data-name="Path 531" d="M1536.037,783.358q-5.232,2.2,0,4.394,5.231-2.2,0-4.394" transform="translate(-812.469 -473.875)" fill="#fff"/>
      <path id="Path_532" data-name="Path 532" d="M1414.193,790.955q4.893-2.056,0-4.111-4.893,2.055,0,4.111" transform="translate(-748.001 -475.984)" fill="#fff"/>
      <path id="Path_533" data-name="Path 533" d="M1399.809,846.027q4.884-2.051,0-4.1-4.885,2.052,0,4.1" transform="translate(-740.382 -509.304)" fill="#fff"/>
      <path id="Path_534" data-name="Path 534" d="M1339.686,835.415q-4.371,1.836,0,3.671,4.37-1.836,0-3.671" transform="translate(-708.663 -505.366)" fill="#fff"/>
      <path id="Path_535" data-name="Path 535" d="M1280.649,824.711q-2.236-3.755-4.471,0,2.236,3.755,4.471,0" transform="translate(-676.171 -497.755)" fill="#fff"/>
      <path id="Path_536" data-name="Path 536" d="M1261.89,849.186q-2.349-3.946-4.7,0,2.349,3.945,4.7,0" transform="translate(-666.112 -512.503)" fill="#fff"/>
      <path id="Path_537" data-name="Path 537" d="M1250.922,884.963q-2.536-4.259-5.071,0,2.536,4.259,5.071,0" transform="translate(-660.103 -534.051)" fill="#fff"/>
      <path id="Path_538" data-name="Path 538" d="M1005.535,926.783q4.791-2.013,0-4.025-4.792,2.013,0,4.025" transform="translate(-531.504 -558.202)" fill="#fff"/>
      <path id="Path_539" data-name="Path 539" d="M621.487,953.911q-2.219-3.729-4.439,0c0,1.992,4.439,2.978,4.439,0" transform="translate(-326.937 -575.92)" fill="#fff"/>
      <path id="Path_540" data-name="Path 540" d="M554.8,973.385q5.454-2.291,0-4.582-5.454,2.291,0,4.582" transform="translate(-292.51 -586.056)" fill="#fff"/>
      <path id="Path_541" data-name="Path 541" d="M457.755,972.949q-2.3-3.864-4.6,0,2.3,3.863,4.6,0" transform="translate(-240.1 -587.395)" fill="#fff"/>
      <path id="Path_542" data-name="Path 542" d="M336.772,975.672c0-2.69-5.665-2.74-5.227.268.3,2.065,5.227,3.265,5.227-.268" transform="translate(-175.654 -588.999)" fill="#fff"/>
      <path id="Path_543" data-name="Path 543" d="M110.712,892.192q-2.355-3.956-4.709,0c0,2.51,4.709,2.755,4.709,0" transform="translate(-56.165 -538.515)" fill="#fff"/>
      <path id="Path_544" data-name="Path 544" d="M122.681,847.643q-2.424-4.071-4.847,0,2.424,4.072,4.847,0" transform="translate(-62.433 -511.532)" fill="#fff"/>
      <path id="Path_545" data-name="Path 545" d="M193.74,858.871c3.629,0,2.734-4.074,0-4.074-3.671,0-2.68,4.074,0,4.074" transform="translate(-101.382 -517.091)" fill="#fff"/>
      <path id="Path_546" data-name="Path 546" d="M425.152,711.487q2.24,3.762,4.479,0-2.239-3.763-4.479,0" transform="translate(-225.263 -429.261)" fill="#fff"/>
      <path id="Path_547" data-name="Path 547" d="M722.893,711.4q4.941-2.075,0-4.15-4.941,2.075,0,4.15" transform="translate(-381.709 -427.837)" fill="#fff"/>
      <path id="Path_548" data-name="Path 548" d="M770.353,672.065q-2.431-4.085-4.863,0,2.432,4.085,4.863,0" transform="translate(-405.588 -405.316)" fill="#fff"/>
      <path id="Path_549" data-name="Path 549" d="M855.445,644.494q-2.606-4.378-5.212,0,2.606,4.378,5.212,0" transform="translate(-450.488 -388.549)" fill="#fff"/>
      <path id="Path_550" data-name="Path 550" d="M1051.6,721.286q-2.367-3.978-4.735,0,2.367,3.978,4.735,0" transform="translate(-554.674 -435.123)" fill="#fff"/>
      <path id="Path_551" data-name="Path 551" d="M1342.947,737.413q4.854-2.039,0-4.078-4.855,2.039,0,4.078" transform="translate(-710.262 -443.615)" fill="#fff"/>
      <path id="Path_552" data-name="Path 552" d="M1398.8,743.591q-4.377,1.838,0,3.676,4.376-1.838,0-3.676" transform="translate(-739.984 -449.819)" fill="#fff"/>
      <path id="Path_553" data-name="Path 553" d="M1581.717,799.547c0-.842-4.5-4.192-4.5,0,0,2.807,4.5,2.159,4.5,0" transform="translate(-835.676 -482.419)" fill="#fff"/>
      <path id="Path_554" data-name="Path 554" d="M1752.814,792.454q4.543-1.908,0-3.816-4.543,1.908,0,3.816" transform="translate(-927.509 -477.069)" fill="#fff"/>
      <path id="Path_555" data-name="Path 555" d="M1948.726,593.409q-5.313,2.232,0,4.464,5.314-2.232,0-4.464" transform="translate(-1031.107 -358.97)" fill="#fff"/>
      <path id="Path_556" data-name="Path 556" d="M1839.743,599.908q4.755-2,0-3.995-4.755,2,0,3.995" transform="translate(-973.512 -360.485)" fill="#fff"/>
      <path id="Path_557" data-name="Path 557" d="M1815.488,638.7q4.826-2.027,0-4.053-4.826,2.027,0,4.053" transform="translate(-960.641 -383.914)" fill="#fff"/>
      <path id="Path_558" data-name="Path 558" d="M1452.293,693.94q-2.36-3.965-4.721,0,2.361,3.966,4.721,0" transform="translate(-766.983 -418.585)" fill="#fff"/>
      <path id="Path_559" data-name="Path 559" d="M1440.551,669.7q-2.481-4.167-4.961,0,2.481,4.167,4.961,0" transform="translate(-760.634 -403.862)" fill="#fff"/>
      <path id="Path_560" data-name="Path 560" d="M1352.169,679.756q4.965-2.085,0-4.17-4.964,2.085,0,4.17" transform="translate(-715.119 -408.681)" fill="#fff"/>
      <path id="Path_561" data-name="Path 561" d="M1271.089,671.524q-2.6-4.367-5.2,0,2.6,4.368,5.2,0" transform="translate(-670.72 -404.903)" fill="#fff"/>
      <path id="Path_562" data-name="Path 562" d="M1220.141,729.364q-4.87,2.046,0,4.091,4.87-2.046,0-4.091" transform="translate(-645.19 -441.213)" fill="#fff"/>
      <path id="Path_563" data-name="Path 563" d="M1141.323,684.65q-2.451-4.118-4.9,0,2.452,4.119,4.9,0" transform="translate(-602.122 -412.919)" fill="#fff"/>
      <path id="Path_564" data-name="Path 564" d="M1097.589,755.353c2.938,0,4.025-4.41,0-4.41q-5.251,2.205,0,4.41" transform="translate(-580.157 -454.267)" fill="#fff"/>
      <path id="Path_565" data-name="Path 565" d="M684.8,807q4.515-1.9,0-3.793-4.515,1.9,0,3.793" transform="translate(-361.642 -485.884)" fill="#fff"/>
      <path id="Path_566" data-name="Path 566" d="M602.458,825.781q-2.5-4.2-5,0,2.5,4.2,5,0" transform="translate(-316.557 -498.268)" fill="#fff"/>
      <path id="Path_567" data-name="Path 567" d="M345.064,886.345q-4.536,1.905,0,3.81,4.536-1.905,0-3.81" transform="translate(-181.627 -536.175)" fill="#fff"/>
      <path id="Path_568" data-name="Path 568" d="M213.862,972.281q-5.406,2.27,0,4.541,5.406-2.27,0-4.541" transform="translate(-111.881 -588.16)" fill="#fff"/>
      <path id="Path_569" data-name="Path 569" d="M327.035,553.059q-2.539-4.264-5.077,0,2.539,4.264,5.077,0" transform="translate(-170.587 -333.272)" fill="#fff"/>
      <path id="Path_570" data-name="Path 570" d="M512.476,499.549q5.291-2.221,0-4.443-5.29,2.221,0,4.443" transform="translate(-270.129 -299.504)" fill="#fff"/>
      <path id="Path_571" data-name="Path 571" d="M606.994,536.74q2.444,4.107,4.889,0-2.444-4.107-4.889,0" transform="translate(-321.61 -323.447)" fill="#fff"/>
      <path id="Path_572" data-name="Path 572" d="M672.332,510.375q4.961-2.084,0-4.167-4.961,2.084,0,4.167" transform="translate(-354.915 -306.22)" fill="#fff"/>
      <path id="Path_573" data-name="Path 573" d="M685.325,512.961q-4.748,1.994,0,3.989,4.748-2,0-3.989" transform="translate(-361.855 -310.305)" fill="#fff"/>
      <path id="Path_574" data-name="Path 574" d="M718.2,497.314q-4.938,2.074,0,4.147,4.937-2.074,0-4.147" transform="translate(-379.225 -300.84)" fill="#fff"/>
      <path id="Path_575" data-name="Path 575" d="M1028.119,506.351q4.678-1.964,0-3.929-4.678,1.964,0,3.929" transform="translate(-543.5 -303.93)" fill="#fff"/>
      <path id="Path_576" data-name="Path 576" d="M1151.679,515.157q-2.611-4.386-5.222,0,2.611,4.387,5.222,0" transform="translate(-607.44 -310.307)" fill="#fff"/>
      <path id="Path_577" data-name="Path 577" d="M1273.311,486.827q-2.253-3.784-4.506,0,2.253,3.785,4.506,0" transform="translate(-672.265 -293.351)" fill="#fff"/>
      <path id="Path_578" data-name="Path 578" d="M1284.38,533.029a2.238,2.238,0,1,0,0-4.449q-5.3,2.225,0,4.449" transform="translate(-679.114 -319.754)" fill="#fff"/>
      <path id="Path_579" data-name="Path 579" d="M1332.8,497.187q-2.327-3.908-4.653,0,2.326,3.908,4.653,0" transform="translate(-703.704 -299.581)" fill="#fff"/>
      <path id="Path_580" data-name="Path 580" d="M1420.462,497.052q-4.487,1.885,0,3.769,4.488-1.884,0-3.769" transform="translate(-751.43 -300.681)" fill="#fff"/>
      <path id="Path_581" data-name="Path 581" d="M1527.765,510.791q5.382-2.26,0-4.52-5.381,2.26,0,4.52" transform="translate(-808.047 -306.258)" fill="#fff"/>
      <path id="Path_582" data-name="Path 582" d="M1577.208,514.023q4.439-1.864,0-3.728-4.439,1.864,0,3.728" transform="translate(-834.493 -308.692)" fill="#fff"/>
      <path id="Path_583" data-name="Path 583" d="M1697.483,510.935q-5.176,2.174,0,4.347,5.175-2.174,0-4.347" transform="translate(-898.025 -309.08)" fill="#fff"/>
      <path id="Path_584" data-name="Path 584" d="M1792.1,438.017q-4.619,1.94,0,3.879,4.619-1.94,0-3.879" transform="translate(-948.305 -264.97)" fill="#fff"/>
      <path id="Path_585" data-name="Path 585" d="M1804.132,437.758q-5.4,2.269,0,4.539,5.4-2.27,0-4.539" transform="translate(-954.471 -264.813)" fill="#fff"/>
      <path id="Path_586" data-name="Path 586" d="M1878.948,415.67c3.6,0,2.4-3.929-.155-3.781q-4.283,1.949.155,3.781" transform="translate(-994.347 -249.161)" fill="#fff"/>
      <path id="Path_587" data-name="Path 587" d="M1680.358,321.217q-5.06,2.125,0,4.25,5.059-2.125,0-4.25" transform="translate(-888.982 -194.314)" fill="#fff"/>
      <path id="Path_588" data-name="Path 588" d="M1674.9,335.1q4.746-1.992,0-3.986-4.745,1.992,0,3.986" transform="translate(-886.174 -200.302)" fill="#fff"/>
      <path id="Path_589" data-name="Path 589" d="M1189.875,385.99q-2.583-4.34-5.167,0,2.583,4.34,5.167,0" transform="translate(-627.707 -232.184)" fill="#fff"/>
      <path id="Path_590" data-name="Path 590" d="M1096.906,392.392q-2.532-4.253-5.063,0,2.532,4.253,5.063,0" transform="translate(-578.503 -236.083)" fill="#fff"/>
      <path id="Path_591" data-name="Path 591" d="M1037.37,421.451q2.533,4.256,5.066,0-2.533-4.256-5.066,0" transform="translate(-549.641 -253.661)" fill="#fff"/>
      <path id="Path_592" data-name="Path 592" d="M877.009,446.374q2.455,4.124,4.91,0-2.455-4.125-4.91,0" transform="translate(-464.675 -268.778)" fill="#fff"/>
      <path id="Path_593" data-name="Path 593" d="M853.88,426.661q-4.943,2.076,0,4.152,4.942-2.076,0-4.152" transform="translate(-451.111 -258.1)" fill="#fff"/>
      <path id="Path_594" data-name="Path 594" d="M842.782,470.856q5.007-2.1,0-4.206-5.008,2.1,0,4.206" transform="translate(-445.214 -282.29)" fill="#fff"/>
      <path id="Path_595" data-name="Path 595" d="M819.1,469.463q2.194,3.686,4.388,0-2.194-3.687-4.388,0" transform="translate(-433.992 -282.877)" fill="#fff"/>
      <path id="Path_596" data-name="Path 596" d="M700.99,443.991q-5.44,2.285,0,4.569,5.44-2.285,0-4.569" transform="translate(-369.972 -268.583)" fill="#fff"/>
      <path id="Path_597" data-name="Path 597" d="M1921.97,243.768q-2.29-3.847-4.58,0,2.29,3.847,4.58,0" transform="translate(-1015.912 -146.299)" fill="#fff"/>
      <path id="Path_598" data-name="Path 598" d="M1903.519,232.7q4.91-2.062,0-4.124-4.91,2.062,0,4.124" transform="translate(-1007.262 -138.275)" fill="#fff"/>
      <path id="Path_599" data-name="Path 599" d="M1782.573,211.417q-4.737,1.989,0,3.979,4.737-1.989,0-3.979" transform="translate(-943.225 -127.893)" fill="#fff"/>
      <path id="Path_600" data-name="Path 600" d="M1690.415,245.5q5.277-2.216,0-4.432-5.277,2.216,0,4.432" transform="translate(-894.253 -145.828)" fill="#fff"/>
      <path id="Path_601" data-name="Path 601" d="M1657.127,245.28q4.677-1.964,0-3.928-4.677,1.964,0,3.928" transform="translate(-876.775 -146.002)" fill="#fff"/>
      <path id="Path_602" data-name="Path 602" d="M1489.125,236.268c3.88,0,2.635-4.121,0-4.121q-4.906,2.061,0,4.121" transform="translate(-787.7 -140.433)" fill="#fff"/>
      <path id="Path_603" data-name="Path 603" d="M1350.849,202.147q-4.671,1.962,0,3.923,4.67-1.962,0-3.923" transform="translate(-714.498 -122.286)" fill="#fff"/>
      <path id="Path_604" data-name="Path 604" d="M1055.634,166.427q-4.77,2,0,4.006,4.769-2,0-4.006" transform="translate(-558.054 -100.678)" fill="#fff"/>
      <path id="Path_605" data-name="Path 605" d="M1657.972,203.6q2.454,4.122,4.908,0-2.454-4.122-4.908,0" transform="translate(-878.461 -121.916)" fill="#fff"/>
      <path id="Path_606" data-name="Path 606" d="M1391.339,140.027q-5.456,2.291,0,4.582,5.456-2.292,0-4.582" transform="translate(-735.743 -84.708)" fill="#fff"/>
      <path id="Path_607" data-name="Path 607" d="M1273.228,155.309q-2.3-3.866-4.6,0,2.3,3.866,4.6,0" transform="translate(-672.17 -92.783)" fill="#fff"/>
      <path id="Path_608" data-name="Path 608" d="M1140.477,1093.566q-4.483,1.883,0,3.766,4.484-1.883,0-3.766" transform="translate(-603.084 -661.528)" fill="#fff"/>
      <path id="Path_609" data-name="Path 609" d="M1124.878,1107.264q-4.355,1.829,0,3.658,4.355-1.829,0-3.658" transform="translate(-594.853 -669.815)" fill="#fff"/>
      <path id="Path_610" data-name="Path 610" d="M996.89,1127.654q-4.985,2.094,0,4.188,4.985-2.095,0-4.188" transform="translate(-526.872 -682.149)" fill="#fff"/>
      <path id="Path_611" data-name="Path 611" d="M944.109,1071.4q-5.393,2.265,0,4.53,5.392-2.265,0-4.53" transform="translate(-498.799 -648.122)" fill="#fff"/>
      <path id="Path_612" data-name="Path 612" d="M933.357,1112.765q-5.294,2.223,0,4.446,5.293-2.223,0-4.446" transform="translate(-493.129 -673.143)" fill="#fff"/>
      <path id="Path_613" data-name="Path 613" d="M884.15,1101.818q2.71,4.552,5.419,0c0-3.671-5.419-2.36-5.419,0" transform="translate(-468.459 -665.136)" fill="#fff"/>
      <path id="Path_614" data-name="Path 614" d="M829.284,1140.134q-4.562,1.915,0,3.831,4.559-1.915,0-3.831" transform="translate(-438.18 -689.699)" fill="#fff"/>
      <path id="Path_615" data-name="Path 615" d="M329.56,1106.46q-4.7,1.972,0,3.945,4.7-1.972,0-3.945" transform="translate(-173.37 -669.328)" fill="#fff"/>
      <path id="Path_616" data-name="Path 616" d="M233.969,1101.69q-2.375-3.988-4.749,0,2.375,3.988,4.749,0" transform="translate(-121.45 -665.236)" fill="#fff"/>
      <path id="Path_617" data-name="Path 617" d="M149.322,1083.813q-2.423-4.072-4.847,0,2.423,4.071,4.847,0" transform="translate(-76.549 -654.397)" fill="#fff"/>
      <path id="Path_618" data-name="Path 618" d="M70.041,967.135q-2.217-3.725-4.434,0,2.217,3.725,4.434,0" transform="translate(-34.761 -583.92)" fill="#fff"/>
      <path id="Path_619" data-name="Path 619" d="M131.894,943.19q-5.336,2.241,0,4.482,5.335-2.241,0-4.482" transform="translate(-68.469 -570.562)" fill="#fff"/>
      <path id="Path_620" data-name="Path 620" d="M153.744,938.91q5.3-2.228,0-4.456-5.3,2.228,0,4.456" transform="translate(-80.055 -565.277)" fill="#fff"/>
      <path id="Path_621" data-name="Path 621" d="M254.379,980.8q4.4-1.848,0-3.7-4.4,1.848,0,3.7" transform="translate(-133.615 -591.077)" fill="#fff"/>
      <path id="Path_622" data-name="Path 622" d="M436.418,937.918q-2.241-3.764-4.481,0,2.241,3.764,4.481,0" transform="translate(-228.858 -566.234)" fill="#fff"/>
      <path id="Path_623" data-name="Path 623" d="M440.472,983.9q-2.48-4.167-4.961,0,2.48,4.167,4.961,0" transform="translate(-230.752 -593.928)" fill="#fff"/>
      <path id="Path_624" data-name="Path 624" d="M559.1,1037.486q-2.341-3.934-4.683,0,2.341,3.933,4.683,0" transform="translate(-293.752 -626.415)" fill="#fff"/>
      <path id="Path_625" data-name="Path 625" d="M632.658,1036.193q-2.575-4.326-5.15,0,2.575,4.326,5.15,0" transform="translate(-332.479 -625.514)" fill="#fff"/>
      <path id="Path_626" data-name="Path 626" d="M507.382,1146.989q-2.411-4.05-4.822,0,2.411,4.051,4.822,0" transform="translate(-266.277 -692.62)" fill="#fff"/>
      <path id="Path_627" data-name="Path 627" d="M339.732,1229.069q-4.663,1.959,0,3.917,4.663-1.959,0-3.917" transform="translate(-178.769 -743.498)" fill="#fff"/>
      <path id="Path_628" data-name="Path 628" d="M1519.348,1044.205q5.412-2.273,0-4.546-5.412,2.273,0,4.546" transform="translate(-803.579 -628.919)" fill="#fff"/>
      <path id="Path_629" data-name="Path 629" d="M1456.086,1100.491c2.112,0,4.8-4.492,0-4.492-3.71,0-3.405,4.492,0,4.492" transform="translate(-770.08 -663)" fill="#fff"/>
      <path id="Path_630" data-name="Path 630" d="M1423.258,1070.581c-3.264,0-2.451,3.66,0,3.66,1.707,0,3.926-3.66,0-3.66" transform="translate(-752.959 -647.624)" fill="#fff"/>
      <path id="Path_631" data-name="Path 631" d="M1408.148,1124.338q-2.222-3.735-4.446,0,2.223,3.735,4.446,0" transform="translate(-743.739 -679.014)" fill="#fff"/>
      <path id="Path_632" data-name="Path 632" d="M1275.142,1088.229q-5.413,2.273,0,4.547,5.413-2.273,0-4.547" transform="translate(-674.188 -658.3)" fill="#fff"/>
      <path id="Path_633" data-name="Path 633" d="M1103.087,1134.189q-4.487,1.885,0,3.769,4.488-1.884,0-3.769" transform="translate(-583.272 -686.102)" fill="#fff"/>
      <path id="Path_634" data-name="Path 634" d="M1064.231,1189.624q4.507-1.893,0-3.786-4.507,1.893,0,3.786" transform="translate(-562.679 -717.346)" fill="#fff"/>
      <path id="Path_635" data-name="Path 635" d="M676.727,1206.369q-5.361,2.251,0,4.5,5.361-2.251,0-4.5" transform="translate(-357.137 -729.766)" fill="#fff"/>
      <path id="Path_636" data-name="Path 636" d="M652.737,1186.991q-4.6,1.931,0,3.863,4.6-1.931,0-3.863" transform="translate(-344.628 -718.044)" fill="#fff"/>
      <path id="Path_637" data-name="Path 637" d="M585.749,1105.518c0-1.818-4.355-3.054-4.355,0q2.178,3.658,4.355,0" transform="translate(-308.046 -667.636)" fill="#fff"/>
      <path id="Path_638" data-name="Path 638" d="M463.436,989.945q-4.576,1.922,0,3.844,4.575-1.922,0-3.844" transform="translate(-244.335 -598.845)" fill="#fff"/>
      <path id="Path_639" data-name="Path 639" d="M425.523,1047.125q5.138-2.158,0-4.316-5.138,2.158,0,4.316" transform="translate(-224.098 -630.824)" fill="#fff"/>
      <path id="Path_640" data-name="Path 640" d="M239.378,1017.105q4.609-1.936,0-3.872-4.609,1.936,0,3.872" transform="translate(-125.611 -612.933)" fill="#fff"/>
      <path id="Path_641" data-name="Path 641" d="M547.7,1103.03c-2.632,0-3.508,3.884,0,3.884q4.624-1.941,0-3.884" transform="translate(-288.968 -667.253)" fill="#fff"/>
      <path id="Path_642" data-name="Path 642" d="M574.217,1207.221q-5.392,2.265,0,4.53,5.392-2.265,0-4.53" transform="translate(-302.815 -730.281)" fill="#fff"/>
      <path id="Path_643" data-name="Path 643" d="M485.62,1199.094q-4.506,1.892,0,3.784,4.507-1.891,0-3.784" transform="translate(-256.108 -725.365)" fill="#fff"/>
      <path id="Path_644" data-name="Path 644" d="M421.96,1194.381c-3.99,0-3.237,4.564,0,4.564q5.433-2.282,0-4.564" transform="translate(-222.132 -722.514)" fill="#fff"/>
      <path id="Path_645" data-name="Path 645" d="M474.755,1077.992q-5.234,2.2,0,4.4,5.234-2.2,0-4.4" transform="translate(-250.158 -652.107)" fill="#fff"/>
      <path id="Path_646" data-name="Path 646" d="M566.87,1014.418q-2.186-3.671-4.371,0,2.186,3.672,4.371,0" transform="translate(-298.035 -612.539)" fill="#fff"/>
      <path id="Path_647" data-name="Path 647" d="M694.765,956.382q-4.966,2.086,0,4.172,4.966-2.087,0-4.172" transform="translate(-366.799 -578.542)" fill="#fff"/>
      <path id="Path_648" data-name="Path 648" d="M733.762,1000.12q-4.874,2.047,0,4.094,4.873-2.047,0-4.094" transform="translate(-387.486 -605)" fill="#fff"/>
      <path id="Path_649" data-name="Path 649" d="M1071.866,904.337q-2.283-3.836-4.566,0,2.283,3.835,4.566,0" transform="translate(-565.499 -545.899)" fill="#fff"/>
      <path id="Path_650" data-name="Path 650" d="M813.343,1234.384c0-3.34-5.277-2.531-5.277,0,0,2.654,5.277,2.654,5.277,0" transform="translate(-428.146 -745.375)" fill="#fff"/>
      <path id="Path_651" data-name="Path 651" d="M795.641,1197.541c-3.831,0-2.949,4.666.414,4.2q4.406-2.255-.414-4.2" transform="translate(-420.232 -724.426)" fill="#fff"/>
      <path id="Path_652" data-name="Path 652" d="M710.743,1157.711q-2.259-3.8-4.518,0,2.259,3.8,4.518,0" transform="translate(-374.187 -699.183)" fill="#fff"/>
      <path id="Path_653" data-name="Path 653" d="M653.365,1175.144q-2.32-3.9-4.639,0,2.32,3.9,4.639,0" transform="translate(-343.722 -709.699)" fill="#fff"/>
      <path id="Path_654" data-name="Path 654" d="M684.465,319.3q5.437-2.283,0-4.566-5.437,2.283,0,4.566" transform="translate(-361.217 -190.391)" fill="#fff"/>
      <path id="Path_655" data-name="Path 655" d="M538.463,273.338q2.514,4.225,5.029,0-2.515-4.225-5.029,0" transform="translate(-285.3 -164.073)" fill="#fff"/>
      <path id="Path_656" data-name="Path 656" d="M463.255,314.766q-4.416,1.856,0,3.711,4.417-1.855,0-3.711" transform="translate(-244.281 -190.412)" fill="#fff"/>
      <path id="Path_657" data-name="Path 657" d="M251.32,236.8q2.309,3.879,4.617,0-2.308-3.879-4.617,0" transform="translate(-133.16 -142.072)" fill="#fff"/>
      <path id="Path_658" data-name="Path 658" d="M64.911,283.258q-2.528-4.247-5.055,0,2.528,4.246,5.055,0" transform="translate(-31.714 -170.067)" fill="#fff"/>
      <path id="Path_659" data-name="Path 659" d="M880.136,499.37q2.683,4.507,5.366,0-2.683-4.507-5.366,0" transform="translate(-466.332 -300.72)" fill="#fff"/>
      <path id="Path_660" data-name="Path 660" d="M1130.53,63.126q4.888-2.053,0-4.106-4.887,2.053,0,4.106" transform="translate(-597.707 -35.704)" fill="#fff"/>
      <path id="Path_661" data-name="Path 661" d="M1053.278,56.237q5.306-2.228,0-4.456-5.305,2.228,0,4.456" transform="translate(-556.665 -31.325)" fill="#fff"/>
      <path id="Path_662" data-name="Path 662" d="M846.026,38.706q2.549,4.283,5.1,0c0-.5-5.1-3.059-5.1,0" transform="translate(-448.259 -22.522)" fill="#fff"/>
      <path id="Path_663" data-name="Path 663" d="M782.351,90.853q4.392-1.844,0-3.688-4.391,1.844,0,3.688" transform="translate(-413.358 -52.73)" fill="#fff"/>
      <path id="Path_664" data-name="Path 664" d="M601.6,96.217q4.358-1.83,0-3.66-4.357,1.83,0,3.66" transform="translate(-317.601 -55.992)" fill="#fff"/>
      <path id="Path_665" data-name="Path 665" d="M1429.5,81.413q4.383-1.84,0-3.681-4.382,1.84,0,3.681" transform="translate(-756.248 -47.024)" fill="#fff"/>
      <path id="Path_666" data-name="Path 666" d="M1296.124,71.7q4.372-1.836,0-3.672-4.372,1.837,0,3.672" transform="translate(-685.581 -41.156)" fill="#fff"/>
      <path id="Path_667" data-name="Path 667" d="M1120.048,114.378q2.188,3.677,4.377,0c0-2.03-4.377-2.856-4.377,0" transform="translate(-593.447 -68.075)" fill="#fff"/>
      <path id="Path_668" data-name="Path 668" d="M1073.884,81.3q5.4-2.267,0-4.535-5.4,2.268,0,4.535" transform="translate(-567.557 -46.438)" fill="#fff"/>
      <path id="Path_669" data-name="Path 669" d="M849.322,55.963q4.841-2.034,0-4.066-4.841,2.033,0,4.066" transform="translate(-448.723 -31.395)" fill="#fff"/>
      <path id="Path_670" data-name="Path 670" d="M1330.408,211.732q4.816-2.023,0-4.046-4.816,2.023,0,4.046" transform="translate(-703.629 -125.636)" fill="#fff"/>
      <path id="Path_671" data-name="Path 671" d="M1299.015,143.915q-2.182-3.666-4.364,0,2.182,3.665,4.364,0" transform="translate(-685.959 -85.951)" fill="#fff"/>
      <path id="Path_672" data-name="Path 672" d="M1212.714,198.949q2.3,3.866,4.6,0-2.3-3.864-4.6,0" transform="translate(-642.545 -119.183)" fill="#fff"/>
      <path id="Path_673" data-name="Path 673" d="M1146.507,179.5c0,2.372,4.614,2.692,4.614,0q-2.307-3.876-4.614,0" transform="translate(-607.466 -107.412)" fill="#fff"/>
      <path id="Path_674" data-name="Path 674" d="M1054.9,138.8q-4.824,2.026,0,4.052,4.824-2.026,0-4.052" transform="translate(-557.652 -83.966)" fill="#fff"/>
      <path id="Path_675" data-name="Path 675" d="M954.469,136.313q4.782-2.009,0-4.018-4.782,2.009,0,4.018" transform="translate(-504.45 -80.03)" fill="#fff"/>
      <path id="Path_676" data-name="Path 676" d="M1439.7,261.3q4.412-1.853,0-3.707-4.414,1.854,0,3.707" transform="translate(-761.642 -155.824)" fill="#fff"/>
      <path id="Path_677" data-name="Path 677" d="M1188.988,217.086q4.638-1.947,0-3.9-4.638,1.948,0,3.9" transform="translate(-628.746 -128.966)" fill="#fff"/>
      <path id="Path_678" data-name="Path 678" d="M1177.934,228.2q-2.633-4.424-5.268,0,2.634,4.424,5.268,0" transform="translate(-621.327 -136.708)" fill="#fff"/>
      <path id="Path_679" data-name="Path 679" d="M1035.882,254.565q-4.716,1.981,0,3.961,4.715-1.98,0-3.961" transform="translate(-547.603 -153.995)" fill="#fff"/>
      <path id="Path_680" data-name="Path 680" d="M262.983,568.7q-4.9,2.058,0,4.115,4.9-2.058,0-4.115" transform="translate(-138.041 -344.024)" fill="#fff"/>
      <path id="Path_681" data-name="Path 681" d="M174.852,573.569q-5.32,2.234,0,4.468,5.319-2.234,0-4.468" transform="translate(-91.234 -346.969)" fill="#fff"/>
      <path id="Path_682" data-name="Path 682" d="M128.852,589.017q4.833-2.03,0-4.059-4.833,2.029,0,4.059" transform="translate(-66.991 -353.858)" fill="#fff"/>
      <path id="Path_683" data-name="Path 683" d="M84.405,571.379q-2.233-3.751-4.466,0,2.233,3.751,4.466,0" transform="translate(-42.355 -344.509)" fill="#fff"/>
      <path id="Path_684" data-name="Path 684" d="M547.893,472.483q2.286,3.84,4.571,0-2.286-3.84-4.571,0" transform="translate(-290.296 -284.657)" fill="#fff"/>
      <path id="Path_685" data-name="Path 685" d="M589.6,505.206q2.182,3.667,4.364,0-2.182-3.667-4.364,0" transform="translate(-312.396 -304.505)" fill="#fff"/>
      <path id="Path_686" data-name="Path 686" d="M740.062,534.23q-2.542-4.27-5.084,0,2.542,4.271,5.084,0" transform="translate(-389.422 -321.88)" fill="#fff"/>
      <path id="Path_687" data-name="Path 687" d="M879.025,548.866q-2.686-4.511-5.371,0,2.686,4.511,5.371,0" transform="translate(-462.898 -330.661)" fill="#fff"/>
      <path id="Path_688" data-name="Path 688" d="M1212.336,519.572q5.107-2.145,0-4.29-5.106,2.145,0,4.29" transform="translate(-640.993 -311.709)" fill="#fff"/>
      <path id="Path_689" data-name="Path 689" d="M738.543,394.774q2.3,3.871,4.608,0-2.3-3.87-4.608,0" transform="translate(-391.31 -237.64)" fill="#fff"/>
      <path id="Path_690" data-name="Path 690" d="M695.222,371.013c0-3.242-5.493-2.335-4.877.387q2.647,3.545,4.877-.387" transform="translate(-365.747 -223.186)" fill="#fff"/>
      <path id="Path_691" data-name="Path 691" d="M676.135,391.831q-4.483,1.883,0,3.766,4.483-1.883,0-3.766" transform="translate(-357.056 -237.03)" fill="#fff"/>
      <path id="Path_692" data-name="Path 692" d="M392.512,427.442q2.212,3.716,4.425,0-2.212-3.717-4.425,0" transform="translate(-207.969 -257.449)" fill="#fff"/>
      <path id="Path_693" data-name="Path 693" d="M291.837,455.108c0,2.149,4.982,3.447,4.982,0q-2.492-4.185-4.982,0" transform="translate(-154.627 -274.043)" fill="#fff"/>
      <path id="Path_694" data-name="Path 694" d="M234.8,498.573q-4.516,1.9,0,3.794,4.516-1.9,0-3.794" transform="translate(-123.208 -301.602)" fill="#fff"/>
      <path id="Path_695" data-name="Path 695" d="M189.933,494.745q2.59,4.351,5.181,0-2.59-4.352-5.181,0" transform="translate(-100.634 -297.97)" fill="#fff"/>
      <path id="Path_696" data-name="Path 696" d="M149.822,493q5.451-2.289,0-4.579-5.451,2.289,0,4.579" transform="translate(-77.938 -295.462)" fill="#fff"/>
      <path id="Path_697" data-name="Path 697" d="M96.584,562.529q-4.41,1.852,0,3.7,4.41-1.852,0-3.7" transform="translate(-50.006 -340.29)" fill="#fff"/>
      <path id="Path_698" data-name="Path 698" d="M162.2,585.8q-2.669-4.483-5.338,0,2.669,4.483,5.338,0" transform="translate(-83.111 -353.009)" fill="#fff"/>
      <path id="Path_699" data-name="Path 699" d="M486.273,618.956q4.605-1.934,0-3.868-4.6,1.934,0,3.868" transform="translate(-256.428 -372.085)" fill="#fff"/>
      <path id="Path_700" data-name="Path 700" d="M725.659,625.28q2.31,3.881,4.62,0-2.31-3.881-4.62,0" transform="translate(-384.484 -377.076)" fill="#fff"/>
      <path id="Path_701" data-name="Path 701" d="M880.669,606.543q-2.395-4.023-4.789,0,2.4,4.023,4.789,0" transform="translate(-464.077 -365.698)" fill="#fff"/>
      <path id="Path_702" data-name="Path 702" d="M892.767,608.256q-4.341,1.824,0,3.647,4.341-1.824,0-3.647" transform="translate(-471.874 -367.952)" fill="#fff"/>
      <path id="Path_703" data-name="Path 703" d="M925.207,585.448q2.65,4.451,5.3,0-2.649-4.451-5.3,0" transform="translate(-490.213 -352.808)" fill="#fff"/>
      <path id="Path_704" data-name="Path 704" d="M1044.186,558.035q-4.583,1.925,0,3.85,4.583-1.925,0-3.85" transform="translate(-552.038 -337.572)" fill="#fff"/>
      <path id="Path_705" data-name="Path 705" d="M1215.725,604.9q-2.537-4.262-5.074,0,2.537,4.261,5.074,0" transform="translate(-641.453 -364.632)" fill="#fff"/>
      <path id="Path_706" data-name="Path 706" d="M1292.376,531.713q2.869,2.987,4.919-.843c0-3.813-6.292-1.859-4.919.843" transform="translate(-684.65 -319.851)" fill="#fff"/>
      <path id="Path_707" data-name="Path 707" d="M1332.14,568.759q5.17-2.171,0-4.343-5.17,2.171,0,4.343" transform="translate(-704.453 -341.432)" fill="#fff"/>
      <path id="Path_708" data-name="Path 708" d="M1393.868,563.735q-5.119,2.15,0,4.3,5.119-2.15,0-4.3" transform="translate(-737.172 -341.02)" fill="#fff"/>
      <path id="Path_709" data-name="Path 709" d="M1457.115,587.831q2.635,4.427,5.27,0-2.634-4.427-5.27,0" transform="translate(-772.039 -354.257)" fill="#fff"/>
      <path id="Path_710" data-name="Path 710" d="M1959.165,734.538c-2.848-1.772-6.8,4.052-1.587,4.052,3.189,0,3.171-3.066,1.587-4.052" transform="translate(-1035.855 -444.14)" fill="#fff"/>
      <path id="Path_711" data-name="Path 711" d="M1945.357,747.964q5.4-2.266,0-4.532-5.4,2.267,0,4.532" transform="translate(-1029.301 -449.723)" fill="#fff"/>
      <path id="Path_712" data-name="Path 712" d="M1888.067,744.868q-2.616-4.395-5.232,0,2.616,4.395,5.232,0" transform="translate(-997.603 -449.263)" fill="#fff"/>
      <path id="Path_713" data-name="Path 713" d="M1803.707,747.233q-5.339,2.242,0,4.484,5.338-2.242,0-4.484" transform="translate(-954.263 -452.022)" fill="#fff"/>
      <path id="Path_714" data-name="Path 714" d="M1703.035,787.594q-2.6-4.373-5.206,0,2.6,4.373,5.206,0" transform="translate(-899.579 -475.115)" fill="#fff"/>
      <path id="Path_715" data-name="Path 715" d="M1686.2,781.643q-2.255-3.789-4.51,0,2.255,3.789,4.51,0" transform="translate(-891.028 -471.692)" fill="#fff"/>
      <path id="Path_716" data-name="Path 716" d="M1659.808,760.227q5.066-2.128,0-4.256-5.067,2.127,0,4.256" transform="translate(-878.092 -457.308)" fill="#fff"/>
      <path id="Path_717" data-name="Path 717" d="M1588.964,813.462c0-2.837-5.368-3.078-5.368,0q2.684,4.509,5.368,0" transform="translate(-839.054 -490.744)" fill="#fff"/>
      <path id="Path_718" data-name="Path 718" d="M1566.467,787.134q-4.616,1.938,0,3.878,4.616-1.939,0-3.878" transform="translate(-828.755 -476.16)" fill="#fff"/>
      <path id="Path_719" data-name="Path 719" d="M1281.117,841.842q-2.518-4.231-5.037,0,2.518,4.231,5.037,0" transform="translate(-676.12 -507.974)" fill="#fff"/>
      <path id="Path_720" data-name="Path 720" d="M1234.793,892.488c3.534,0,2.967-4.12,0-4.12-2.348,0-3.993,4.12,0,4.12" transform="translate(-652.964 -537.399)" fill="#fff"/>
      <path id="Path_721" data-name="Path 721" d="M1075.076,843.383q-2.207-3.709-4.415,0,2.208,3.709,4.415,0" transform="translate(-567.28 -509.064)" fill="#fff"/>
      <path id="Path_722" data-name="Path 722" d="M1010.294,855.334q-2.719-4.568-5.437,0,2.718,4.567,5.437,0" transform="translate(-532.414 -516.034)" fill="#fff"/>
      <path id="Path_723" data-name="Path 723" d="M895.842,875.527q5-2.1,0-4.2-5,2.1,0,4.2" transform="translate(-473.329 -527.09)" fill="#fff"/>
      <path id="Path_724" data-name="Path 724" d="M870,837.2q-2.576-4.326-5.151,0,2.575,4.327,5.151,0" transform="translate(-458.231 -505.137)" fill="#fff"/>
      <path id="Path_725" data-name="Path 725" d="M771.116,857.381q-2.521-4.236-5.043,0,2.522,4.236,5.043,0" transform="translate(-405.897 -517.373)" fill="#fff"/>
      <path id="Path_726" data-name="Path 726" d="M669.5,671.233q-2.482-4.169-4.964,0,2.482,4.17,4.964,0" transform="translate(-352.099 -404.787)" fill="#fff"/>
      <path id="Path_727" data-name="Path 727" d="M556.332,566.047q4.385-1.841,0-3.682-4.385,1.841,0,3.682" transform="translate(-293.606 -340.19)" fill="#fff"/>
      <path id="Path_728" data-name="Path 728" d="M558.068,513.28q-4.463,1.874,0,3.749,4.463-1.874,0-3.749" transform="translate(-294.505 -310.498)" fill="#fff"/>
      <path id="Path_729" data-name="Path 729" d="M527.3,484.988c0-2.19-4.287-2.589-4.287,0,0,2.774,4.287,1.92,4.287,0" transform="translate(-277.116 -292.297)" fill="#fff"/>
      <path id="Path_730" data-name="Path 730" d="M256.062,496.081q4.846-2.036,0-4.07-4.845,2.036,0,4.07" transform="translate(-134.389 -297.632)" fill="#fff"/>
      <path id="Path_731" data-name="Path 731" d="M1955.332,579.446q2.823,2.827,4.8-.9c0-6.474-4.659.722-4.8.9" transform="translate(-1036.015 -348.35)" fill="#fff"/>
      <path id="Path_732" data-name="Path 732" d="M1948.1,580.96c3.19,0,3.36-4.179,0-4.179q-4.975,2.089,0,4.179" transform="translate(-1030.864 -348.912)" fill="#fff"/>
      <path id="Path_733" data-name="Path 733" d="M1758.242,577.608q5.243-2.2,0-4.4-5.244,2.2,0,4.4" transform="translate(-930.2 -346.748)" fill="#fff"/>
      <path id="Path_734" data-name="Path 734" d="M1683.742,641.686q5.357-2.25,0-4.5-5.358,2.25,0,4.5" transform="translate(-890.696 -385.452)" fill="#fff"/>
      <path id="Path_735" data-name="Path 735" d="M1632.284,587.2q-2.461-4.134-4.921,0,2.461,4.134,4.921,0" transform="translate(-862.244 -353.962)" fill="#fff"/>
      <path id="Path_736" data-name="Path 736" d="M1385.391,640.653q-2.338-3.929-4.677,0,2.338,3.928,4.677,0" transform="translate(-731.559 -386.361)" fill="#fff"/>
      <path id="Path_737" data-name="Path 737" d="M1339.662,651.367q-2.649-4.45-5.3,0,2.649,4.45,5.3,0" transform="translate(-707.001 -392.685)" fill="#fff"/>
      <path id="Path_738" data-name="Path 738" d="M1240.326,726.2q2.6,4.365,5.2,0-2.6-4.365-5.2,0" transform="translate(-657.176 -437.976)" fill="#fff"/>
      <path id="Path_739" data-name="Path 739" d="M1138.091,752.432q-2.243-3.767-4.485,0,2.242,3.767,4.485,0" transform="translate(-600.631 -454.028)" fill="#fff"/>
      <path id="Path_740" data-name="Path 740" d="M959.244,773.813q4.348-1.66.849-3.911a3.717,3.717,0,0,0-.849-.136c-2.769,0-3.573,4.047,0,4.047" transform="translate(-506.982 -465.653)" fill="#fff"/>
      <path id="Path_741" data-name="Path 741" d="M856.9,716.736q2.281,3.833,4.564,0-2.281-3.834-4.564,0" transform="translate(-454.022 -432.414)" fill="#fff"/>
      <path id="Path_742" data-name="Path 742" d="M778.855,720.211q-2.432-4.086-4.864,0,2.433,4.086,4.864,0" transform="translate(-410.092 -434.44)" fill="#fff"/>
      <path id="Path_743" data-name="Path 743" d="M732.2,735.158q-2.288-3.844-4.576,0,2.288,3.843,4.576,0" transform="translate(-385.525 -443.556)" fill="#fff"/>
      <path id="Path_744" data-name="Path 744" d="M715.844,695.194q4.35-1.827,0-3.654-4.351,1.827,0,3.654" transform="translate(-378.131 -418.332)" fill="#fff"/>
      <path id="Path_745" data-name="Path 745" d="M490.846,713.192q4.879-2.049,0-4.1-4.879,2.049,0,4.1" transform="translate(-258.778 -428.951)" fill="#fff"/>
      <path id="Path_746" data-name="Path 746" d="M337.867,797.619q2.332,3.917,4.664,0-2.332-3.917-4.664,0" transform="translate(-179.016 -481.317)" fill="#fff"/>
      <path id="Path_747" data-name="Path 747" d="M278.86,810.657q2.814,4.221,5.392-.219c0-3.742-5.683-2.305-5.392.219" transform="translate(-147.746 -488.878)" fill="#fff"/>
      <path id="Path_748" data-name="Path 748" d="M93.094,795.547q5.3-2.228,0-4.454-5.3,2.227,0,4.454" transform="translate(-47.92 -478.555)" fill="#fff"/>
      <path id="Path_749" data-name="Path 749" d="M38.395,804.3q-2.322-3.9-4.643,0,2.322,3.9,4.643,0" transform="translate(-17.883 -485.365)" fill="#fff"/>
      <path id="Path_750" data-name="Path 750" d="M628.286,319.669q4.894-1.873.935-4.4a2.449,2.449,0,0,1-1.253-.121q-4.929,2.381.318,4.518" transform="translate(-331.458 -190.645)" fill="#fff"/>
      <path id="Path_751" data-name="Path 751" d="M492.726,343.689q2.23,3.747,4.46,0-2.23-3.746-4.46,0" transform="translate(-261.066 -206.775)" fill="#fff"/>
      <path id="Path_752" data-name="Path 752" d="M239.074,242.115q4.852-2.037,0-4.075-4.852,2.037,0,4.075" transform="translate(-125.386 -143.998)" fill="#fff"/>
      <path id="Path_753" data-name="Path 753" d="M155.711,259.225q2.436,4.093,4.872,0-2.436-4.092-4.872,0" transform="translate(-82.502 -155.576)" fill="#fff"/>
      <path id="Path_754" data-name="Path 754" d="M60.969,260.361q4.777-2.007,0-4.012-4.777,2.006,0,4.012" transform="translate(-31.038 -155.074)" fill="#fff"/>
      <path id="Path_755" data-name="Path 755" d="M1623.22,142.669q4.824-2.026,0-4.051-4.823,2.026,0,4.051" transform="translate(-858.771 -83.855)" fill="#fff"/>
      <path id="Path_756" data-name="Path 756" d="M1531.978,146.545q4.935-2.072,0-4.145-4.935,2.072,0,4.145" transform="translate(-810.397 -86.143)" fill="#fff"/>
      <path id="Path_757" data-name="Path 757" d="M1289.439,219.4q-4.509,1.893,0,3.787,4.509-1.893,0-3.787" transform="translate(-682.003 -132.721)" fill="#fff"/>
      <path id="Path_758" data-name="Path 758" d="M1188.275,238.357q-5.317,2.234,0,4.466,5.317-2.234,0-4.466" transform="translate(-628.188 -144.19)" fill="#fff"/>
      <path id="Path_759" data-name="Path 759" d="M1167.024,208.545q-2.518-4.231-5.037,0,2.518,4.231,5.037,0" transform="translate(-615.668 -124.876)" fill="#fff"/>
      <path id="Path_760" data-name="Path 760" d="M1159.509,224.6q5.1-2.141,0-4.282-5.1,2.141,0,4.282" transform="translate(-613.005 -133.276)" fill="#fff"/>
      <path id="Path_761" data-name="Path 761" d="M1093.7,223.687q2.173,3.651,4.347,0-2.173-3.651-4.347,0" transform="translate(-579.487 -134.211)" fill="#fff"/>
      <path id="Path_762" data-name="Path 762" d="M955.252,257.659q4.983-2.093,0-4.186-4.984,2.094,0,4.186" transform="translate(-504.811 -153.334)" fill="#fff"/>
      <path id="Path_763" data-name="Path 763" d="M890.542,228.673q5.129-2.154,0-4.308-5.128,2.154,0,4.308" transform="translate(-470.487 -135.726)" fill="#fff"/>
      <path id="Path_764" data-name="Path 764" d="M888.632,280.44q5.449-2.289,0-4.577-5.449,2.289,0,4.577" transform="translate(-469.39 -166.878)" fill="#fff"/>
      <path id="Path_765" data-name="Path 765" d="M766.217,305.723q5.24-2.2,0-4.4-5.24,2.2,0,4.4" transform="translate(-404.585 -182.279)" fill="#fff"/>
      <path id="Path_766" data-name="Path 766" d="M508.8,370.551q2.721,4.572,5.443,0-2.721-4.573-5.443,0" transform="translate(-269.584 -222.775)" fill="#fff"/>
      <path id="Path_767" data-name="Path 767" d="M352.062,370.019q-2.579-4.333-5.158,0,2.58,4.333,5.158,0" transform="translate(-183.804 -222.525)" fill="#fff"/>
      <path id="Path_768" data-name="Path 768" d="M216.023,473.385q4.745-1.993,0-3.986-4.745,1.992,0,3.986" transform="translate(-113.201 -283.953)" fill="#fff"/>
      <path id="Path_769" data-name="Path 769" d="M150.972,445.61c3.678,0,2.774-4.107,0-4.107q-4.89,2.053,0,4.107" transform="translate(-78.695 -267.078)" fill="#fff"/>
      <path id="Path_770" data-name="Path 770" d="M130.591,484.389q4.792-2.013,0-4.025-4.792,2.013,0,4.025" transform="translate(-67.923 -290.586)" fill="#fff"/>
      <path id="Path_771" data-name="Path 771" d="M1420.269,12.823q4.663-1.959,0-3.917-4.662,1.959,0,3.917" transform="translate(-751.282 -5.389)" fill="#fff"/>
      <path id="Path_772" data-name="Path 772" d="M1166.7,117.1c3.768,0,3.007-4.354,0-4.354q-5.185,2.177,0,4.354" transform="translate(-616.789 -68.202)" fill="#fff"/>
      <path id="Path_773" data-name="Path 773" d="M726.179,175.813q4.42-1.856,0-3.712-4.42,1.856,0,3.712" transform="translate(-383.588 -104.11)" fill="#fff"/>
      <path id="Path_774" data-name="Path 774" d="M694.92,198.363c3.493,0,2.221-3.648,0-3.648q-4.344,1.824,0,3.648" transform="translate(-367.047 -117.789)" fill="#fff"/>
      <path id="Path_775" data-name="Path 775" d="M526.946,170.311q-4.358,1.83,0,3.66,4.358-1.83,0-3.66" transform="translate(-278.043 -103.027)" fill="#fff"/>
      <path id="Path_776" data-name="Path 776" d="M485.892,147.631q2.308,3.878,4.616,0-2.308-3.877-4.616,0" transform="translate(-257.445 -88.135)" fill="#fff"/>
      <path id="Path_777" data-name="Path 777" d="M1110.446,15.311q4.627-1.943,0-3.886-4.626,1.943,0,3.886" transform="translate(-587.134 -6.913)" fill="#fff"/>
      <path id="Path_778" data-name="Path 778" d="M1028.412,25.1q5.294-2.223,0-4.447-5.294,2.223,0,4.447" transform="translate(-543.492 -12.493)" fill="#fff"/>
      <path id="Path_779" data-name="Path 779" d="M931.824,37.459q4.78-2.008,0-4.016-4.78,2.008,0,4.016" transform="translate(-492.452 -20.232)" fill="#fff"/>
      <path id="Path_780" data-name="Path 780" d="M869.28,36.8c2.815,0,4.04-4.326,0-4.326q-5.151,2.163,0,4.326" transform="translate(-459.215 -19.648)" fill="#fff"/>
      <path id="Path_781" data-name="Path 781" d="M861.505,54.237q5.364-2.253,0-4.506-5.364,2.253,0,4.506" transform="translate(-455.04 -30.085)" fill="#fff"/>
      <path id="Path_782" data-name="Path 782" d="M655.583,48.582q4.416-1.854,0-3.709-4.416,1.854,0,3.709" transform="translate(-346.185 -27.146)" fill="#fff"/>
      <path id="Path_783" data-name="Path 783" d="M542.043,70.7q4.868-2.045,0-4.089-4.868,2.045,0,4.089" transform="translate(-285.907 -40.298)" fill="#fff"/>
      <path id="Path_784" data-name="Path 784" d="M403.6,86.9q-2.279-3.829-4.558,0,2.279,3.829,4.558,0" transform="translate(-211.427 -51.412)" fill="#fff"/>
      <path id="Path_785" data-name="Path 785" d="M308.542,77.247q5.2-2.184,0-4.368-5.2,2.184,0,4.368" transform="translate(-162.1 -44.088)" fill="#fff"/>
      <path id="Path_786" data-name="Path 786" d="M801.892,1156.181q-4.892,2.055,0,4.11,4.893-2.055,0-4.11" transform="translate(-423.579 -699.406)" fill="#fff"/>
      <path id="Path_787" data-name="Path 787" d="M747.689,1177.922q-4.4,1.847,0,3.694,4.4-1.847,0-3.694" transform="translate(-394.992 -712.558)" fill="#fff"/>
      <path id="Path_788" data-name="Path 788" d="M546.7,1180.286q-2.381-4-4.763,0,2.382,4,4.763,0" transform="translate(-287.141 -712.777)" fill="#fff"/>
      <path id="Path_789" data-name="Path 789" d="M510.043,1178.524q-4.62,1.94,0,3.88,4.619-1.94,0-3.88" transform="translate(-269.018 -712.922)" fill="#fff"/>
      <path id="Path_790" data-name="Path 790" d="M239.292,1187.434q-5.425,2.279,0,4.557,5.425-2.279,0-4.557" transform="translate(-125.35 -718.312)" fill="#fff"/>
      <path id="Path_791" data-name="Path 791" d="M2.3,1120.228q4.608-1.935,0-3.871-4.609,1.936,0,3.871" transform="translate(0 -675.315)" fill="#fff"/>
    </g>
  </g>
</svg>
