<svg xmlns="http://www.w3.org/2000/svg" xmlns:xlink="http://www.w3.org/1999/xlink" width="236" height="101" viewBox="0 0 236 101">
  <defs>
    <clipPath id="clip-path">
      <rect id="Rectangle_484" data-name="Rectangle 484" width="236" height="101" transform="translate(-16 361)" fill="#fff" stroke="#707070" stroke-width="1"/>
    </clipPath>
  </defs>
  <g id="Group_769" data-name="Group 769" transform="translate(16 -361)" clip-path="url(#clip-path)">
    <g id="Group_768" data-name="Group 768" transform="translate(-51.261 335.985)">
      <path id="Path_2674" data-name="Path 2674" d="M447.5,2516.253l116.7-140.035,15.164,35.063,83.934-79.968-99.1,125.054-15.346-42.573Z" transform="translate(-447.497 -2327.566)" fill="#97c933"/>
      <g id="Group_767" data-name="Group 767" transform="translate(58.854 29.511)">
        <path id="Path_2675" data-name="Path 2675" d="M929.968,2746.042c-.093.15-.093.173,0,.07s.077-.091-.047.036a6.017,6.017,0,0,1,2,4.857v3.626a9.328,9.328,0,0,1-.627,3.329,11.515,11.515,0,0,1-1.743,3.071,11.908,11.908,0,0,1-2.6,2.441,10.17,10.17,0,0,1-3.161,1.475l-8.135,2.18v-34.356l8.135-2.18a7.655,7.655,0,0,1,3.161-.219,5.839,5.839,0,0,1,2.6,1.046,5.544,5.544,0,0,1,1.743,2.136,6.885,6.885,0,0,1,.627,2.993v3.626a8.815,8.815,0,0,1-.557,3.055,12.177,12.177,0,0,1-1.488,2.839Zm-8.74,1.6-.047.059q.929-.761,1.836-1.54t1.836-1.63a6.848,6.848,0,0,0,1.186-1.34,2.711,2.711,0,0,0,.442-1.512v-3.627a1.9,1.9,0,0,0-.767-1.63,2.275,2.275,0,0,0-1.93-.3l-2.7.723Zm5.207,4.88a2.175,2.175,0,0,0-.349-1.254,1.958,1.958,0,0,0-.906-.733q-1.07.938-2,1.745t-2.092,1.769v6.136l2.836-.76a3.609,3.609,0,0,0,1.813-1.3,3.289,3.289,0,0,0,.744-2.035Z" transform="translate(-915.649 -2706.864)" fill="#fff"/>
        <path id="Path_2676" data-name="Path 2676" d="M1068.494,2726.9v5.486l-12.646,3.388v-34.355l5.44-1.458v28.823Z" transform="translate(-1036.091 -2680.805)" fill="#fff"/>
        <path id="Path_2677" data-name="Path 2677" d="M1175.886,2691.206l-5.578,1.5-1.907-7.9q-1.673,1.425-3.114,2.695t-3.208,2.719q-.233,1.132-.534,2.514t-.535,2.467l-5.532,1.483,7.671-36.411,5.16-1.383Zm-8.647-11.676q-.279-1.18-.442-1.858t-.3-1.244q-.139-.566-.325-1.284t-.465-2.037l-2.046,9.474Z" transform="translate(-1121.68 -2645.515)" fill="#fff"/>
        <path id="Path_2678" data-name="Path 2678" d="M1325.224,2631.311v-2.743a1.969,1.969,0,0,0-.79-1.695,2.138,2.138,0,0,0-1.906-.279,3.579,3.579,0,0,0-1.906,1.3,3.369,3.369,0,0,0-.79,2.118v18.875a1.966,1.966,0,0,0,.79,1.693,2.132,2.132,0,0,0,1.906.28,3.571,3.571,0,0,0,1.906-1.3,3.366,3.366,0,0,0,.79-2.117V2644.7l5.44-1.457v2.742a9.144,9.144,0,0,1-.628,3.306,11.651,11.651,0,0,1-1.743,3.047,12,12,0,0,1-2.58,2.435,9.971,9.971,0,0,1-3.139,1.469,7.476,7.476,0,0,1-3.138.213,5.876,5.876,0,0,1-2.58-1.052,5.592,5.592,0,0,1-1.743-2.114,6.736,6.736,0,0,1-.627-2.97v-18.874a9.153,9.153,0,0,1,.627-3.306,11.653,11.653,0,0,1,1.743-3.047,12.007,12.007,0,0,1,2.58-2.435,9.966,9.966,0,0,1,3.138-1.469,7.492,7.492,0,0,1,3.139-.214,5.88,5.88,0,0,1,2.58,1.052,5.6,5.6,0,0,1,1.743,2.113,6.737,6.737,0,0,1,.628,2.97v2.742Z" transform="translate(-1258.281 -2612.882)" fill="#fff"/>
        <path id="Path_2679" data-name="Path 2679" d="M1466.307,2579.925l8.321,18.6-5.9,1.582-6.044-13.537-2.883,5.189v10.692l-5.439,1.458v-34.355l5.439-1.458v13.528l8.647-15.845,6.509-1.744Z" transform="translate(-1378.442 -2564.033)" fill="#fff"/>
      </g>
      <path id="Path_2680" data-name="Path 2680" d="M984.225,2850.9l-101.8,27.261v-46.7l101.8-27.26Z" transform="translate(-765.755 -2749.348)" fill="#97c933"/>
      <path id="Path_2681" data-name="Path 2681" d="M1686.2,2344.088h-2.52l1.782-1.782a.359.359,0,0,0-.508-.508l-1.782,1.782v-2.52a.359.359,0,1,0-.719,0v2.52l-1.782-1.782a.359.359,0,0,0-.508.508l1.782,1.782h-2.52a.359.359,0,0,0,0,.718h2.52l-1.782,1.781a.36.36,0,0,0,.508.509l1.782-1.782v2.52a.359.359,0,0,0,.719,0v-2.52l1.782,1.782a.36.36,0,0,0,.508-.509l-1.782-1.781h2.52a.359.359,0,0,0,0-.718Z" transform="translate(-1566.141 -2340.7)" fill="#97c933"/>
      <path id="Pfad_246" data-name="Pfad 246" d="M194.21,193.936v8.615l6.718-1.8V206l-6.718,1.8v8.613l10.054-2.694v5.3L189.1,223.082V189.925l15.169-4.064v5.3Z" transform="translate(-17.22 -114.882)" fill="#fff"/>
      <path id="Pfad_246-2" data-name="Pfad 246" d="M164.411,201.969v8.615l6.718-1.8v5.25l-6.718,1.8v8.613l10.055-2.693v5.3L159.3,231.116V197.959l15.169-4.064v5.3Z" transform="translate(-6.709 -117.716)" fill="#fff"/>
      <path id="Pfad_233" data-name="Pfad 233" d="M229.905,191.387l8.019,17.92-5.689,1.524-5.825-13.044-2.778,5v10.3l-5.243,1.4v-33.1l5.243-1.4v13.037l8.333-15.269,6.272-1.683Z" transform="translate(-27.554 -111.428)" fill="#fff"/>
      <path id="Path_2682" data-name="Path 2682" d="M98.02,211.385,108.5,241.653l5.431-1.428,4.632-34.349-5.38,1.432,10.06,30.424,5.109-1.387,5.316-34.513-5.322,1.387-5.1,34.514,5.109-1.387-9.789-30.469-5.38,1.432L108.5,241.653l5.431-1.428-10.684-30.236Z" transform="translate(14.908 -120.515)" fill="#fff"/>
      <path id="Path_2683" data-name="Path 2683" d="M915.415,2533.447,788.326,2568V2520.31l127.089-34.548Z" transform="translate(-747.415 -2467.281)" fill="none" stroke="#fff" stroke-miterlimit="10" stroke-width="9"/>
      <path id="Path_2684" data-name="Path 2684" d="M1872.311,2909.388h-3.492l2.469-2.469a.5.5,0,0,0-.7-.7l-2.469,2.469v-3.491a.5.5,0,1,0-1,0v3.491l-2.469-2.469a.5.5,0,0,0-.7.7l2.469,2.469h-3.492a.5.5,0,0,0,0,.995h3.492l-2.469,2.469a.5.5,0,0,0,.7.7l2.469-2.469v3.491a.5.5,0,1,0,1,0v-3.491l2.469,2.469a.5.5,0,0,0,.7-.7l-2.469-2.469h3.492a.5.5,0,1,0,0-.995Z" transform="translate(-1822.652 -2874.016)" fill="#97c933"/>
      <path id="Path_2685" data-name="Path 2685" d="M1872.311,2909.388h-3.492l2.469-2.469a.5.5,0,0,0-.7-.7l-2.469,2.469v-3.491a.5.5,0,1,0-1,0v3.491l-2.469-2.469a.5.5,0,0,0-.7.7l2.469,2.469h-3.492a.5.5,0,0,0,0,.995h3.492l-2.469,2.469a.5.5,0,0,0,.7.7l2.469-2.469v3.491a.5.5,0,1,0,1,0v-3.491l2.469,2.469a.5.5,0,0,0,.7-.7l-2.469-2.469h3.492a.5.5,0,1,0,0-.995Z" transform="translate(-1770.48 -2799.521)" fill="#97c933"/>
      <path id="Path_2686" data-name="Path 2686" d="M1872.311,2909.388h-3.492l2.469-2.469a.5.5,0,0,0-.7-.7l-2.469,2.469v-3.491a.5.5,0,1,0-1,0v3.491l-2.469-2.469a.5.5,0,0,0-.7.7l2.469,2.469h-3.492a.5.5,0,0,0,0,.995h3.492l-2.469,2.469a.5.5,0,0,0,.7.7l2.469-2.469v3.491a.5.5,0,1,0,1,0v-3.491l2.469,2.469a.5.5,0,0,0,.7-.7l-2.469-2.469h3.492a.5.5,0,1,0,0-.995Z" transform="translate(-1664.028 -2866.185)" fill="#97c933"/>
    </g>
  </g>
</svg>
