<svg xmlns="http://www.w3.org/2000/svg" xmlns:xlink="http://www.w3.org/1999/xlink" width="904" height="815" viewBox="0 0 904 815">
  <defs>
    <clipPath id="clip-path">
      <rect id="Rectangle_494" data-name="Rectangle 494" width="904" height="815" transform="translate(-6.252 372.094)" fill="none"/>
    </clipPath>
  </defs>
  <g id="Group_888" data-name="Group 888" transform="translate(6.252 -372.094)" clip-path="url(#clip-path)">
    <g id="Group_887" data-name="Group 887" transform="translate(-409.794 240.686)">
      <path id="Path_3701" data-name="Path 3701" d="M447.5,3456.015,1157.225,2604.4l92.216,213.232,510.44-486.319-602.656,760.509-93.328-258.9Z" transform="translate(-447.497 -2199.904)" fill="#5da8b0"/>
      <g id="Group_886" data-name="Group 886" transform="translate(549.43 248.742)">
        <path id="Path_3702" data-name="Path 3702" d="M1002.728,2826.064c-.565.913-.565,1.05,0,.426s.468-.553-.283.219q12.151,10.314,12.155,29.536V2878.3a56.719,56.719,0,0,1-3.815,20.247,70.011,70.011,0,0,1-10.6,18.674,72.435,72.435,0,0,1-15.834,14.844,61.81,61.81,0,0,1-19.226,8.967l-49.475,13.259V2745.356l49.475-13.259a46.54,46.54,0,0,1,19.226-1.334,35.487,35.487,0,0,1,15.834,6.361,33.716,33.716,0,0,1,10.6,12.992,41.86,41.86,0,0,1,3.815,18.2v22.055a53.6,53.6,0,0,1-3.39,18.575,74.09,74.09,0,0,1-9.047,17.266Zm-53.151,9.723-.283.36q5.651-4.625,11.166-9.361,5.516-4.717,11.167-9.916a41.7,41.7,0,0,0,7.212-8.151,16.485,16.485,0,0,0,2.685-9.2v-22.059q0-6.493-4.665-9.915t-11.735-1.8l-16.4,4.4Zm31.663,29.679a13.222,13.222,0,0,0-2.119-7.628,11.894,11.894,0,0,0-5.513-4.458q-6.507,5.7-12.157,10.609t-12.722,10.758v37.315l17.246-4.625a21.953,21.953,0,0,0,11.027-7.9,20.008,20.008,0,0,0,4.522-12.376Z" transform="translate(-915.649 -2587.804)" fill="#fff"/>
        <path id="Path_3703" data-name="Path 3703" d="M1132.751,2863.79v33.362l-76.9,20.6V2708.825l33.08-8.864v175.281Z" transform="translate(-935.694 -2583.47)" fill="#fff"/>
        <path id="Path_3704" data-name="Path 3704" d="M1279.592,2855.461l-33.925,9.094-11.6-48.067q-10.174,8.666-18.938,16.388t-19.511,16.533q-1.413,6.885-3.25,15.291t-3.252,15l-33.643,9.019,46.649-221.431,31.383-8.41Zm-52.585-71.006q-1.7-7.175-2.686-11.3t-1.84-7.565q-.846-3.44-1.977-7.81t-2.828-12.388l-12.441,57.618Z" transform="translate(-949.942 -2577.595)" fill="#fff"/>
        <path id="Path_3705" data-name="Path 3705" d="M1379.791,2684.24v-16.683q0-6.785-4.805-10.3t-11.589-1.7a21.766,21.766,0,0,0-11.594,7.911,20.486,20.486,0,0,0-4.8,12.882v114.786q0,6.778,4.8,10.3t11.594,1.7a21.724,21.724,0,0,0,11.589-7.913,20.474,20.474,0,0,0,4.805-12.877v-16.684l33.081-8.861v16.676a55.611,55.611,0,0,1-3.818,20.108,70.859,70.859,0,0,1-10.6,18.531,72.935,72.935,0,0,1-15.69,14.8,60.6,60.6,0,0,1-19.087,8.934,45.45,45.45,0,0,1-19.082,1.3,35.745,35.745,0,0,1-15.693-6.394,34.017,34.017,0,0,1-10.6-12.855,40.963,40.963,0,0,1-3.815-18.062V2685.059a55.674,55.674,0,0,1,3.815-20.109,70.887,70.887,0,0,1,10.6-18.529,73.008,73.008,0,0,1,15.693-14.807,60.608,60.608,0,0,1,19.082-8.931,45.534,45.534,0,0,1,19.087-1.3,35.753,35.753,0,0,1,15.69,6.4,34.066,34.066,0,0,1,10.6,12.848,40.976,40.976,0,0,1,3.818,18.065v16.677Z" transform="translate(-972.679 -2572.161)" fill="#fff"/>
        <path id="Path_3706" data-name="Path 3706" d="M1527.019,2660.677l50.607,113.1-35.9,9.621-36.754-82.322-17.532,31.556v65.023l-33.078,8.864v-208.93l33.078-8.866V2671l52.586-96.36,39.582-10.606Z" transform="translate(-992.679 -2564.032)" fill="#fff"/>
      </g>
      <path id="Path_3707" data-name="Path 3707" d="M1501.494,3088.2,882.429,3253.989v-284.01L1501.494,2804.2Z" transform="translate(-172.884 -2361.992)" fill="#5da8b0"/>
      <path id="Pfad_246" data-name="Pfad 246" d="M220.2,234.968v52.389l40.853-10.942v31.934L220.2,319.292v52.382l61.144-16.382v32.2L189.1,412.22V210.576l92.247-24.715v32.2Z" transform="translate(856.155 354.419)" fill="#fff"/>
      <path id="Pfad_246-2" data-name="Pfad 246" d="M190.4,243v52.394l40.853-10.943v31.93L190.4,327.322V379.7l61.148-16.378v32.2L159.3,420.25V218.61l92.251-24.715v32.2Z" transform="translate(768.659 378.008)" fill="#fff"/>
      <path id="Pfad_233" data-name="Pfad 233" d="M288.424,269.218,337.189,378.2l-34.6,9.269-35.425-79.325-16.894,30.407v62.659l-31.882,8.538V208.425l31.882-8.541v79.282l50.674-92.857,38.141-10.238Z" transform="translate(942.163 325.672)" fill="#fff"/>
      <path id="Path_3709" data-name="Path 3709" d="M98.02,259.938l63.745,184.071,33.031-8.687,28.169-208.894-32.719,8.711,61.18,185.021,31.071-8.438,32.33-209.891-32.367,8.435L251.426,420.159l31.071-8.438L222.965,226.428l-32.719,8.711-28.481,208.87,33.031-8.687L129.82,251.445Z" transform="translate(588.743 401.307)" fill="#fff"/>
      <path id="Path_3710" data-name="Path 3710" d="M1561.208,2775.757l-772.883,210.1v-290l772.883-210.1Z" transform="translate(-348.012 -2304.1)" fill="none" stroke="#fff" stroke-miterlimit="10" stroke-width="39"/>
      <path id="Path_3711" data-name="Path 3711" d="M1922.535,2933.236H1901.3l15.016-15.015a3.026,3.026,0,0,0-4.278-4.281l-15.019,15.019v-21.233a3.026,3.026,0,1,0-6.052,0v21.229l-15.014-15.015a3.027,3.027,0,0,0-4.28,4.281l15.016,15.015H1865.45a3.025,3.025,0,0,0,0,6.05h21.238l-15.016,15.019a3.026,3.026,0,1,0,4.28,4.28l15.014-15.013V2964.8a3.026,3.026,0,0,0,6.052,0v-21.233l15.019,15.013a3.02,3.02,0,0,0,4.278,0,3.028,3.028,0,0,0,0-4.28l-15.016-15.019h21.236a3.025,3.025,0,1,0,0-6.05Z" transform="translate(-1216.017 -2732.851)" fill="#5da8b0"/>
      <path id="Path_3712" data-name="Path 3712" d="M1922.535,2933.236H1901.3l15.016-15.015a3.026,3.026,0,0,0-4.278-4.281l-15.019,15.019v-21.233a3.026,3.026,0,1,0-6.052,0v21.229l-15.014-15.015a3.027,3.027,0,0,0-4.28,4.281l15.016,15.015H1865.45a3.025,3.025,0,0,0,0,6.05h21.238l-15.016,15.019a3.026,3.026,0,1,0,4.28,4.28l15.014-15.013V2964.8a3.026,3.026,0,0,0,6.052,0v-21.233l15.019,15.013a3.02,3.02,0,0,0,4.278,0,3.028,3.028,0,0,0,0-4.28l-15.016-15.019h21.236a3.025,3.025,0,1,0,0-6.05Z" transform="translate(-1316.006 -2122.514)" fill="#5da8b0"/>
      <path id="Path_3754" data-name="Path 3754" d="M1922.535,2933.236H1901.3l15.016-15.015a3.026,3.026,0,0,0-4.278-4.281l-15.019,15.019v-21.233a3.026,3.026,0,1,0-6.052,0v21.229l-15.014-15.015a3.027,3.027,0,0,0-4.28,4.281l15.016,15.015H1865.45a3.025,3.025,0,0,0,0,6.05h21.238l-15.016,15.019a3.026,3.026,0,1,0,4.28,4.28l15.014-15.013V2964.8a3.026,3.026,0,0,0,6.052,0v-21.233l15.019,15.013a3.02,3.02,0,0,0,4.278,0,3.028,3.028,0,0,0,0-4.28l-15.016-15.019h21.236a3.025,3.025,0,1,0,0-6.05Z" transform="translate(-712.366 -2067.38)" fill="#5da8b0"/>
    </g>
  </g>
</svg>
