<svg xmlns="http://www.w3.org/2000/svg" xmlns:xlink="http://www.w3.org/1999/xlink" width="320" height="225" viewBox="0 0 320 225">
  <defs>
    <clipPath id="clip-path">
      <rect id="Rectangle_485" data-name="Rectangle 485" width="320" height="225" transform="translate(-19 313)" fill="#fff" stroke="#707070" stroke-width="1"/>
    </clipPath>
  </defs>
  <g id="Mask_Group_809" data-name="Mask Group 809" transform="translate(19 -313)" clip-path="url(#clip-path)">
    <g id="Group_808" data-name="Group 808" transform="translate(-79.66 295.445)">
      <path id="Path_3661" data-name="Path 3661" d="M447.5,2653.552l203.344-244,26.421,61.094,146.246-139.335L650.841,2549.207,624.1,2475.028Z" transform="translate(-447.498 -2324.786)" fill="#9c4693"/>
      <g id="Group_807" data-name="Group 807" transform="translate(102.546 51.42)">
        <path id="Path_3662" data-name="Path 3662" d="M940.6,2757.734q-.242.391,0,.121c.161-.177.134-.158-.081.063q3.482,2.954,3.483,8.463v6.318a16.255,16.255,0,0,1-1.093,5.8,20.072,20.072,0,0,1-3.037,5.35,20.766,20.766,0,0,1-4.536,4.253,17.729,17.729,0,0,1-5.509,2.57l-14.175,3.8V2734.61l14.175-3.8a13.343,13.343,0,0,1,5.509-.382,10.176,10.176,0,0,1,4.536,1.823,9.662,9.662,0,0,1,3.037,3.722,12,12,0,0,1,1.093,5.216v6.319a15.362,15.362,0,0,1-.971,5.323,21.238,21.238,0,0,1-2.592,4.946Zm-15.229,2.785-.081.1q1.619-1.325,3.2-2.682t3.2-2.841a11.945,11.945,0,0,0,2.066-2.336,4.723,4.723,0,0,0,.769-2.635v-6.32a3.3,3.3,0,0,0-1.336-2.841,3.965,3.965,0,0,0-3.362-.517l-4.7,1.259Zm9.072,8.5a3.79,3.79,0,0,0-.607-2.186,3.409,3.409,0,0,0-1.579-1.277q-1.864,1.633-3.483,3.04t-3.645,3.082v10.691l4.941-1.324a6.292,6.292,0,0,0,3.159-2.264,5.729,5.729,0,0,0,1.3-3.546Z" transform="translate(-915.649 -2689.47)" fill="#fff"/>
        <path id="Path_3663" data-name="Path 3663" d="M1077.882,2746.9v9.559l-22.033,5.9V2702.5l9.478-2.54v50.221Z" transform="translate(-1021.424 -2666.585)" fill="#fff"/>
        <path id="Path_3664" data-name="Path 3664" d="M1191.037,2715.2l-9.72,2.605-3.322-13.772q-2.915,2.483-5.426,4.7t-5.59,4.737q-.405,1.972-.931,4.381t-.932,4.3l-9.639,2.583,13.365-63.442,8.992-2.41Zm-15.066-20.345q-.486-2.054-.77-3.236t-.527-2.167q-.243-.986-.567-2.238t-.81-3.549l-3.565,16.508Z" transform="translate(-1096.589 -2635.592)" fill="#fff"/>
        <path id="Path_3665" data-name="Path 3665" d="M1333.2,2639.043v-4.779a3.431,3.431,0,0,0-1.377-2.952,3.725,3.725,0,0,0-3.32-.487,6.238,6.238,0,0,0-3.322,2.267,5.871,5.871,0,0,0-1.377,3.691v32.886a3.428,3.428,0,0,0,1.377,2.952,3.716,3.716,0,0,0,3.322.487,6.221,6.221,0,0,0,3.32-2.267,5.866,5.866,0,0,0,1.377-3.689v-4.779l9.478-2.539v4.778a15.932,15.932,0,0,1-1.094,5.76,20.311,20.311,0,0,1-3.037,5.31,20.924,20.924,0,0,1-4.5,4.243,17.4,17.4,0,0,1-5.469,2.559,13.045,13.045,0,0,1-5.467.372,10.247,10.247,0,0,1-4.5-1.833,9.75,9.75,0,0,1-3.038-3.683,11.739,11.739,0,0,1-1.093-5.175v-32.887a15.95,15.95,0,0,1,1.093-5.761,20.309,20.309,0,0,1,3.038-5.309,20.938,20.938,0,0,1,4.5-4.243,17.367,17.367,0,0,1,5.467-2.558,13.045,13.045,0,0,1,5.469-.373,10.257,10.257,0,0,1,4.5,1.833,9.757,9.757,0,0,1,3.037,3.682,11.735,11.735,0,0,1,1.094,5.175v4.778Z" transform="translate(-1216.554 -2606.932)" fill="#fff"/>
        <path id="Path_3666" data-name="Path 3666" d="M1475.177,2591.723l14.5,32.4-10.287,2.757-10.531-23.586-5.023,9.041v18.63l-9.477,2.539v-59.86l9.477-2.54v23.572l15.066-27.608,11.341-3.039Z" transform="translate(-1322.083 -2564.033)" fill="#fff"/>
      </g>
      <path id="Path_3667" data-name="Path 3667" d="M1059.8,2885.571l-177.368,47.5V2851.7l177.368-47.5Z" transform="translate(-679.138 -2708.625)" fill="#9c4693"/>
      <path id="Pfad_246" data-name="Pfad 246" d="M198.007,199.931v15.01l11.7-3.135v9.149l-11.7,3.135V239.1l17.518-4.694v9.226l-26.43,7.084V192.942l26.43-7.081v9.226Z" transform="translate(110.379 -62.187)" fill="#fff"/>
      <path id="Pfad_246-2" data-name="Pfad 246" d="M168.208,207.964v15.011l11.7-3.135v9.148l-11.7,3.135v15.008l17.519-4.693v9.226L159.3,258.748V200.976l26.431-7.081v9.226Z" transform="translate(106.572 -61.161)" fill="#fff"/>
      <path id="Pfad_233" data-name="Pfad 233" d="M238.455,202.758l13.972,31.224-9.913,2.656-10.15-22.727-4.84,8.712v17.952l-9.135,2.446V185.34l9.135-2.447v22.715L242.042,179l10.928-2.933Z" transform="translate(114.121 -63.438)" fill="#fff"/>
      <path id="Path_3669" data-name="Path 3669" d="M98.02,218.479l18.264,52.738,9.464-2.489,8.071-59.85-9.374,2.5,17.529,53.01,8.9-2.418,9.263-60.136-9.274,2.417-8.892,60.137,8.9-2.418-17.056-53.088-9.374,2.5-8.16,59.844,9.464-2.489-18.616-52.682Z" transform="translate(98.744 -60.147)" fill="#fff"/>
      <path id="Path_3670" data-name="Path 3670" d="M1009.764,2568.849l-221.438,60.2v-83.087l221.438-60.2Z" transform="translate(-717.043 -2453.561)" fill="none" stroke="#fff" stroke-miterlimit="10" stroke-width="15"/>
      <path id="Path_3671" data-name="Path 3671" d="M1879.648,2912.873h-6.084l4.3-4.3a.867.867,0,1,0-1.226-1.226l-4.3,4.3v-6.083a.867.867,0,1,0-1.734,0v6.082l-4.3-4.3a.867.867,0,0,0-1.226,1.226l4.3,4.3h-6.085a.867.867,0,0,0,0,1.733h6.085l-4.3,4.3a.867.867,0,0,0,1.226,1.227l4.3-4.3v6.084a.867.867,0,0,0,1.734,0v-6.084l4.3,4.3a.867.867,0,0,0,1.226-1.227l-4.3-4.3h6.084a.867.867,0,1,0,0-1.733Z" transform="translate(-1793.123 -2851.24)" fill="#9c4693"/>
      <path id="Path_3672" data-name="Path 3672" d="M1879.648,2912.873h-6.084l4.3-4.3a.867.867,0,1,0-1.226-1.226l-4.3,4.3v-6.083a.867.867,0,1,0-1.734,0v6.082l-4.3-4.3a.867.867,0,0,0-1.226,1.226l4.3,4.3h-6.085a.867.867,0,0,0,0,1.733h6.085l-4.3,4.3a.867.867,0,0,0,1.226,1.227l4.3-4.3v6.084a.867.867,0,0,0,1.734,0v-6.084l4.3,4.3a.867.867,0,0,0,1.226-1.227l-4.3-4.3h6.084a.867.867,0,1,0,0-1.733Z" transform="translate(-1702.219 -2721.44)" fill="#9c4693"/>
      <path id="Path_3673" data-name="Path 3673" d="M1879.648,2912.873h-6.084l4.3-4.3a.867.867,0,1,0-1.226-1.226l-4.3,4.3v-6.083a.867.867,0,1,0-1.734,0v6.082l-4.3-4.3a.867.867,0,0,0-1.226,1.226l4.3,4.3h-6.085a.867.867,0,0,0,0,1.733h6.085l-4.3,4.3a.867.867,0,0,0,1.226,1.227l4.3-4.3v6.084a.867.867,0,0,0,1.734,0v-6.084l4.3,4.3a.867.867,0,0,0,1.226-1.227l-4.3-4.3h6.084a.867.867,0,1,0,0-1.733Z" transform="translate(-1516.739 -2837.595)" fill="#9c4693"/>
    </g>
  </g>
</svg>
