<svg xmlns="http://www.w3.org/2000/svg" xmlns:xlink="http://www.w3.org/1999/xlink" width="513" height="360" viewBox="0 0 513 360">
  <defs>
    <clipPath id="clip-path">
      <rect id="Rectangle_485" data-name="Rectangle 485" width="513" height="360" transform="translate(-19 313)" fill="#fff" stroke="#707070" stroke-width="1"/>
    </clipPath>
  </defs>
  <g id="Group_809" data-name="Group 809" transform="translate(19 -313)" clip-path="url(#clip-path)">
    <g id="Group_808" data-name="Group 808" transform="translate(-116.246 284.858)">
      <path id="Path_3661" data-name="Path 3661" d="M447.5,2847.9l325.985-391.158,42.356,97.942,234.451-223.372-276.807,349.31-42.867-118.918Z" transform="translate(-447.498 -2320.848)" fill="#9c4693"/>
      <g id="Group_807" data-name="Group 807" transform="translate(164.394 82.433)">
        <path id="Path_3662" data-name="Path 3662" d="M955.645,2774.283q-.389.627,0,.194c.259-.284.215-.253-.13.1q5.582,4.735,5.583,13.567v10.128a26.06,26.06,0,0,1-1.752,9.3,32.183,32.183,0,0,1-4.869,8.577,33.293,33.293,0,0,1-7.273,6.818,28.429,28.429,0,0,1-8.831,4.119l-22.724,6.089v-95.965l22.724-6.09a21.392,21.392,0,0,1,8.831-.613,16.316,16.316,0,0,1,7.273,2.922,15.488,15.488,0,0,1,4.869,5.967,19.229,19.229,0,0,1,1.752,8.361v10.129a24.63,24.63,0,0,1-1.557,8.533,34.05,34.05,0,0,1-4.155,7.93Zm-24.413,4.465-.13.165q2.6-2.124,5.129-4.3t5.129-4.554a19.147,19.147,0,0,0,3.313-3.745,7.572,7.572,0,0,0,1.234-4.225V2751.96a5.3,5.3,0,0,0-2.142-4.554,6.355,6.355,0,0,0-5.39-.829l-7.531,2.019Zm14.544,13.632a6.076,6.076,0,0,0-.974-3.5,5.466,5.466,0,0,0-2.532-2.047q-2.989,2.619-5.584,4.874t-5.844,4.94v17.14l7.921-2.123a10.088,10.088,0,0,0,5.064-3.629,9.184,9.184,0,0,0,2.078-5.685Z" transform="translate(-915.649 -2664.847)" fill="#fff"/>
        <path id="Path_3663" data-name="Path 3663" d="M1091.17,2775.209v15.324L1055.849,2800v-95.963l15.194-4.072v80.51Z" transform="translate(-1000.661 -2646.456)" fill="#fff"/>
        <path id="Path_3664" data-name="Path 3664" d="M1212.484,2749.174l-15.582,4.176-5.326-22.078q-4.672,3.98-8.7,7.527t-8.962,7.594q-.649,3.162-1.493,7.023t-1.494,6.891l-15.453,4.142,21.426-101.705,14.415-3.863Zm-24.153-32.615q-.779-3.294-1.234-5.188t-.845-3.474q-.389-1.58-.908-3.588t-1.3-5.69l-5.714,26.465Z" transform="translate(-1061.072 -2621.546)" fill="#fff"/>
        <path id="Path_3665" data-name="Path 3665" d="M1344.481,2649.99v-7.662a5.5,5.5,0,0,0-2.207-4.733,5.97,5.97,0,0,0-5.323-.781,10,10,0,0,0-5.326,3.634,9.412,9.412,0,0,0-2.207,5.917v52.721a5.5,5.5,0,0,0,2.207,4.732,5.958,5.958,0,0,0,5.326.781,9.974,9.974,0,0,0,5.323-3.634,9.4,9.4,0,0,0,2.207-5.914v-7.662l15.194-4.07v7.66a25.541,25.541,0,0,1-1.753,9.235,32.56,32.56,0,0,1-4.87,8.512,33.537,33.537,0,0,1-7.206,6.8,27.877,27.877,0,0,1-8.767,4.1,20.916,20.916,0,0,1-8.764.6,16.423,16.423,0,0,1-7.208-2.938,15.626,15.626,0,0,1-4.87-5.9,18.815,18.815,0,0,1-1.752-8.3v-52.721a25.569,25.569,0,0,1,1.752-9.236,32.548,32.548,0,0,1,4.87-8.511,33.566,33.566,0,0,1,7.208-6.8,27.844,27.844,0,0,1,8.764-4.1,20.914,20.914,0,0,1,8.767-.6,16.441,16.441,0,0,1,7.206,2.939,15.64,15.64,0,0,1,4.87,5.9,18.814,18.814,0,0,1,1.753,8.3v7.66Z" transform="translate(-1157.49 -2598.511)" fill="#fff"/>
        <path id="Path_3666" data-name="Path 3666" d="M1487.733,2608.423l23.244,51.949-16.491,4.419L1477.6,2626.98l-8.052,14.494v29.866l-15.193,4.071v-95.963l15.193-4.072v37.789l24.153-44.26,18.18-4.872Z" transform="translate(-1242.304 -2564.033)" fill="#fff"/>
      </g>
      <path id="Path_3667" data-name="Path 3667" d="M1166.773,2934.647l-284.344,76.146V2880.345l284.344-76.144Z" transform="translate(-556.528 -2650.981)" fill="#9c4693"/>
      <path id="Pfad_246" data-name="Pfad 246" d="M203.382,208.417V232.48l18.764-5.026v14.668l-18.764,5.026v24.06l28.084-7.525v14.79L189.1,289.83V197.213l42.37-11.352v14.791Z" transform="translate(290.999 12.404)" fill="#fff"/>
      <path id="Pfad_246-2" data-name="Pfad 246" d="M173.583,216.449v24.065l18.764-5.026v14.666l-18.764,5.026v24.06l28.086-7.523v14.79L159.3,297.862V205.247L201.669,193.9v14.791Z" transform="translate(266.924 18.894)" fill="#fff"/>
      <path id="Pfad_233" data-name="Pfad 233" d="M250.557,218.854l22.4,50.056-15.891,4.258-16.271-36.435-7.76,13.966v28.78L218.389,283.4V190.931l14.644-3.923v36.415l23.275-42.65,17.519-4.7Z" transform="translate(314.666 4.493)" fill="#fff"/>
      <path id="Path_3669" data-name="Path 3669" d="M98.02,228.52,127.3,313.066l15.171-3.99,12.939-95.947-15.028,4,28.1,84.982,14.271-3.876L197.6,201.83,182.735,205.7l-14.254,96.407,14.271-3.876-27.343-85.107-15.028,4L127.3,313.066l15.171-3.99-29.844-84.457Z" transform="translate(217.418 25.305)" fill="#fff"/>
      <path id="Path_3670" data-name="Path 3670" d="M1143.319,2618.96l-354.993,96.5v-133.2l354.993-96.5Z" transform="translate(-674.05 -2434.139)" fill="none" stroke="#fff" stroke-miterlimit="10" stroke-width="27"/>
      <path id="Path_3671" data-name="Path 3671" d="M1890.035,2917.8h-9.754l6.9-6.9a1.39,1.39,0,0,0-1.965-1.966l-6.9,6.9v-9.753a1.39,1.39,0,1,0-2.779,0v9.751l-6.9-6.9a1.39,1.39,0,0,0-1.966,1.966l6.9,6.9h-9.755a1.389,1.389,0,0,0,0,2.779h9.755l-6.9,6.9a1.39,1.39,0,0,0,1.966,1.966l6.9-6.9v9.754a1.39,1.39,0,0,0,2.779,0v-9.754l6.9,6.9a1.39,1.39,0,0,0,1.965-1.966l-6.9-6.9h9.754a1.389,1.389,0,1,0,0-2.779Z" transform="translate(-1751.324 -2819)" fill="#9c4693"/>
      <path id="Path_3672" data-name="Path 3672" d="M1890.035,2917.8h-9.754l6.9-6.9a1.39,1.39,0,0,0-1.965-1.966l-6.9,6.9v-9.753a1.39,1.39,0,1,0-2.779,0v9.751l-6.9-6.9a1.39,1.39,0,0,0-1.966,1.966l6.9,6.9h-9.755a1.389,1.389,0,0,0,0,2.779h9.755l-6.9,6.9a1.39,1.39,0,0,0,1.966,1.966l6.9-6.9v9.754a1.39,1.39,0,0,0,2.779,0v-9.754l6.9,6.9a1.39,1.39,0,0,0,1.965-1.966l-6.9-6.9h9.754a1.389,1.389,0,1,0,0-2.779Z" transform="translate(-1605.594 -2610.914)" fill="#9c4693"/>
      <path id="Path_3673" data-name="Path 3673" d="M1890.035,2917.8h-9.754l6.9-6.9a1.39,1.39,0,0,0-1.965-1.966l-6.9,6.9v-9.753a1.39,1.39,0,1,0-2.779,0v9.751l-6.9-6.9a1.39,1.39,0,0,0-1.966,1.966l6.9,6.9h-9.755a1.389,1.389,0,0,0,0,2.779h9.755l-6.9,6.9a1.39,1.39,0,0,0,1.966,1.966l6.9-6.9v9.754a1.39,1.39,0,0,0,2.779,0v-9.754l6.9,6.9a1.39,1.39,0,0,0,1.965-1.966l-6.9-6.9h9.754a1.389,1.389,0,1,0,0-2.779Z" transform="translate(-1308.245 -2797.125)" fill="#9c4693"/>
    </g>
  </g>
</svg>
