<svg xmlns="http://www.w3.org/2000/svg" xmlns:xlink="http://www.w3.org/1999/xlink" width="375" height="282" viewBox="0 0 375 282">
  <defs>
    <clipPath id="clip-path">
      <rect id="Rectangle_490" data-name="Rectangle 490" width="375" height="282" transform="translate(-28 309)" fill="#fff" stroke="#707070" stroke-width="1"/>
    </clipPath>
  </defs>
  <g id="Group_780" data-name="Group 780" transform="translate(28 -309)" clip-path="url(#clip-path)">
    <g id="Group_779" data-name="Group 779" transform="translate(-85.544 308.897)">
      <path id="Path_2701" data-name="Path 2701" d="M447.5,2684.807l223.067-267.664,28.984,67.02,160.431-152.85L670.565,2570.341l-29.333-81.374Z" transform="translate(-447.498 -2324.152)" fill="#97c933"/>
      <g id="Group_778" data-name="Group 778" transform="translate(112.493 56.408)">
        <path id="Path_2702" data-name="Path 2702" d="M943.018,2760.4q-.266.43,0,.133c.177-.195.147-.173-.089.069q3.819,3.24,3.82,9.284v6.931a17.831,17.831,0,0,1-1.2,6.364,22.022,22.022,0,0,1-3.332,5.869,22.774,22.774,0,0,1-4.976,4.666,19.457,19.457,0,0,1-6.043,2.819l-15.55,4.167v-65.667l15.55-4.167a14.639,14.639,0,0,1,6.043-.42,11.168,11.168,0,0,1,4.976,2,10.6,10.6,0,0,1,3.332,4.083,13.157,13.157,0,0,1,1.2,5.721v6.931a16.853,16.853,0,0,1-1.065,5.839,23.3,23.3,0,0,1-2.843,5.426Zm-16.706,3.056-.089.113q1.776-1.454,3.51-2.942t3.51-3.116a13.108,13.108,0,0,0,2.267-2.562,5.181,5.181,0,0,0,.844-2.891v-6.933a3.625,3.625,0,0,0-1.466-3.117,4.35,4.35,0,0,0-3.689-.567l-5.153,1.382Zm9.952,9.328a4.158,4.158,0,0,0-.666-2.4,3.741,3.741,0,0,0-1.733-1.4q-2.045,1.792-3.821,3.335t-4,3.38v11.729l5.42-1.453a6.9,6.9,0,0,0,3.466-2.483,6.285,6.285,0,0,0,1.422-3.89Z" transform="translate(-915.649 -2685.51)" fill="#fff"/>
        <path id="Path_2703" data-name="Path 2703" d="M1080.019,2751.453v10.486l-24.17,6.475v-65.666l10.4-2.787v55.092Z" transform="translate(-1018.085 -2663.348)" fill="#fff"/>
        <path id="Path_2704" data-name="Path 2704" d="M1194.486,2720.667l-10.663,2.858-3.645-15.107q-3.2,2.724-5.952,5.151t-6.132,5.2q-.444,2.164-1.021,4.806t-1.022,4.716l-10.574,2.834,14.662-69.6,9.864-2.643Zm-16.528-22.318q-.533-2.254-.844-3.551t-.578-2.377q-.267-1.081-.622-2.455t-.889-3.893l-3.91,18.109Z" transform="translate(-1090.877 -2633.333)" fill="#fff"/>
        <path id="Path_2705" data-name="Path 2705" d="M1335.011,2640.8v-5.243a3.764,3.764,0,0,0-1.51-3.238,4.085,4.085,0,0,0-3.642-.534,6.841,6.841,0,0,0-3.644,2.486,6.442,6.442,0,0,0-1.51,4.049V2674.4a3.76,3.76,0,0,0,1.51,3.238,4.077,4.077,0,0,0,3.644.535,6.824,6.824,0,0,0,3.642-2.487,6.434,6.434,0,0,0,1.51-4.047V2666.4l10.4-2.785v5.242a17.475,17.475,0,0,1-1.2,6.319,22.286,22.286,0,0,1-3.332,5.825,22.942,22.942,0,0,1-4.931,4.654,19.069,19.069,0,0,1-6,2.807,14.306,14.306,0,0,1-6,.408,11.236,11.236,0,0,1-4.932-2.011,10.691,10.691,0,0,1-3.332-4.04,12.877,12.877,0,0,1-1.2-5.677v-36.076a17.5,17.5,0,0,1,1.2-6.32,22.282,22.282,0,0,1,3.332-5.824,22.971,22.971,0,0,1,4.932-4.654,19.046,19.046,0,0,1,6-2.807,14.311,14.311,0,0,1,6-.408,11.244,11.244,0,0,1,4.931,2.011,10.7,10.7,0,0,1,3.332,4.039,12.874,12.874,0,0,1,1.2,5.677v5.242Z" transform="translate(-1207.055 -2605.578)" fill="#fff"/>
        <path id="Path_2706" data-name="Path 2706" d="M1477.2,2594.409l15.906,35.548-11.285,3.024-11.552-25.873-5.51,9.918v20.437l-10.4,2.786v-65.667l10.4-2.786v25.858l16.528-30.286,12.441-3.333Z" transform="translate(-1309.253 -2564.033)" fill="#fff"/>
      </g>
      <path id="Path_2707" data-name="Path 2707" d="M1077,2893.463l-194.572,52.106V2856.3L1077,2804.2Z" transform="translate(-659.419 -2699.355)" fill="#97c933"/>
      <path id="Pfad_246" data-name="Pfad 246" d="M198.872,201.3v16.466l12.84-3.439v10.037l-12.84,3.439v16.464l19.217-5.149v10.121L189.1,257.006V193.629l28.993-7.768v10.121Z" transform="translate(139.427 -50.191)" fill="#fff"/>
      <path id="Pfad_246-2" data-name="Pfad 246" d="M169.073,209.328V225.8l12.84-3.439v10.036l-12.84,3.439v16.464l19.219-5.148v10.121l-28.994,7.77V201.663l28.994-7.768v10.121Z" transform="translate(132.36 -48.286)" fill="#fff"/>
      <path id="Pfad_233" data-name="Pfad 233" d="M240.4,205.347,255.728,239.6l-10.874,2.913L233.719,217.58l-5.31,9.557v19.694l-10.021,2.683V186.239l10.021-2.685v24.918l15.927-29.185,11.988-3.218Z" transform="translate(146.373 -52.513)" fill="#fff"/>
      <path id="Path_2709" data-name="Path 2709" d="M98.02,220.093l20.035,57.854,10.381-2.73,8.854-65.655L127.007,212.3l19.229,58.152L156,267.8l10.161-65.969-10.173,2.651-9.754,65.97L156,267.8,137.29,209.561,127.007,212.3l-8.951,65.648,10.381-2.73-20.422-57.792Z" transform="translate(117.83 -46.405)" fill="#fff"/>
      <path id="Path_2710" data-name="Path 2710" d="M1031.243,2576.907l-242.917,66.035V2551.8l242.917-66.035Z" transform="translate(-710.129 -2450.437)" fill="none" stroke="#fff" stroke-miterlimit="10" stroke-width="15"/>
      <path id="Path_2711" data-name="Path 2711" d="M1881.319,2913.666h-6.674l4.719-4.72a.951.951,0,0,0-1.345-1.345l-4.72,4.72v-6.674a.951.951,0,1,0-1.9,0v6.672l-4.719-4.719a.951.951,0,0,0-1.345,1.345l4.72,4.72h-6.675a.951.951,0,0,0,0,1.9h6.675l-4.72,4.72a.951.951,0,0,0,1.345,1.345l4.719-4.719v6.674a.951.951,0,0,0,1.9,0v-6.674l4.72,4.719a.951.951,0,1,0,1.345-1.345l-4.719-4.72h6.674a.951.951,0,1,0,0-1.9Z" transform="translate(-1786.401 -2846.055)" fill="#97c933"/>
      <path id="Path_2712" data-name="Path 2712" d="M1881.319,2913.666h-6.674l4.719-4.72a.951.951,0,0,0-1.345-1.345l-4.72,4.72v-6.674a.951.951,0,1,0-1.9,0v6.672l-4.719-4.719a.951.951,0,0,0-1.345,1.345l4.72,4.72h-6.675a.951.951,0,0,0,0,1.9h6.675l-4.72,4.72a.951.951,0,0,0,1.345,1.345l4.719-4.719v6.674a.951.951,0,0,0,1.9,0v-6.674l4.72,4.719a.951.951,0,1,0,1.345-1.345l-4.719-4.72h6.674a.951.951,0,1,0,0-1.9Z" transform="translate(-1686.68 -2703.665)" fill="#97c933"/>
      <path id="Path_2713" data-name="Path 2713" d="M1881.319,2913.666h-6.674l4.719-4.72a.951.951,0,0,0-1.345-1.345l-4.72,4.72v-6.674a.951.951,0,1,0-1.9,0v6.672l-4.719-4.719a.951.951,0,0,0-1.345,1.345l4.72,4.72h-6.675a.951.951,0,0,0,0,1.9h6.675l-4.72,4.72a.951.951,0,0,0,1.345,1.345l4.719-4.719v6.674a.951.951,0,0,0,1.9,0v-6.674l4.72,4.719a.951.951,0,1,0,1.345-1.345l-4.719-4.72h6.674a.951.951,0,1,0,0-1.9Z" transform="translate(-1483.208 -2831.086)" fill="#97c933"/>
    </g>
  </g>
</svg>
