<svg xmlns="http://www.w3.org/2000/svg" xmlns:xlink="http://www.w3.org/1999/xlink" width="697" height="358" viewBox="0 0 697 358">
  <defs>
    <clipPath id="clip-path">
      <rect id="Rectangle_483" data-name="Rectangle 483" width="697" height="358" transform="translate(-19 361)" fill="#fff" stroke="#707070" stroke-width="1"/>
    </clipPath>
  </defs>
  <g id="Group_7" data-name="Group 7" transform="translate(19 -361)" clip-path="url(#clip-path)">
    <g id="Group_765" data-name="Group 765" transform="translate(-367.106 114.566)">
      <path id="Path_228" data-name="Path 228" d="M447.5,3033.188l442.908-531.456L947.954,2634.8l318.542-303.49-376.09,474.6-58.242-161.57Z" transform="translate(-231.516 -2174.114)" fill="#97c933"/>
      <g id="Group_121" data-name="Group 121" transform="translate(439.339 254.98)">
        <path id="Path_229" data-name="Path 229" d="M969.991,2790.061q-.528.853,0,.265c.352-.387.292-.344-.177.137q7.583,6.434,7.586,18.433v13.761a35.406,35.406,0,0,1-2.381,12.636,43.725,43.725,0,0,1-6.615,11.653,45.237,45.237,0,0,1-9.881,9.264,38.635,38.635,0,0,1-12,5.6l-30.875,8.273V2739.694l30.875-8.274a29.068,29.068,0,0,1,12-.833,22.174,22.174,0,0,1,9.881,3.97,21.047,21.047,0,0,1,6.615,8.108,26.127,26.127,0,0,1,2.381,11.36v13.763a33.462,33.462,0,0,1-2.115,11.594,46.269,46.269,0,0,1-5.646,10.774Zm-33.17,6.067-.176.224q3.527-2.886,6.968-5.841t6.969-6.187a26.018,26.018,0,0,0,4.5-5.087,10.289,10.289,0,0,0,1.676-5.741V2759.73a7.2,7.2,0,0,0-2.911-6.188q-2.912-2.131-7.324-1.126l-10.232,2.744Zm19.76,18.522a8.255,8.255,0,0,0-1.323-4.762,7.425,7.425,0,0,0-3.44-2.782q-4.061,3.558-7.586,6.621t-7.939,6.712v23.288l10.762-2.884a13.705,13.705,0,0,0,6.881-4.931,12.478,12.478,0,0,0,2.823-7.724Z" transform="translate(-915.649 -2641.374)" fill="#fff"/>
        <path id="Path_230" data-name="Path 230" d="M1103.84,2802.2v20.82l-47.991,12.856V2705.493l20.644-5.533v109.387Z" transform="translate(-980.866 -2627.264)" fill="#fff"/>
        <path id="Path_231" data-name="Path 231" d="M1232.932,2781.559l-21.171,5.674-7.237-30q-6.348,5.407-11.819,10.227t-12.176,10.318q-.882,4.3-2.028,9.542t-2.03,9.363l-21,5.627,29.112-138.185,19.585-5.248Zm-32.816-44.313q-1.059-4.476-1.676-7.05t-1.148-4.72q-.529-2.147-1.234-4.875t-1.765-7.73l-7.764,35.957Z" transform="translate(-1027.211 -2608.154)" fill="#fff"/>
        <path id="Path_232" data-name="Path 232" d="M1355.24,2660.426v-10.41a7.473,7.473,0,0,0-3-6.43,8.11,8.11,0,0,0-7.232-1.061,13.584,13.584,0,0,0-7.236,4.937,12.788,12.788,0,0,0-3,8.039v71.631a7.466,7.466,0,0,0,3,6.429,8.1,8.1,0,0,0,7.236,1.062,13.551,13.551,0,0,0,7.232-4.938,12.776,12.776,0,0,0,3-8.036v-10.411l20.644-5.53v10.408a34.7,34.7,0,0,1-2.382,12.547,44.239,44.239,0,0,1-6.616,11.565,45.564,45.564,0,0,1-9.791,9.241,37.879,37.879,0,0,1-11.912,5.574,28.416,28.416,0,0,1-11.907.81,22.309,22.309,0,0,1-9.793-3.992,21.227,21.227,0,0,1-6.616-8.021,25.567,25.567,0,0,1-2.381-11.271v-71.631a34.746,34.746,0,0,1,2.381-12.549,44.229,44.229,0,0,1,6.616-11.563,45.608,45.608,0,0,1,9.793-9.24,37.822,37.822,0,0,1,11.907-5.573,28.418,28.418,0,0,1,11.912-.811,22.328,22.328,0,0,1,9.791,3.993,21.251,21.251,0,0,1,6.616,8.019,25.564,25.564,0,0,1,2.382,11.272v10.408Z" transform="translate(-1101.179 -2590.483)" fill="#fff"/>
        <path id="Path_233" data-name="Path 233" d="M1499.7,2624.345l31.581,70.582-22.406,6-22.937-51.373L1475,2669.25v40.578l-20.643,5.531V2584.977l20.643-5.532v51.342l32.816-60.134,24.7-6.619Z" transform="translate(-1166.245 -2564.033)" fill="#fff"/>
      </g>
      <path id="Path_235" data-name="Path 235" d="M1268.76,2981.435,882.429,3084.893V2907.656L1268.76,2804.2Z" transform="translate(-223.653 -2453.044)" fill="#97c933"/>
      <path id="Path_261" data-name="Path 261" d="M1706.144,2353.558h-9.565l6.763-6.766a1.363,1.363,0,0,0-1.927-1.928l-6.763,6.765v-9.564a1.363,1.363,0,1,0-2.727,0v9.564l-6.762-6.765a1.364,1.364,0,0,0-1.929,1.928l6.763,6.766h-9.565a1.362,1.362,0,1,0,0,2.725H1690l-6.763,6.762a1.364,1.364,0,0,0,1.929,1.93l6.762-6.765v9.565a1.363,1.363,0,0,0,2.727,0v-9.565l6.763,6.765a1.364,1.364,0,1,0,1.927-1.93l-6.763-6.762h9.565a1.362,1.362,0,1,0,0-2.725Z" transform="translate(-1034.509 -2197.719)" fill="#97c933"/>
      <path id="Pfad_246" data-name="Pfad 246" d="M208.506,216.507V249.2L234,242.372V262.3l-25.494,6.829v32.689l38.157-10.223v20.1L189.1,327.121V201.284l57.567-15.423v20.1Z" transform="translate(679.179 226.497)" fill="#fff"/>
      <path id="Pfad_246-2" data-name="Pfad 246" d="M178.707,224.538v32.7l25.495-6.829v19.926l-25.495,6.829V309.85l38.159-10.221v20.1L159.3,335.153V209.318l57.57-15.423v20.1Z" transform="translate(635.78 238.198)" fill="#fff"/>
      <path id="Pfad_233" data-name="Pfad 233" d="M262.095,234.2l30.432,68.009-21.591,5.785-22.107-49.5-10.543,18.975v39.1l-19.9,5.328V196.261l19.9-5.33v49.476l31.623-57.948,23.8-6.389Z" transform="translate(721.84 212.238)" fill="#fff"/>
      <path id="Path_2668" data-name="Path 2668" d="M98.02,238.093,137.8,352.963l20.613-5.421,17.579-130.361-20.419,5.436,38.18,115.463,19.39-5.266L233.319,201.83l-20.2,5.264L193.754,338.079l19.39-5.266L175.993,217.181l-20.419,5.436L137.8,352.963l20.613-5.421L117.865,232.793Z" transform="translate(546.539 249.754)" fill="#fff"/>
      <path id="Path_2669" data-name="Path 2669" d="M1270.646,2666.735,788.326,2797.85V2616.876l482.32-131.114Z" transform="translate(-417.081 -2272.642)" fill="none" stroke="#fff" stroke-miterlimit="10" stroke-width="27"/>
      <path id="Path_2671" data-name="Path 2671" d="M1899.938,2922.507h-13.252l9.37-9.371a1.888,1.888,0,0,0-2.67-2.671l-9.372,9.372v-13.251a1.888,1.888,0,1,0-3.776,0v13.248l-9.37-9.369a1.889,1.889,0,0,0-2.671,2.671l9.371,9.371h-13.254a1.888,1.888,0,0,0,0,3.775h13.254l-9.371,9.372a1.889,1.889,0,0,0,2.671,2.671l9.37-9.37v13.252a1.888,1.888,0,0,0,3.776,0v-13.252l9.372,9.37a1.888,1.888,0,0,0,2.67-2.671l-9.37-9.372h13.252a1.888,1.888,0,1,0,0-3.775Z" transform="translate(-1495.493 -2645.282)" fill="#97c933"/>
      <path id="Path_2672" data-name="Path 2672" d="M1899.938,2922.507h-13.252l9.37-9.371a1.888,1.888,0,0,0-2.67-2.671l-9.372,9.372v-13.251a1.888,1.888,0,1,0-3.776,0v13.248l-9.37-9.369a1.889,1.889,0,0,0-2.671,2.671l9.371,9.371h-13.254a1.888,1.888,0,0,0,0,3.775h13.254l-9.371,9.372a1.889,1.889,0,0,0,2.671,2.671l9.37-9.37v13.252a1.888,1.888,0,0,0,3.776,0v-13.252l9.372,9.37a1.888,1.888,0,0,0,2.67-2.671l-9.37-9.372h13.252a1.888,1.888,0,1,0,0-3.775Z" transform="translate(-1297.493 -2362.561)" fill="#97c933"/>
      <path id="Path_2673" data-name="Path 2673" d="M1899.938,2922.507h-13.252l9.37-9.371a1.888,1.888,0,0,0-2.67-2.671l-9.372,9.372v-13.251a1.888,1.888,0,1,0-3.776,0v13.248l-9.37-9.369a1.889,1.889,0,0,0-2.671,2.671l9.371,9.371h-13.254a1.888,1.888,0,0,0,0,3.775h13.254l-9.371,9.372a1.889,1.889,0,0,0,2.671,2.671l9.37-9.37v13.252a1.888,1.888,0,0,0,3.776,0v-13.252l9.372,9.37a1.888,1.888,0,0,0,2.67-2.671l-9.37-9.372h13.252a1.888,1.888,0,1,0,0-3.775Z" transform="translate(-893.493 -2615.561)" fill="#97c933"/>
    </g>
  </g>
</svg>
