<svg xmlns="http://www.w3.org/2000/svg" xmlns:xlink="http://www.w3.org/1999/xlink" width="182" height="138" viewBox="0 0 182 138">
  <defs>
    <clipPath id="clip-path">
      <rect id="Rectangle_489" data-name="Rectangle 489" width="182" height="138" transform="translate(-34.546 368.102)" fill="#fff" stroke="#707070" stroke-width="1"/>
    </clipPath>
  </defs>
  <g id="Group_776" data-name="Group 776" transform="translate(34.546 -368.102)" clip-path="url(#clip-path)">
    <g id="Group_775" data-name="Group 775" transform="translate(-45.083 352.899)">
      <path id="Path_2687" data-name="Path 2687" d="M447.5,2489.761l99.986-119.976,12.991,30.04,71.911-68.512-84.9,107.141-13.148-36.474Z" transform="translate(-447.498 -2331.313)" fill="#97c933"/>
      <g id="Group_774" data-name="Group 774" transform="translate(50.423 22.074)">
        <path id="Path_2688" data-name="Path 2688" d="M927.917,2743.787c-.079.128-.079.147,0,.06s.066-.078-.04.031a5.156,5.156,0,0,1,1.713,4.161v3.107a8,8,0,0,1-.538,2.853,9.87,9.87,0,0,1-1.494,2.63,10.2,10.2,0,0,1-2.23,2.091,8.7,8.7,0,0,1-2.709,1.263l-6.97,1.868v-29.435l6.97-1.867a6.56,6.56,0,0,1,2.709-.187,5.006,5.006,0,0,1,2.23.9,4.756,4.756,0,0,1,1.494,1.831,5.9,5.9,0,0,1,.538,2.564v3.107a7.548,7.548,0,0,1-.478,2.617,10.445,10.445,0,0,1-1.274,2.432Zm-7.488,1.369-.04.051q.8-.652,1.573-1.32t1.573-1.4a5.845,5.845,0,0,0,1.016-1.148,2.322,2.322,0,0,0,.379-1.3v-3.107a1.626,1.626,0,0,0-.657-1.4,1.945,1.945,0,0,0-1.653-.254l-2.31.619Zm4.461,4.182a1.866,1.866,0,0,0-.3-1.075,1.676,1.676,0,0,0-.776-.627q-.917.8-1.713,1.494t-1.793,1.516v5.257l2.43-.651a3.1,3.1,0,0,0,1.553-1.113,2.82,2.82,0,0,0,.637-1.745Z" transform="translate(-915.649 -2710.22)" fill="#fff"/>
        <path id="Path_2689" data-name="Path 2689" d="M1066.683,2723.042v4.7l-10.834,2.9v-29.434l4.66-1.25v24.693Z" transform="translate(-1038.921 -2683.55)" fill="#fff"/>
        <path id="Path_2690" data-name="Path 2690" d="M1172.962,2686.576l-4.779,1.282-1.633-6.773q-1.433,1.221-2.668,2.31t-2.749,2.328q-.2.97-.458,2.155t-.458,2.114l-4.74,1.27,6.572-31.2,4.421-1.185Zm-7.408-10q-.239-1.01-.378-1.592t-.259-1.065c-.08-.323-.173-.69-.279-1.1s-.239-.991-.4-1.745l-1.753,8.116Z" transform="translate(-1126.521 -2647.431)" fill="#fff"/>
        <path id="Path_2691" data-name="Path 2691" d="M1323.686,2629.82v-2.351a1.685,1.685,0,0,0-.677-1.451,1.828,1.828,0,0,0-1.632-.24,3.069,3.069,0,0,0-1.634,1.115,2.887,2.887,0,0,0-.677,1.815v16.171a1.683,1.683,0,0,0,.677,1.45,1.83,1.83,0,0,0,1.634.241,3.067,3.067,0,0,0,1.632-1.115,2.888,2.888,0,0,0,.677-1.814v-2.35l4.66-1.248v2.349a7.843,7.843,0,0,1-.537,2.833,9.986,9.986,0,0,1-1.494,2.61,10.279,10.279,0,0,1-2.21,2.086,8.568,8.568,0,0,1-2.689,1.258,6.421,6.421,0,0,1-2.689.183,5.036,5.036,0,0,1-2.21-.9,4.788,4.788,0,0,1-1.494-1.811,5.766,5.766,0,0,1-.538-2.545v-16.171a7.835,7.835,0,0,1,.538-2.832,9.96,9.96,0,0,1,1.494-2.61,10.286,10.286,0,0,1,2.21-2.086,8.564,8.564,0,0,1,2.689-1.26,6.413,6.413,0,0,1,2.689-.182,5.047,5.047,0,0,1,2.21.9,4.8,4.8,0,0,1,1.494,1.81,5.774,5.774,0,0,1,.537,2.545v2.35Z" transform="translate(-1266.332 -2614.03)" fill="#fff"/>
        <path id="Path_2692" data-name="Path 2692" d="M1464.595,2577.649l7.13,15.934-5.058,1.356-5.178-11.6-2.47,4.446v9.16l-4.66,1.249v-29.433l4.66-1.25V2579.1l7.408-13.575,5.576-1.495Z" transform="translate(-1389.318 -2564.034)" fill="#fff"/>
      </g>
      <path id="Path_2693" data-name="Path 2693" d="M969.643,2844.211l-87.214,23.357v-40.013l87.214-23.354Z" transform="translate(-782.469 -2760.415)" fill="#97c933"/>
      <path id="Pfad_246" data-name="Pfad 246" d="M193.478,192.779v7.381l5.755-1.542v4.5l-5.755,1.542v7.38l8.614-2.308v4.537l-13,3.484V189.343l13-3.482V190.4Z" transform="translate(-41.841 -128.259)" fill="#fff"/>
      <path id="Pfad_246-2" data-name="Pfad 246" d="M163.679,200.813v7.381l5.755-1.542v4.5l-5.755,1.542v7.38l8.615-2.307V222.3l-13,3.483V197.377l13-3.482v4.536Z" transform="translate(-28.567 -131.838)" fill="#fff"/>
      <path id="Pfad_233" data-name="Pfad 233" d="M228.256,189.193l6.87,15.353-4.874,1.306-4.991-11.175-2.38,4.284v8.827l-4.492,1.2V180.628l4.492-1.2v11.169l7.139-13.082,5.373-1.442Z" transform="translate(-54.891 -123.898)" fill="#fff"/>
      <path id="Path_2695" data-name="Path 2695" d="M98.02,210.016,107,235.948l4.653-1.224,3.968-29.429-4.609,1.227,8.619,26.066,4.377-1.189,4.555-29.569L124,203.019l-4.372,29.57,4.377-1.189-8.387-26.1-4.609,1.227L107,235.948l4.653-1.224-9.154-25.9Z" transform="translate(-1.269 -135.373)" fill="#fff"/>
      <path id="Path_2696" data-name="Path 2696" d="M897.21,2526.616l-108.883,29.6v-40.855l108.883-29.6Z" transform="translate(-753.276 -2473.139)" fill="none" stroke="#fff" stroke-miterlimit="10" stroke-width="5"/>
      <path id="Path_2697" data-name="Path 2697" d="M1870.895,2908.717H1867.9l2.115-2.116a.426.426,0,0,0-.6-.6l-2.115,2.116v-2.99a.426.426,0,1,0-.852,0v2.99l-2.116-2.116a.426.426,0,0,0-.6.6l2.115,2.116h-2.992a.426.426,0,0,0,0,.853h2.992l-2.115,2.115a.426.426,0,1,0,.6.6l2.116-2.115v2.991a.426.426,0,1,0,.852,0v-2.991l2.115,2.115a.426.426,0,0,0,.6-.6l-2.115-2.115h2.991a.426.426,0,0,0,0-.853Z" transform="translate(-1828.35 -2881.621)" fill="#97c933"/>
      <path id="Path_2698" data-name="Path 2698" d="M1870.895,2908.717H1867.9l2.115-2.116a.426.426,0,0,0-.6-.6l-2.115,2.116v-2.99a.426.426,0,1,0-.852,0v2.99l-2.116-2.116a.426.426,0,0,0-.6.6l2.115,2.116h-2.992a.426.426,0,0,0,0,.853h2.992l-2.115,2.115a.426.426,0,1,0,.6.6l2.116-2.115v2.991a.426.426,0,1,0,.852,0v-2.991l2.115,2.115a.426.426,0,0,0,.6-.6l-2.115-2.115h2.991a.426.426,0,0,0,0-.853Z" transform="translate(-1783.652 -2817.797)" fill="#97c933"/>
      <path id="Path_2699" data-name="Path 2699" d="M1870.895,2908.717H1867.9l2.115-2.116a.426.426,0,0,0-.6-.6l-2.115,2.116v-2.99a.426.426,0,1,0-.852,0v2.99l-2.116-2.116a.426.426,0,0,0-.6.6l2.115,2.116h-2.992a.426.426,0,0,0,0,.853h2.992l-2.115,2.115a.426.426,0,1,0,.6.6l2.116-2.115v2.991a.426.426,0,1,0,.852,0v-2.991l2.115,2.115a.426.426,0,0,0,.6-.6l-2.115-2.115h2.991a.426.426,0,0,0,0-.853Z" transform="translate(-1692.449 -2874.912)" fill="#97c933"/>
    </g>
  </g>
</svg>
