<svg xmlns="http://www.w3.org/2000/svg" xmlns:xlink="http://www.w3.org/1999/xlink" width="229" height="260" viewBox="0 0 229 260">
  <defs>
    <clipPath id="clip-path">
      <rect id="Rectangle_545" data-name="Rectangle 545" width="229" height="260" transform="translate(21 198)" fill="#fff" stroke="#707070" stroke-width="1"/>
    </clipPath>
    <clipPath id="clip-path-2">
      <rect id="Rectangle_543" data-name="Rectangle 543" width="99.655" height="250.326" fill="none"/>
    </clipPath>
    <clipPath id="clip-path-3">
      <rect id="Rectangle_544" data-name="Rectangle 544" width="79.684" height="133.432" transform="translate(0)" fill="none"/>
    </clipPath>
  </defs>
  <g id="Mask_Group_813" data-name="Mask Group 813" transform="translate(-21 -198)" clip-path="url(#clip-path)">
    <g id="Group_961" data-name="Group 961">
      <g id="Group_958" data-name="Group 958" transform="translate(63.345 169.5)">
        <g id="Group_957" data-name="Group 957" clip-path="url(#clip-path-2)">
          <path id="Path_4985" data-name="Path 4985" d="M106.555,360.935C106.049,343.1,95.079,330.62,92.39,328.15c-2.768-2.541-4.806-4.651-9.233-7.029-1.859-1-11.131-4.124-11.547-4.54-1.219-1.22.146-4.335-.623-5.827s-3.616-1.528-5.058-1.771c-.547-.092-.914.081-1.345-.312.337-.729,1.087-1.363,1.372-2.119a10.2,10.2,0,0,0,.506-3.414,6,6,0,0,0-3.035-4.806c-1.428-.818-4.4-.405-5.943.247a9.814,9.814,0,0,0-3.795,3.547c-.63,1.855.651,4.084,1.644,5.565-1.771.126-4.076-.237-4.679.885-.934,1.738-.315,4.316-.5,6.2-.142,1.414-.6.943-1.777,1.135a70.829,70.829,0,0,0-9.229,3.165c-3.584,1.743-6.49,4.3-9.612,6.829a72.965,72.965,0,0,0-8.316,9.483c-2.154,3.524-7.24,14.041-8,23.528-.369,4.616-.252,9.66,1.425,13.912a109.48,109.48,0,0,0,5.783,13.026c1.483,2.761,4.066,4.771,6.071,7.208,10.531,12.8,26.7,14.173,34.653,14.931a31.031,31.031,0,0,0,12.3-1.363c1.69-.567,8.145-4.384,9.808-5.473,2.822-1.849,5.277-4.212,8.125-6.071,2.564-1.674,10.225-13.228,10.874-14.671a77.1,77.1,0,0,0,3.161-9.359,37.181,37.181,0,0,0,1.139-10.118M61.783,306.173l-.38.126c-.738,1.041-3.454.311-3.951-.981-.485-1.259.063-3.6,1.323-4.3,1.072-.6,3.51-.339,4.051.854.506,1.115.05,3.682-1.044,4.3" transform="translate(-6.911 -157.791)" fill="#a2ded7"/>
          <path id="Path_4986" data-name="Path 4986" d="M96.752,323.141c5.336,2.542,4.059-7.89,3.647-10.4a.756.756,0,0,0-.545-.545,74.138,74.138,0,0,0-19.927-1.064.786.786,0,0,0-.753.573c-.636,3.379-1.309,8.116,1.729,10.578,2.342,1.9,4.132-1.646,4.549-3.42H83.947c.836,4.937,6.228,4.484,7.294-.071H89.735c1.248,4.777,6.422,5.222,6.92-.134H95.094a5.977,5.977,0,0,0,.878,3.57.781.781,0,0,0,1.348-.788,3.652,3.652,0,0,1-.665-2.782c.037-1.021-1.47-.986-1.561,0-.343,3.687-3.14,2.444-3.853-.281a.786.786,0,0,0-1.506,0c-.734,3.137-3.724,3.371-4.282.071-.131-.774-1.337-.721-1.506,0a5.888,5.888,0,0,1-.645,1.869c-1.309,2.614-2.738-1.326-2.916-2.044a15.139,15.139,0,0,1,.294-6.152l-.752.573a75.385,75.385,0,0,1,18.705.84c1.1.206,1.211,9.361-1.092,8.265-.9-.431-1.7.915-.789,1.348" transform="translate(-41.653 -164.693)" fill="#fff"/>
          <path id="Path_4987" data-name="Path 4987" d="M37.7,326.848l-3.2.8c-.8.209-1.567.51-2.157.7l-.976.328c-.233.037-.482.075-.743.132l-.816.228c-.723.208-1.42.45-2.1.715l-.508.206-.487.25-.965.521c-.636.363-1.287.712-1.915,1.128l-1.9,1.32-.852.58-.807.641-1.6,1.271-.214.156a6.833,6.833,0,0,0-.58.47l-2.03,1.732c-.826.732-1.709,1.674-2.7,2.638-.478.5-.925,1.055-1.4,1.6l-.715.829a9.416,9.416,0,0,0-.691.858l-1.3,1.769c-.211.294-.437.574-.629.873s-.374.6-.557.891c-.364.586-.718,1.152-1.052,1.689-.352.527-.585,1.083-.853,1.565-.5.984-.958,1.785-1.205,2.38l-.4.931-.795,1.288c-.133.219-.263.444-.391.681a8.065,8.065,0,0,0-.314.773,16.649,16.649,0,0,0-.57,2.033c-.068.322-.15.637-.209.974s-.111.69-.188,1.065C.2,368.549-.945,375.773,1.087,383.249a52.677,52.677,0,0,0,2.224,6.322,56.876,56.876,0,0,0,3,6.079c.382.733.854,1.425,1.282,2.147s.938,1.4,1.405,2.1c0,0,.185.258.519.7s.788,1.1,1.409,1.823a45.533,45.533,0,0,0,4.795,5.081,44.748,44.748,0,0,0,5.494,4.315c.783.547,1.469.949,1.945,1.237l.748.453c1.108.685,2.224,1.363,3.34,1.93a15.91,15.91,0,0,0,1.494.729c.5.22,1,.44,1.5.639,1.017.355,2,.734,3.015.987a52.089,52.089,0,0,0,5.956,1.266s.179.038.443.072l.971.142.972.143.1.014.105.012.143.014.124.011c.622.074,1.239.155,1.857.251l2.4.292c.877.076,1.772.108,2.5.1.522-.027,1.05-.1,1.574-.165s1.045-.144,1.554-.231a25.339,25.339,0,0,0,2.625-.277l1.313-.11,1.185-.157c.405-.065.846-.124,1.354-.251s1.091-.293,1.8-.509c.033-.142.372-.324.549-.49l.493-.171,1.378-.263c.459-.11.914-.215,1.342-.3a12.6,12.6,0,0,0,1.139-.663,18.007,18.007,0,0,0,7.342-3.642c.625-.335,1.218-.753,1.85-1.179a22.993,22.993,0,0,0,2.1-1.707c.608-.585,1.172-1.157,1.761-1.747l.528-.479c.42-.349.827-.674,1.2-1s.728-.646,1.083-.941a20.684,20.684,0,0,1,2.084-1.59c.215-.314.4-.635.587-.942a19.293,19.293,0,0,0,2.768-3.522,12.7,12.7,0,0,0,1.669-3.549c.038-.054.065-.106.1-.164l.951-1.593a16.631,16.631,0,0,0,2.687-5.574,31.551,31.551,0,0,0,1.029-3.11c.329-1.3.653-2.611.882-3.974l.184-1.014.134-1,.133-1,.033-.25c.018-.134.018-.185.028-.281l.044-.515a48.356,48.356,0,0,0,.067-8.376c-.046-.5-.094-1.018-.14-1.53a27.721,27.721,0,0,0-.424-3.8,16.642,16.642,0,0,0-.532-2.1,38.825,38.825,0,0,0-1.435-4.879,30.586,30.586,0,0,0-2.068-4.4l-.071-.147c-.178-.4-.349-.812-.536-1.212l-.589-1.189c.01-.106.124-.027.108-.174-.429-.745-.955-1.473-1.437-2.244-.535-.738-1.02-1.528-1.558-2.283-.119-.186.132-.058.123-.108-1.178-1.332-1.672-2.093-1.149-2.1-.2-.162-.495-.47-.8-.785s-.64-.611-.862-.789a15.869,15.869,0,0,0-3.4-3.812,32.754,32.754,0,0,0-4.891-3.536,40.785,40.785,0,0,0-5.477-3.565c-3.468-1.819-5.066-2.223-5.41-1.876l-.756-.284c-.458-.161-1.081-.356-1.7-.559s-1.229-.353-1.691-.489l-.766-.21-.118.431-.1-.033a1.2,1.2,0,0,1,.081.106l-.212.771.323.089a1.079,1.079,0,0,1-.116.141c.719.2,1.429.349,2.071.544s1.269.364,1.875.568l1.79.637c.581.241,1.158.488,1.741.748,2.577,1.478,5.314,3.069,8,4.957.813.575,1.611,1.235,2.5,1.971a50.09,50.09,0,0,1,4.285,4.137,44.5,44.5,0,0,1,3.7,4.684c1.187,1.742,2.276,3.912,3.309,5.655.128.221.251.4.376.589A49.666,49.666,0,0,1,92.178,364.2s.115.621.228,1.243.178,1.252.178,1.252c0,.251,0,.508,0,.743-.032.855-.081,1.622-.092,2.358-.051.739-.069,1.449-.086,2.193-.081,1.489-.078,3.118-.291,5.356l-.083.931-.138.986c-.1.656-.18,1.331-.321,1.95s-.237,1.266-.407,1.9-.337,1.276-.506,1.917a45.279,45.279,0,0,1-2.926,7.416,58.126,58.126,0,0,1-8.827,12.792,42.284,42.284,0,0,1-4.1,4.014l-.573.428c-.357.282-.9.641-1.547,1.076a45.213,45.213,0,0,1-4.94,2.875,46.326,46.326,0,0,1-5.261,2.233c-.729.276-1.36.44-1.79.586l-.681.214a17.143,17.143,0,0,0-2.611.613c-.168-.207-.859-.232-1.838-.139-.989.044-2.268.223-3.636.324-2.729.258-5.79.326-7.306.328-.134.054.008.118-.106.174-.41-.007-.875-.066-1.385-.1s-1.079-.064-1.623-.15l-1.82-.24c-.606-.1-1.207-.223-1.806-.336a24.972,24.972,0,0,1-5.609-1.739c-.545-.107-1.149-.232-1.718-.4s-1.121-.324-1.6-.425c0,0-.244-.09-.593-.265l-1.288-.617c-.475-.214-.924-.476-1.268-.658l-.572-.309a16.433,16.433,0,0,1-1.37-1.33c-.22-.223-.449-.448-.706-.678s-.522-.5-.841-.759a3.449,3.449,0,0,1-1.291-.4,18.6,18.6,0,0,1-1.706-1.017c-.585-.426-1.188-.9-1.755-1.353l-1.487-1.347c-.381-.362-.836-.862-1.346-1.4s-1.015-1.169-1.543-1.754c-.042-.1-.059-.178-.016-.2-.413-.548-.824-1.067-1.251-1.572s-.816-1.041-1.237-1.582a1.182,1.182,0,0,1,.191.132c-.571-.816-1.042-1.574-1.517-2.122a3.953,3.953,0,0,0-1.161-1.115l-.31-.511c-.161-.252-.3-.519-.3-.519-.427-.981-.773-1.844-1.083-2.751-.346-.891-.645-1.826-1.1-2.9a56.289,56.289,0,0,1-2.517-7.222c-.363-1.428-.534-2.392-.764-3.293,0,0-.035-.187-.066-.517s-.085-.8-.146-1.369-.095-1.229-.139-1.939-.06-1.469-.06-2.229c0-.38-.012-.759,0-1.132s.033-.741.049-1.1.031-.7.045-1.025c.031-.325.059-.632.085-.916.054-.567.1-1.039.13-1.37.032-.285.079-.509.074-.5.253-1.109.475-2.185.678-3.247.277-1.025.544-2.027.8-3.045A48.109,48.109,0,0,1,5.815,354.4c.116-.271.237-.555.364-.848s.3-.574.451-.871l.949-1.814c.291-.623.674-1.186.981-1.749s.6-1.1.825-1.588l.035-.077a3.1,3.1,0,0,1,.217-.332l.665-.9a35.634,35.634,0,0,1,2.477-3.14A45.41,45.41,0,0,1,21.806,335a45.936,45.936,0,0,1,10.851-5.37c.787-.253,1.5-.527,2.148-.7l1.69-.424,1.472-.371Zm46.911,17.376-.936-1.176c-.229-.3-.482-.576-.666-.79L82.7,341.9l-.025-.1.313.37c.184.224.445.512.676.823.472.614.945,1.226.945,1.226m-7.2-7.706c0,.006.008.012.012.02l-.2-.178Z" transform="translate(0 -173.138)" fill="#fff"/>
          <path id="Path_4988" data-name="Path 4988" d="M97.161,300.514c2.857-1.244,3.284-4.349,2.774-7.122a6.011,6.011,0,0,0-5.741-4.99,8.221,8.221,0,0,0-7.3,3.529c-2.11,3.121-.155,7.255,3.077,8.495.941.361,1.345-1.149.415-1.506-3.283-1.259-3.447-5.273-1.05-7.43a6.967,6.967,0,0,1,5.581-1.435c3.964.647,5.277,7.447,1.452,9.112-.921.4-.125,1.746.788,1.348" transform="translate(-45.566 -152.757)" fill="#fff"/>
          <path id="Path_4989" data-name="Path 4989" d="M96.952,302.311c3.912,1.034,5.756-6.159,1.926-7.3-2.465-.735-4.567,1.677-4.782,3.993-.15,1.606,1.541,2.811,2.856,3.306.945.355,1.348-1.155.415-1.506a3.608,3.608,0,0,1-1.537-1.166c-.776-1.17,1.062-3.41,2.317-3.216,2.27.35,1.257,4.92-.78,4.382a.781.781,0,0,0-.415,1.506" transform="translate(-49.839 -156.202)" fill="#fff"/>
          <path id="Path_4990" data-name="Path 4990" d="M89.757,49.083C87.443,29.246,86.3,16.972,85.987,0c-.587-.012-1.059.015-1.646,0,.311,17.047,1.345,29.359,3.668,49.282l.272,2.327c2.214,18.947,4.5,38.54,4.285,57.99-.056,4.919-.282,9.916-.5,14.748-.253,5.6-.516,11.394-.516,17.132h1.76c0-5.7.261-11.471.514-17.053.22-4.848.447-9.86.5-14.808.219-19.561-2.077-39.21-4.3-58.211Z" transform="translate(-44.677 0)" fill="#fff"/>
          <path id="Path_4991" data-name="Path 4991" d="M55.088,259.33l-.427-1.446c1.363-.4,2.727-.71,4.046-1.006,3.837-.862,7.461-1.675,10.352-4.7a29.908,29.908,0,0,0,3.173-4.23c.736-1.11,1.495-2.253,2.356-3.318-3.756,2.843-7.146,5.167-12.819,4.058-3.188-.624-7.485-2.771-9.386-6.011a6.423,6.423,0,0,1-.626-5.446c1.1-3.353,4.588-4.72,9.582-3.752,5.472,1.062,11.662,4.754,13.976,8.714,3.985-2.852,15.35-8.257,21.173-5.413,2.215,1.082,3.361,3.177,3.41,6.228.046,2.886-1.458,5.3-4.35,6.986-4.843,2.823-12.764,2.956-17.3.29a6.744,6.744,0,0,1-3.22-3.751c-.538.736-1.044,1.5-1.541,2.248a31.438,31.438,0,0,1-3.34,4.439c-3.205,3.356-7.045,4.218-11.111,5.131-1.3.291-2.635.592-3.95.98m21.22-15.994-.027,1.359a4.773,4.773,0,0,0,2.734,4.288c4.05,2.381,11.42,2.244,15.773-.293a6.459,6.459,0,0,0,3.6-5.658c-.039-2.472-.878-4.074-2.564-4.9-4.9-2.392-15.523,2.392-19.518,5.2m-17.939-8.655c-2.133,0-4.395.62-5.178,3.017a4.971,4.971,0,0,0,.492,4.214c1.591,2.711,5.419,4.715,8.377,5.293,5.237,1.026,8.118-1.12,12.058-4.113-1.935-3.528-7.975-7.147-13.064-8.134a14.324,14.324,0,0,0-2.684-.278" transform="translate(-27.237 -123.517)" fill="#fff"/>
          <path id="Path_4992" data-name="Path 4992" d="M129.608,277.687c-7.054,0-17.8-4.45-22.65-9.4a18.141,18.141,0,0,1-2.782-4.225,10.989,10.989,0,0,0-2.5-3.609l.879-1.226a11.859,11.859,0,0,1,2.955,4.125,17.031,17.031,0,0,0,2.528,3.88c4.655,4.752,15.019,9.02,21.725,8.95l.015,1.508h-.167" transform="translate(-53.859 -137.315)" fill="#fff"/>
          <path id="Path_4993" data-name="Path 4993" d="M4.927,430.264l5.425-12.393q.392-.894.783-1.79l-1.074-.14,6.078,14.471.847,2.015c.166.394.851.667,1.074.14L24.219,418l.878-2.076-1.075-.14,6.055,14.551.87,2.092c.165.4.852.666,1.074.14L38.181,418q.439-1.038.877-2.076H38.043l6.275,14.445.873,2.01a.59.59,0,0,0,1.015,0l6.058-14.257.867-2.041H52.117l6.177,14.471.86,2.014a.59.59,0,0,0,1.015,0l6.264-14.584.884-2.059-1.074-.14,5.971,14.75.843,2.083a.594.594,0,0,0,1.133,0L80.4,417.851l.868-2.066-1.075.14,6.12,14.46.88,2.079c.224.529.909.259,1.075-.14l6.389-15.333q.448-1.074.895-2.148c.291-.7-.846-1-1.133-.313l-6.389,15.333-.895,2.148,1.074-.141-6.12-14.459-.88-2.079c-.224-.53-.907-.257-1.074.141l-6.2,14.765-.868,2.066H74.19q-2.985-7.375-5.971-14.75l-.843-2.083c-.163-.4-.851-.661-1.075-.141l-6.264,14.585-.885,2.059h1.015L53.992,417.5l-.86-2.015a.59.59,0,0,0-1.015,0l-6.058,14.257-.867,2.04h1.015l-6.274-14.444q-.438-1.006-.874-2.011a.59.59,0,0,0-1.015,0L31.884,429.9l-.878,2.075,1.074.141-6.054-14.551-.87-2.092c-.165-.4-.852-.667-1.075-.141L17.923,429.9l-.878,2.075,1.074.141-6.078-14.471q-.423-1.008-.847-2.015c-.167-.4-.846-.663-1.074-.141L4.7,427.881l-.783,1.789c-.3.687.712,1.286,1.015.593" transform="translate(-2.043 -219.379)" fill="#fff"/>
          <path id="Path_4994" data-name="Path 4994" d="M1.93,414.452,8.582,398.22l.929-2.268-1.074.14,6.1,14.279q.432,1.013.865,2.025a.59.59,0,0,0,1.015,0l6.163-14.279.874-2.025-1.074-.14L28.5,410.565l.873,2.082a.594.594,0,0,0,1.133,0l6.127-14.614.872-2.082-1.074.14,6.218,14.46.894,2.079a.59.59,0,0,0,1.015,0l6.1-14.279q.432-1.013.864-2.025H50.509l6.224,14.545.887,2.072c.225.526.909.261,1.075-.14l6.068-14.7.857-2.075H64.486l6.1,14.964.865,2.124a.594.594,0,0,0,1.133,0l6.163-14.965.874-2.123H78.484q3.056,7.259,6.111,14.518l.851,2.021c.167.4.847.664,1.075.14l5.971-13.8.848-1.96c.3-.687-.715-1.286-1.015-.593l-5.971,13.8-.848,1.96,1.075.141-6.112-14.518-.851-2.021a.594.594,0,0,0-1.134,0l-6.162,14.965-.875,2.123H72.58l-6.1-14.965-.865-2.123a.594.594,0,0,0-1.133,0l-6.068,14.7-.857,2.075,1.074-.141L52.41,397.806l-.887-2.073a.59.59,0,0,0-1.015,0l-6.1,14.28-.864,2.024h1.015l-6.217-14.46L37.45,395.5c-.226-.527-.906-.259-1.074.141l-6.126,14.613q-.437,1.042-.873,2.082h1.133q-3.062-7.307-6.126-14.613-.436-1.042-.873-2.082c-.166-.4-.848-.665-1.075-.141l-6.163,14.28L15.4,411.8h1.015l-6.1-14.279L9.452,395.5c-.224-.525-.909-.261-1.074.141L1.725,411.871.8,414.139c-.287.7.85,1,1.133.313" transform="translate(-0.397 -209.348)" fill="#fff"/>
          <path id="Path_4995" data-name="Path 4995" d="M182.745,378.811a1.632,1.632,0,0,0-1.571,1.435,1.228,1.228,0,0,0,1.358,1.452,1.517,1.517,0,0,0,1.58-1.545,1.281,1.281,0,0,0-1.367-1.342" transform="translate(-95.963 -200.663)" fill="#fff"/>
          <line id="Line_32" data-name="Line 32" x2="0.665" y2="0.04" transform="translate(81.991 180.03)" fill="#fff"/>
          <path id="Path_4996" data-name="Path 4996" d="M172.5,382.5a2.057,2.057,0,0,0,1.915-.049,1.177,1.177,0,0,0,.024-1.909,1.8,1.8,0,0,0-1.614-.246,1.189,1.189,0,0,0-1.058.983,1.168,1.168,0,0,0,.733,1.221" transform="translate(-90.983 -201.411)" fill="#fff"/>
          <path id="Path_4997" data-name="Path 4997" d="M166.058,378.9c-1.569,0-1.822,2.295-.232,2.3s1.815-2.3.232-2.3" transform="translate(-87.272 -200.712)" fill="#fff"/>
          <line id="Line_33" data-name="Line 33" x2="0.668" y2="0.013" transform="translate(73.994 179.296)" fill="#fff"/>
          <path id="Path_4998" data-name="Path 4998" d="M156.094,380.909l.431.05-.855-.589a1.269,1.269,0,1,0-.016-.778l.826-.62-.422.029a.959.959,0,0,0,.037,1.908" transform="translate(-82.219 -200.656)" fill="#fff"/>
          <path id="Path_4999" data-name="Path 4999" d="M147.624,378.387c-1.59-.109-2.063,2.243-.392,2.365,1.664.1,2-2.277.392-2.365" transform="translate(-77.436 -200.437)" fill="#fff"/>
          <path id="Path_5000" data-name="Path 5000" d="M139.616,377.178c-1.91-.238-2.637,2.575-.631,2.826a1.569,1.569,0,0,0,1.793-1.255,1.256,1.256,0,0,0-1.162-1.571" transform="translate(-72.989 -199.791)" fill="#fff"/>
          <line id="Line_34" data-name="Line 34" x2="0.663" y2="0.067" transform="translate(61.6 178.889)" fill="#fff"/>
          <path id="Path_5001" data-name="Path 5001" d="M129.092,380.082A2.041,2.041,0,0,0,131,380.1a1.181,1.181,0,0,0,.109-1.906,1.819,1.819,0,0,0-1.608-.309,1.212,1.212,0,0,0-1.1.941,1.15,1.15,0,0,0,.69,1.251" transform="translate(-68.009 -200.149)" fill="#fff"/>
          <path id="Path_5002" data-name="Path 5002" d="M122.837,376.111c-1.6-.1-1.936,2.194-.37,2.279s1.976-2.177.37-2.279" transform="translate(-64.335 -199.232)" fill="#fff"/>
          <line id="Line_35" data-name="Line 35" x2="0.67" y2="0.02" transform="translate(53.631 177.818)" fill="#fff"/>
          <path id="Path_5003" data-name="Path 5003" d="M112.789,377.774c.143.016.284.03.426.052l-.848-.59a1.3,1.3,0,0,0,2.462-.244c.2-1.392-2.012-1.871-2.481-.534l.837-.62-.429.028a.959.959,0,0,0,.034,1.908" transform="translate(-59.279 -198.998)" fill="#fff"/>
          <path id="Path_5004" data-name="Path 5004" d="M104.229,375.455c-1.648,0-1.89,2.382-.252,2.385s1.911-2.369.252-2.385" transform="translate(-54.489 -198.886)" fill="#fff"/>
          <path id="Path_5005" data-name="Path 5005" d="M96.063,374.946c-1.987.02-2.249,2.906-.267,2.884,1.965-.013,2.269-2.9.267-2.884" transform="translate(-50.024 -198.616)" fill="#fff"/>
          <line id="Line_36" data-name="Line 36" y1="0.01" x2="0.668" transform="translate(41.232 178.447)" fill="#fff"/>
          <path id="Path_5006" data-name="Path 5006" d="M85.88,379.137a2.067,2.067,0,0,0,1.923-.191,1.18,1.18,0,0,0-.122-1.906,1.809,1.809,0,0,0-1.622-.125,1.213,1.213,0,0,0-1,1.043,1.146,1.146,0,0,0,.816,1.179" transform="translate(-45.058 -199.591)" fill="#fff"/>
          <path id="Path_5007" data-name="Path 5007" d="M79.3,375.8c-1.571.022-1.787,2.322-.2,2.3s1.782-2.325.2-2.3" transform="translate(-41.325 -199.071)" fill="#fff"/>
          <line id="Line_37" data-name="Line 37" y1="0.003" x2="0.668" transform="translate(33.199 177.927)" fill="#fff"/>
          <path id="Path_5008" data-name="Path 5008" d="M69.37,377.99l.432.04-.869-.569a1.27,1.27,0,1,0-.036-.777l.813-.64c-.14.017-.282.028-.423.039a.959.959,0,0,0,.084,1.907" transform="translate(-36.266 -199.101)" fill="#fff"/>
          <path id="Path_5009" data-name="Path 5009" d="M60.8,375.767c-1.634-.018-1.914,2.364-.267,2.383s1.907-2.367.267-2.383" transform="translate(-31.482 -199.051)" fill="#fff"/>
          <path id="Path_5010" data-name="Path 5010" d="M52.658,375.156c-1.99-.014-2.294,2.868-.315,2.88s2.312-2.859.315-2.88" transform="translate(-27.017 -198.727)" fill="#fff"/>
          <line id="Line_38" data-name="Line 38" y1="0.008" x2="0.667" transform="translate(20.805 178.491)" fill="#fff"/>
          <path id="Path_5011" data-name="Path 5011" d="M42.45,379.228a2.054,2.054,0,0,0,1.908-.182,1.18,1.18,0,0,0-.1-1.906,1.807,1.807,0,0,0-1.628-.133,1.206,1.206,0,0,0-.993,1.047,1.151,1.151,0,0,0,.816,1.174" transform="translate(-22.053 -199.64)" fill="#fff"/>
          <path id="Path_5012" data-name="Path 5012" d="M35.835,375.975a1.179,1.179,0,0,0-.878.387,1.406,1.406,0,0,0-.364.789,1.05,1.05,0,0,0,.213.792,1.09,1.09,0,0,0,.9.336c1.551-.063,1.743-2.364.133-2.3" transform="translate(-18.321 -199.161)" fill="#fff"/>
          <line id="Line_39" data-name="Line 39" x2="0.668" y2="0.047" transform="translate(12.795 177.798)" fill="#fff"/>
          <path id="Path_5013" data-name="Path 5013" d="M25.915,377.751l.422.07-.822-.625a1.272,1.272,0,1,0,.011-.778l.864-.584-.431.008c-1.205.028-1.147,1.741-.044,1.908" transform="translate(-13.281 -199.002)" fill="#fff"/>
          <path id="Path_5014" data-name="Path 5014" d="M17.243,375.383a1.409,1.409,0,0,0-1.014.49,1.189,1.189,0,0,0-.267.881,1.092,1.092,0,0,0,1.23,1.028,1.381,1.381,0,0,0,1.259-1.249,1.021,1.021,0,0,0-1.208-1.15" transform="translate(-8.452 -198.846)" fill="#fff"/>
          <path id="Path_5015" data-name="Path 5015" d="M184.107,462.171a1.641,1.641,0,0,0-1.31,1.667,1.223,1.223,0,0,0,1.586,1.211,1.6,1.6,0,0,0,1.1-.709,1.463,1.463,0,0,0,.2-1.078,1.286,1.286,0,0,0-1.579-1.091" transform="translate(-96.831 -244.801)" fill="#fff"/>
          <path id="Path_5016" data-name="Path 5016" d="M176.072,467.521c.225,0,.452-.012.677-.021" transform="translate(-93.269 -247.644)" fill="#fff"/>
          <path id="Path_5017" data-name="Path 5017" d="M174.25,467.2a2.135,2.135,0,0,0,2-.227,1.17,1.17,0,0,0-.208-1.9,1.833,1.833,0,0,0-1.6-.1,1.242,1.242,0,0,0-1,1.034,1.122,1.122,0,0,0,.82,1.187" transform="translate(-91.866 -246.237)" fill="#fff"/>
          <path id="Path_5018" data-name="Path 5018" d="M167.737,463.7c-1.551-.06-1.923,2.219-.314,2.289,1.609.048,1.871-2.242.314-2.289" transform="translate(-88.135 -245.631)" fill="#fff"/>
          <line id="Line_40" data-name="Line 40" x2="0.671" y2="0.036" transform="translate(74.757 218.978)" fill="#fff"/>
          <path id="Path_5019" data-name="Path 5019" d="M157.682,465.307l.427.064-.836-.616a1.276,1.276,0,1,0,0-.778l.855-.594-.43.015a.958.958,0,0,0-.019,1.908" transform="translate(-83.073 -245.377)" fill="#fff"/>
          <path id="Path_5020" data-name="Path 5020" d="M149.1,462.808c-1.647,0-1.892,2.387-.243,2.385,1.594.016,1.958-2.36.243-2.385" transform="translate(-78.26 -245.158)" fill="#fff"/>
          <path id="Path_5021" data-name="Path 5021" d="M140.919,462.3c-1.989.009-2.273,2.893-.28,2.883s2.281-2.89.28-2.883" transform="translate(-73.778 -244.888)" fill="#fff"/>
          <line id="Line_41" data-name="Line 41" y1="0.006" x2="0.671" transform="translate(62.306 219.502)" fill="#fff"/>
          <path id="Path_5022" data-name="Path 5022" d="M130.679,466.428a2.077,2.077,0,0,0,1.93-.179,1.177,1.177,0,0,0-.11-1.906,1.823,1.823,0,0,0-1.628-.135,1.216,1.216,0,0,0-1.005,1.037,1.147,1.147,0,0,0,.813,1.183" transform="translate(-68.791 -245.834)" fill="#fff"/>
          <path id="Path_5023" data-name="Path 5023" d="M124.091,463.063c-1.584.02-1.792,2.322-.2,2.3s1.8-2.321.2-2.3" transform="translate(-65.047 -245.293)" fill="#fff"/>
          <line id="Line_42" data-name="Line 42" y1="0.012" x2="0.671" transform="translate(54.243 218.98)" fill="#fff"/>
          <path id="Path_5024" data-name="Path 5024" d="M114.126,465.3l.431.033-.878-.553a1.276,1.276,0,1,0-.052-.777l.809-.654-.427.046a.959.959,0,0,0,.118,1.905" transform="translate(-59.963 -245.343)" fill="#fff"/>
          <path id="Path_5025" data-name="Path 5025" d="M105.474,463.3c-1.645.039-1.835,2.43-.186,2.39s1.842-2.428.186-2.39" transform="translate(-55.166 -245.42)" fill="#fff"/>
          <path id="Path_5026" data-name="Path 5026" d="M97.288,462.975c-1.989.056-2.2,2.946-.212,2.889s2.213-2.943.212-2.889" transform="translate(-50.686 -245.247)" fill="#fff"/>
          <line id="Line_43" data-name="Line 43" y1="0.022" x2="0.671" transform="translate(41.819 219.92)" fill="#fff"/>
          <path id="Path_5027" data-name="Path 5027" d="M87.142,467.347a2.076,2.076,0,0,0,1.925-.226,1.177,1.177,0,0,0-.156-1.9,1.827,1.827,0,0,0-1.631-.1,1.214,1.214,0,0,0-.98,1.062,1.147,1.147,0,0,0,.841,1.163" transform="translate(-45.714 -246.308)" fill="#fff"/>
          <path id="Path_5028" data-name="Path 5028" d="M80.474,464.158c-1.584.061-1.733,2.365-.146,2.3s1.74-2.363.146-2.3" transform="translate(-41.959 -245.873)" fill="#fff"/>
          <line id="Line_44" data-name="Line 44" y1="0.031" x2="0.671" transform="translate(33.745 219.602)" fill="#fff"/>
          <path id="Path_5029" data-name="Path 5029" d="M70.565,466.64l.432.021-.893-.529a1.276,1.276,0,1,0-.073-.775l.791-.676-.426.058a.959.959,0,0,0,.169,1.9" transform="translate(-36.873 -246.045)" fill="#fff"/>
          <path id="Path_5030" data-name="Path 5030" d="M61.873,464.881c-1.638.077-1.78,2.472-.129,2.394s1.779-2.473.129-2.394" transform="translate(-32.086 -246.255)" fill="#fff"/>
          <path id="Path_5031" data-name="Path 5031" d="M53.7,464.714c-1.972.082-2.171,2.973-.168,2.891s2.156-2.979.168-2.891" transform="translate(-27.612 -246.167)" fill="#fff"/>
          <line id="Line_45" data-name="Line 45" y1="0.02" x2="0.672" transform="translate(21.332 220.769)" fill="#fff"/>
          <path id="Path_5032" data-name="Path 5032" d="M43.568,469.148a2.087,2.087,0,0,0,1.938-.223,1.176,1.176,0,0,0-.16-1.9,1.827,1.827,0,0,0-1.625-.1,1.219,1.219,0,0,0-.988,1.052,1.143,1.143,0,0,0,.834,1.171" transform="translate(-22.636 -247.264)" fill="#fff"/>
          <path id="Path_5033" data-name="Path 5033" d="M36.949,465.863c-1.566.017-1.8,2.318-.2,2.3s1.78-2.328.2-2.3" transform="translate(-18.887 -246.776)" fill="#fff"/>
          <line id="Line_46" data-name="Line 46" y1="0.059" x2="0.67" transform="translate(13.252 220.341)" fill="#fff"/>
          <path id="Path_5034" data-name="Path 5034" d="M27.028,468.241l.431,0-.915-.488a1.181,1.181,0,0,0,1.395.614,1.272,1.272,0,0,0,1.038-1.117,1.14,1.14,0,0,0-1.133-1.192,1.245,1.245,0,0,0-1.407.924l.76-.712-.425.078a.959.959,0,0,0,.256,1.891" transform="translate(-13.786 -246.877)" fill="#fff"/>
          <path id="Path_5035" data-name="Path 5035" d="M18.424,466.619a1.391,1.391,0,0,0-1.34,1.08,1.006,1.006,0,0,0,.1.845,1.118,1.118,0,0,0,.933.452,1.269,1.269,0,0,0,1.385-1.2,1.054,1.054,0,0,0-1.078-1.175" transform="translate(-9.024 -247.177)" fill="#fff"/>
          <path id="Path_5036" data-name="Path 5036" d="M176.849,368.709a1.613,1.613,0,0,0-1.264,1.531,1.171,1.171,0,0,0,1.371,1.36,1.466,1.466,0,0,0,1.106-.657,1.379,1.379,0,0,0,.149-1.08,1.881,1.881,0,0,0-.508-.875.966.966,0,0,0-.854-.279" transform="translate(-93.008 -195.305)" fill="#fff"/>
          <line id="Line_47" data-name="Line 47" x2="0.607" y2="0.015" transform="translate(79.641 175.498)" fill="#fff"/>
          <path id="Path_5037" data-name="Path 5037" d="M167.7,372.861a1.73,1.73,0,0,0,1.722-.12,1.238,1.238,0,0,0-.024-1.908,1.54,1.54,0,0,0-1.5-.189,1.164,1.164,0,0,0-.933,1.026,1.147,1.147,0,0,0,.737,1.191" transform="translate(-88.441 -196.282)" fill="#fff"/>
          <path id="Path_5038" data-name="Path 5038" d="M161.717,369.381c-1.435-.014-1.7,2.278-.233,2.3s1.679-2.286.233-2.3" transform="translate(-85.023 -195.668)" fill="#fff"/>
          <line id="Line_48" data-name="Line 48" x2="0.614" y2="0.015" transform="translate(72.283 174.784)" fill="#fff"/>
          <path id="Path_5039" data-name="Path 5039" d="M152.551,371.315l.395.051-.781-.59a1.171,1.171,0,1,0-.012-.778l.765-.618c-.129.014-.259.019-.39.027-1.077.071-1.013,1.781.024,1.908" transform="translate(-80.383 -195.575)" fill="#fff"/>
          <path id="Path_5040" data-name="Path 5040" d="M144.747,368.872c-1.49-.063-1.835,2.31-.318,2.374s1.818-2.318.318-2.374" transform="translate(-75.987 -195.398)" fill="#fff"/>
          <path id="Path_5041" data-name="Path 5041" d="M137.3,368.013c-1.8-.1-2.255,2.76-.42,2.863s2.231-2.772.42-2.863" transform="translate(-71.89 -194.942)" fill="#fff"/>
          <line id="Line_49" data-name="Line 49" x2="0.614" y2="0.041" transform="translate(60.874 174.865)" fill="#fff"/>
          <path id="Path_5042" data-name="Path 5042" d="M127.709,371.513a1.773,1.773,0,0,0,1.783-.046,1.24,1.24,0,0,0,.035-1.908,1.544,1.544,0,0,0-1.471-.247,1.17,1.17,0,0,0-1,.965,1.152,1.152,0,0,0,.649,1.235" transform="translate(-67.3 -195.594)" fill="#fff"/>
          <path id="Path_5043" data-name="Path 5043" d="M121.936,367.678c-1.458-.079-1.781,2.208-.336,2.282s1.8-2.2.336-2.282" transform="translate(-63.919 -194.765)" fill="#fff"/>
          <line id="Line_50" data-name="Line 50" x2="0.614" y2="0.024" transform="translate(53.55 173.861)" fill="#fff"/>
          <path id="Path_5044" data-name="Path 5044" d="M112.707,369.361l.392.056-.773-.6a1.173,1.173,0,1,0-.007-.779l.775-.611-.394.023c-1.089.066-1.021,1.777.008,1.908" transform="translate(-59.281 -194.545)" fill="#fff"/>
          <path id="Path_5045" data-name="Path 5045" d="M104.886,366.932c-1.507-.037-1.79,2.343-.283,2.379s1.8-2.337.283-2.379" transform="translate(-54.881 -194.371)" fill="#fff"/>
          <path id="Path_5046" data-name="Path 5046" d="M97.405,366.24c-1.818-.037-2.151,2.84-.326,2.876s2.158-2.837.326-2.876" transform="translate(-50.782 -194.004)" fill="#fff"/>
          <line id="Line_51" data-name="Line 51" x2="0.614" y2="0.012" transform="translate(42.149 174.215)" fill="#fff"/>
          <path id="Path_5047" data-name="Path 5047" d="M87.938,370.124A1.765,1.765,0,0,0,89.712,370a1.243,1.243,0,0,0-.049-1.908,1.548,1.548,0,0,0-1.484-.178,1.171,1.171,0,0,0-.949,1.008,1.148,1.148,0,0,0,.709,1.205" transform="translate(-46.204 -194.835)" fill="#fff"/>
          <path id="Path_5048" data-name="Path 5048" d="M82.02,366.543c-1.442-.034-1.725,2.256-.266,2.292s1.718-2.26.266-2.292" transform="translate(-42.796 -194.165)" fill="#fff"/>
          <line id="Line_52" data-name="Line 52" x2="0.613" y2="0.02" transform="translate(34.796 173.404)" fill="#fff"/>
          <path id="Path_5049" data-name="Path 5049" d="M72.833,368.386l.394.055-.777-.6a1.171,1.171,0,1,0-.007-.779l.769-.612-.39.024c-1.079.063-1.025,1.775.01,1.909" transform="translate(-38.158 -194.026)" fill="#fff"/>
          <path id="Path_5050" data-name="Path 5050" d="M65.042,365.893c-1.5-.069-1.844,2.3-.331,2.373s1.833-2.309.331-2.373" transform="translate(-33.761 -193.82)" fill="#fff"/>
          <path id="Path_5051" data-name="Path 5051" d="M57.578,365.032c-1.826-.079-2.212,2.79-.4,2.867s2.228-2.783.4-2.867" transform="translate(-29.664 -193.364)" fill="#fff"/>
          <line id="Line_53" data-name="Line 53" x2="0.612" y2="0.016" transform="translate(23.4 173.574)" fill="#fff"/>
          <path id="Path_5052" data-name="Path 5052" d="M48.078,368.763a1.751,1.751,0,0,0,1.756-.116,1.244,1.244,0,0,0-.025-1.909,1.544,1.544,0,0,0-1.489-.189,1.16,1.16,0,0,0-.242,2.213" transform="translate(-25.09 -194.115)" fill="#fff"/>
          <path id="Path_5053" data-name="Path 5053" d="M42.113,365.249c-1.48.014-1.633,2.318-.2,2.3,1.424,0,1.683-2.3.2-2.3" transform="translate(-21.674 -193.479)" fill="#fff"/>
          <line id="Line_54" data-name="Line 54" x2="0.611" y2="0.001" transform="translate(16.042 173.005)" fill="#fff"/>
          <path id="Path_5054" data-name="Path 5054" d="M32.977,367.519l.4.043-.8-.576a1.062,1.062,0,0,0,1.242.74,1.281,1.281,0,0,0,.7-.348,1.131,1.131,0,0,0,.312-.733,1.174,1.174,0,0,0-.958-1.228,1.121,1.121,0,0,0-1.319.792l.749-.633c-.126.016-.257.024-.385.035-1.077.09-.98,1.8.058,1.908" transform="translate(-17.032 -193.556)" fill="#fff"/>
          <path id="Path_5055" data-name="Path 5055" d="M24.955,365.454a1.218,1.218,0,0,0-1.158,1.359,1.057,1.057,0,0,0,1.146,1.039,1.3,1.3,0,0,0,1.138-1.262.991.991,0,0,0-1.125-1.136" transform="translate(-12.601 -193.586)" fill="#fff"/>
          <path id="Path_5056" data-name="Path 5056" d="M178.261,472.6c-1.859-.069-2.239,2.8-.381,2.87s2.252-2.8.381-2.87" transform="translate(-93.582 -250.344)" fill="#fff"/>
          <line id="Line_55" data-name="Line 55" x2="0.626" y2="0.019" transform="translate(80.084 224.166)" fill="#fff"/>
          <path id="Path_5057" data-name="Path 5057" d="M168.562,476.345a1.829,1.829,0,0,0,1.806-.108,1.227,1.227,0,0,0-.028-1.909,1.605,1.605,0,0,0-1.514-.2,1.178,1.178,0,0,0-.977,1,1.149,1.149,0,0,0,.713,1.211" transform="translate(-88.909 -251.107)" fill="#fff"/>
          <path id="Path_5058" data-name="Path 5058" d="M162.538,472.723c-1.48-.034-1.754,2.259-.272,2.291s1.762-2.255.272-2.291" transform="translate(-85.434 -250.41)" fill="#fff"/>
          <line id="Line_56" data-name="Line 56" x2="0.626" y2="0.01" transform="translate(72.58 223.37)" fill="#fff"/>
          <path id="Path_5059" data-name="Path 5059" d="M153.169,474.627l.4.047-.8-.582a1.2,1.2,0,1,0-.023-.778l.776-.627-.4.032c-1.107.085-1.005,1.794.047,1.908" transform="translate(-80.695 -250.298)" fill="#fff"/>
          <path id="Path_5060" data-name="Path 5060" d="M145.151,472.343c-1.538-.014-1.786,2.371-.247,2.383s1.794-2.369.247-2.383" transform="translate(-76.209 -250.209)" fill="#fff"/>
          <path id="Path_5061" data-name="Path 5061" d="M137.51,471.772c-1.859,0-2.14,2.878-.282,2.881s2.152-2.873.282-2.881" transform="translate(-72.024 -249.907)" fill="#fff"/>
          <line id="Line_57" data-name="Line 57" y1="0.002" x2="0.626" transform="translate(60.959 223.932)" fill="#fff"/>
          <path id="Path_5062" data-name="Path 5062" d="M127.93,475.843a1.83,1.83,0,0,0,1.8-.169,1.227,1.227,0,0,0-.093-1.906,1.6,1.6,0,0,0-1.52-.144,1.18,1.18,0,0,0-.943,1.032,1.15,1.15,0,0,0,.754,1.187" transform="translate(-67.366 -250.824)" fill="#fff"/>
          <path id="Path_5063" data-name="Path 5063" d="M121.779,472.458c-1.492.032-1.65,2.336-.176,2.3s1.678-2.32.176-2.3" transform="translate(-63.871 -250.27)" fill="#fff"/>
          <line id="Line_58" data-name="Line 58" y1="0.025" x2="0.626" transform="translate(53.43 223.444)" fill="#fff"/>
          <path id="Path_5064" data-name="Path 5064" d="M112.5,474.8l.4.025-.831-.538a1.2,1.2,0,1,0-.067-.775l.742-.669-.4.054c-1.1.145-.9,1.846.152,1.9" transform="translate(-59.12 -250.373)" fill="#fff"/>
          <path id="Path_5065" data-name="Path 5065" d="M104.377,472.991c-1.534.072-1.652,2.467-.113,2.393s1.656-2.466.113-2.393" transform="translate(-54.65 -250.552)" fill="#fff"/>
          <path id="Path_5066" data-name="Path 5066" d="M96.744,472.816c-1.844.086-2,2.976-.137,2.891s2-2.979.137-2.891" transform="translate(-50.472 -250.459)" fill="#fff"/>
          <line id="Line_59" data-name="Line 59" y1="0.023" x2="0.627" transform="translate(41.844 224.59)" fill="#fff"/>
          <path id="Path_5067" data-name="Path 5067" d="M87.31,477.275a1.835,1.835,0,0,0,1.809-.229,1.226,1.226,0,0,0-.165-1.9,1.609,1.609,0,0,0-1.518-.093,1.185,1.185,0,0,0-.914,1.058,1.142,1.142,0,0,0,.788,1.166" transform="translate(-45.832 -251.568)" fill="#fff"/>
          <path id="Path_5068" data-name="Path 5068" d="M81.107,474.022c-1.458.021-1.672,2.321-.174,2.3s1.645-2.337.174-2.3" transform="translate(-42.328 -251.099)" fill="#fff"/>
          <line id="Line_60" data-name="Line 60" x2="0.625" y2="0.008" transform="translate(34.313 224.084)" fill="#fff"/>
          <path id="Path_5069" data-name="Path 5069" d="M71.8,476.142l.4.046-.806-.58a1.193,1.193,0,1,0-.019-.778l.77-.629-.4.033c-1.09.081-1.02,1.794.047,1.907" transform="translate(-37.594 -251.099)" fill="#fff"/>
          <path id="Path_5070" data-name="Path 5070" d="M63.82,473.789c-1.54-.026-1.845,2.355-.308,2.381s1.857-2.355.308-2.381" transform="translate(-33.108 -250.975)" fill="#fff"/>
          <path id="Path_5071" data-name="Path 5071" d="M56.18,473.141c-1.863-.031-2.2,2.846-.347,2.876s2.22-2.845.347-2.876" transform="translate(-28.923 -250.632)" fill="#fff"/>
          <line id="Line_61" data-name="Line 61" x2="0.626" y2="0.01" transform="translate(22.686 224.501)" fill="#fff"/>
          <path id="Path_5072" data-name="Path 5072" d="M46.528,477.05a1.82,1.82,0,0,0,1.8-.133,1.228,1.228,0,0,0-.054-1.908,1.61,1.61,0,0,0-1.518-.174,1.172,1.172,0,0,0-.961,1.011,1.155,1.155,0,0,0,.731,1.2" transform="translate(-24.257 -251.474)" fill="#fff"/>
          <path id="Path_5073" data-name="Path 5073" d="M40.449,473.5c-1.483-.024-1.713,2.269-.233,2.294s1.725-2.269.233-2.294" transform="translate(-20.773 -250.82)" fill="#fff"/>
          <line id="Line_62" data-name="Line 62" y1="0.011" x2="0.626" transform="translate(15.168 223.792)" fill="#fff"/>
          <path id="Path_5074" data-name="Path 5074" d="M31.122,475.528l.4.034L30.7,475a1.2,1.2,0,0,0,2.3-.348,1.133,1.133,0,0,0-.987-1.247,1.145,1.145,0,0,0-1.353.817l.75-.649-.395.044c-1.074.11-.973,1.819.1,1.906" transform="translate(-16.03 -250.764)" fill="#fff"/>
          <path id="Path_5075" data-name="Path 5075" d="M23.3,473.044a1.339,1.339,0,0,0-1.387.922,1.075,1.075,0,0,0-.012.844,1.02,1.02,0,0,0,.8.554,1.209,1.209,0,0,0,1.438-1.029,1.039,1.039,0,0,0-.84-1.291" transform="translate(-11.557 -250.574)" fill="#fff"/>
        </g>
      </g>
      <g id="Group_960" data-name="Group 960" transform="translate(152.136 185.095)">
        <g id="Group_959" data-name="Group 959" transform="translate(-6 5)" clip-path="url(#clip-path-3)">
          <path id="Path_5076" data-name="Path 5076" d="M76.279,141.788a39.139,39.139,0,0,0-11.04-25.552,30.812,30.812,0,0,0-7.2-5.479c-1.449-.779-8.675-3.214-9-3.539-.951-.951.113-3.378-.487-4.541s-2.819-1.191-3.942-1.381c-.427-.072-.712.063-1.048-.243.262-.568.847-1.063,1.069-1.652a7.96,7.96,0,0,0,.395-2.661,4.68,4.68,0,0,0-2.366-3.746c-1.113-.638-3.427-.316-4.632.193a7.642,7.642,0,0,0-2.958,2.765c-.491,1.446.508,3.183,1.282,4.337-1.38.1-3.177-.185-3.647.691-.729,1.354-.245,3.363-.392,4.83-.111,1.1-.468.735-1.385.885a55.279,55.279,0,0,0-7.193,2.467,39.841,39.841,0,0,0-7.493,5.323,56.991,56.991,0,0,0-6.481,7.39c-1.678,2.747-5.643,10.945-6.234,18.337-.288,3.6-.2,7.529,1.11,10.844A85.374,85.374,0,0,0,9.15,161.207c1.155,2.152,3.168,3.719,4.732,5.619C22.09,176.8,34.7,177.872,40.89,178.463a24.185,24.185,0,0,0,9.584-1.063,69.7,69.7,0,0,0,7.646-4.265c2.2-1.441,4.112-3.283,6.333-4.732,2-1.3,7.97-10.31,8.475-11.434a60.221,60.221,0,0,0,2.464-7.294,29.025,29.025,0,0,0,.888-7.886m-34.9-42.682-.3.1c-.576.811-2.693.242-3.08-.764a3.143,3.143,0,0,1,1.032-3.354c.834-.468,2.735-.264,3.157.666.394.87.039,2.87-.813,3.354" transform="translate(2.002 -48.257)" fill="#a2ded7"/>
          <path id="Path_5077" data-name="Path 5077" d="M14.661,157.641a1.561,1.561,0,0,0-.095-.487q-.611.86-1.174,1.757a1.166,1.166,0,0,0,1.269-1.27" transform="translate(-5.61 -86.426)" fill="#fff"/>
          <path id="Path_5078" data-name="Path 5078" d="M13.173,166.492a1.092,1.092,0,0,0,1.12-.76,1.843,1.843,0,0,0-.2-1.77,1.155,1.155,0,0,0-1.822.132,1.6,1.6,0,0,0-.1,1.491,1.146,1.146,0,0,0,1.008.907" transform="translate(-4.862 -89.957)" fill="#fff"/>
          <path id="Path_5079" data-name="Path 5079" d="M13.316,173.156c-.027-1.451-2.228-1.622-2.2-.167s2.229,1.626,2.2.167" transform="translate(-4.358 -94.579)" fill="#fff"/>
          <path id="Path_5080" data-name="Path 5080" d="M13.271,181.932a1.223,1.223,0,0,0-.834-1.9,1.185,1.185,0,0,0-.987,1.884l.007.061c.109,1.059,1.681.938,1.814-.047" transform="translate(-4.424 -99.007)" fill="#fff"/>
          <path id="Path_5081" data-name="Path 5081" d="M13.591,190.87c-.019-1.505-2.3-1.7-2.285-.193s2.3,1.708,2.285.193" transform="translate(-4.463 -104.29)" fill="#fff"/>
          <path id="Path_5082" data-name="Path 5082" d="M13.627,198.171c-.018-1.818-2.779-2.067-2.761-.239s2.778,2.069,2.761.239" transform="translate(-4.221 -108.162)" fill="#fff"/>
          <path id="Path_5083" data-name="Path 5083" d="M12.928,205.811a1.608,1.608,0,0,0-.128,1.49,1.139,1.139,0,0,0,.991.921,1.1,1.1,0,0,0,1.134-.743,1.838,1.838,0,0,0-.172-1.771,1.156,1.156,0,0,0-1.824.1" transform="translate(-5.219 -112.908)" fill="#fff"/>
          <path id="Path_5084" data-name="Path 5084" d="M11.641,214.688c.013,1.449,2.213,1.651,2.2.194s-2.213-1.651-2.2-.194" transform="translate(-4.647 -117.518)" fill="#fff"/>
          <path id="Path_5085" data-name="Path 5085" d="M12.9,221.752a1.186,1.186,0,0,0-1,1.879l.007.062c.106,1.061,1.677.945,1.814-.038a1.222,1.222,0,0,0-.818-1.9" transform="translate(-4.67 -121.949)" fill="#fff"/>
          <path id="Path_5086" data-name="Path 5086" d="M11.728,232.4c.017,1.505,2.3,1.7,2.285.193s-2.3-1.708-2.285-.193" transform="translate(-4.695 -127.234)" fill="#fff"/>
          <path id="Path_5087" data-name="Path 5087" d="M11.309,239.662c.028,1.821,2.79,2.051,2.762.225s-2.791-2.057-2.762-.225" transform="translate(-4.464 -131.108)" fill="#fff"/>
          <path id="Path_5088" data-name="Path 5088" d="M16,247.413a1.094,1.094,0,0,0-1.449-.206c.495.745,1.018,1.468,1.565,2.172a.8.8,0,0,0,.077-.2A1.844,1.844,0,0,0,16,247.413" transform="translate(-6.245 -135.849)" fill="#fff"/>
          <path id="Path_5089" data-name="Path 5089" d="M31.342,140.447a1.153,1.153,0,0,0,.05-1.305c-.629.466-1.239.955-1.836,1.461a.942.942,0,0,0,1.786-.156" transform="translate(-14.499 -76.52)" fill="#fff"/>
          <path id="Path_5090" data-name="Path 5090" d="M31.162,148.371c.018-1.444-2.262-1.695-2.28-.237s2.262,1.69,2.28.237" transform="translate(-14.129 -80.928)" fill="#fff"/>
          <path id="Path_5091" data-name="Path 5091" d="M31.02,155.394c.022-1.744-2.733-2.04-2.755-.278s2.733,2.034,2.755.278" transform="translate(-13.789 -84.654)" fill="#fff"/>
          <path id="Path_5092" data-name="Path 5092" d="M30.156,162.731a1.5,1.5,0,0,0-.16,1.433,1.107,1.107,0,0,0,2.12.195,1.7,1.7,0,0,0-.134-1.7,1.186,1.186,0,0,0-1.826.075" transform="translate(-14.685 -89.234)" fill="#fff"/>
          <path id="Path_5093" data-name="Path 5093" d="M28.778,171.252c.008,1.4,2.208,1.608,2.2.207s-2.208-1.611-2.2-.207" transform="translate(-14.072 -93.657)" fill="#fff"/>
          <path id="Path_5094" data-name="Path 5094" d="M30.006,178.061a1.138,1.138,0,0,0-1.012,1.8l.006.06c.1,1.022,1.672.922,1.814-.023a1.168,1.168,0,0,0-.809-1.836" transform="translate(-14.077 -97.921)" fill="#fff"/>
          <path id="Path_5095" data-name="Path 5095" d="M31.066,188.493c-.009-1.444-2.293-1.658-2.284-.2s2.292,1.655,2.284.2" transform="translate(-14.074 -103.004)" fill="#fff"/>
          <path id="Path_5096" data-name="Path 5096" d="M31.055,195.513c-.009-1.745-2.77-2-2.76-.235s2.77,1.991,2.76.235" transform="translate(-13.806 -106.73)" fill="#fff"/>
          <path id="Path_5097" data-name="Path 5097" d="M32.314,204.46a1.705,1.705,0,0,0-.165-1.7,1.185,1.185,0,0,0-1.825.1,1.5,1.5,0,0,0-.134,1.434,1.107,1.107,0,0,0,2.124.164" transform="translate(-14.784 -111.295)" fill="#fff"/>
          <path id="Path_5098" data-name="Path 5098" d="M31.206,211.582c-.008-1.391-2.207-1.578-2.2-.175.023,1.4,2.23,1.575,2.2.175" transform="translate(-14.197 -115.732)" fill="#fff"/>
          <path id="Path_5099" data-name="Path 5099" d="M29.36,220.069c.117,1.02,1.686.9,1.814-.049a1.169,1.169,0,0,0-.837-1.825,1.138,1.138,0,0,0-.984,1.813Z" transform="translate(-14.269 -119.994)" fill="#fff"/>
          <path id="Path_5100" data-name="Path 5100" d="M31.554,228.613c-.031-1.445-2.318-1.627-2.287-.17s2.317,1.623,2.287.17" transform="translate(-14.341 -125.077)" fill="#fff"/>
          <path id="Path_5101" data-name="Path 5101" d="M31.656,235.629c-.037-1.745-2.8-1.96-2.763-.2s2.8,1.955,2.763.2" transform="translate(-14.135 -128.803)" fill="#fff"/>
          <path id="Path_5102" data-name="Path 5102" d="M31.039,242.986a1.5,1.5,0,0,0-.112,1.435,1.108,1.108,0,0,0,2.126.137,1.708,1.708,0,0,0-.191-1.7,1.184,1.184,0,0,0-1.823.126" transform="translate(-15.183 -133.355)" fill="#fff"/>
          <path id="Path_5103" data-name="Path 5103" d="M32.051,251.7c-.03-1.392-2.232-1.55-2.2-.148s2.231,1.547,2.2.148" transform="translate(-14.66 -137.802)" fill="#fff"/>
          <path id="Path_5104" data-name="Path 5104" d="M31.2,258.324a1.137,1.137,0,0,0-.962,1.825l.008.059c.13,1.019,1.7.878,1.813-.071a1.169,1.169,0,0,0-.859-1.813" transform="translate(-14.753 -142.062)" fill="#fff"/>
          <path id="Path_5105" data-name="Path 5105" d="M52.444,131.9c-.028-1.424-2.23-1.6-2.2-.167s2.23,1.6,2.2.167" transform="translate(-25.875 -71.898)" fill="#fff"/>
          <path id="Path_5106" data-name="Path 5106" d="M51.572,138.664a1.168,1.168,0,0,0-.985,1.86l.007.06c.117,1.042,1.686.913,1.813-.057a1.2,1.2,0,0,0-.835-1.863" transform="translate(-25.947 -76.255)" fill="#fff"/>
          <path id="Path_5107" data-name="Path 5107" d="M50.5,149.147c.031,1.479,2.318,1.66,2.287.171s-2.317-1.659-2.287-.171" transform="translate(-26.018 -81.455)" fill="#fff"/>
          <path id="Path_5108" data-name="Path 5108" d="M52.89,156.5c-.037-1.788-2.8-2.006-2.764-.207s2.8,2.007,2.764.207" transform="translate(-25.812 -85.265)" fill="#fff"/>
          <path id="Path_5109" data-name="Path 5109" d="M52.274,164.02a1.566,1.566,0,0,0-.114,1.467,1.128,1.128,0,0,0,1,.9,1.1,1.1,0,0,0,1.127-.744,1.778,1.778,0,0,0-.189-1.74,1.167,1.167,0,0,0-1.823.122" transform="translate(-26.861 -89.924)" fill="#fff"/>
          <path id="Path_5110" data-name="Path 5110" d="M53.261,172.937c-.025-1.424-2.226-1.6-2.2-.165s2.227,1.6,2.2.165" transform="translate(-26.325 -94.469)" fill="#fff"/>
          <path id="Path_5111" data-name="Path 5111" d="M51.39,181.625c.113,1.042,1.683.913,1.813-.056a1.2,1.2,0,0,0-.83-1.864,1.171,1.171,0,0,0-.99,1.86Z" transform="translate(-26.385 -98.826)" fill="#fff"/>
          <path id="Path_5112" data-name="Path 5112" d="M53.557,190.36c-.026-1.479-2.312-1.659-2.286-.171s2.315,1.662,2.286.171" transform="translate(-26.441 -104.027)" fill="#fff"/>
          <path id="Path_5113" data-name="Path 5113" d="M53.65,197.543c-.035-1.792-2.8-2.012-2.763-.218s2.8,2.022,2.763.218" transform="translate(-26.23 -107.836)" fill="#fff"/>
          <path id="Path_5114" data-name="Path 5114" d="M53,205.062a1.557,1.557,0,0,0-.133,1.464,1.131,1.131,0,0,0,.988.907,1.1,1.1,0,0,0,1.135-.731,1.791,1.791,0,0,0-.166-1.747,1.168,1.168,0,0,0-1.825.107" transform="translate(-27.257 -112.499)" fill="#fff"/>
          <path id="Path_5115" data-name="Path 5115" d="M51.692,213.787c.009,1.419,2.208,1.641,2.2.2s-2.209-1.632-2.2-.2" transform="translate(-26.673 -117.035)" fill="#fff"/>
          <path id="Path_5116" data-name="Path 5116" d="M52.88,220.743a1.168,1.168,0,0,0-1.03,1.833l.006.061c.09,1.043,1.663.956,1.815-.011a1.2,1.2,0,0,0-.791-1.883" transform="translate(-26.651 -121.393)" fill="#fff"/>
          <path id="Path_5117" data-name="Path 5117" d="M53.825,231.423c.017-1.482-2.267-1.725-2.28-.239s2.262,1.73,2.28.239" transform="translate(-26.592 -126.589)" fill="#fff"/>
          <path id="Path_5118" data-name="Path 5118" d="M50.931,238.314c-.021,1.784,2.734,2.1,2.755.3s-2.734-2.093-2.755-.3" transform="translate(-26.254 -130.397)" fill="#fff"/>
          <path id="Path_5119" data-name="Path 5119" d="M52.809,246.111a1.56,1.56,0,0,0-.167,1.462,1.132,1.132,0,0,0,.968.93,1.1,1.1,0,0,0,1.152-.7,1.787,1.787,0,0,0-.127-1.747,1.167,1.167,0,0,0-1.826.058" transform="translate(-27.141 -135.088)" fill="#fff"/>
          <path id="Path_5120" data-name="Path 5120" d="M51.308,254.8c-.025,1.424,2.169,1.682,2.194.248s-2.171-1.681-2.194-.248" transform="translate(-26.462 -139.599)" fill="#fff"/>
          <path id="Path_5121" data-name="Path 5121" d="M52.366,261.783a1.168,1.168,0,0,0-1.055,1.819l0,.061c.077,1.046,1.65.977,1.815.014a1.2,1.2,0,0,0-.764-1.894" transform="translate(-26.359 -143.962)" fill="#fff"/>
          <path id="Path_5122" data-name="Path 5122" d="M50.9,272.213c-.026,1.48,2.253,1.746,2.278.257s-2.253-1.747-2.278-.257" transform="translate(-26.239 -149.156)" fill="#fff"/>
          <path id="Path_5123" data-name="Path 5123" d="M54.021,278.463a1.627,1.627,0,0,0-.844-.3c.279.1.562.2.844.3" transform="translate(-27.49 -152.975)" fill="#fff"/>
          <path id="Path_5124" data-name="Path 5124" d="M71.521,130.881c-.01-1.851-2.77-2.119-2.76-.255s2.77,2.118,2.76.255" transform="translate(-36.06 -71.138)" fill="#fff"/>
          <path id="Path_5125" data-name="Path 5125" d="M70.792,138.665a1.666,1.666,0,0,0-.134,1.518,1.148,1.148,0,0,0,.988.941,1.1,1.1,0,0,0,1.136-.756,1.9,1.9,0,0,0-.166-1.8,1.143,1.143,0,0,0-1.825.1" transform="translate(-37.04 -75.978)" fill="#fff"/>
          <path id="Path_5126" data-name="Path 5126" d="M69.477,147.707c.009,1.476,2.208,1.686,2.2.2s-2.208-1.687-2.2-.2" transform="translate(-36.454 -80.673)" fill="#fff"/>
          <path id="Path_5127" data-name="Path 5127" d="M69.7,156.82l.006.063c.1,1.081,1.672.969,1.814-.034a1.248,1.248,0,0,0-.809-1.941A1.212,1.212,0,0,0,69.7,156.82" transform="translate(-36.461 -85.188)" fill="#fff"/>
          <path id="Path_5128" data-name="Path 5128" d="M71.77,165.956c-.009-1.532-2.293-1.749-2.284-.207s2.293,1.749,2.284.207" transform="translate(-36.459 -90.573)" fill="#fff"/>
          <path id="Path_5129" data-name="Path 5129" d="M71.761,173.4c-.01-1.851-2.77-2.113-2.76-.249s2.77,2.112,2.76.249" transform="translate(-36.192 -94.52)" fill="#fff"/>
          <path id="Path_5130" data-name="Path 5130" d="M71.032,181.18A1.666,1.666,0,0,0,70.9,182.7a1.144,1.144,0,0,0,.988.939,1.1,1.1,0,0,0,1.136-.758,1.9,1.9,0,0,0-.166-1.8,1.143,1.143,0,0,0-1.825.1" transform="translate(-37.172 -99.357)" fill="#fff"/>
          <path id="Path_5131" data-name="Path 5131" d="M69.717,190.226c.009,1.476,2.208,1.681,2.2.2s-2.208-1.682-2.2-.2" transform="translate(-36.586 -104.054)" fill="#fff"/>
          <path id="Path_5132" data-name="Path 5132" d="M69.937,199.338l.006.063c.1,1.081,1.672.965,1.814-.038a1.246,1.246,0,0,0-.809-1.939,1.214,1.214,0,0,0-1.011,1.914" transform="translate(-36.593 -108.57)" fill="#fff"/>
          <path id="Path_5133" data-name="Path 5133" d="M72.01,208.471c-.009-1.532-2.293-1.744-2.284-.2s2.293,1.743,2.284.2" transform="translate(-36.591 -113.955)" fill="#fff"/>
          <path id="Path_5134" data-name="Path 5134" d="M72.033,215.909c-.024-1.851-2.786-2.107-2.762-.243s2.786,2.107,2.762.243" transform="translate(-36.34 -117.902)" fill="#fff"/>
          <path id="Path_5135" data-name="Path 5135" d="M73.364,225.39a1.905,1.905,0,0,0-.179-1.8,1.143,1.143,0,0,0-1.824.108,1.663,1.663,0,0,0-.123,1.518,1.152,1.152,0,0,0,1,.937,1.094,1.094,0,0,0,1.13-.76" transform="translate(-37.356 -122.737)" fill="#fff"/>
          <path id="Path_5136" data-name="Path 5136" d="M72.311,232.936c-.019-1.475-2.221-1.678-2.2-.194s2.221,1.679,2.2.194" transform="translate(-36.802 -127.435)" fill="#fff"/>
          <path id="Path_5137" data-name="Path 5137" d="M70.4,241.917c.108,1.08,1.679.963,1.814-.04a1.252,1.252,0,0,0-.824-1.938,1.208,1.208,0,0,0-1,1.916Z" transform="translate(-36.844 -131.95)" fill="#fff"/>
          <path id="Path_5138" data-name="Path 5138" d="M72.537,250.983c-.02-1.532-2.306-1.742-2.285-.2s2.306,1.741,2.285.2" transform="translate(-36.88 -137.336)" fill="#fff"/>
          <path id="Path_5139" data-name="Path 5139" d="M72.586,258.422c-.024-1.852-2.786-2.1-2.762-.241s2.786,2.1,2.762.241" transform="translate(-36.644 -141.282)" fill="#fff"/>
          <path id="Path_5140" data-name="Path 5140" d="M71.915,266.207a1.663,1.663,0,0,0-.122,1.518,1.15,1.15,0,0,0,.995.936,1.1,1.1,0,0,0,1.13-.76,1.9,1.9,0,0,0-.179-1.8,1.143,1.143,0,0,0-1.824.109" transform="translate(-37.66 -146.116)" fill="#fff"/>
          <path id="Path_5141" data-name="Path 5141" d="M70.664,275.256c.019,1.476,2.221,1.676,2.2.192s-2.221-1.677-2.2-.192" transform="translate(-37.106 -150.815)" fill="#fff"/>
          <path id="Path_5142" data-name="Path 5142" d="M72.143,282.557c.371.041.744.074,1.118.1a1.038,1.038,0,0,0-.541-.208,1.063,1.063,0,0,0-.577.1" transform="translate(-37.92 -155.331)" fill="#fff"/>
          <path id="Path_5143" data-name="Path 5143" d="M87.363,134.053c-.1-1.709-2.867-1.805-2.768-.092s2.867,1.811,2.768.092" transform="translate(-44.766 -72.99)" fill="#fff"/>
          <path id="Path_5144" data-name="Path 5144" d="M87.005,141.262a1.432,1.432,0,0,0-.062,1.4,1.121,1.121,0,0,0,1.032.82,1.1,1.1,0,0,0,1.1-.75,1.647,1.647,0,0,0-.252-1.657,1.2,1.2,0,0,0-1.817.182" transform="translate(-45.975 -77.4)" fill="#fff"/>
          <path id="Path_5145" data-name="Path 5145" d="M88.3,149.757c-.065-1.363-2.276-1.454-2.2-.089s2.262,1.46,2.2.089" transform="translate(-45.592 -81.771)" fill="#fff"/>
          <path id="Path_5146" data-name="Path 5146" d="M86.638,158.1c.137.991,1.7.832,1.811-.1a1.131,1.131,0,0,0-.874-1.759,1.12,1.12,0,0,0-.946,1.8Z" transform="translate(-45.761 -85.926)" fill="#fff"/>
          <path id="Path_5147" data-name="Path 5147" d="M86.712,166.285c.06,1.409,2.351,1.542,2.29.118s-2.35-1.536-2.29-.118" transform="translate(-45.931 -90.895)" fill="#fff"/>
          <path id="Path_5148" data-name="Path 5148" d="M89.253,173.259c-.072-1.712-2.84-1.868-2.766-.155.056,1.7,2.817,1.876,2.766.155" transform="translate(-45.807 -94.532)" fill="#fff"/>
          <path id="Path_5149" data-name="Path 5149" d="M88.7,180.459a1.434,1.434,0,0,0-.1,1.4,1.115,1.115,0,0,0,2.127.119,1.643,1.643,0,0,0-.205-1.663,1.2,1.2,0,0,0-1.821.141" transform="translate(-46.897 -98.969)" fill="#fff"/>
          <path id="Path_5150" data-name="Path 5150" d="M89.779,188.975c-.041-1.363-2.244-1.505-2.2-.137s2.244,1.509,2.2.137" transform="translate(-46.407 -103.323)" fill="#fff"/>
          <path id="Path_5151" data-name="Path 5151" d="M88.006,197.289c.125.995,1.694.865,1.813-.064a1.137,1.137,0,0,0-.852-1.775A1.113,1.113,0,0,0,88,197.23Z" transform="translate(-46.518 -107.485)" fill="#fff"/>
          <path id="Path_5152" data-name="Path 5152" d="M90.238,205.627c-.027-1.415-2.313-1.578-2.286-.157s2.313,1.581,2.286.157" transform="translate(-46.614 -112.453)" fill="#fff"/>
          <path id="Path_5153" data-name="Path 5153" d="M90.321,212.489c-.032-1.711-2.8-1.912-2.762-.194s2.795,1.915,2.762.194" transform="translate(-46.398 -116.095)" fill="#fff"/>
          <path id="Path_5154" data-name="Path 5154" d="M89.685,219.681a1.434,1.434,0,0,0-.116,1.4,1.115,1.115,0,0,0,1,.857,1.1,1.1,0,0,0,1.126-.711,1.642,1.642,0,0,0-.187-1.664,1.2,1.2,0,0,0-1.823.116" transform="translate(-47.434 -120.546)" fill="#fff"/>
          <path id="Path_5155" data-name="Path 5155" d="M90.674,228.205c-.027-1.363-2.228-1.533-2.2-.164s2.229,1.535,2.2.164" transform="translate(-46.9 -124.89)" fill="#fff"/>
          <path id="Path_5156" data-name="Path 5156" d="M88.788,236.5c.109,1,1.679.88,1.814-.046a1.133,1.133,0,0,0-.825-1.784,1.118,1.118,0,0,0-1,1.773Z" transform="translate(-46.954 -129.055)" fill="#fff"/>
          <path id="Path_5157" data-name="Path 5157" d="M90.925,244.859c-.021-1.414-2.306-1.6-2.285-.173s2.307,1.6,2.285.173" transform="translate(-46.992 -134.024)" fill="#fff"/>
          <path id="Path_5158" data-name="Path 5158" d="M90.978,251.723c-.025-1.709-2.787-1.929-2.762-.21s2.787,1.93,2.762.21" transform="translate(-46.759 -137.666)" fill="#fff"/>
          <path id="Path_5159" data-name="Path 5159" d="M90.31,258.911a1.433,1.433,0,0,0-.122,1.4,1.115,1.115,0,0,0,1,.86,1.1,1.1,0,0,0,1.128-.706,1.642,1.642,0,0,0-.18-1.663,1.2,1.2,0,0,0-1.824.108" transform="translate(-47.777 -142.123)" fill="#fff"/>
          <path id="Path_5160" data-name="Path 5160" d="M91.278,267.435c-.023-1.36-2.225-1.537-2.2-.166s2.225,1.535,2.2.166" transform="translate(-47.232 -146.464)" fill="#fff"/>
          <path id="Path_5161" data-name="Path 5161" d="M90.381,273.9a1.118,1.118,0,0,0-.992,1.775l.007.058c.112,1,1.682.877,1.814-.05a1.134,1.134,0,0,0-.829-1.783" transform="translate(-47.287 -150.629)" fill="#fff"/>
          <path id="Path_5162" data-name="Path 5162" d="M107.486,129.693a1.117,1.117,0,0,0,.989.877,1.1,1.1,0,0,0,1.135-.7,3.451,3.451,0,0,0,.142-.888q-1-.43-2.029-.8c-.036.034-.073.064-.105.1a1.464,1.464,0,0,0-.132,1.416" transform="translate(-57.292 -70.49)" fill="#fff"/>
          <path id="Path_5163" data-name="Path 5163" d="M108.512,136.438c-.01-1.376-2.21-1.572-2.2-.187s2.209,1.572,2.2.187" transform="translate(-56.711 -74.41)" fill="#fff"/>
          <path id="Path_5164" data-name="Path 5164" d="M107.55,142.965a1.128,1.128,0,0,0-1.009,1.783l.006.059c.1,1.008,1.673.9,1.814-.032a1.147,1.147,0,0,0-.811-1.809" transform="translate(-56.724 -78.62)" fill="#fff"/>
          <path id="Path_5165" data-name="Path 5165" d="M106.34,153.074c.01,1.429,2.294,1.63,2.284.192s-2.294-1.63-2.284-.192" transform="translate(-56.726 -83.641)" fill="#fff"/>
          <path id="Path_5166" data-name="Path 5166" d="M108.623,160.2c-.012-1.726-2.772-1.969-2.76-.231s2.773,1.968,2.76.231" transform="translate(-56.464 -87.321)" fill="#fff"/>
          <path id="Path_5167" data-name="Path 5167" d="M107.9,167.46a1.463,1.463,0,0,0-.132,1.416,1.112,1.112,0,0,0,2.124.167,1.673,1.673,0,0,0-.168-1.683,1.194,1.194,0,0,0-1.824.1" transform="translate(-57.449 -91.83)" fill="#fff"/>
          <path id="Path_5168" data-name="Path 5168" d="M106.6,175.9c.01,1.376,2.21,1.566,2.2.182s-2.209-1.567-2.2-.182" transform="translate(-56.868 -96.211)" fill="#fff"/>
          <path id="Path_5169" data-name="Path 5169" d="M107.836,182.607a1.13,1.13,0,0,0-1.009,1.785l.006.059c.1,1.008,1.674.9,1.815-.036a1.146,1.146,0,0,0-.811-1.807" transform="translate(-56.881 -100.421)" fill="#fff"/>
          <path id="Path_5170" data-name="Path 5170" d="M108.909,192.9c-.011-1.428-2.3-1.625-2.285-.187s2.294,1.624,2.285.187" transform="translate(-56.883 -105.442)" fill="#fff"/>
          <path id="Path_5171" data-name="Path 5171" d="M108.909,199.84c-.012-1.726-2.772-1.962-2.76-.224s2.772,1.961,2.76.224" transform="translate(-56.621 -109.122)" fill="#fff"/>
          <path id="Path_5172" data-name="Path 5172" d="M110.18,208.679a1.671,1.671,0,0,0-.168-1.681,1.194,1.194,0,0,0-1.824.1,1.466,1.466,0,0,0-.132,1.416,1.111,1.111,0,0,0,2.124.162" transform="translate(-57.606 -113.63)" fill="#fff"/>
          <path id="Path_5173" data-name="Path 5173" d="M106.882,215.54c.01,1.376,2.21,1.561,2.2.177s-2.21-1.562-2.2-.177" transform="translate(-57.024 -118.012)" fill="#fff"/>
          <path id="Path_5174" data-name="Path 5174" d="M108.121,222.247a1.132,1.132,0,0,0-1.009,1.787l.006.059c.1,1.008,1.674.895,1.815-.041a1.144,1.144,0,0,0-.811-1.806" transform="translate(-57.037 -122.221)" fill="#fff"/>
          <path id="Path_5175" data-name="Path 5175" d="M109.194,232.543c-.01-1.429-2.294-1.619-2.284-.181s2.294,1.619,2.284.181" transform="translate(-57.04 -127.243)" fill="#fff"/>
          <path id="Path_5176" data-name="Path 5176" d="M109.219,239.479c-.024-1.726-2.785-1.956-2.762-.218s2.786,1.956,2.762.218" transform="translate(-56.791 -130.923)" fill="#fff"/>
          <path id="Path_5177" data-name="Path 5177" d="M108.547,246.74a1.46,1.46,0,0,0-.122,1.416,1.118,1.118,0,0,0,.994.871,1.1,1.1,0,0,0,1.131-.711,1.672,1.672,0,0,0-.179-1.681,1.193,1.193,0,0,0-1.824.106" transform="translate(-57.806 -135.428)" fill="#fff"/>
          <path id="Path_5178" data-name="Path 5178" d="M109.5,255.354c-.019-1.376-2.22-1.559-2.2-.175s2.221,1.559,2.2.175" transform="translate(-57.251 -139.811)" fill="#fff"/>
          <path id="Path_5179" data-name="Path 5179" d="M107.588,263.733c.108,1.007,1.679.894,1.814-.042a1.148,1.148,0,0,0-.823-1.8,1.127,1.127,0,0,0-1,1.788Z" transform="translate(-57.293 -144.021)" fill="#fff"/>
          <path id="Path_5180" data-name="Path 5180" d="M107.433,272c.02,1.429,2.306,1.619,2.286.181s-2.306-1.618-2.286-.181" transform="translate(-57.327 -149.041)" fill="#fff"/>
          <path id="Path_5181" data-name="Path 5181" d="M107.487,278.172q.61-.213,1.21-.45a1.285,1.285,0,0,0-1.21.45" transform="translate(-57.357 -152.726)" fill="#fff"/>
          <path id="Path_5182" data-name="Path 5182" d="M126.715,140.514c-.048-1.466-2.253-1.617-2.2-.145s2.252,1.621,2.2.145" transform="translate(-66.719 -76.628)" fill="#fff"/>
          <path id="Path_5183" data-name="Path 5183" d="M125.939,147.479a1.2,1.2,0,0,0-.96,1.917l.008.063c.13,1.07,1.7.928,1.813-.069a1.242,1.242,0,0,0-.861-1.91" transform="translate(-66.853 -81.104)" fill="#fff"/>
          <path id="Path_5184" data-name="Path 5184" d="M125,158.257c.049,1.518,2.339,1.7,2.289.168s-2.339-1.7-2.289-.168" transform="translate(-66.988 -86.448)" fill="#fff"/>
          <path id="Path_5185" data-name="Path 5185" d="M127.427,165.806c-.027-1.84-2.789-2.059-2.762-.212s2.79,2.064,2.762.212" transform="translate(-66.804 -90.363)" fill="#fff"/>
          <path id="Path_5186" data-name="Path 5186" d="M126.77,173.543a1.644,1.644,0,0,0-.12,1.508,1.143,1.143,0,0,0,1,.923,1.1,1.1,0,0,0,1.129-.762,1.88,1.88,0,0,0-.182-1.791,1.148,1.148,0,0,0-1.824.123" transform="translate(-67.828 -95.153)" fill="#fff"/>
          <path id="Path_5187" data-name="Path 5187" d="M127.734,182.715c-.022-1.467-2.223-1.654-2.2-.181s2.224,1.656,2.2.181" transform="translate(-67.281 -99.825)" fill="#fff"/>
          <path id="Path_5188" data-name="Path 5188" d="M125.845,191.635c.111,1.072,1.681.954,1.814-.042a1.24,1.24,0,0,0-.827-1.923,1.2,1.2,0,0,0-.994,1.9Z" transform="translate(-67.333 -104.306)" fill="#fff"/>
          <path id="Path_5189" data-name="Path 5189" d="M127.992,200.634c-.022-1.523-2.309-1.73-2.286-.2s2.309,1.733,2.286.2" transform="translate(-67.376 -109.65)" fill="#fff"/>
          <path id="Path_5190" data-name="Path 5190" d="M128.02,208.02c-.009-1.839-2.768-2.1-2.76-.249s2.768,2.1,2.76.249" transform="translate(-67.131 -113.567)" fill="#fff"/>
          <path id="Path_5191" data-name="Path 5191" d="M129.269,217.439a1.881,1.881,0,0,0-.163-1.793,1.148,1.148,0,0,0-1.825.1,1.643,1.643,0,0,0-.136,1.507,1.144,1.144,0,0,0,.987.935,1.1,1.1,0,0,0,1.137-.749" transform="translate(-68.105 -118.37)" fill="#fff"/>
          <path id="Path_5192" data-name="Path 5192" d="M125.954,224.721c.006,1.464,2.206,1.679,2.2.2s-2.206-1.677-2.2-.2" transform="translate(-67.513 -123.032)" fill="#fff"/>
          <path id="Path_5193" data-name="Path 5193" d="M126.161,233.765l.006.063c.1,1.073,1.671.969,1.814-.026a1.239,1.239,0,0,0-.807-1.93,1.2,1.2,0,0,0-1.014,1.892" transform="translate(-67.514 -127.514)" fill="#fff"/>
          <path id="Path_5194" data-name="Path 5194" d="M128.224,242.844c-.007-1.522-2.291-1.749-2.284-.219s2.29,1.75,2.284.219" transform="translate(-67.505 -132.858)" fill="#fff"/>
          <path id="Path_5195" data-name="Path 5195" d="M128.195,250.232c0-1.838-2.761-2.117-2.759-.267s2.761,2.116,2.759.267" transform="translate(-67.228 -136.776)" fill="#fff"/>
          <path id="Path_5196" data-name="Path 5196" d="M127.43,257.954a1.642,1.642,0,0,0-.14,1.507,1.145,1.145,0,0,0,.983.939,1.1,1.1,0,0,0,1.139-.744,1.877,1.877,0,0,0-.157-1.792,1.148,1.148,0,0,0-1.825.09" transform="translate(-68.185 -141.585)" fill="#fff"/>
          <path id="Path_5197" data-name="Path 5197" d="M126.074,266.925a1.26,1.26,0,0,0,.092.482c.566-.388,1.117-.794,1.658-1.214a1.029,1.029,0,0,0-1.75.732" transform="translate(-67.579 -146.244)" fill="#fff"/>
          <path id="Path_5198" data-name="Path 5198" d="M142.713,156.16a1.153,1.153,0,0,0,2.12.624c-.377-.56-.772-1.106-1.179-1.643a.921.921,0,0,0-.941,1.018" transform="translate(-76.729 -85.32)" fill="#fff"/>
          <path id="Path_5199" data-name="Path 5199" d="M143.222,165.149c.133,1.059,1.7.906,1.812-.082a1.223,1.223,0,0,0-.867-1.883,1.185,1.185,0,0,0-.954,1.9Z" transform="translate(-76.88 -89.741)" fill="#fff"/>
          <path id="Path_5200" data-name="Path 5200" d="M143.266,173.859c.054,1.5,2.344,1.655,2.289.142s-2.344-1.655-2.289-.142" transform="translate(-77.033 -95.029)" fill="#fff"/>
          <path id="Path_5201" data-name="Path 5201" d="M145.778,181.3c-.066-1.817-2.833-2-2.766-.171s2.833,2,2.766.171" transform="translate(-76.893 -98.902)" fill="#fff"/>
          <path id="Path_5202" data-name="Path 5202" d="M145.285,188.954a1.609,1.609,0,0,0-.088,1.494,1.142,1.142,0,0,0,1.016.9,1.1,1.1,0,0,0,1.112-.773,1.841,1.841,0,0,0-.22-1.767,1.156,1.156,0,0,0-1.821.151" transform="translate(-78.018 -103.623)" fill="#fff"/>
          <path id="Path_5203" data-name="Path 5203" d="M146.437,198.01c-.053-1.448-2.258-1.594-2.2-.136s2.258,1.593,2.2.136" transform="translate(-77.564 -108.257)" fill="#fff"/>
          <path id="Path_5204" data-name="Path 5204" d="M144.741,206.869c.133,1.059,1.7.9,1.812-.084a1.223,1.223,0,0,0-.867-1.882,1.186,1.186,0,0,0-.953,1.9Z" transform="translate(-77.715 -112.684)" fill="#fff"/>
          <path id="Path_5205" data-name="Path 5205" d="M144.784,215.578c.054,1.5,2.344,1.654,2.289.14s-2.345-1.653-2.289-.14" transform="translate(-77.868 -117.971)" fill="#fff"/>
          <path id="Path_5206" data-name="Path 5206" d="M147.3,223.013c-.066-1.816-2.833-2-2.766-.169s2.833,2,2.766.169" transform="translate(-77.728 -121.845)" fill="#fff"/>
          <path id="Path_5207" data-name="Path 5207" d="M146.8,230.673a1.608,1.608,0,0,0-.088,1.493,1.141,1.141,0,0,0,1.016.9,1.1,1.1,0,0,0,1.113-.775,1.839,1.839,0,0,0-.22-1.766,1.155,1.155,0,0,0-1.82.152" transform="translate(-78.853 -126.566)" fill="#fff"/>
          <path id="Path_5208" data-name="Path 5208" d="M147.955,239.728c-.053-1.449-2.258-1.592-2.2-.135s2.257,1.591,2.2.135" transform="translate(-78.4 -131.199)" fill="#fff"/>
          <path id="Path_5209" data-name="Path 5209" d="M146.05,248.055q.5-.7.971-1.426a1.165,1.165,0,0,0-.971,1.426" transform="translate(-78.552 -135.632)" fill="#fff"/>
          <path id="Path_5210" data-name="Path 5210" d="M78,120.173c4.15,1.977,3.157-6.137,2.837-8.092a.59.59,0,0,0-.424-.424,57.679,57.679,0,0,0-15.5-.828.612.612,0,0,0-.586.446c-.5,2.628-1.018,6.312,1.345,8.227,1.822,1.477,3.214-1.281,3.538-2.66H68.039c.65,3.84,4.844,3.488,5.673-.055H72.541c.971,3.716,4.995,4.062,5.381-.1H76.708a4.646,4.646,0,0,0,.683,2.777.608.608,0,0,0,1.049-.613,2.841,2.841,0,0,1-.518-2.164c.029-.793-1.143-.766-1.214,0-.266,2.868-2.442,1.9-3-.218a.611.611,0,0,0-1.171,0c-.571,2.44-2.9,2.622-3.33.054-.1-.6-1.04-.56-1.171,0a4.563,4.563,0,0,1-.5,1.454c-1.018,2.033-2.129-1.031-2.267-1.59A11.761,11.761,0,0,1,65.5,111.6l-.586.446a58.654,58.654,0,0,1,14.548.653c.857.16.942,7.281-.85,6.428-.7-.335-1.32.712-.613,1.049" transform="translate(-33.389 -60.856)" fill="#fff"/>
          <path id="Path_5211" data-name="Path 5211" d="M29.318,123.613l-2.486.625c-.62.163-1.219.4-1.677.541l-.759.255c-.181.029-.375.058-.578.1l-.635.177c-.562.162-1.1.35-1.635.557l-.4.16-.378.194-.751.405c-.495.283-1,.554-1.49.877l-1.481,1.027-.663.452-.627.5-1.248.988-.167.121a5.555,5.555,0,0,0-.451.366l-1.578,1.347c-.642.569-1.329,1.3-2.1,2.051-.372.387-.719.82-1.091,1.243l-.556.645a7.3,7.3,0,0,0-.537.667l-1.014,1.375c-.163.23-.339.447-.489.68l-.433.694-.818,1.314c-.274.41-.455.841-.664,1.216-.387.766-.745,1.388-.937,1.851l-.307.724-.618,1q-.155.255-.3.529a6.486,6.486,0,0,0-.244.6,13,13,0,0,0-.443,1.581c-.053.251-.117.5-.163.757s-.086.537-.146.829c-1.3,5.979-2.19,11.6-.609,17.412a40.912,40.912,0,0,0,1.73,4.917,44.155,44.155,0,0,0,2.332,4.728c.3.571.664,1.108,1,1.67S6.633,179.88,7,180.423c0,0,.144.2.4.548s.613.854,1.1,1.418a35.382,35.382,0,0,0,3.73,3.952A34.808,34.808,0,0,0,16.5,189.7c.608.426,1.142.738,1.512.962l.581.352c.862.532,1.73,1.06,2.6,1.5a12.63,12.63,0,0,0,1.162.568c.392.171.778.341,1.167.5.791.275,1.559.571,2.345.768a40.629,40.629,0,0,0,4.632.984s.14.029.345.056l.755.111.756.111.074.011.083.009.111.011.1.009c.483.058.963.121,1.444.195l1.866.228c.682.059,1.379.083,1.945.079.406-.021.817-.075,1.224-.128s.813-.113,1.208-.179a19.869,19.869,0,0,0,2.042-.216l1.022-.086.92-.121c.316-.051.658-.1,1.054-.2s.848-.228,1.4-.4c.026-.11.289-.251.427-.382l.384-.132,1.072-.205c.356-.085.71-.167,1.044-.234a9.837,9.837,0,0,0,.886-.516,14.008,14.008,0,0,0,5.711-2.833c.486-.261.947-.586,1.439-.917a17.963,17.963,0,0,0,1.631-1.327c.473-.455.912-.9,1.37-1.359l.41-.372c.327-.271.643-.524.937-.777s.566-.5.842-.732A16.232,16.232,0,0,1,64.61,183.8c.167-.244.308-.494.457-.732a15.09,15.09,0,0,0,2.152-2.74,9.888,9.888,0,0,0,1.3-2.761c.029-.041.05-.082.077-.126l.74-1.239a12.937,12.937,0,0,0,2.09-4.335,24.619,24.619,0,0,0,.8-2.419c.256-1.014.508-2.03.686-3.091l.143-.789.1-.774.1-.776.025-.194c.014-.1.014-.144.022-.219l.035-.4a37.621,37.621,0,0,0,.052-6.515c-.036-.391-.073-.791-.108-1.19a21.561,21.561,0,0,0-.33-2.955,13.016,13.016,0,0,0-.414-1.636,30.155,30.155,0,0,0-1.117-3.8,23.687,23.687,0,0,0-1.608-3.424l-.055-.114c-.138-.314-.272-.631-.417-.942l-.458-.925c.008-.083.1-.021.084-.135-.334-.578-.743-1.145-1.117-1.745-.415-.574-.793-1.189-1.212-1.775-.093-.145.1-.045.1-.085-.916-1.036-1.3-1.627-.894-1.637-.153-.126-.385-.366-.622-.61s-.5-.475-.671-.613a12.336,12.336,0,0,0-2.643-2.965,25.454,25.454,0,0,0-3.8-2.75,31.63,31.63,0,0,0-4.26-2.773c-2.7-1.415-3.941-1.73-4.208-1.459l-.587-.221c-.356-.125-.841-.276-1.322-.434s-.955-.275-1.315-.38l-.6-.164-.092.335-.078-.026a.856.856,0,0,1,.063.082l-.165.6.251.069a.8.8,0,0,1-.09.109c.559.152,1.112.272,1.61.423s.987.283,1.459.441l1.392.5c.451.188.9.379,1.354.581,2,1.15,4.132,2.387,6.223,3.855.632.448,1.253.962,1.947,1.533a38.894,38.894,0,0,1,3.332,3.218,34.655,34.655,0,0,1,2.875,3.643c.923,1.356,1.77,3.043,2.573,4.4.1.173.2.31.293.458a38.7,38.7,0,0,1,2.926,8.488s.09.483.177.967.138.973.138.973c0,.195,0,.4,0,.577-.025.666-.063,1.261-.072,1.834-.04.575-.054,1.127-.067,1.706-.063,1.158-.061,2.425-.226,4.166l-.065.724-.108.766c-.074.51-.14,1.035-.249,1.517s-.185.985-.317,1.481-.262.992-.393,1.49a35.2,35.2,0,0,1-2.275,5.769,45.224,45.224,0,0,1-6.865,9.949,32.968,32.968,0,0,1-3.187,3.122l-.445.333c-.279.219-.7.5-1.2.837a35.173,35.173,0,0,1-3.842,2.236,36.14,36.14,0,0,1-4.091,1.737c-.568.214-1.058.342-1.393.455l-.53.167a13.438,13.438,0,0,0-2.03.477c-.131-.162-.668-.18-1.43-.108-.769.034-1.764.173-2.828.251-2.122.2-4.5.254-5.682.256-.1.041.006.092-.083.135-.318-.006-.68-.052-1.077-.079s-.84-.05-1.262-.116l-1.416-.187c-.471-.08-.938-.174-1.4-.261a19.469,19.469,0,0,1-4.361-1.353c-.424-.084-.894-.181-1.337-.308s-.872-.252-1.241-.33c0,0-.189-.071-.46-.207l-1-.48c-.369-.166-.718-.37-.986-.511l-.445-.241a12.844,12.844,0,0,1-1.066-1.034c-.171-.174-.349-.349-.549-.527s-.406-.386-.655-.591a2.679,2.679,0,0,1-1-.311,14.725,14.725,0,0,1-1.326-.791c-.455-.331-.924-.7-1.365-1.052l-1.156-1.048c-.3-.282-.65-.67-1.047-1.087s-.789-.91-1.2-1.365c-.033-.08-.046-.139-.012-.153-.322-.426-.641-.829-.973-1.222s-.635-.81-.963-1.231a.944.944,0,0,1,.149.1c-.444-.635-.811-1.224-1.179-1.65a3.1,3.1,0,0,0-.9-.868l-.242-.4c-.125-.2-.229-.4-.229-.4-.333-.762-.6-1.433-.843-2.14-.269-.693-.5-1.419-.852-2.258a43.62,43.62,0,0,1-1.957-5.618c-.282-1.11-.416-1.861-.594-2.561,0,0-.028-.145-.052-.4s-.067-.624-.114-1.064-.074-.956-.108-1.509-.046-1.143-.046-1.733c0-.295-.01-.59,0-.881s.025-.576.038-.853.023-.544.035-.8.045-.491.066-.712c.042-.441.077-.808.1-1.065.024-.222.061-.4.057-.388.2-.863.369-1.7.527-2.525.215-.8.423-1.576.619-2.368a37.278,37.278,0,0,1,1.732-4.87c.09-.211.185-.432.282-.66s.232-.446.351-.678c.242-.46.491-.939.739-1.41.226-.485.524-.922.763-1.361s.464-.852.641-1.234l.027-.061a2.524,2.524,0,0,1,.169-.257l.518-.7a27.971,27.971,0,0,1,1.927-2.442,35.338,35.338,0,0,1,7.02-6.277,35.727,35.727,0,0,1,8.439-4.176c.613-.2,1.166-.41,1.671-.544l1.314-.33,1.145-.288ZM65.8,137.128l-.728-.915c-.177-.232-.375-.448-.518-.614l-.24-.275-.019-.078.243.288c.143.175.346.4.526.64l.735.954m-5.6-5.993a.159.159,0,0,1,.009.016l-.157-.138Z" transform="translate(1.755 -67.98)" fill="#fff"/>
          <path id="Path_5212" data-name="Path 5212" d="M78.574,101.788c2.222-.967,2.555-3.382,2.158-5.539a4.675,4.675,0,0,0-4.465-3.881,6.394,6.394,0,0,0-5.676,2.744c-1.641,2.428-.121,5.642,2.393,6.606.733.281,1.046-.894.323-1.171-2.554-.979-2.681-4.1-.817-5.779a5.42,5.42,0,0,1,4.341-1.117c3.084.5,4.1,5.792,1.13,7.087-.716.312-.1,1.358.613,1.049" transform="translate(-36.691 -50.785)" fill="#fff"/>
          <path id="Path_5213" data-name="Path 5213" d="M78.694,103.412c3.043.8,4.477-4.789,1.5-5.677-1.918-.571-3.552,1.3-3.719,3.106-.116,1.249,1.2,2.187,2.222,2.571.734.276,1.048-.9.323-1.171a2.811,2.811,0,0,1-1.2-.906c-.6-.91.826-2.652,1.8-2.5,1.765.273.978,3.827-.606,3.408a.608.608,0,0,0-.323,1.171" transform="translate(-40.297 -53.691)" fill="#fff"/>
          <path id="Path_5214" data-name="Path 5214" d="M80.957.007a155.2,155.2,0,0,1,.811,21.32c-.043,3.825-.219,7.712-.389,11.471-.2,4.357-.4,8.862-.4,13.324h1.369c0-4.432.2-8.921.4-13.263.171-3.77.347-7.668.39-11.516A156.363,156.363,0,0,0,82.382.007c-.461-.026-.964.028-1.425,0" transform="translate(-42.767 0)" fill="#fff"/>
          <path id="Path_5215" data-name="Path 5215" d="M44.643,67.827,44.31,66.7c1.06-.314,2.121-.552,3.148-.782,2.984-.67,5.8-1.3,8.051-3.657a23.26,23.26,0,0,0,2.468-3.29c.572-.863,1.162-1.752,1.832-2.58-2.921,2.211-5.558,4.019-9.97,3.156-2.479-.485-5.822-2.155-7.3-4.675a4.993,4.993,0,0,1-.486-4.235C42.9,48.03,45.62,46.967,49.5,47.72c4.256.826,9.07,3.7,10.87,6.777,3.1-2.218,11.938-6.422,16.467-4.21,1.722.841,2.615,2.471,2.652,4.844a6.058,6.058,0,0,1-3.383,5.433c-3.767,2.195-9.928,2.3-13.453.225a5.248,5.248,0,0,1-2.5-2.917c-.418.572-.812,1.167-1.2,1.749a24.5,24.5,0,0,1-2.6,3.452c-2.493,2.61-5.479,3.281-8.642,3.991-1.007.226-2.049.46-3.071.763m16.5-12.44-.02,1.056a3.71,3.71,0,0,0,2.127,3.335c3.149,1.851,8.881,1.744,12.267-.228a5.021,5.021,0,0,0,2.8-4.4c-.03-1.923-.682-3.168-1.994-3.809-3.807-1.86-12.074,1.861-15.18,4.046M47.194,48.656c-1.658,0-3.417.483-4.026,2.347a3.864,3.864,0,0,0,.383,3.277c1.238,2.108,4.214,3.667,6.514,4.117,4.074.8,6.314-.871,9.378-3.2-1.5-2.744-6.2-5.558-10.161-6.326a11.158,11.158,0,0,0-2.088-.216" transform="translate(-21.226 -26.113)" fill="#fff"/>
          <path id="Path_5216" data-name="Path 5216" d="M104.358,83.014c-5.486,0-13.842-3.461-17.617-7.313a14.114,14.114,0,0,1-2.163-3.286,8.548,8.548,0,0,0-1.946-2.807l.683-.954a9.205,9.205,0,0,1,2.3,3.209A13.249,13.249,0,0,0,87.58,74.88c3.621,3.7,11.682,7.016,16.9,6.961l.011,1.173h-.131" transform="translate(-43.688 -37.755)" fill="#fff"/>
        </g>
      </g>
    </g>
  </g>
</svg>
