<svg xmlns="http://www.w3.org/2000/svg" xmlns:xlink="http://www.w3.org/1999/xlink" width="453" height="225" viewBox="0 0 453 225">
  <defs>
    <clipPath id="clip-path">
      <rect id="Rectangle_547" data-name="Rectangle 547" width="453" height="225" transform="translate(-0.235 -0.299)" fill="none"/>
    </clipPath>
  </defs>
  <g id="Group_963" data-name="Group 963" transform="translate(0.234 0.299)" opacity="0.5" clip-path="url(#clip-path)">
    <path id="Path_5742" data-name="Path 5742" d="M1977.96,474.724q2.52-1,0-2-2.521,1,0,2" transform="translate(-1527.028 -387.117)" fill="#fff"/>
    <path id="Path_5743" data-name="Path 5743" d="M1384.012,275.933q2.322-.923,0-1.846-2.321.923,0,1.846" transform="translate(-1068.267 -224.439)" fill="#fff"/>
    <path id="Path_5744" data-name="Path 5744" d="M1213.383,262.814q-2.253.9,0,1.792,2.252-.9,0-1.792" transform="translate(-936.479 -215.207)" fill="#fff"/>
    <path id="Path_5745" data-name="Path 5745" d="M1134.118,270.662q1.285,2.045,2.57,0-1.285-2.045-2.57,0" transform="translate(-876.115 -220.797)" fill="#fff"/>
    <path id="Path_5746" data-name="Path 5746" d="M1092.662,236.5q-2.315.921,0,1.842,2.315-.921,0-1.842" transform="translate(-843.195 -193.659)" fill="#fff"/>
    <path id="Path_5747" data-name="Path 5747" d="M952.877,314.05q-1.092-1.737-2.185,0,1.093,1.737,2.185,0" transform="translate(-734.414 -256.457)" fill="#fff"/>
    <path id="Path_5748" data-name="Path 5748" d="M800.64,300q1.07,1.7,2.141,0-1.071-1.7-2.141,0" transform="translate(-618.496 -244.963)" fill="#fff"/>
    <path id="Path_5749" data-name="Path 5749" d="M717.649,253.469q1.294,2.06,2.589,0-1.295-2.059-2.589,0" transform="translate(-554.384 -206.71)" fill="#fff"/>
    <path id="Path_5750" data-name="Path 5750" d="M559.553,234.371q2.206-.877,0-1.755-2.206.877,0,1.755" transform="translate(-431.399 -190.475)" fill="#fff"/>
    <path id="Path_5751" data-name="Path 5751" d="M343.6,213.682q-1.157-1.84-2.314,0,1.157,1.84,2.314,0" transform="translate(-263.633 -174.214)" fill="#fff"/>
    <path id="Path_5752" data-name="Path 5752" d="M74.127,58.78q-1.064-1.693-2.128,0,1.064,1.693,2.128,0" transform="translate(-55.605 -47.411)" fill="#fff"/>
    <path id="Path_5753" data-name="Path 5753" d="M1956.431,107.023q2.412-.959,0-1.919-2.412.96,0,1.919" transform="translate(-1510.438 -86.044)" fill="#fff"/>
    <path id="Path_5754" data-name="Path 5754" d="M1663.16,138.514q2.541-1.011,0-2.021-2.541,1.01,0,2.021" transform="translate(-1283.83 -111.751)" fill="#fff"/>
    <path id="Path_5755" data-name="Path 5755" d="M1516.367,191.822q2.538-1.01,0-2.019-2.538,1.009,0,2.019" transform="translate(-1170.43 -155.412)" fill="#fff"/>
    <path id="Path_5756" data-name="Path 5756" d="M1073,266.686q-2.353.935,0,1.871,2.352-.935,0-1.871" transform="translate(-827.994 -218.378)" fill="#fff"/>
    <path id="Path_5757" data-name="Path 5757" d="M872.823,301.34c0-1.239-1.35-1.122-1.35-.077,0,1.39,1.35.939,1.35.077" transform="translate(-673.216 -246.026)" fill="#fff"/>
    <path id="Path_5758" data-name="Path 5758" d="M771.675,361.877q1.176,1.87,2.352,0-1.176-1.87-2.352,0" transform="translate(-596.12 -295.572)" fill="#fff"/>
    <path id="Path_5759" data-name="Path 5759" d="M609.482,356.85q1.153,1.834,2.306,0-1.153-1.834-2.306,0" transform="translate(-470.822 -291.471)" fill="#fff"/>
    <path id="Path_5760" data-name="Path 5760" d="M556.774,398.948c-.381-.689-2.278-.943-2.278.38,0,1.28,2.759.924,2.278-.38" transform="translate(-428.344 -326.237)" fill="#fff"/>
    <path id="Path_5761" data-name="Path 5761" d="M286.782,459.7c-.767-.131-2.924,1.93-.258,1.93,3.234,0,.311-1.78.258-1.93" transform="translate(-220.33 -376.451)" fill="#fff"/>
    <path id="Path_5762" data-name="Path 5762" d="M249.141,471.531c1.835,0,.788-1.789,0-1.789q-2.249.894,0,1.789" transform="translate(-191.582 -384.679)" fill="#fff"/>
    <path id="Path_5763" data-name="Path 5763" d="M1978.894,246.277q-2.555,1.016,0,2.033,2.555-1.016,0-2.033" transform="translate(-1527.736 -201.663)" fill="#fff"/>
    <path id="Path_5764" data-name="Path 5764" d="M1814.748,284.07q1.066,1.7,2.132,0-1.066-1.7-2.132,0" transform="translate(-1401.917 -231.921)" fill="#fff"/>
    <path id="Path_5765" data-name="Path 5765" d="M1777.566,236.441q2.363-.94,0-1.879-2.363.939,0,1.879" transform="translate(-1372.28 -192.069)" fill="#fff"/>
    <path id="Path_5766" data-name="Path 5766" d="M1696.055,264.353q2.195-.873,0-1.746-2.2.873,0,1.746" transform="translate(-1309.376 -215.037)" fill="#fff"/>
    <path id="Path_5767" data-name="Path 5767" d="M1609.29,220.31q-2.107.838,0,1.677,2.108-.838,0-1.677" transform="translate(-1242.382 -180.397)" fill="#fff"/>
    <path id="Path_5768" data-name="Path 5768" d="M1452.457,169.243c0,1.639,1.352-.117,2.185.331.381-.764-2.185-2.168-2.185-.331" transform="translate(-1122.039 -137.832)" fill="#fff"/>
    <path id="Path_5769" data-name="Path 5769" d="M1383.495,156.508q1.171,1.863,2.342,0-1.171-1.863-2.342,0" transform="translate(-1068.764 -127.381)" fill="#fff"/>
    <path id="Path_5770" data-name="Path 5770" d="M1373.246,142.72q2.323-.924,0-1.848-2.324.924,0,1.848" transform="translate(-1059.949 -115.337)" fill="#fff"/>
    <path id="Path_5771" data-name="Path 5771" d="M1306.828,100.018q-2.29.911,0,1.822,2.29-.911,0-1.822" transform="translate(-1008.653 -81.878)" fill="#fff"/>
    <path id="Path_5772" data-name="Path 5772" d="M1519.22,213.149q1.095,1.741,2.189,0-1.094-1.741-2.189,0" transform="translate(-1173.615 -173.819)" fill="#fff"/>
    <path id="Path_5773" data-name="Path 5773" d="M1451,236.349q2.459-.978,0-1.956-2.459.978,0,1.956" transform="translate(-1119.962 -191.93)" fill="#fff"/>
    <path id="Path_5774" data-name="Path 5774" d="M1403.222,215.207q-2.479.986,0,1.972,2.479-.986,0-1.972" transform="translate(-1083.046 -176.217)" fill="#fff"/>
    <path id="Path_5775" data-name="Path 5775" d="M1317.9,176.43q2.364-.94,0-1.88-2.365.94,0,1.88" transform="translate(-1017.181 -142.919)" fill="#fff"/>
    <path id="Path_5776" data-name="Path 5776" d="M943.253,202.5q1.1,1.755,2.206,0-1.1-1.755-2.206,0" transform="translate(-728.668 -165.095)" fill="#fff"/>
    <path id="Path_5777" data-name="Path 5777" d="M933.976,175.52q1.3,2.071,2.6,0-1.3-2.071-2.6,0" transform="translate(-721.501 -142.866)" fill="#fff"/>
    <path id="Path_5778" data-name="Path 5778" d="M505.148,229.088q-2.315.921,0,1.841,2.315-.921,0-1.841" transform="translate(-389.328 -187.586)" fill="#fff"/>
    <path id="Path_5779" data-name="Path 5779" d="M362.526,224.058q2.17-.863,0-1.726-2.17.863,0,1.726" transform="translate(-279.205 -182.053)" fill="#fff"/>
    <path id="Path_5780" data-name="Path 5780" d="M188.541,202.845q2.432-.967,0-1.935-2.432.967,0,1.935" transform="translate(-144.697 -164.508)" fill="#fff"/>
    <path id="Path_5781" data-name="Path 5781" d="M1793.421,983.011q-1.1-1.754-2.2,0,1.1,1.753,2.2,0" transform="translate(-1383.738 -804.324)" fill="#fff"/>
    <path id="Path_5782" data-name="Path 5782" d="M1726.7,983.338q2.613-1.039,0-2.078-2.613,1.039,0,2.078" transform="translate(-1332.886 -803.609)" fill="#fff"/>
    <path id="Path_5783" data-name="Path 5783" d="M1576.18,999.617q2.269-.9,0-1.805-2.27.9,0,1.805" transform="translate(-1216.741 -817.165)" fill="#fff"/>
    <path id="Path_5784" data-name="Path 5784" d="M1462.035,974.435q-1.219-1.94-2.439,0,1.22,1.94,2.439,0" transform="translate(-1127.554 -797.224)" fill="#fff"/>
    <path id="Path_5785" data-name="Path 5785" d="M1326.332,994.737q-2.128.846,0,1.693,2.129-.846,0-1.693" transform="translate(-1023.782 -814.646)" fill="#fff"/>
    <path id="Path_5786" data-name="Path 5786" d="M1238.679,926.654q1.094,1.74,2.188,0-1.093-1.74-2.187,0" transform="translate(-956.891 -758.175)" fill="#fff"/>
    <path id="Path_5787" data-name="Path 5787" d="M767.537,820.983q-2.629,1.045,0,2.091,2.628-1.045,0-2.091" transform="translate(-591.908 -672.343)" fill="#fff"/>
    <path id="Path_5788" data-name="Path 5788" d="M713.384,822.7q-1.053-1.675-2.106,0,1.053,1.675,2.106,0" transform="translate(-549.462 -673.06)" fill="#fff"/>
    <path id="Path_5789" data-name="Path 5789" d="M671.852,822.309q-1.114-1.772-2.227,0,1.113,1.772,2.227,0" transform="translate(-517.284 -672.704)" fill="#fff"/>
    <path id="Path_5790" data-name="Path 5790" d="M542.918,839q2.242-.892,0-1.784-2.242.892,0,1.784" transform="translate(-418.534 -685.64)" fill="#fff"/>
    <path id="Path_5791" data-name="Path 5791" d="M442.234,814.194q-1.095-1.741-2.19,0,1.095,1.742,2.19,0" transform="translate(-339.928 -666.07)" fill="#fff"/>
    <path id="Path_5792" data-name="Path 5792" d="M260.788,760.176q-1.135-1.8-2.27,0,1.135,1.8,2.27,0" transform="translate(-199.695 -621.803)" fill="#fff"/>
    <path id="Path_5793" data-name="Path 5793" d="M116.582,741.623q1.052,1.673,2.1,0-1.052-1.674-2.1,0" transform="translate(-90.046 -606.662)" fill="#fff"/>
    <path id="Path_5794" data-name="Path 5794" d="M1871.87,1034.734q-1.136-1.807-2.273,0,1.137,1.808,2.273,0" transform="translate(-1444.288 -846.663)" fill="#fff"/>
    <path id="Path_5795" data-name="Path 5795" d="M1782.712,987.821q-2.611,1.038,0,2.077,2.611-1.039,0-2.077" transform="translate(-1376.159 -808.982)" fill="#fff"/>
    <path id="Path_5796" data-name="Path 5796" d="M1752.958,1023.638q-2.456.977,0,1.953,2.456-.976,0-1.953" transform="translate(-1353.234 -838.316)" fill="#fff"/>
    <path id="Path_5797" data-name="Path 5797" d="M1723.625,992.627q-2.617,1.041,0,2.082,2.617-1.041,0-2.082" transform="translate(-1330.511 -812.918)" fill="#fff"/>
    <path id="Path_5798" data-name="Path 5798" d="M1675.642,1005.431q-1.18-1.877-2.359,0,1.179,1.876,2.359,0" transform="translate(-1292.632 -822.636)" fill="#fff"/>
    <path id="Path_5799" data-name="Path 5799" d="M1654.216,990.662q-1.095-1.741-2.189,0,1.094,1.741,2.189,0" transform="translate(-1276.211 -810.596)" fill="#fff"/>
    <path id="Path_5800" data-name="Path 5800" d="M1602.553,1005.157q-2.512,1,0,2,2.512-1,0-2" transform="translate(-1237.021 -823.18)" fill="#fff"/>
    <path id="Path_5801" data-name="Path 5801" d="M1531.5,976.863q2.641-1.05,0-2.1-2.641,1.05,0,2.1" transform="translate(-1182.082 -798.287)" fill="#fff"/>
    <path id="Path_5802" data-name="Path 5802" d="M1483.313,1001.036q-1.247-1.984-2.5,0,1.248,1.985,2.5,0" transform="translate(-1143.948 -818.992)" fill="#fff"/>
    <path id="Path_5803" data-name="Path 5803" d="M1390.238,992.4q-2.143.852,0,1.7,2.143-.853,0-1.7" transform="translate(-1073.146 -812.735)" fill="#fff"/>
    <path id="Path_5804" data-name="Path 5804" d="M1359.941,983.228q-2.422.963,0,1.927,2.422-.963,0-1.927" transform="translate(-1049.632 -805.22)" fill="#fff"/>
    <path id="Path_5805" data-name="Path 5805" d="M1315.994,978.978q-2.472.983,0,1.966,2.472-.983,0-1.966" transform="translate(-1015.663 -801.74)" fill="#fff"/>
    <path id="Path_5806" data-name="Path 5806" d="M1173.668,969.985q-2.539,1.009,0,2.019,2.538-1.009,0-2.019" transform="translate(-905.688 -794.375)" fill="#fff"/>
    <path id="Path_5807" data-name="Path 5807" d="M1133.005,984.384q-1.22-1.941-2.44,0,1.22,1.941,2.44,0" transform="translate(-873.37 -805.372)" fill="#fff"/>
    <path id="Path_5808" data-name="Path 5808" d="M996.81,968.712q-2.253.9,0,1.792,2.253-.9,0-1.792" transform="translate(-769.171 -793.332)" fill="#fff"/>
    <path id="Path_5809" data-name="Path 5809" d="M962.242,936.976q-2.118.842,0,1.685,2.118-.843,0-1.685" transform="translate(-742.519 -767.34)" fill="#fff"/>
    <path id="Path_5810" data-name="Path 5810" d="M868.423,986.881q-1.1-1.748-2.2,0,1.1,1.748,2.2,0" transform="translate(-669.163 -807.497)" fill="#fff"/>
    <path id="Path_5811" data-name="Path 5811" d="M746.009,982.726q-2.127.846,0,1.692,2.126-.846,0-1.692" transform="translate(-575.471 -804.809)" fill="#fff"/>
    <path id="Path_5812" data-name="Path 5812" d="M706.617,949.566q-1.136-1.806-2.271,0,1.136,1.806,2.271,0" transform="translate(-544.107 -776.912)" fill="#fff"/>
    <path id="Path_5813" data-name="Path 5813" d="M544.967,1007.516q-1.188-1.891-2.377,0c0,1.09,2.377,1.424,2.377,0" transform="translate(-419.148 -824.338)" fill="#fff"/>
    <path id="Path_5814" data-name="Path 5814" d="M490.142,993.221q2.547-1.013,0-2.026-2.547,1.013,0,2.026" transform="translate(-377.646 -811.745)" fill="#fff"/>
    <path id="Path_5815" data-name="Path 5815" d="M1866.28,1090.44q-2.1.836,0,1.672,2.1-.836,0-1.672" transform="translate(-1440.914 -893.026)" fill="#fff"/>
    <path id="Path_5816" data-name="Path 5816" d="M1677.358,1086.836q-1.11-1.767-2.221,0,1.111,1.766,2.221,0" transform="translate(-1294.064 -889.351)" fill="#fff"/>
    <path id="Path_5817" data-name="Path 5817" d="M1622.884,1069.728q-2.35.934,0,1.87,2.351-.935,0-1.87" transform="translate(-1252.79 -876.063)" fill="#fff"/>
    <path id="Path_5818" data-name="Path 5818" d="M1270.349,1067.26q2.591-1.031,0-2.061-2.592,1.03,0,2.061" transform="translate(-980.355 -872.354)" fill="#fff"/>
    <path id="Path_5819" data-name="Path 5819" d="M1054.707,1059.924q2.632-1.047,0-2.093-2.632,1.047,0,2.093" transform="translate(-813.752 -866.32)" fill="#fff"/>
    <path id="Path_5820" data-name="Path 5820" d="M923.508,1066.933q2.239-.89,0-1.781-2.239.89,0,1.781" transform="translate(-712.549 -872.315)" fill="#fff"/>
    <path id="Path_5821" data-name="Path 5821" d="M796.206,1069.031q2.637-1.049,0-2.1-2.637,1.049,0,2.1" transform="translate(-614.052 -873.775)" fill="#fff"/>
    <path id="Path_5822" data-name="Path 5822" d="M1979.132,1164.494q-2.226.885,0,1.77,2.225-.885,0-1.77" transform="translate(-1528.047 -953.676)" fill="#fff"/>
    <path id="Path_5823" data-name="Path 5823" d="M1959.21,1216.612q-2.47.982,0,1.964,2.47-.983,0-1.964" transform="translate(-1512.563 -996.36)" fill="#fff"/>
    <path id="Path_5824" data-name="Path 5824" d="M1930,1159.119q-2.383.948,0,1.9,2.383-.948,0-1.9" transform="translate(-1490.034 -949.274)" fill="#fff"/>
    <path id="Path_5825" data-name="Path 5825" d="M1765.651,1186.8q-2.511,1,0,2,2.511-1,0-2" transform="translate(-1363.018 -971.94)" fill="#fff"/>
    <path id="Path_5826" data-name="Path 5826" d="M1536.585,1209.778q-2.452.975,0,1.95,2.452-.975,0-1.95" transform="translate(-1186.082 -990.763)" fill="#fff"/>
    <path id="Path_5827" data-name="Path 5827" d="M1149.53,1220.72q-2.174.865,0,1.729,2.174-.865,0-1.729" transform="translate(-887.182 -999.724)" fill="#fff"/>
    <path id="Path_5828" data-name="Path 5828" d="M1063.213,1197.026q-2.39.95,0,1.9,2.389-.95,0-1.9" transform="translate(-820.416 -980.319)" fill="#fff"/>
    <path id="Path_5829" data-name="Path 5829" d="M790.291,1204.869q-2.007,1.01.229,1.856c3.668,0-.31-2.014-.229-1.856" transform="translate(-609.768 -986.735)" fill="#fff"/>
    <path id="Path_5830" data-name="Path 5830" d="M756.281,1190.677c-1.972,0-1.3,1.966,0,1.966q2.471-.983,0-1.966" transform="translate(-583.269 -975.12)" fill="#fff"/>
    <path id="Path_5831" data-name="Path 5831" d="M713.666,1230.266q-2.356.937,0,1.874,2.356-.937,0-1.874" transform="translate(-550.397 -1007.543)" fill="#fff"/>
    <path id="Path_5832" data-name="Path 5832" d="M342.251,1208.932q-2.238.89,0,1.78,2.238-.89,0-1.78" transform="translate(-263.516 -990.07)" fill="#fff"/>
    <path id="Path_5833" data-name="Path 5833" d="M282,1146.649q-1.319-2.1-2.637,0,1.319,2.1,2.637,0" transform="translate(-215.796 -938.202)" fill="#fff"/>
    <path id="Path_5834" data-name="Path 5834" d="M202.718,1178.77q-2.241.891,0,1.782,2.24-.892,0-1.782" transform="translate(-155.723 -965.368)" fill="#fff"/>
    <path id="Path_5835" data-name="Path 5835" d="M1.733,1189.2q-2.437.969,0,1.938,2.437-.969,0-1.938" transform="translate(-0.381 -973.91)" fill="#fff"/>
    <path id="Path_5836" data-name="Path 5836" d="M1556.534,1072.021q-1.226-1.949-2.45,0,1.225,1.95,2.45,0" transform="translate(-1200.547 -877.143)" fill="#fff"/>
    <path id="Path_5837" data-name="Path 5837" d="M1505.092,1098.656q-2.523,1,0,2.007,2.523-1,0-2.007" transform="translate(-1161.726 -899.755)" fill="#fff"/>
    <path id="Path_5838" data-name="Path 5838" d="M1387.5,1132.041q2.364-.94,0-1.88-2.363.94,0,1.88" transform="translate(-1070.946 -925.557)" fill="#fff"/>
    <path id="Path_5839" data-name="Path 5839" d="M1366.856,1086.594q-2.269.9,0,1.805,2.27-.9,0-1.805" transform="translate(-1055.034 -889.876)" fill="#fff"/>
    <path id="Path_5840" data-name="Path 5840" d="M1160.627,1127.593c.719-1.466-2.851-1.807-2.256-.093-.138.172,1.187.919,2.256.093" transform="translate(-894.799 -922.435)" fill="#fff"/>
    <path id="Path_5841" data-name="Path 5841" d="M687.3,1060.278q-2.111.84,0,1.68,2.112-.84,0-1.68" transform="translate(-530.121 -868.324)" fill="#fff"/>
    <path id="Path_5842" data-name="Path 5842" d="M106.458,934.146q-1.125-1.789-2.249,0,1.125,1.789,2.249,0" transform="translate(-80.488 -764.29)" fill="#fff"/>
    <path id="Path_5843" data-name="Path 5843" d="M1590.809,897.048q-2.132.849,0,1.7,2.134-.848,0-1.7" transform="translate(-1228.096 -734.64)" fill="#fff"/>
    <path id="Path_5844" data-name="Path 5844" d="M1549.84,927.262q-2.639,1.05,0,2.1,2.639-1.05,0-2.1" transform="translate(-1196.25 -759.385)" fill="#fff"/>
    <path id="Path_5845" data-name="Path 5845" d="M1491.705,901.665q-2.544,1.012,0,2.023,2.543-1.012,0-2.023" transform="translate(-1151.376 -738.421)" fill="#fff"/>
    <path id="Path_5846" data-name="Path 5846" d="M1396.7,904.317c0-.815-1.952-1.557-1.952,0s1.952.816,1.952,0" transform="translate(-1077.46 -739.847)" fill="#fff"/>
    <path id="Path_5847" data-name="Path 5847" d="M1356.517,922.127q-1.314-2.09-2.627,0,1.314,2.09,2.627,0" transform="translate(-1045.894 -754.323)" fill="#fff"/>
    <path id="Path_5848" data-name="Path 5848" d="M1134.979,1010.683q2.547-1.013,0-2.026-2.547,1.013,0,2.026" transform="translate(-875.797 -826.047)" fill="#fff"/>
    <path id="Path_5849" data-name="Path 5849" d="M971.888,1004.389q2.558-1.017,0-2.034-2.558,1.017,0,2.034" transform="translate(-749.801 -820.885)" fill="#fff"/>
    <path id="Path_5850" data-name="Path 5850" d="M817.924,997.859q-1.172-1.865-2.344,0,1.172,1.864,2.344,0" transform="translate(-630.038 -816.44)" fill="#fff"/>
    <path id="Path_5851" data-name="Path 5851" d="M775.812,1045.971q-2.443.972,0,1.943,2.443-.972,0-1.943" transform="translate(-598.372 -856.606)" fill="#fff"/>
    <path id="Path_5852" data-name="Path 5852" d="M769.477,1017.95q-1.191-1.9-2.383,0,1.192,1.895,2.383,0" transform="translate(-592.581 -832.881)" fill="#fff"/>
    <path id="Path_5853" data-name="Path 5853" d="M628.1,973.357q-2.415.961,0,1.921,2.415-.96,0-1.921" transform="translate(-484.269 -797.136)" fill="#fff"/>
    <path id="Path_5854" data-name="Path 5854" d="M593.473,1009.747q-2.528,1.006,0,2.011,2.529-1.006,0-2.011" transform="translate(-457.478 -826.939)" fill="#fff"/>
    <path id="Path_5855" data-name="Path 5855" d="M482.026,979.629q2.452-.975,0-1.95-2.452.975,0,1.95" transform="translate(-371.412 -800.676)" fill="#fff"/>
    <path id="Path_5856" data-name="Path 5856" d="M245.723,934.364q2.553-1.015,0-2.031-2.552,1.015,0,2.031" transform="translate(-188.825 -763.538)" fill="#fff"/>
    <path id="Path_5857" data-name="Path 5857" d="M215.44,919.177q2.32-.922,0-1.845c-1.131,0-1.911,1.845,0,1.845" transform="translate(-165.521 -751.252)" fill="#fff"/>
    <path id="Path_5858" data-name="Path 5858" d="M140.876,885.514q-1.155-1.838-2.31,0,1.155,1.838,2.31,0" transform="translate(-107.029 -724.44)" fill="#fff"/>
    <path id="Path_5859" data-name="Path 5859" d="M80.912,886.29q-1.151-1.831-2.3,0,1.151,1.831,2.3,0" transform="translate(-60.712 -725.079)" fill="#fff"/>
    <path id="Path_5860" data-name="Path 5860" d="M58.688,886.608q2.142-.852,0-1.7-2.142.852,0,1.7" transform="translate(-44.494 -724.694)" fill="#fff"/>
    <path id="Path_5861" data-name="Path 5861" d="M36.966,891.667q-1.1-1.747-2.2,0,1.1,1.748,2.2,0" transform="translate(-26.844 -729.517)" fill="#fff"/>
    <path id="Path_5862" data-name="Path 5862" d="M1969.795,112.918q2.6-1.035,0-2.07-2.6,1.035,0,2.07" transform="translate(-1520.688 -90.748)" fill="#fff"/>
    <path id="Path_5863" data-name="Path 5863" d="M1527.307,154.842q-2.584,1.028,0,2.055,2.584-1.028,0-2.055" transform="translate(-1178.864 -126.779)" fill="#fff"/>
    <path id="Path_5864" data-name="Path 5864" d="M1352.75,149.093c-1.821,0-1.646,2.077,0,2.077q2.611-1.039,0-2.077" transform="translate(-1044.008 -122.07)" fill="#fff"/>
    <path id="Path_5865" data-name="Path 5865" d="M1344.308,134.395q2.433-.967,0-1.935-2.432.967,0,1.935" transform="translate(-1037.552 -108.448)" fill="#fff"/>
    <path id="Path_5866" data-name="Path 5866" d="M1119.119,225.366q1.254,1.995,2.507,0c0-1.337-2.507-1.268-2.507,0" transform="translate(-864.528 -183.737)" fill="#fff"/>
    <path id="Path_5867" data-name="Path 5867" d="M1000.063,215.708q1.123,1.787,2.246,0-1.124-1.787-2.246,0" transform="translate(-772.555 -175.896)" fill="#fff"/>
    <path id="Path_5868" data-name="Path 5868" d="M940.4,229.78q-2.619,1.041,0,2.083,2.618-1.041,0-2.083" transform="translate(-725.455 -188.152)" fill="#fff"/>
    <path id="Path_5869" data-name="Path 5869" d="M757.857,219.575q2.489-.99,0-1.98-2.489.99,0,1.98" transform="translate(-584.484 -178.173)" fill="#fff"/>
    <path id="Path_5870" data-name="Path 5870" d="M671.015,253.227q-2.253.9,0,1.792,2.253-.9,0-1.792" transform="translate(-517.487 -207.355)" fill="#fff"/>
    <path id="Path_5871" data-name="Path 5871" d="M568.19,298.42c0-1.1,2.431,2.694,2.431,0q-1.215-1.933-2.431,0" transform="translate(-438.923 -243.576)" fill="#fff"/>
    <path id="Path_5872" data-name="Path 5872" d="M468.445,347.726c-.738,0-1.855,1.678.172,1.678,2.3,0,.606-1.678-.172-1.678" transform="translate(-361.112 -284.749)" fill="#fff"/>
    <path id="Path_5873" data-name="Path 5873" d="M224.139,318.765q-2.328.926,0,1.852,2.328-.926,0-1.852" transform="translate(-172.237 -261.03)" fill="#fff"/>
    <path id="Path_5874" data-name="Path 5874" d="M189.068,273.208c0-.98-1.154-1.148-1.154.052,0,1.375,1.154.856,1.154-.052" transform="translate(-145.152 -223.071)" fill="#fff"/>
    <path id="Path_5875" data-name="Path 5875" d="M36.228,244.322q1.169,1.859,2.337,0-1.168-1.859-2.337,0" transform="translate(-27.971 -199.301)" fill="#fff"/>
    <path id="Path_5876" data-name="Path 5876" d="M1519.765,1.822q2.284-.908,0-1.817-2.285.908,0,1.817" transform="translate(-1173.153 0.032)" fill="#fff"/>
    <path id="Path_5877" data-name="Path 5877" d="M1382.645,39.071q2.147-.854,0-1.707-2.146.854,0,1.707" transform="translate(-1067.278 -30.565)" fill="#fff"/>
    <path id="Path_5878" data-name="Path 5878" d="M1384.914,79.288q1.3,2.067,2.6,0-1.3-2.067-2.6,0" transform="translate(-1069.861 -64.054)" fill="#fff"/>
    <path id="Path_5879" data-name="Path 5879" d="M1296.443,43.577c1.5,0,1.946-2.057,0-2.057q-2.585,1.028,0,2.057" transform="translate(-1000.516 -33.969)" fill="#fff"/>
    <path id="Path_5880" data-name="Path 5880" d="M1175.1,111.113c0,.931,1.912.633,1.912-.436a.953.953,0,0,0-.391-.725c-1.743-1.331-1.522.934-1.522,1.161" transform="translate(-907.767 -89.673)" fill="#fff"/>
    <path id="Path_5881" data-name="Path 5881" d="M1104.787,119.778q2.462-.979,0-1.958-2.462.979,0,1.958" transform="translate(-852.505 -96.458)" fill="#fff"/>
    <path id="Path_5882" data-name="Path 5882" d="M953.964,117.589q2.191-.871,0-1.743-2.191.872,0,1.743" transform="translate(-736.096 -94.841)" fill="#fff"/>
    <path id="Path_5883" data-name="Path 5883" d="M711.607,69.777c0,.679,2.137.838,2.137,0q-1.068-1.7-2.137,0" transform="translate(-549.716 -56.415)" fill="#fff"/>
    <path id="Path_5884" data-name="Path 5884" d="M695.842,34.1q2.32-.922,0-1.845-2.319.922,0,1.845" transform="translate(-536.641 -26.382)" fill="#fff"/>
    <path id="Path_5885" data-name="Path 5885" d="M556.47,61.664c0,.225-3.134,1.923.138,1.923,3.41,0-.138-1.95-.138-1.923" transform="translate(-428.824 -50.466)" fill="#fff"/>
    <path id="Path_5886" data-name="Path 5886" d="M451.483,49.348q1.159,1.845,2.319,0-1.159-1.845-2.319,0" transform="translate(-348.765 -39.625)" fill="#fff"/>
    <path id="Path_5887" data-name="Path 5887" d="M443.77,16.349q-2.5.994,0,1.989,2.5-.995,0-1.989" transform="translate(-341.84 -13.354)" fill="#fff"/>
    <path id="Path_5888" data-name="Path 5888" d="M401.741,35.7q2.231-.887,0-1.774-2.231.887,0,1.774" transform="translate(-309.476 -27.745)" fill="#fff"/>
    <path id="Path_5889" data-name="Path 5889" d="M385.7,27.484q2.326-.925,0-1.851-2.327.926,0,1.851" transform="translate(-297.046 -20.958)" fill="#fff"/>
    <path id="Path_5890" data-name="Path 5890" d="M345.063,32.392q2.3-.913,0-1.827-2.3.913,0,1.827" transform="translate(-265.666 -24.997)" fill="#fff"/>
    <path id="Path_5891" data-name="Path 5891" d="M217.242,37.154q2.495-.992,0-1.985-2.5.992,0,1.985" transform="translate(-166.844 -28.767)" fill="#fff"/>
    <path id="Path_5892" data-name="Path 5892" d="M876.337,105.883q1.116,1.776,2.232,0-1.116-1.776-2.232,0" transform="translate(-676.973 -85.954)" fill="#fff"/>
    <path id="Path_5893" data-name="Path 5893" d="M832.5,104.525q1.192,1.9,2.385,0-1.192-1.9-2.385,0" transform="translate(-643.108 -84.792)" fill="#fff"/>
    <path id="Path_5894" data-name="Path 5894" d="M794.492,178.926q2.334-.929,0-1.857-2.334.929,0,1.857" transform="translate(-612.845 -144.983)" fill="#fff"/>
    <path id="Path_5895" data-name="Path 5895" d="M503.507,52.729q1.211,1.927,2.422,0-1.211-1.927-2.422,0" transform="translate(-388.954 -42.36)" fill="#fff"/>
    <path id="Path_5896" data-name="Path 5896" d="M440.421,5.316c1.424,0,1.836-1.979,0-1.979q-2.489.99,0,1.979" transform="translate(-339.258 -2.697)" fill="#fff"/>
    <path id="Path_5897" data-name="Path 5897" d="M1578.961,1074.686q-2.622,1.043,0,2.085,2.622-1.042,0-2.085" transform="translate(-1218.754 -880.124)" fill="#fff"/>
    <path id="Path_5898" data-name="Path 5898" d="M1486.316,1083.416q-2.509,1,0,2,2.509-1,0-2" transform="translate(-1147.226 -887.273)" fill="#fff"/>
    <path id="Path_5899" data-name="Path 5899" d="M1318.236,1085.2q-1.173-1.866-2.346,0,1.173,1.867,2.346,0" transform="translate(-1016.537 -887.967)" fill="#fff"/>
    <path id="Path_5900" data-name="Path 5900" d="M1240.28,1116.957q-1.276-2.03-2.551,0,1.276,2.03,2.551,0" transform="translate(-956.156 -913.912)" fill="#fff"/>
    <path id="Path_5901" data-name="Path 5901" d="M882.016,1155.3q-1.146-1.824-2.293,0,1.146,1.824,2.293,0" transform="translate(-679.59 -945.4)" fill="#fff"/>
    <path id="Path_5902" data-name="Path 5902" d="M147.978,1169.46q-2.345.933,0,1.865,2.345-.933,0-1.865" transform="translate(-113.394 -957.743)" fill="#fff"/>
    <path id="Path_5903" data-name="Path 5903" d="M168.6,1229.347q-2.638,1.049,0,2.1,2.638-1.049,0-2.1" transform="translate(-129.209 -1006.79)" fill="#fff"/>
    <path id="Path_5904" data-name="Path 5904" d="M341.3,1191.442q2.187-.869,0-1.739-2.186.87,0,1.739" transform="translate(-262.801 -974.321)" fill="#fff"/>
    <path id="Path_5905" data-name="Path 5905" d="M382.192,1227.576q-2.291.911,0,1.822,2.291-.912,0-1.822" transform="translate(-294.351 -1005.34)" fill="#fff"/>
    <path id="Path_5906" data-name="Path 5906" d="M564.846,1195.447q-1.279-2.035-2.559,0,1.279,2.035,2.559,0" transform="translate(-434.363 -978.193)" fill="#fff"/>
    <path id="Path_5907" data-name="Path 5907" d="M628.128,1218.873q-2.368.942,0,1.884,2.368-.942,0-1.884" transform="translate(-484.312 -998.212)" fill="#fff"/>
    <path id="Path_5908" data-name="Path 5908" d="M1213.206,1207.339q-2.4.956,0,1.912,2.4-.956,0-1.912" transform="translate(-936.284 -988.766)" fill="#fff"/>
    <path id="Path_5909" data-name="Path 5909" d="M1388.975,1205.38q-2.267.9,0,1.8,2.267-.9,0-1.8" transform="translate(-1072.122 -987.161)" fill="#fff"/>
    <path id="Path_5910" data-name="Path 5910" d="M1471.581,1224.372q-2.368.942,0,1.883,2.368-.942,0-1.883" transform="translate(-1135.898 -1002.715)" fill="#fff"/>
    <path id="Path_5911" data-name="Path 5911" d="M1891.094,364.959q-1.141-1.815-2.281,0,1.141,1.815,2.281,0" transform="translate(-1459.133 -298.12)" fill="#fff"/>
    <path id="Path_5912" data-name="Path 5912" d="M1838.785,376.074q-1.088-1.731-2.175,0,1.087,1.73,2.175,0" transform="translate(-1418.805 -307.257)" fill="#fff"/>
    <path id="Path_5913" data-name="Path 5913" d="M1583.882,321.7q-1.209-1.923-2.418,0,1.209,1.923,2.418,0" transform="translate(-1221.7 -262.643)" fill="#fff"/>
    <path id="Path_5914" data-name="Path 5914" d="M1557.276,321.364q-2.482.987,0,1.975,2.483-.987,0-1.975" transform="translate(-1202.055 -263.159)" fill="#fff"/>
    <path id="Path_5915" data-name="Path 5915" d="M1449.747,286.01q2.537-1.009,0-2.018-2.537,1.009,0,2.018" transform="translate(-1118.966 -232.552)" fill="#fff"/>
    <path id="Path_5916" data-name="Path 5916" d="M1392.439,304.084q-2.232.888,0,1.775,2.231-.888,0-1.775" transform="translate(-1074.812 -249.007)" fill="#fff"/>
    <path id="Path_5917" data-name="Path 5917" d="M1246.552,251.724q-2.184.869,0,1.737,2.184-.868,0-1.737" transform="translate(-962.13 -206.124)" fill="#fff"/>
    <path id="Path_5918" data-name="Path 5918" d="M1212.536,251.337q2.532-1.007,0-2.014-2.533,1.007,0,2.014" transform="translate(-935.716 -204.158)" fill="#fff"/>
    <path id="Path_5919" data-name="Path 5919" d="M1147.242,247.534q-2.32.923,0,1.845,2.32-.923,0-1.845" transform="translate(-885.357 -202.693)" fill="#fff"/>
    <path id="Path_5920" data-name="Path 5920" d="M1082.033,247.923c-1.332,0-1.437,1.678,0,1.678q2.11-.839,0-1.678" transform="translate(-835.076 -203.011)" fill="#fff"/>
    <path id="Path_5921" data-name="Path 5921" d="M1979.7,836.185q-2.64,1.05,0,2.1,2.638-1.05,0-2.1" transform="translate(-1528.327 -684.793)" fill="#fff"/>
    <path id="Path_5922" data-name="Path 5922" d="M1906,822.474c0-.566-2.127-1.526-2.127.3s2.127.238,2.127-.3" transform="translate(-1470.767 -672.939)" fill="#fff"/>
    <path id="Path_5923" data-name="Path 5923" d="M1842.863,803.744q1.131,1.8,2.261,0-1.13-1.8-2.261,0" transform="translate(-1423.636 -657.488)" fill="#fff"/>
    <path id="Path_5924" data-name="Path 5924" d="M1815.669,787.81q-1.059-1.684-2.117,0,1.059,1.684,2.117,0" transform="translate(-1400.993 -644.485)" fill="#fff"/>
    <path id="Path_5925" data-name="Path 5925" d="M1559.518,871.515c1.5,0-2.169-3-2.169-.32q.77,1.772,2.169.32" transform="translate(-1203.07 -712.555)" fill="#fff"/>
    <path id="Path_5926" data-name="Path 5926" d="M1417.817,874.225q-1.286-2.047-2.573,0,1.286,2.047,2.573,0" transform="translate(-1093.291 -715.11)" fill="#fff"/>
    <path id="Path_5927" data-name="Path 5927" d="M1390.768,857.221q-1.124-1.788-2.248,0,1.124,1.788,2.248,0" transform="translate(-1072.646 -701.29)" fill="#fff"/>
    <path id="Path_5928" data-name="Path 5928" d="M1306.42,878.432q-2.148.854,0,1.708,2.149-.854,0-1.708" transform="translate(-1008.392 -719.393)" fill="#fff"/>
    <path id="Path_5929" data-name="Path 5929" d="M1234.9,883.536q1.491-1.1-.621-1.832c-3.968,0,.765,2.149.621,1.832" transform="translate(-952.266 -722.073)" fill="#fff"/>
    <path id="Path_5930" data-name="Path 5930" d="M1023.586,847.23c-1.131,0-1.783,1.736,0,1.736q2.183-.868,0-1.736" transform="translate(-789.872 -693.839)" fill="#fff"/>
    <path id="Path_5931" data-name="Path 5931" d="M887.738,861.761q-1.31-2.084-2.621,0,1.31,2.084,2.621,0" transform="translate(-683.756 -704.887)" fill="#fff"/>
    <path id="Path_5932" data-name="Path 5932" d="M803.393,836.655q-2.306.917,0,1.834,2.306-.917,0-1.834" transform="translate(-619.732 -685.178)" fill="#fff"/>
    <path id="Path_5933" data-name="Path 5933" d="M722.48,841.337c0-2.318-1.069,1.736-2.5.133.287,1.7,2.5.52,2.5-.133" transform="translate(-556.182 -688.411)" fill="#fff"/>
    <path id="Path_5934" data-name="Path 5934" d="M701.332,850.536c.839.16,3.025-1.991.3-1.991-3.388,0-.368,1.813-.3,1.991" transform="translate(-540.768 -694.916)" fill="#fff"/>
    <path id="Path_5935" data-name="Path 5935" d="M642.55,834.316q2.387-.949,0-1.9-2.387.95,0,1.9" transform="translate(-495.446 -681.707)" fill="#fff"/>
    <path id="Path_5936" data-name="Path 5936" d="M193.84,858.923q2.225-.773.62-1.925c.977,1.106-4.026,1.925-.62,1.925" transform="translate(-148.8 -701.839)" fill="#fff"/>
    <path id="Path_5937" data-name="Path 5937" d="M173.552,815.044q-2.456.977,0,1.954,2.456-.977,0-1.954" transform="translate(-133.108 -667.479)" fill="#fff"/>
    <path id="Path_5938" data-name="Path 5938" d="M43.714,847.5q-2.511,1,0,2,2.511-1,0-2" transform="translate(-32.784 -694.058)" fill="#fff"/>
    <path id="Path_5939" data-name="Path 5939" d="M1596.928,317.457q-1.225-1.949-2.451,0,1.225,1.95,2.451,0" transform="translate(-1231.752 -259.161)" fill="#fff"/>
    <path id="Path_5940" data-name="Path 5940" d="M1576.246,308.54q2.369-.942,0-1.884-2.368.942,0,1.884" transform="translate(-1216.754 -251.113)" fill="#fff"/>
    <path id="Path_5941" data-name="Path 5941" d="M1292.652,297.8q-1.144-1.82-2.289,0,1.145,1.82,2.289,0" transform="translate(-996.818 -243.117)" fill="#fff"/>
    <path id="Path_5942" data-name="Path 5942" d="M1268.007,361.555q-2.159.859,0,1.718,2.16-.859,0-1.718" transform="translate(-978.713 -296.075)" fill="#fff"/>
    <path id="Path_5943" data-name="Path 5943" d="M1196.662,391.065q2.292-.912,0-1.824-2.293.912,0,1.824" transform="translate(-923.546 -318.75)" fill="#fff"/>
    <path id="Path_5944" data-name="Path 5944" d="M1171.966,353.759q-2.365.941,0,1.881,2.365-.94,0-1.881" transform="translate(-904.44 -289.69)" fill="#fff"/>
    <path id="Path_5945" data-name="Path 5945" d="M1119.7,356.09q2.629-1.046,0-2.092-2.63,1.046,0,2.092" transform="translate(-863.958 -289.886)" fill="#fff"/>
    <path id="Path_5946" data-name="Path 5946" d="M1008.185,411.5q1.214,1.931,2.428,0-1.214-1.931-2.428,0" transform="translate(-778.829 -336.186)" fill="#fff"/>
    <path id="Path_5947" data-name="Path 5947" d="M931.437,402.885q2.368-.942,0-1.884-2.368.942,0,1.884" transform="translate(-718.625 -328.381)" fill="#fff"/>
    <path id="Path_5948" data-name="Path 5948" d="M928.177,458.04q1.075,1.71,2.15,0-1.075-1.711-2.15,0" transform="translate(-717.021 -374.395)" fill="#fff"/>
    <path id="Path_5949" data-name="Path 5949" d="M883.8,457.461q1.173,1.865,2.345,0-1.173-1.865-2.345,0" transform="translate(-682.737 -373.858)" fill="#fff"/>
    <path id="Path_5950" data-name="Path 5950" d="M851.212,448.686q2.222-.883,0-1.767-2.221.884,0,1.767" transform="translate(-656.706 -365.988)" fill="#fff"/>
    <path id="Path_5951" data-name="Path 5951" d="M512.849,397.772q1.068,1.7,2.137,0-1.068-1.7-2.137,0" transform="translate(-396.171 -325.041)" fill="#fff"/>
    <path id="Path_5952" data-name="Path 5952" d="M357.849,450.126q-1.237-1.968-2.474,0,1.237,1.968,2.474,0" transform="translate(-274.519 -367.808)" fill="#fff"/>
    <path id="Path_5953" data-name="Path 5953" d="M12.781,416.671q-1.292-2.055-2.583,0,1.292,2.054,2.583,0" transform="translate(-7.862 -340.373)" fill="#fff"/>
    <path id="Path_5954" data-name="Path 5954" d="M1508.782,345.413q1.163,1.849,2.325,0-1.162-1.85-2.325,0" transform="translate(-1165.551 -282.097)" fill="#fff"/>
    <path id="Path_5955" data-name="Path 5955" d="M1302.578,382.678c1.983,0,1.445-2.084,0-2.084q-2.62,1.042,0,2.084" transform="translate(-1005.242 -311.668)" fill="#fff"/>
    <path id="Path_5956" data-name="Path 5956" d="M1191.286,349.149q2.524-1,0-2.008-2.525,1,0,2.008" transform="translate(-919.304 -284.27)" fill="#fff"/>
    <path id="Path_5957" data-name="Path 5957" d="M1101.292,357.121q1.253,1.994,2.507,0-1.254-1.994-2.507,0" transform="translate(-850.756 -291.627)" fill="#fff"/>
    <path id="Path_5958" data-name="Path 5958" d="M797.584,353.633q2.244-.892,0-1.785-2.243.892,0,1.785" transform="translate(-615.269 -288.125)" fill="#fff"/>
    <path id="Path_5959" data-name="Path 5959" d="M658.742,338.55q-2.589,1.03,0,2.06,2.59-1.03,0-2.06" transform="translate(-507.876 -277.234)" fill="#fff"/>
    <path id="Path_5960" data-name="Path 5960" d="M909.373,205.426q-2.553,1.016,0,2.031,2.553-1.016,0-2.031" transform="translate(-701.509 -168.207)" fill="#fff"/>
    <path id="Path_5961" data-name="Path 5961" d="M791.48,191.131q-1.058-1.684-2.117,0,1.058,1.683,2.117,0" transform="translate(-609.784 -155.81)" fill="#fff"/>
    <path id="Path_5962" data-name="Path 5962" d="M576.7,120.27q2.278-.906,0-1.812-2.278.906,0,1.812" transform="translate(-444.617 -96.981)" fill="#fff"/>
    <path id="Path_5963" data-name="Path 5963" d="M561.065,57.53c0,1.2,2.109,1.023,2.109,0,0-1.85-2.109-.383-2.109,0" transform="translate(-433.419 -46.332)" fill="#fff"/>
    <path id="Path_5964" data-name="Path 5964" d="M516.994,60.88q2.4-.954,0-1.907-2.4.954,0,1.907" transform="translate(-398.447 -48.263)" fill="#fff"/>
    <path id="Path_5965" data-name="Path 5965" d="M9.13,56.088q1.13,1.8,2.259,0-1.129-1.8-2.259,0" transform="translate(-7.037 -45.164)" fill="#fff"/>
    <path id="Path_5966" data-name="Path 5966" d="M1271.642,10.062q2.257-.9,0-1.8-2.258.9,0,1.8" transform="translate(-981.483 -6.734)" fill="#fff"/>
    <path id="Path_5967" data-name="Path 5967" d="M1575.681,14.194c.719,0,2.648-2.037,0-2.037-1.9,0-1.477,2.037,0,2.037" transform="translate(-1216.252 -9.921)" fill="#fff"/>
    <path id="Path_5968" data-name="Path 5968" d="M1592.932,53.756q2.261-.9,0-1.8-2.261.9,0,1.8" transform="translate(-1229.686 -42.517)" fill="#fff"/>
    <path id="Path_5969" data-name="Path 5969" d="M1933.962,207.718q2.347-.933,0-1.867-2.347.933,0,1.867" transform="translate(-1493.106 -168.555)" fill="#fff"/>
    <path id="Path_5970" data-name="Path 5970" d="M1972.153,214.211q1.254,2,2.509,0-1.254-2-2.509,0" transform="translate(-1523.516 -174.584)" fill="#fff"/>
    <path id="Path_5971" data-name="Path 5971" d="M1811.88,91.593q2.2-.877,0-1.753-2.2.876,0,1.753" transform="translate(-1398.85 -73.543)" fill="#fff"/>
    <path id="Path_5972" data-name="Path 5972" d="M1798.3,1162.958q-1.264-2.011-2.528,0,1.264,2.011,2.528,0" transform="translate(-1387.256 -951.594)" fill="#fff"/>
    <path id="Path_5973" data-name="Path 5973" d="M1686.323,1133.522q-1.067-1.7-2.135,0,1.068,1.7,2.135,0" transform="translate(-1301.056 -927.615)" fill="#fff"/>
    <path id="Path_5974" data-name="Path 5974" d="M1485.4,1148.995q-2.455.977,0,1.953,2.456-.977,0-1.953" transform="translate(-1146.543 -940.982)" fill="#fff"/>
    <path id="Path_5975" data-name="Path 5975" d="M379.151,927.007q1.073,1.708,2.147,0-1.073-1.708-2.147,0" transform="translate(-292.887 -758.477)" fill="#fff"/>
    <path id="Path_5976" data-name="Path 5976" d="M618.611,863.682q-1.25-1.989-2.5,0,1.251,1.989,2.5,0" transform="translate(-475.943 -706.498)" fill="#fff"/>
    <path id="Path_5977" data-name="Path 5977" d="M720.229,839.261c1.766,0,1.285-1.827,0-1.827-1.721,0-1.291,1.827,0,1.827" transform="translate(-555.5 -685.816)" fill="#fff"/>
    <path id="Path_5978" data-name="Path 5978" d="M734.843,814.829q-2.137.85,0,1.7,2.138-.85,0-1.7" transform="translate(-566.841 -667.303)" fill="#fff"/>
    <path id="Path_5979" data-name="Path 5979" d="M804.917,808.949q-2.205.877,0,1.754,2.205-.877,0-1.754" transform="translate(-620.949 -662.487)" fill="#fff"/>
    <path id="Path_5980" data-name="Path 5980" d="M901.063,769.225q2.173-.865,0-1.729-2.174.865,0,1.729" transform="translate(-695.236 -628.538)" fill="#fff"/>
    <path id="Path_5981" data-name="Path 5981" d="M924.834,808.995q2.639-1.05,0-2.1-2.639,1.05,0,2.1" transform="translate(-713.42 -660.805)" fill="#fff"/>
    <path id="Path_5982" data-name="Path 5982" d="M991.048,756.06q-1.081-1.719-2.161,0,1.081,1.719,2.161,0" transform="translate(-763.921 -618.467)" fill="#fff"/>
    <path id="Path_5983" data-name="Path 5983" d="M1146.688,794q-2.217.881,0,1.763,2.217-.881,0-1.763" transform="translate(-884.969 -650.247)" fill="#fff"/>
    <path id="Path_5984" data-name="Path 5984" d="M1260.32,798.778q1.257,2,2.514,0-1.257-2-2.514,0" transform="translate(-973.609 -653.338)" fill="#fff"/>
    <path id="Path_5985" data-name="Path 5985" d="M1274.96,735.762q1.278,2.033,2.555,0-1.278-2.032-2.555,0" transform="translate(-984.919 -601.715)" fill="#fff"/>
    <path id="Path_5986" data-name="Path 5986" d="M1361.812,757.97q-2.564,1.02,0,2.039,2.564-1.02,0-2.039" transform="translate(-1051.023 -620.736)" fill="#fff"/>
    <path id="Path_5987" data-name="Path 5987" d="M1465.644,731.168a1,1,0,1,0,0,1.993q2.506-1,0-1.993" transform="translate(-1131.39 -598.785)" fill="#fff"/>
    <path id="Path_5988" data-name="Path 5988" d="M1531.553,733.318q1.1,1.756,2.208,0-1.1-1.756-2.208,0" transform="translate(-1183.143 -599.827)" fill="#fff"/>
    <path id="Path_5989" data-name="Path 5989" d="M1575.317,716.3q-1.227-1.951-2.453,0,1.227,1.952,2.453,0" transform="translate(-1215.056 -585.807)" fill="#fff"/>
    <path id="Path_5990" data-name="Path 5990" d="M1802.138,724.5q1.108,1.763,2.217,0-1.108-1.764-2.217,0" transform="translate(-1392.175 -592.599)" fill="#fff"/>
    <path id="Path_5991" data-name="Path 5991" d="M1840.979,723.682q2.379-.942.022-1.9c.02-.065-3.378,1.9-.022,1.9" transform="translate(-1421.036 -591.098)" fill="#fff"/>
    <path id="Path_5992" data-name="Path 5992" d="M761.841,895.28q2.1-.836,0-1.672-2.1.836,0,1.672" transform="translate(-587.711 -731.822)" fill="#fff"/>
    <path id="Path_5993" data-name="Path 5993" d="M812.441,920.1q-1.233-1.962-2.467,0,1.234,1.962,2.467,0" transform="translate(-625.707 -752.716)" fill="#fff"/>
    <path id="Path_5994" data-name="Path 5994" d="M858.3,913.346q2.486-.989,0-1.978-2.486.989,0,1.978" transform="translate(-662.077 -746.367)" fill="#fff"/>
    <path id="Path_5995" data-name="Path 5995" d="M1470.342,915.773q-2.3.915,0,1.831,2.3-.916,0-1.831" transform="translate(-1134.967 -749.976)" fill="#fff"/>
    <path id="Path_5996" data-name="Path 5996" d="M1562.732,878.008c-1.74-.29-2.311,2.049-.269,2.049q2.464-.929.269-2.049" transform="translate(-1206.016 -719.025)" fill="#fff"/>
    <path id="Path_5997" data-name="Path 5997" d="M1613.345,930.748q-1.214-1.932-2.428,0,1.214,1.931,2.428,0" transform="translate(-1244.453 -761.449)" fill="#fff"/>
    <path id="Path_5998" data-name="Path 5998" d="M1735.905,923.955q-2.525,1,0,2.008,2.524-1,0-2.008" transform="translate(-1340.034 -756.676)" fill="#fff"/>
    <path id="Path_5999" data-name="Path 5999" d="M1755.953,891.4q1.228,1.953,2.456,0-1.229-1.954-2.456,0" transform="translate(-1356.496 -729.213)" fill="#fff"/>
    <path id="Path_6000" data-name="Path 6000" d="M1898.2,923.862q-2.133.848,0,1.7,2.133-.849,0-1.7" transform="translate(-1465.565 -756.6)" fill="#fff"/>
    <path id="Path_6001" data-name="Path 6001" d="M1837.573,717.006c.382-1.277-2.512-1.448-2.512-.235,0,1.546,2.252,1.106,2.512.235" transform="translate(-1417.609 -586.32)" fill="#fff"/>
    <path id="Path_6002" data-name="Path 6002" d="M1727.35,699.258q2.539-1.01,0-2.02-2.539,1.01,0,2.02" transform="translate(-1333.419 -570.997)" fill="#fff"/>
    <path id="Path_6003" data-name="Path 6003" d="M1689.505,722.129q-1.149-1.828-2.3,0,1.149,1.828,2.3,0" transform="translate(-1303.388 -590.633)" fill="#fff"/>
    <path id="Path_6004" data-name="Path 6004" d="M1587.966,803.8c1.754-.686-.317-2.381-1.359-1.749,0,1.753-.456.647,1.359,1.749" transform="translate(-1225.634 -656.724)" fill="#fff"/>
    <path id="Path_6005" data-name="Path 6005" d="M1547.5,785.389q-2.465.98,0,1.96,2.463-.98,0-1.96" transform="translate(-1194.511 -643.192)" fill="#fff"/>
    <path id="Path_6006" data-name="Path 6006" d="M1534.687,783.358q-2.531,1.007,0,2.013,2.531-1.007,0-2.013" transform="translate(-1184.586 -641.528)" fill="#fff"/>
    <path id="Path_6007" data-name="Path 6007" d="M1412.93,788.727q2.367-.942,0-1.883-2.368.942,0,1.883" transform="translate(-1090.589 -644.383)" fill="#fff"/>
    <path id="Path_6008" data-name="Path 6008" d="M1398.548,843.8q2.363-.94,0-1.88-2.363.94,0,1.88" transform="translate(-1079.48 -689.493)" fill="#fff"/>
    <path id="Path_6009" data-name="Path 6009" d="M1338.558,835.415q-2.114.841,0,1.682,2.115-.841,0-1.682" transform="translate(-1033.233 -684.163)" fill="#fff"/>
    <path id="Path_6010" data-name="Path 6010" d="M1278.341,823.694q-1.082-1.721-2.163,0,1.082,1.72,2.163,0" transform="translate(-985.859 -673.859)" fill="#fff"/>
    <path id="Path_6011" data-name="Path 6011" d="M1259.466,848.117q-1.137-1.808-2.273,0,1.136,1.807,2.273,0" transform="translate(-971.193 -693.826)" fill="#fff"/>
    <path id="Path_6012" data-name="Path 6012" d="M1248.3,883.81q-1.227-1.951-2.454,0,1.227,1.951,2.454,0" transform="translate(-962.432 -722.998)" fill="#fff"/>
    <path id="Path_6013" data-name="Path 6013" d="M1004.3,924.6q2.318-.922,0-1.844-2.318.922,0,1.844" transform="translate(-774.931 -755.696)" fill="#fff"/>
    <path id="Path_6014" data-name="Path 6014" d="M619.2,952.9q-1.074-1.708-2.148,0c0,.913,2.148,1.365,2.148,0" transform="translate(-476.667 -779.683)" fill="#fff"/>
    <path id="Path_6015" data-name="Path 6015" d="M553.391,970.9q2.639-1.05,0-2.1-2.639,1.05,0,2.1" transform="translate(-426.471 -793.406)" fill="#fff"/>
    <path id="Path_6016" data-name="Path 6016" d="M455.38,971.9q-1.113-1.77-2.225,0,1.113,1.77,2.225,0" transform="translate(-350.056 -795.22)" fill="#fff"/>
    <path id="Path_6017" data-name="Path 6017" d="M334.062,974.586c0-1.232-2.741-1.255-2.529.123.145.946,2.529,1.5,2.529-.123" transform="translate(-256.092 -797.391)" fill="#fff"/>
    <path id="Path_6018" data-name="Path 6018" d="M108.281,891.12q-1.139-1.812-2.278,0c0,1.15,2.278,1.262,2.278,0" transform="translate(-81.874 -729.042)" fill="#fff"/>
    <path id="Path_6019" data-name="Path 6019" d="M120.179,846.54q-1.173-1.865-2.345,0,1.173,1.865,2.345,0" transform="translate(-91.013 -692.51)" fill="#fff"/>
    <path id="Path_6020" data-name="Path 6020" d="M192.5,856.664c1.756,0,1.323-1.867,0-1.867-1.776,0-1.3,1.867,0,1.867" transform="translate(-147.801 -700.036)" fill="#fff"/>
    <path id="Path_6021" data-name="Path 6021" d="M425.152,710.467q1.084,1.724,2.167,0-1.083-1.724-2.167,0" transform="translate(-328.423 -581.126)" fill="#fff"/>
    <path id="Path_6022" data-name="Path 6022" d="M721.618,709.154q2.391-.951,0-1.9-2.391.951,0,1.9" transform="translate(-556.526 -579.198)" fill="#fff"/>
    <path id="Path_6023" data-name="Path 6023" d="M767.843,670.958q-1.176-1.872-2.353,0,1.177,1.872,2.353,0" transform="translate(-591.342 -548.708)" fill="#fff"/>
    <path id="Path_6024" data-name="Path 6024" d="M852.755,643.308q-1.261-2.006-2.522,0,1.261,2.006,2.522,0" transform="translate(-656.808 -526.007)" fill="#fff"/>
    <path id="Path_6025" data-name="Path 6025" d="M1049.16,720.209q-1.146-1.823-2.291,0,1.146,1.822,2.291,0" transform="translate(-808.714 -589.063)" fill="#fff"/>
    <path id="Path_6026" data-name="Path 6026" d="M1341.694,735.2q2.349-.934,0-1.868-2.349.934,0,1.868" transform="translate(-1035.565 -600.56)" fill="#fff"/>
    <path id="Path_6027" data-name="Path 6027" d="M1397.673,743.591q-2.118.842,0,1.684,2.117-.842,0-1.684" transform="translate(-1078.899 -608.96)" fill="#fff"/>
    <path id="Path_6028" data-name="Path 6028" d="M1579.4,798.428c0-.386-2.176-1.921-2.176,0,0,1.286,2.176.989,2.176,0" transform="translate(-1218.421 -653.096)" fill="#fff"/>
    <path id="Path_6029" data-name="Path 6029" d="M1751.642,790.386q2.2-.874,0-1.748-2.2.874,0,1.748" transform="translate(-1352.317 -645.853)" fill="#fff"/>
    <path id="Path_6030" data-name="Path 6030" d="M1947.355,593.409q-2.571,1.023,0,2.045,2.571-1.023,0-2.045" transform="translate(-1503.365 -485.962)" fill="#fff"/>
    <path id="Path_6031" data-name="Path 6031" d="M1838.516,597.743q2.3-.915,0-1.83-2.3.915,0,1.83" transform="translate(-1419.389 -488.012)" fill="#fff"/>
    <path id="Path_6032" data-name="Path 6032" d="M1814.242,636.5q2.335-.929,0-1.857-2.335.929,0,1.857" transform="translate(-1400.624 -519.732)" fill="#fff"/>
    <path id="Path_6033" data-name="Path 6033" d="M1449.856,692.866q-1.142-1.816-2.284,0,1.143,1.817,2.284,0" transform="translate(-1118.265 -566.672)" fill="#fff"/>
    <path id="Path_6034" data-name="Path 6034" d="M1437.99,668.574q-1.2-1.909-2.4,0,1.2,1.909,2.4,0" transform="translate(-1109.009 -546.739)" fill="#fff"/>
    <path id="Path_6035" data-name="Path 6035" d="M1350.888,677.5q2.4-.955,0-1.911-2.4.955,0,1.911" transform="translate(-1042.646 -553.264)" fill="#fff"/>
    <path id="Path_6036" data-name="Path 6036" d="M1268.406,670.341q-1.258-2-2.516,0,1.258,2,2.516,0" transform="translate(-977.912 -548.149)" fill="#fff"/>
    <path id="Path_6037" data-name="Path 6037" d="M1218.884,729.364q-2.357.937,0,1.874,2.356-.937,0-1.874" transform="translate(-940.688 -597.308)" fill="#fff"/>
    <path id="Path_6038" data-name="Path 6038" d="M1138.792,683.535q-1.186-1.887-2.372,0,1.186,1.887,2.372,0" transform="translate(-877.893 -559.001)" fill="#fff"/>
    <path id="Path_6039" data-name="Path 6039" d="M1096.234,752.964c1.422,0,1.947-2.021,0-2.021q-2.541,1.01,0,2.021" transform="translate(-845.868 -614.981)" fill="#fff"/>
    <path id="Path_6040" data-name="Path 6040" d="M683.64,804.948q2.184-.869,0-1.738-2.185.869,0,1.738" transform="translate(-527.267 -657.787)" fill="#fff"/>
    <path id="Path_6041" data-name="Path 6041" d="M599.876,824.643q-1.21-1.925-2.419,0,1.21,1.924,2.419,0" transform="translate(-461.533 -674.553)" fill="#fff"/>
    <path id="Path_6042" data-name="Path 6042" d="M343.893,886.345q-2.195.873,0,1.746,2.195-.873,0-1.746" transform="translate(-264.802 -725.874)" fill="#fff"/>
    <path id="Path_6043" data-name="Path 6043" d="M212.467,972.281q-2.615,1.04,0,2.08,2.615-1.04,0-2.08" transform="translate(-163.109 -796.255)" fill="#fff"/>
    <path id="Path_6044" data-name="Path 6044" d="M324.414,551.9q-1.228-1.954-2.456,0,1.228,1.954,2.456,0" transform="translate(-248.704 -451.169)" fill="#fff"/>
    <path id="Path_6045" data-name="Path 6045" d="M511.111,497.142q2.56-1.018,0-2.036-2.56,1.018,0,2.036" transform="translate(-393.84 -405.452)" fill="#fff"/>
    <path id="Path_6046" data-name="Path 6046" d="M606.994,535.627q1.183,1.882,2.366,0-1.183-1.882-2.366,0" transform="translate(-468.9 -437.868)" fill="#fff"/>
    <path id="Path_6047" data-name="Path 6047" d="M671.052,508.117q2.4-.955,0-1.909-2.4.955,0,1.909" transform="translate(-517.459 -414.545)" fill="#fff"/>
    <path id="Path_6048" data-name="Path 6048" d="M684.1,512.961q-2.3.914,0,1.828,2.3-.914,0-1.828" transform="translate(-527.579 -420.075)" fill="#fff"/>
    <path id="Path_6049" data-name="Path 6049" d="M716.929,497.314q-2.389.95,0,1.9,2.389-.95,0-1.9" transform="translate(-552.905 -407.261)" fill="#fff"/>
    <path id="Path_6050" data-name="Path 6050" d="M1026.912,504.222q2.263-.9,0-1.8-2.263.9,0,1.8" transform="translate(-792.422 -411.444)" fill="#fff"/>
    <path id="Path_6051" data-name="Path 6051" d="M1148.984,513.968q-1.263-2.01-2.527,0,1.263,2.01,2.527,0" transform="translate(-885.647 -420.077)" fill="#fff"/>
    <path id="Path_6052" data-name="Path 6052" d="M1270.985,485.8q-1.09-1.734-2.18,0,1.09,1.734,2.18,0" transform="translate(-980.164 -397.122)" fill="#fff"/>
    <path id="Path_6053" data-name="Path 6053" d="M1283.014,530.618a1.033,1.033,0,1,0,0-2.038q-2.562,1.019,0,2.038" transform="translate(-990.15 -432.867)" fill="#fff"/>
    <path id="Path_6054" data-name="Path 6054" d="M1330.394,496.129q-1.125-1.79-2.251,0,1.125,1.791,2.251,0" transform="translate(-1026.003 -405.557)" fill="#fff"/>
    <path id="Path_6055" data-name="Path 6055" d="M1419.3,497.052q-2.171.864,0,1.727,2.171-.863,0-1.727" transform="translate(-1095.589 -407.046)" fill="#fff"/>
    <path id="Path_6056" data-name="Path 6056" d="M1526.376,508.342q2.6-1.035,0-2.071-2.6,1.035,0,2.071" transform="translate(-1178.137 -414.596)" fill="#fff"/>
    <path id="Path_6057" data-name="Path 6057" d="M1576.062,512q2.147-.854,0-1.708-2.148.854,0,1.708" transform="translate(-1216.697 -417.892)" fill="#fff"/>
    <path id="Path_6058" data-name="Path 6058" d="M1696.147,510.935q-2.5,1,0,1.992,2.5-1,0-1.992" transform="translate(-1309.327 -418.416)" fill="#fff"/>
    <path id="Path_6059" data-name="Path 6059" d="M1790.91,438.017q-2.235.889,0,1.777,2.234-.889,0-1.777" transform="translate(-1382.638 -358.697)" fill="#fff"/>
    <path id="Path_6060" data-name="Path 6060" d="M1802.737,437.758q-2.614,1.04,0,2.079,2.615-1.04,0-2.079" transform="translate(-1391.629 -358.485)" fill="#fff"/>
    <path id="Path_6061" data-name="Path 6061" d="M1877.782,413.619c1.744,0,1.16-1.8-.075-1.732q-2.072.893.075,1.732" transform="translate(-1449.767 -337.295)" fill="#fff"/>
    <path id="Path_6062" data-name="Path 6062" d="M1679.052,321.217q-2.448.974,0,1.947,2.448-.974,0-1.947" transform="translate(-1296.142 -263.039)" fill="#fff"/>
    <path id="Path_6063" data-name="Path 6063" d="M1673.677,332.942q2.3-.913,0-1.826-2.3.913,0,1.826" transform="translate(-1292.049 -271.146)" fill="#fff"/>
    <path id="Path_6064" data-name="Path 6064" d="M1187.208,384.814q-1.25-1.989-2.5,0,1.25,1.989,2.5,0" transform="translate(-915.197 -314.31)" fill="#fff"/>
    <path id="Path_6065" data-name="Path 6065" d="M1094.293,391.24q-1.225-1.949-2.45,0,1.225,1.948,2.45,0" transform="translate(-843.457 -319.589)" fill="#fff"/>
    <path id="Path_6066" data-name="Path 6066" d="M1037.37,420.3q1.226,1.95,2.451,0-1.225-1.95-2.451,0" transform="translate(-801.375 -343.387)" fill="#fff"/>
    <path id="Path_6067" data-name="Path 6067" d="M877.009,445.257q1.188,1.889,2.376,0-1.188-1.89-2.376,0" transform="translate(-677.493 -363.852)" fill="#fff"/>
    <path id="Path_6068" data-name="Path 6068" d="M852.6,426.661q-2.391.951,0,1.9,2.391-.951,0-1.9" transform="translate(-657.715 -349.396)" fill="#fff"/>
    <path id="Path_6069" data-name="Path 6069" d="M841.49,468.577q2.422-.964,0-1.927-2.423.964,0,1.927" transform="translate(-649.117 -382.147)" fill="#fff"/>
    <path id="Path_6070" data-name="Path 6070" d="M819.1,468.464q1.062,1.689,2.123,0-1.062-1.689-2.123,0" transform="translate(-632.755 -382.941)" fill="#fff"/>
    <path id="Path_6071" data-name="Path 6071" d="M699.586,443.991q-2.632,1.047,0,2.093,2.632-1.047,0-2.093" transform="translate(-539.413 -363.59)" fill="#fff"/>
    <path id="Path_6072" data-name="Path 6072" d="M1919.606,242.725q-1.108-1.763-2.216,0,1.108,1.762,2.216,0" transform="translate(-1481.21 -198.033)" fill="#fff"/>
    <path id="Path_6073" data-name="Path 6073" d="M1902.252,230.469q2.375-.945,0-1.89-2.376.945,0,1.89" transform="translate(-1468.598 -187.169)" fill="#fff"/>
    <path id="Path_6074" data-name="Path 6074" d="M1781.35,211.417q-2.292.911,0,1.823,2.292-.911,0-1.823" transform="translate(-1375.231 -173.113)" fill="#fff"/>
    <path id="Path_6075" data-name="Path 6075" d="M1689.053,243.095q2.553-1.015,0-2.031-2.553,1.016,0,2.031" transform="translate(-1303.828 -197.394)" fill="#fff"/>
    <path id="Path_6076" data-name="Path 6076" d="M1655.92,243.152q2.263-.9,0-1.8-2.263.9,0,1.8" transform="translate(-1278.345 -197.63)" fill="#fff"/>
    <path id="Path_6077" data-name="Path 6077" d="M1487.859,234.035c1.877,0,1.275-1.888,0-1.888q-2.374.944,0,1.888" transform="translate(-1148.471 -190.091)" fill="#fff"/>
    <path id="Path_6078" data-name="Path 6078" d="M1349.644,202.147q-2.26.9,0,1.8,2.26-.9,0-1.8" transform="translate(-1041.741 -165.521)" fill="#fff"/>
    <path id="Path_6079" data-name="Path 6079" d="M1054.4,166.427q-2.308.918,0,1.835,2.307-.918,0-1.835" transform="translate(-813.642 -136.267)" fill="#fff"/>
    <path id="Path_6080" data-name="Path 6080" d="M1657.972,202.481q1.187,1.889,2.374,0-1.187-1.888-2.374,0" transform="translate(-1280.803 -165.021)" fill="#fff"/>
    <path id="Path_6081" data-name="Path 6081" d="M1389.931,140.027q-2.64,1.05,0,2.1,2.64-1.05,0-2.1" transform="translate(-1072.716 -114.645)" fill="#fff"/>
    <path id="Path_6082" data-name="Path 6082" d="M1270.852,154.261q-1.113-1.771-2.227,0,1.114,1.771,2.227,0" transform="translate(-980.025 -125.578)" fill="#fff"/>
    <path id="Path_6083" data-name="Path 6083" d="M1139.32,1093.566q-2.169.863,0,1.726,2.17-.863,0-1.726" transform="translate(-879.296 -895.586)" fill="#fff"/>
    <path id="Path_6084" data-name="Path 6084" d="M1123.754,1107.264q-2.107.838,0,1.676,2.107-.838,0-1.676" transform="translate(-867.295 -906.805)" fill="#fff"/>
    <path id="Path_6085" data-name="Path 6085" d="M995.6,1127.654q-2.412.959,0,1.919,2.412-.96,0-1.919" transform="translate(-768.178 -923.504)" fill="#fff"/>
    <path id="Path_6086" data-name="Path 6086" d="M942.717,1071.4q-2.609,1.038,0,2.076,2.609-1.038,0-2.076" transform="translate(-727.246 -877.436)" fill="#fff"/>
    <path id="Path_6087" data-name="Path 6087" d="M931.991,1112.765q-2.561,1.018,0,2.037,2.561-1.018,0-2.037" transform="translate(-718.978 -911.31)" fill="#fff"/>
    <path id="Path_6088" data-name="Path 6088" d="M884.15,1100.578q1.311,2.086,2.622,0c0-1.682-2.622-1.081-2.622,0" transform="translate(-683.009 -900.471)" fill="#fff"/>
    <path id="Path_6089" data-name="Path 6089" d="M828.106,1140.134q-2.207.878,0,1.755,2.206-.877,0-1.755" transform="translate(-638.862 -933.725)" fill="#fff"/>
    <path id="Path_6090" data-name="Path 6090" d="M328.348,1106.46q-2.273.9,0,1.807,2.272-.9,0-1.807" transform="translate(-252.763 -906.146)" fill="#fff"/>
    <path id="Path_6091" data-name="Path 6091" d="M231.518,1100.609q-1.149-1.827-2.3,0,1.149,1.827,2.3,0" transform="translate(-177.062 -900.606)" fill="#fff"/>
    <path id="Path_6092" data-name="Path 6092" d="M146.82,1082.709q-1.172-1.866-2.345,0,1.172,1.865,2.345,0" transform="translate(-111.594 -885.931)" fill="#fff"/>
    <path id="Path_6093" data-name="Path 6093" d="M67.752,966.126q-1.073-1.707-2.145,0,1.073,1.706,2.145,0" transform="translate(-50.667 -790.515)" fill="#fff"/>
    <path id="Path_6094" data-name="Path 6094" d="M130.517,943.19q-2.582,1.027,0,2.054,2.581-1.027,0-2.054" transform="translate(-99.814 -772.43)" fill="#fff"/>
    <path id="Path_6095" data-name="Path 6095" d="M152.375,936.5q2.566-1.021,0-2.042-2.566,1.021,0,2.042" transform="translate(-116.706 -765.275)" fill="#fff"/>
    <path id="Path_6096" data-name="Path 6096" d="M253.243,978.8q2.129-.847,0-1.693-2.129.846,0,1.693" transform="translate(-194.798 -800.204)" fill="#fff"/>
    <path id="Path_6097" data-name="Path 6097" d="M434.105,936.9q-1.084-1.724-2.168,0,1.084,1.725,2.168,0" transform="translate(-333.665 -766.571)" fill="#fff"/>
    <path id="Path_6098" data-name="Path 6098" d="M437.911,982.771q-1.2-1.909-2.4,0,1.2,1.909,2.4,0" transform="translate(-336.426 -804.065)" fill="#fff"/>
    <path id="Path_6099" data-name="Path 6099" d="M556.681,1036.421q-1.133-1.8-2.266,0,1.133,1.8,2.266,0" transform="translate(-428.282 -848.047)" fill="#fff"/>
    <path id="Path_6100" data-name="Path 6100" d="M630,1035.021q-1.246-1.982-2.492,0,1.246,1.982,2.492,0" transform="translate(-484.748 -846.827)" fill="#fff"/>
    <path id="Path_6101" data-name="Path 6101" d="M504.893,1145.892q-1.167-1.856-2.333,0,1.167,1.856,2.333,0" transform="translate(-388.223 -937.681)" fill="#fff"/>
    <path id="Path_6102" data-name="Path 6102" d="M338.529,1229.069q-2.256.9,0,1.795,2.256-.9,0-1.795" transform="translate(-260.634 -1006.562)" fill="#fff"/>
    <path id="Path_6103" data-name="Path 6103" d="M1517.952,1041.742q2.619-1.041,0-2.083-2.619,1.042,0,2.083" transform="translate(-1171.624 -851.437)" fill="#fff"/>
    <path id="Path_6104" data-name="Path 6104" d="M1454.708,1098.057c1.022,0,2.323-2.058,0-2.058-1.8,0-1.648,2.058,0,2.058" transform="translate(-1122.78 -897.579)" fill="#fff"/>
    <path id="Path_6105" data-name="Path 6105" d="M1422.146,1070.581c-1.579,0-1.186,1.677,0,1.677.826,0,1.9-1.677,0-1.677" transform="translate(-1097.818 -876.762)" fill="#fff"/>
    <path id="Path_6106" data-name="Path 6106" d="M1405.853,1123.326q-1.075-1.711-2.151,0,1.076,1.711,2.151,0" transform="translate(-1084.375 -919.259)" fill="#fff"/>
    <path id="Path_6107" data-name="Path 6107" d="M1273.745,1088.229q-2.619,1.042,0,2.083,2.618-1.042,0-2.083" transform="translate(-982.969 -891.215)" fill="#fff"/>
    <path id="Path_6108" data-name="Path 6108" d="M1101.929,1134.189q-2.171.864,0,1.727,2.171-.864,0-1.727" transform="translate(-850.41 -928.856)" fill="#fff"/>
    <path id="Path_6109" data-name="Path 6109" d="M1063.068,1187.573q2.181-.867,0-1.735-2.181.867,0,1.735" transform="translate(-820.385 -971.156)" fill="#fff"/>
    <path id="Path_6110" data-name="Path 6110" d="M675.343,1206.369q-2.594,1.032,0,2.063,2.594-1.031,0-2.063" transform="translate(-520.7 -987.971)" fill="#fff"/>
    <path id="Path_6111" data-name="Path 6111" d="M651.55,1186.991q-2.225.885,0,1.77,2.225-.885,0-1.77" transform="translate(-502.461 -972.101)" fill="#fff"/>
    <path id="Path_6112" data-name="Path 6112" d="M583.5,1104.513c0-.833-2.107-1.4-2.107,0q1.054,1.676,2.107,0" transform="translate(-449.124 -903.855)" fill="#fff"/>
    <path id="Path_6113" data-name="Path 6113" d="M462.255,989.945q-2.214.881,0,1.761,2.213-.881,0-1.761" transform="translate(-356.231 -810.722)" fill="#fff"/>
    <path id="Path_6114" data-name="Path 6114" d="M424.2,1044.786q2.486-.989,0-1.977-2.486.989,0,1.977" transform="translate(-326.726 -854.017)" fill="#fff"/>
    <path id="Path_6115" data-name="Path 6115" d="M238.188,1015.007q2.23-.887,0-1.774-2.23.887,0,1.774" transform="translate(-183.128 -829.794)" fill="#fff"/>
    <path id="Path_6116" data-name="Path 6116" d="M546.507,1103.03c-1.273,0-1.7,1.78,0,1.78q2.237-.89,0-1.78" transform="translate(-421.307 -903.337)" fill="#fff"/>
    <path id="Path_6117" data-name="Path 6117" d="M572.825,1207.221q-2.609,1.038,0,2.076,2.609-1.038,0-2.076" transform="translate(-441.496 -988.669)" fill="#fff"/>
    <path id="Path_6118" data-name="Path 6118" d="M484.457,1199.094q-2.18.867,0,1.734,2.18-.867,0-1.734" transform="translate(-373.396 -982.013)" fill="#fff"/>
    <path id="Path_6119" data-name="Path 6119" d="M420.558,1194.381c-1.931,0-1.566,2.091,0,2.091q2.629-1.045,0-2.091" transform="translate(-323.859 -978.153)" fill="#fff"/>
    <path id="Path_6120" data-name="Path 6120" d="M473.4,1077.992q-2.532,1.007,0,2.014,2.532-1.007,0-2.014" transform="translate(-364.721 -882.831)" fill="#fff"/>
    <path id="Path_6121" data-name="Path 6121" d="M564.614,1013.424q-1.058-1.682-2.115,0,1.058,1.682,2.115,0" transform="translate(-434.527 -829.262)" fill="#fff"/>
    <path id="Path_6122" data-name="Path 6122" d="M693.483,956.382q-2.4.956,0,1.911,2.4-.956,0-1.911" transform="translate(-534.787 -783.234)" fill="#fff"/>
    <path id="Path_6123" data-name="Path 6123" d="M732.5,1000.12q-2.358.938,0,1.876,2.358-.938,0-1.876" transform="translate(-564.948 -819.055)" fill="#fff"/>
    <path id="Path_6124" data-name="Path 6124" d="M1069.51,903.3q-1.1-1.757-2.209,0,1.1,1.757,2.209,0" transform="translate(-824.497 -739.039)" fill="#fff"/>
    <path id="Path_6125" data-name="Path 6125" d="M810.619,1233.186c0-1.53-2.553-1.16-2.553,0,0,1.216,2.553,1.216,2.553,0" transform="translate(-624.233 -1009.104)" fill="#fff"/>
    <path id="Path_6126" data-name="Path 6126" d="M794.344,1197.541c-1.854,0-1.427,2.138.2,1.922q2.132-1.033-.2-1.922" transform="translate(-612.693 -980.741)" fill="#fff"/>
    <path id="Path_6127" data-name="Path 6127" d="M708.411,1156.683q-1.093-1.739-2.186,0,1.093,1.739,2.186,0" transform="translate(-545.558 -946.566)" fill="#fff"/>
    <path id="Path_6128" data-name="Path 6128" d="M650.971,1174.088q-1.122-1.785-2.245,0,1.122,1.786,2.245,0" transform="translate(-501.139 -960.803)" fill="#fff"/>
    <path id="Path_6129" data-name="Path 6129" d="M683.061,316.823q2.63-1.046,0-2.092-2.63,1.046,0,2.092" transform="translate(-526.648 -257.727)" fill="#fff"/>
    <path id="Path_6130" data-name="Path 6130" d="M538.463,272.193q1.216,1.936,2.433,0-1.217-1.936-2.433,0" transform="translate(-415.958 -222.096)" fill="#fff"/>
    <path id="Path_6131" data-name="Path 6131" d="M462.115,314.766q-2.137.85,0,1.7,2.137-.85,0-1.7" transform="translate(-356.153 -257.755)" fill="#fff"/>
    <path id="Path_6132" data-name="Path 6132" d="M251.32,235.745q1.117,1.777,2.234,0-1.117-1.777-2.234,0" transform="translate(-194.134 -192.31)" fill="#fff"/>
    <path id="Path_6133" data-name="Path 6133" d="M62.3,282.107q-1.223-1.946-2.446,0,1.223,1.945,2.446,0" transform="translate(-46.224 -230.211)" fill="#fff"/>
    <path id="Path_6134" data-name="Path 6134" d="M880.136,498.149q1.3,2.065,2.6,0-1.3-2.065-2.6,0" transform="translate(-679.908 -407.099)" fill="#fff"/>
    <path id="Path_6135" data-name="Path 6135" d="M1129.269,60.9q2.365-.941,0-1.881-2.365.941,0,1.881" transform="translate(-871.456 -48.301)" fill="#fff"/>
    <path id="Path_6136" data-name="Path 6136" d="M1051.909,53.823q2.567-1.021,0-2.042-2.567,1.021,0,2.042" transform="translate(-811.615 -42.373)" fill="#fff"/>
    <path id="Path_6137" data-name="Path 6137" d="M846.026,37.905q1.233,1.962,2.467,0c0-.228-2.467-1.4-2.467,0" transform="translate(-653.558 -30.454)" fill="#fff"/>
    <path id="Path_6138" data-name="Path 6138" d="M781.218,88.855q2.125-.845,0-1.69-2.124.845,0,1.69" transform="translate(-602.671 -71.352)" fill="#fff"/>
    <path id="Path_6139" data-name="Path 6139" d="M600.481,94.234q2.108-.838,0-1.677-2.108.838,0,1.677" transform="translate(-463.054 -75.768)" fill="#fff"/>
    <path id="Path_6140" data-name="Path 6140" d="M1428.371,79.418q2.121-.843,0-1.686-2.121.843,0,1.686" transform="translate(-1102.612 -63.626)" fill="#fff"/>
    <path id="Path_6141" data-name="Path 6141" d="M1295,69.714q2.115-.841,0-1.682-2.115.841,0,1.682" transform="translate(-999.579 -55.682)" fill="#fff"/>
    <path id="Path_6142" data-name="Path 6142" d="M1120.048,113.378q1.059,1.684,2.118,0c0-.93-2.118-1.309-2.118,0" transform="translate(-865.246 -92.127)" fill="#fff"/>
    <path id="Path_6143" data-name="Path 6143" d="M1072.49,78.842q2.612-1.039,0-2.078-2.611,1.039,0,2.078" transform="translate(-827.498 -62.833)" fill="#fff"/>
    <path id="Path_6144" data-name="Path 6144" d="M848.073,53.76q2.342-.932,0-1.863-2.342.932,0,1.863" transform="translate(-654.235 -42.468)" fill="#fff"/>
    <path id="Path_6145" data-name="Path 6145" d="M1329.165,209.54q2.33-.927,0-1.854-2.33.927,0,1.854" transform="translate(-1025.893 -170.058)" fill="#fff"/>
    <path id="Path_6146" data-name="Path 6146" d="M1296.762,142.922q-1.056-1.68-2.111,0,1.056,1.679,2.111,0" transform="translate(-1000.13 -116.329)" fill="#fff"/>
    <path id="Path_6147" data-name="Path 6147" d="M1212.714,197.9q1.113,1.771,2.226,0-1.113-1.771-2.226,0" transform="translate(-936.832 -161.32)" fill="#fff"/>
    <path id="Path_6148" data-name="Path 6148" d="M1146.507,178.448c0,1.087,2.233,1.233,2.233,0q-1.116-1.776-2.233,0" transform="translate(-885.686 -145.385)" fill="#fff"/>
    <path id="Path_6149" data-name="Path 6149" d="M1053.656,138.8q-2.334.928,0,1.856,2.334-.928,0-1.856" transform="translate(-813.055 -113.641)" fill="#fff"/>
    <path id="Path_6150" data-name="Path 6150" d="M953.235,134.136q2.314-.92,0-1.841-2.314.92,0,1.841" transform="translate(-735.485 -108.313)" fill="#fff"/>
    <path id="Path_6151" data-name="Path 6151" d="M1438.559,259.287q2.135-.849,0-1.7-2.136.849,0,1.7" transform="translate(-1110.478 -210.928)" fill="#fff"/>
    <path id="Path_6152" data-name="Path 6152" d="M1187.791,214.976q2.244-.892,0-1.785-2.244.892,0,1.785" transform="translate(-916.712 -174.566)" fill="#fff"/>
    <path id="Path_6153" data-name="Path 6153" d="M1175.215,227q-1.274-2.027-2.549,0,1.274,2.027,2.549,0" transform="translate(-905.894 -185.047)" fill="#fff"/>
    <path id="Path_6154" data-name="Path 6154" d="M1034.664,254.565q-2.281.907,0,1.815,2.281-.907,0-1.815" transform="translate(-798.404 -208.451)" fill="#fff"/>
    <path id="Path_6155" data-name="Path 6155" d="M261.719,568.7q-2.37.943,0,1.885,2.37-.943,0-1.885" transform="translate(-201.252 -465.727)" fill="#fff"/>
    <path id="Path_6156" data-name="Path 6156" d="M173.479,573.569q-2.574,1.024,0,2.047,2.573-1.023,0-2.047" transform="translate(-133.006 -469.713)" fill="#fff"/>
    <path id="Path_6157" data-name="Path 6157" d="M127.6,586.818q2.338-.93,0-1.86-2.338.93,0,1.86" transform="translate(-97.658 -479.04)" fill="#fff"/>
    <path id="Path_6158" data-name="Path 6158" d="M82.1,570.363q-1.08-1.719-2.161,0,1.08,1.719,2.161,0" transform="translate(-61.739 -466.383)" fill="#fff"/>
    <path id="Path_6159" data-name="Path 6159" d="M547.893,471.442q1.106,1.759,2.212,0-1.106-1.759-2.212,0" transform="translate(-423.243 -385.352)" fill="#fff"/>
    <path id="Path_6160" data-name="Path 6160" d="M589.6,504.213q1.056,1.68,2.112,0-1.056-1.68-2.112,0" transform="translate(-455.466 -412.223)" fill="#fff"/>
    <path id="Path_6161" data-name="Path 6161" d="M737.438,533.073q-1.23-1.956-2.46,0,1.23,1.957,2.46,0" transform="translate(-567.771 -435.746)" fill="#fff"/>
    <path id="Path_6162" data-name="Path 6162" d="M876.253,547.644q-1.3-2.067-2.6,0,1.3,2.067,2.6,0" transform="translate(-674.901 -447.634)" fill="#fff"/>
    <path id="Path_6163" data-name="Path 6163" d="M1211.018,517.247q2.471-.983,0-1.966-2.471.983,0,1.966" transform="translate(-934.568 -421.976)" fill="#fff"/>
    <path id="Path_6164" data-name="Path 6164" d="M738.543,393.725q1.115,1.774,2.23,0-1.115-1.773-2.23,0" transform="translate(-570.525 -321.696)" fill="#fff"/>
    <path id="Path_6165" data-name="Path 6165" d="M692.68,369.892c0-1.485-2.658-1.07-2.36.177q1.281,1.624,2.36-.177" transform="translate(-533.253 -302.127)" fill="#fff"/>
    <path id="Path_6166" data-name="Path 6166" d="M674.978,391.831q-2.169.863,0,1.725,2.169-.863,0-1.725" transform="translate(-520.581 -320.871)" fill="#fff"/>
    <path id="Path_6167" data-name="Path 6167" d="M392.512,426.435q1.071,1.7,2.141,0-1.07-1.7-2.141,0" transform="translate(-303.208 -348.514)" fill="#fff"/>
    <path id="Path_6168" data-name="Path 6168" d="M291.837,453.974c0,.985,2.41,1.579,2.41,0q-1.206-1.917-2.41,0" transform="translate(-225.435 -370.981)" fill="#fff"/>
    <path id="Path_6169" data-name="Path 6169" d="M233.631,498.573q-2.185.869,0,1.738,2.185-.869,0-1.738" transform="translate(-179.625 -408.292)" fill="#fff"/>
    <path id="Path_6170" data-name="Path 6170" d="M189.933,493.566q1.253,1.994,2.507,0-1.253-1.994-2.507,0" transform="translate(-146.712 -403.375)" fill="#fff"/>
    <path id="Path_6171" data-name="Path 6171" d="M148.415,490.522q2.638-1.049,0-2.1-2.638,1.049,0,2.1" transform="translate(-113.619 -399.98)" fill="#fff"/>
    <path id="Path_6172" data-name="Path 6172" d="M95.446,562.529q-2.134.849,0,1.7,2.134-.848,0-1.7" transform="translate(-72.894 -460.671)" fill="#fff"/>
    <path id="Path_6173" data-name="Path 6173" d="M159.444,584.581q-1.291-2.054-2.583,0,1.292,2.054,2.583,0" transform="translate(-121.163 -477.891)" fill="#fff"/>
    <path id="Path_6174" data-name="Path 6174" d="M485.085,616.86q2.228-.886,0-1.772-2.228.886,0,1.772" transform="translate(-373.862 -503.717)" fill="#fff"/>
    <path id="Path_6175" data-name="Path 6175" d="M725.659,624.229q1.118,1.778,2.236,0-1.118-1.778-2.236,0" transform="translate(-560.571 -510.475)" fill="#fff"/>
    <path id="Path_6176" data-name="Path 6176" d="M878.2,605.453q-1.159-1.843-2.317,0,1.159,1.843,2.317,0" transform="translate(-676.621 -495.071)" fill="#fff"/>
    <path id="Path_6177" data-name="Path 6177" d="M891.646,608.256q-2.1.836,0,1.671,2.1-.836,0-1.671" transform="translate(-687.989 -498.121)" fill="#fff"/>
    <path id="Path_6178" data-name="Path 6178" d="M925.207,584.242q1.282,2.039,2.564,0-1.282-2.039-2.564,0" transform="translate(-714.727 -477.619)" fill="#fff"/>
    <path id="Path_6179" data-name="Path 6179" d="M1043,558.035q-2.217.882,0,1.764,2.217-.882,0-1.764" transform="translate(-804.871 -456.991)" fill="#fff"/>
    <path id="Path_6180" data-name="Path 6180" d="M1213.106,603.745q-1.228-1.953-2.455,0,1.228,1.952,2.455,0" transform="translate(-935.239 -493.627)" fill="#fff"/>
    <path id="Path_6181" data-name="Path 6181" d="M1292.275,530.1q1.388,1.368,2.38-.386c0-1.747-3.044-.852-2.38.386" transform="translate(-998.222 -432.999)" fill="#fff"/>
    <path id="Path_6182" data-name="Path 6182" d="M1330.805,566.406q2.5-.995,0-1.99-2.5.995,0,1.99" transform="translate(-1027.094 -462.217)" fill="#fff"/>
    <path id="Path_6183" data-name="Path 6183" d="M1392.547,563.735q-2.477.985,0,1.97,2.477-.985,0-1.97" transform="translate(-1074.801 -461.659)" fill="#fff"/>
    <path id="Path_6184" data-name="Path 6184" d="M1457.115,586.632q1.275,2.028,2.55,0-1.275-2.028-2.55,0" transform="translate(-1125.637 -479.581)" fill="#fff"/>
    <path id="Path_6185" data-name="Path 6185" d="M1957.03,734.356c-1.378-.812-3.292,1.856-.768,1.856,1.543,0,1.534-1.4.768-1.856" transform="translate(-1510.287 -601.271)" fill="#fff"/>
    <path id="Path_6186" data-name="Path 6186" d="M1943.965,745.508q2.61-1.038,0-2.077-2.611,1.039,0,2.077" transform="translate(-1500.731 -608.829)" fill="#fff"/>
    <path id="Path_6187" data-name="Path 6187" d="M1885.367,743.678q-1.266-2.013-2.532,0,1.266,2.013,2.532,0" transform="translate(-1454.515 -608.206)" fill="#fff"/>
    <path id="Path_6188" data-name="Path 6188" d="M1802.329,747.233q-2.583,1.027,0,2.055,2.583-1.027,0-2.055" transform="translate(-1391.325 -611.942)" fill="#fff"/>
    <path id="Path_6189" data-name="Path 6189" d="M1700.348,786.41q-1.259-2-2.519,0,1.259,2,2.519,0" transform="translate(-1311.594 -643.207)" fill="#fff"/>
    <path id="Path_6190" data-name="Path 6190" d="M1683.871,780.617q-1.091-1.736-2.182,0,1.091,1.736,2.182,0" transform="translate(-1299.125 -638.572)" fill="#fff"/>
    <path id="Path_6191" data-name="Path 6191" d="M1658.5,757.921q2.451-.975,0-1.95-2.452.975,0,1.95" transform="translate(-1280.265 -619.099)" fill="#fff"/>
    <path id="Path_6192" data-name="Path 6192" d="M1586.193,812.26c0-1.3-2.6-1.41-2.6,0q1.3,2.065,2.6,0" transform="translate(-1223.346 -664.366)" fill="#fff"/>
    <path id="Path_6193" data-name="Path 6193" d="M1565.275,787.134q-2.234.888,0,1.777,2.234-.888,0-1.777" transform="translate(-1208.331 -644.621)" fill="#fff"/>
    <path id="Path_6194" data-name="Path 6194" d="M1278.517,840.7q-1.218-1.939-2.437,0,1.218,1.938,2.437,0" transform="translate(-985.784 -687.693)" fill="#fff"/>
    <path id="Path_6195" data-name="Path 6195" d="M1233.546,890.256c1.71,0,1.436-1.888,0-1.888-1.135,0-1.932,1.888,0,1.888" transform="translate(-952.022 -727.531)" fill="#fff"/>
    <path id="Path_6196" data-name="Path 6196" d="M1072.8,842.378q-1.068-1.7-2.136,0,1.068,1.7,2.136,0" transform="translate(-827.093 -689.17)" fill="#fff"/>
    <path id="Path_6197" data-name="Path 6197" d="M1007.488,854.1q-1.316-2.093-2.631,0,1.315,2.093,2.631,0" transform="translate(-776.258 -698.606)" fill="#fff"/>
    <path id="Path_6198" data-name="Path 6198" d="M894.551,873.251q2.419-.962,0-1.924-2.419.962,0,1.924" transform="translate(-690.11 -713.574)" fill="#fff"/>
    <path id="Path_6199" data-name="Path 6199" d="M867.338,836.028q-1.246-1.982-2.492,0,1.246,1.982,2.492,0" transform="translate(-668.097 -683.853)" fill="#fff"/>
    <path id="Path_6200" data-name="Path 6200" d="M768.513,856.233q-1.22-1.941-2.44,0,1.22,1.941,2.44,0" transform="translate(-591.792 -700.418)" fill="#fff"/>
    <path id="Path_6201" data-name="Path 6201" d="M666.939,670.1q-1.2-1.91-2.4,0,1.2,1.91,2.4,0" transform="translate(-513.354 -547.992)" fill="#fff"/>
    <path id="Path_6202" data-name="Path 6202" d="M555.2,564.051q2.122-.844,0-1.687-2.121.843,0,1.687" transform="translate(-428.069 -460.536)" fill="#fff"/>
    <path id="Path_6203" data-name="Path 6203" d="M556.917,513.28q-2.159.859,0,1.718,2.159-.859,0-1.718" transform="translate(-429.38 -420.337)" fill="#fff"/>
    <path id="Path_6204" data-name="Path 6204" d="M525.091,484.015c0-1-2.074-1.186-2.074,0,0,1.271,2.074.879,2.074,0" transform="translate(-404.026 -395.695)" fill="#fff"/>
    <path id="Path_6205" data-name="Path 6205" d="M254.812,493.876q2.345-.933,0-1.865-2.344.933,0,1.865" transform="translate(-195.926 -402.917)" fill="#fff"/>
    <path id="Path_6206" data-name="Path 6206" d="M1955.332,577.5q1.366,1.3,2.32-.411c0-2.966-2.255.331-2.32.411" transform="translate(-1510.521 -471.583)" fill="#fff"/>
    <path id="Path_6207" data-name="Path 6207" d="M1946.814,578.7c1.543,0,1.626-1.915,0-1.915q-2.407.957,0,1.915" transform="translate(-1503.01 -472.343)" fill="#fff"/>
    <path id="Path_6208" data-name="Path 6208" d="M1756.889,575.222q2.537-1.009,0-2.018-2.537,1.009,0,2.018" transform="translate(-1356.239 -469.414)" fill="#fff"/>
    <path id="Path_6209" data-name="Path 6209" d="M1682.36,639.248q2.592-1.031,0-2.062-2.592,1.031,0,2.062" transform="translate(-1298.643 -521.815)" fill="#fff"/>
    <path id="Path_6210" data-name="Path 6210" d="M1629.744,586.077q-1.19-1.894-2.381,0,1.191,1.894,2.381,0" transform="translate(-1257.158 -479.181)" fill="#fff"/>
    <path id="Path_6211" data-name="Path 6211" d="M1382.977,639.589q-1.131-1.8-2.263,0,1.131,1.8,2.263,0" transform="translate(-1066.616 -523.046)" fill="#fff"/>
    <path id="Path_6212" data-name="Path 6212" d="M1336.927,650.162q-1.282-2.039-2.563,0,1.282,2.039,2.563,0" transform="translate(-1030.81 -531.607)" fill="#fff"/>
    <path id="Path_6213" data-name="Path 6213" d="M1240.326,725.013q1.257,2,2.515,0-1.258-2-2.515,0" transform="translate(-958.163 -592.926)" fill="#fff"/>
    <path id="Path_6214" data-name="Path 6214" d="M1135.776,751.412q-1.086-1.726-2.17,0,1.085,1.726,2.17,0" transform="translate(-875.72 -614.658)" fill="#fff"/>
    <path id="Path_6215" data-name="Path 6215" d="M958.011,771.62q2.1-.761.411-1.792a1.879,1.879,0,0,0-.411-.062c-1.34,0-1.729,1.854,0,1.854" transform="translate(-739.176 -630.397)" fill="#fff"/>
    <path id="Path_6216" data-name="Path 6216" d="M856.9,715.7q1.1,1.756,2.208,0-1.1-1.757-2.208,0" transform="translate(-661.96 -585.396)" fill="#fff"/>
    <path id="Path_6217" data-name="Path 6217" d="M776.345,719.1q-1.177-1.872-2.353,0,1.177,1.872,2.353,0" transform="translate(-597.909 -588.138)" fill="#fff"/>
    <path id="Path_6218" data-name="Path 6218" d="M729.838,734.117q-1.107-1.761-2.214,0,1.107,1.761,2.214,0" transform="translate(-562.09 -600.479)" fill="#fff"/>
    <path id="Path_6219" data-name="Path 6219" d="M714.721,693.214q2.1-.837,0-1.674-2.1.837,0,1.674" transform="translate(-551.308 -566.33)" fill="#fff"/>
    <path id="Path_6220" data-name="Path 6220" d="M489.587,710.972q2.361-.939,0-1.878-2.36.939,0,1.878" transform="translate(-377.289 -580.707)" fill="#fff"/>
    <path id="Path_6221" data-name="Path 6221" d="M337.867,796.557q1.128,1.795,2.256,0-1.128-1.794-2.256,0" transform="translate(-260.994 -651.604)" fill="#fff"/>
    <path id="Path_6222" data-name="Path 6222" d="M278.854,809.3q1.361,1.934,2.609-.1c0-1.715-2.75-1.056-2.609.1" transform="translate(-215.401 -661.84)" fill="#fff"/>
    <path id="Path_6223" data-name="Path 6223" d="M91.725,793.134q2.566-1.021,0-2.041-2.566,1.021,0,2.041" transform="translate(-69.853 -647.863)" fill="#fff"/>
    <path id="Path_6224" data-name="Path 6224" d="M36,803.245q-1.123-1.787-2.246,0,1.123,1.787,2.246,0" transform="translate(-26.058 -657.084)" fill="#fff"/>
    <path id="Path_6225" data-name="Path 6225" d="M626.889,317.221q2.368-.858.453-2.015a1.247,1.247,0,0,1-.607-.056q-2.385,1.091.154,2.07" transform="translate(-483.259 -258.071)" fill="#fff"/>
    <path id="Path_6226" data-name="Path 6226" d="M492.726,342.674q1.079,1.717,2.158,0-1.079-1.716-2.158,0" transform="translate(-380.626 -279.909)" fill="#fff"/>
    <path id="Path_6227" data-name="Path 6227" d="M237.822,239.907q2.348-.933,0-1.867-2.348.933,0,1.867" transform="translate(-182.8 -194.917)" fill="#fff"/>
    <path id="Path_6228" data-name="Path 6228" d="M155.711,258.117q1.179,1.875,2.357,0-1.179-1.875-2.357,0" transform="translate(-120.274 -210.592)" fill="#fff"/>
    <path id="Path_6229" data-name="Path 6229" d="M59.736,258.187q2.311-.919,0-1.838-2.311.919,0,1.838" transform="translate(-45.239 -209.912)" fill="#fff"/>
    <path id="Path_6230" data-name="Path 6230" d="M1621.975,140.474q2.334-.928,0-1.856-2.334.928,0,1.856" transform="translate(-1252.094 -113.491)" fill="#fff"/>
    <path id="Path_6231" data-name="Path 6231" d="M1530.7,144.3q2.388-.95,0-1.9-2.388.949,0,1.9" transform="translate(-1181.564 -116.589)" fill="#fff"/>
    <path id="Path_6232" data-name="Path 6232" d="M1288.276,219.4q-2.182.868,0,1.735,2.181-.867,0-1.735" transform="translate(-994.363 -179.65)" fill="#fff"/>
    <path id="Path_6233" data-name="Path 6233" d="M1186.9,238.357q-2.573,1.023,0,2.046,2.572-1.023,0-2.046" transform="translate(-915.899 -195.177)" fill="#fff"/>
    <path id="Path_6234" data-name="Path 6234" d="M1164.424,207.4q-1.219-1.939-2.437,0,1.219,1.939,2.438,0" transform="translate(-897.644 -169.028)" fill="#fff"/>
    <path id="Path_6235" data-name="Path 6235" d="M1158.193,222.277q2.466-.981,0-1.962-2.467.981,0,1.962" transform="translate(-893.761 -180.401)" fill="#fff"/>
    <path id="Path_6236" data-name="Path 6236" d="M1093.7,222.7q1.052,1.673,2.1,0-1.052-1.673-2.1,0" transform="translate(-844.89 -181.667)" fill="#fff"/>
    <path id="Path_6237" data-name="Path 6237" d="M953.966,255.391q2.411-.959,0-1.918-2.411.959,0,1.918" transform="translate(-736.012 -207.557)" fill="#fff"/>
    <path id="Path_6238" data-name="Path 6238" d="M889.219,226.339q2.481-.987,0-1.974-2.481.987,0,1.974" transform="translate(-685.967 -183.718)" fill="#fff"/>
    <path id="Path_6239" data-name="Path 6239" d="M887.226,277.96q2.637-1.049,0-2.1-2.636,1.049,0,2.1" transform="translate(-684.367 -225.894)" fill="#fff"/>
    <path id="Path_6240" data-name="Path 6240" d="M764.865,303.338q2.535-1.008,0-2.016-2.535,1.008,0,2.016" transform="translate(-589.88 -246.745)" fill="#fff"/>
    <path id="Path_6241" data-name="Path 6241" d="M508.8,369.313q1.317,2.095,2.634,0-1.317-2.095-2.634,0" transform="translate(-393.045 -301.571)" fill="#fff"/>
    <path id="Path_6242" data-name="Path 6242" d="M349.4,368.845q-1.248-1.985-2.5,0,1.248,1.985,2.5,0" transform="translate(-267.975 -301.233)" fill="#fff"/>
    <path id="Path_6243" data-name="Path 6243" d="M214.8,471.225q2.3-.913,0-1.826-2.3.913,0,1.826" transform="translate(-165.034 -384.398)" fill="#fff"/>
    <path id="Path_6244" data-name="Path 6244" d="M149.709,443.385c1.78,0,1.342-1.882,0-1.882q-2.366.941,0,1.882" transform="translate(-114.724 -361.552)" fill="#fff"/>
    <path id="Path_6245" data-name="Path 6245" d="M129.354,482.208q2.319-.922,0-1.844-2.319.922,0,1.844" transform="translate(-99.017 -393.379)" fill="#fff"/>
    <path id="Path_6246" data-name="Path 6246" d="M1419.066,10.7q2.256-.9,0-1.795-2.256.9,0,1.795" transform="translate(-1095.372 -7.258)" fill="#fff"/>
    <path id="Path_6247" data-name="Path 6247" d="M1165.357,114.736c1.823,0,1.455-2,0-2q-2.509,1,0,2" transform="translate(-899.279 -92.298)" fill="#fff"/>
    <path id="Path_6248" data-name="Path 6248" d="M725.038,173.8q2.138-.85,0-1.7-2.138.85,0,1.7" transform="translate(-559.266 -140.914)" fill="#fff"/>
    <path id="Path_6249" data-name="Path 6249" d="M693.8,196.386c1.69,0,1.075-1.672,0-1.672q-2.1.836,0,1.672" transform="translate(-535.148 -159.434)" fill="#fff"/>
    <path id="Path_6250" data-name="Path 6250" d="M525.821,170.311q-2.108.838,0,1.677,2.109-.838,0-1.677" transform="translate(-405.378 -139.448)" fill="#fff"/>
    <path id="Path_6251" data-name="Path 6251" d="M485.892,146.581q1.116,1.777,2.233,0-1.116-1.776-2.233,0" transform="translate(-375.346 -119.285)" fill="#fff"/>
    <path id="Path_6252" data-name="Path 6252" d="M1109.252,13.205q2.238-.89,0-1.78-2.238.89,0,1.78" transform="translate(-856.041 -9.321)" fill="#fff"/>
    <path id="Path_6253" data-name="Path 6253" d="M1027.045,22.686q2.561-1.019,0-2.037-2.561,1.019,0,2.037" transform="translate(-792.41 -16.876)" fill="#fff"/>
    <path id="Path_6254" data-name="Path 6254" d="M930.59,35.283q2.313-.92,0-1.84-2.313.92,0,1.84" transform="translate(-717.992 -27.354)" fill="#fff"/>
    <path id="Path_6255" data-name="Path 6255" d="M867.95,34.459c1.362,0,1.955-1.982,0-1.982q-2.492.991,0,1.982" transform="translate(-669.532 -26.563)" fill="#fff"/>
    <path id="Path_6256" data-name="Path 6256" d="M860.121,51.8q2.6-1.032,0-2.064-2.6,1.032,0,2.064" transform="translate(-663.444 -40.694)" fill="#fff"/>
    <path id="Path_6257" data-name="Path 6257" d="M654.443,46.572q2.136-.85,0-1.7-2.137.85,0,1.7" transform="translate(-504.73 -36.715)" fill="#fff"/>
    <path id="Path_6258" data-name="Path 6258" d="M540.786,68.488q2.355-.937,0-1.874-2.355.937,0,1.874" transform="translate(-416.844 -54.521)" fill="#fff"/>
    <path id="Path_6259" data-name="Path 6259" d="M401.243,85.864q-1.1-1.754-2.205,0,1.1,1.754,2.205,0" transform="translate(-308.25 -69.568)" fill="#fff"/>
    <path id="Path_6260" data-name="Path 6260" d="M307.2,74.88q2.516-1,0-2-2.516,1,0,2" transform="translate(-236.331 -59.652)" fill="#fff"/>
    <path id="Path_6261" data-name="Path 6261" d="M800.63,1156.181q-2.367.942,0,1.883,2.367-.941,0-1.883" transform="translate(-617.574 -946.867)" fill="#fff"/>
    <path id="Path_6262" data-name="Path 6262" d="M746.555,1177.922q-2.127.846,0,1.692,2.127-.846,0-1.692" transform="translate(-575.892 -964.673)" fill="#fff"/>
    <path id="Path_6263" data-name="Path 6263" d="M544.243,1179.2q-1.152-1.833-2.3,0,1.152,1.833,2.3,0" transform="translate(-418.644 -964.971)" fill="#fff"/>
    <path id="Path_6264" data-name="Path 6264" d="M508.85,1178.524q-2.235.888,0,1.777,2.235-.889,0-1.777" transform="translate(-392.219 -965.166)" fill="#fff"/>
    <path id="Path_6265" data-name="Path 6265" d="M237.892,1187.434q-2.625,1.044,0,2.088,2.625-1.044,0-2.088" transform="translate(-182.747 -972.464)" fill="#fff"/>
    <path id="Path_6266" data-name="Path 6266" d="M1.115,1118.131q2.23-.886,0-1.774-2.23.887,0,1.774" transform="translate(0.016 -914.252)" fill="#fff"/>
  </g>
</svg>
