<svg xmlns="http://www.w3.org/2000/svg" xmlns:xlink="http://www.w3.org/1999/xlink" width="724" height="360" viewBox="0 0 724 360">
  <defs>
    <clipPath id="clip-path">
      <rect id="Rectangle_546" data-name="Rectangle 546" width="724" height="360" fill="none"/>
    </clipPath>
  </defs>
  <g id="Group_962" data-name="Group 962" opacity="0.5" clip-path="url(#clip-path)">
    <path id="Path_5217" data-name="Path 5217" d="M1978.718,475.927q4.035-1.6,0-3.208-4.035,1.6,0,3.208" transform="translate(-1256.862 -335.789)" fill="#fff"/>
    <path id="Path_5218" data-name="Path 5218" d="M1384.709,277.042q3.717-1.477,0-2.955-3.716,1.477,0,2.955" transform="translate(-879.27 -194.694)" fill="#fff"/>
    <path id="Path_5219" data-name="Path 5219" d="M1214.06,262.814q-3.606,1.434,0,2.867,3.606-1.433,0-2.867" transform="translate(-770.799 -186.687)" fill="#fff"/>
    <path id="Path_5220" data-name="Path 5220" d="M1134.118,271.275q2.058,3.273,4.115,0-2.058-3.272-4.115,0" transform="translate(-721.116 -191.535)" fill="#fff"/>
    <path id="Path_5221" data-name="Path 5221" d="M1093.358,236.5q-3.706,1.474,0,2.947,3.706-1.473,0-2.947" transform="translate(-694.02 -167.998)" fill="#fff"/>
    <path id="Path_5222" data-name="Path 5222" d="M954.189,314.571q-1.748-2.78-3.5,0,1.749,2.78,3.5,0" transform="translate(-604.486 -222.464)" fill="#fff"/>
    <path id="Path_5223" data-name="Path 5223" d="M800.64,300.509q1.713,2.725,3.427,0-1.714-2.725-3.427,0" transform="translate(-509.078 -212.495)" fill="#fff"/>
    <path id="Path_5224" data-name="Path 5224" d="M717.649,254.087q2.072,3.3,4.145,0-2.073-3.3-4.145,0" transform="translate(-456.309 -179.317)" fill="#fff"/>
    <path id="Path_5225" data-name="Path 5225" d="M560.216,235.424q3.532-1.4,0-2.808-3.531,1.4,0,2.808" transform="translate(-355.084 -165.236)" fill="#fff"/>
    <path id="Path_5226" data-name="Path 5226" d="M344.987,214.234q-1.852-2.945-3.7,0,1.852,2.945,3.7,0" transform="translate(-217.001 -151.133)" fill="#fff"/>
    <path id="Path_5227" data-name="Path 5227" d="M75.406,59.288q-1.7-2.709-3.407,0,1.7,2.709,3.407,0" transform="translate(-45.78 -41.153)" fill="#fff"/>
    <path id="Path_5228" data-name="Path 5228" d="M1957.155,108.175q3.861-1.535,0-3.071-3.861,1.536,0,3.071" transform="translate(-1243.207 -74.66)" fill="#fff"/>
    <path id="Path_5229" data-name="Path 5229" d="M1663.923,139.727q4.067-1.617,0-3.234-4.067,1.617,0,3.234" transform="translate(-1056.693 -96.957)" fill="#fff"/>
    <path id="Path_5230" data-name="Path 5230" d="M1517.129,193.033q4.063-1.615,0-3.23-4.063,1.615,0,3.23" transform="translate(-963.357 -134.824)" fill="#fff"/>
    <path id="Path_5231" data-name="Path 5231" d="M1073.71,266.686q-3.766,1.5,0,2.994,3.766-1.5,0-2.994" transform="translate(-681.509 -189.437)" fill="#fff"/>
    <path id="Path_5232" data-name="Path 5232" d="M873.634,301.877c0-1.983-2.161-1.8-2.161-.123,0,2.225,2.161,1.5,2.161.123" transform="translate(-554.116 -213.417)" fill="#fff"/>
    <path id="Path_5233" data-name="Path 5233" d="M771.675,362.438q1.882,2.993,3.764,0-1.882-2.993-3.764,0" transform="translate(-490.661 -256.39)" fill="#fff"/>
    <path id="Path_5234" data-name="Path 5234" d="M609.482,357.4q1.846,2.935,3.692,0-1.846-2.936-3.692,0" transform="translate(-387.532 -252.832)" fill="#fff"/>
    <path id="Path_5235" data-name="Path 5235" d="M558.142,399.287c-.609-1.1-3.646-1.509-3.646.608,0,2.048,4.417,1.479,3.646-.608" transform="translate(-352.57 -282.986)" fill="#fff"/>
    <path id="Path_5236" data-name="Path 5236" d="M287.714,459.7c-1.228-.21-4.682,3.089-.414,3.089,5.178,0,.5-2.849.414-3.089" transform="translate(-181.36 -326.538)" fill="#fff"/>
    <path id="Path_5237" data-name="Path 5237" d="M249.816,472.6c2.938,0,1.262-2.863,0-2.863q-3.6,1.431,0,2.863" transform="translate(-157.698 -333.674)" fill="#fff"/>
    <path id="Path_5238" data-name="Path 5238" d="M1979.661,246.277q-4.091,1.626,0,3.253,4.091-1.626,0-3.253" transform="translate(-1257.444 -174.94)" fill="#fff"/>
    <path id="Path_5239" data-name="Path 5239" d="M1814.748,284.579q1.707,2.714,3.414,0-1.706-2.714-3.414,0" transform="translate(-1153.886 -201.183)" fill="#fff"/>
    <path id="Path_5240" data-name="Path 5240" d="M1778.276,237.569q3.783-1.5,0-3.007-3.782,1.5,0,3.007" transform="translate(-1129.494 -166.618)" fill="#fff"/>
    <path id="Path_5241" data-name="Path 5241" d="M1696.715,265.4q3.514-1.4,0-2.794-3.514,1.4,0,2.794" transform="translate(-1077.719 -186.54)" fill="#fff"/>
    <path id="Path_5242" data-name="Path 5242" d="M1609.924,220.31q-3.373,1.342,0,2.683,3.374-1.341,0-2.683" transform="translate(-1022.579 -156.495)" fill="#fff"/>
    <path id="Path_5243" data-name="Path 5243" d="M1452.457,169.786c0,2.623,2.164-.187,3.5.53.61-1.222-3.5-3.469-3.5-.53" transform="translate(-923.528 -119.577)" fill="#fff"/>
    <path id="Path_5244" data-name="Path 5244" d="M1383.495,157.067q1.875,2.981,3.749,0-1.875-2.981-3.749,0" transform="translate(-879.679 -110.513)" fill="#fff"/>
    <path id="Path_5245" data-name="Path 5245" d="M1373.944,143.829q3.72-1.479,0-2.958-3.72,1.479,0,2.958" transform="translate(-872.424 -100.067)" fill="#fff"/>
    <path id="Path_5246" data-name="Path 5246" d="M1307.516,100.018q-3.666,1.457,0,2.915,3.665-1.458,0-2.915" transform="translate(-830.203 -71.047)" fill="#fff"/>
    <path id="Path_5247" data-name="Path 5247" d="M1519.22,213.671q1.753,2.786,3.5,0-1.752-2.786-3.5,0" transform="translate(-965.978 -150.789)" fill="#fff"/>
    <path id="Path_5248" data-name="Path 5248" d="M1451.736,237.523q3.937-1.565,0-3.13-3.937,1.566,0,3.13" transform="translate(-921.818 -166.498)" fill="#fff"/>
    <path id="Path_5249" data-name="Path 5249" d="M1403.967,215.207q-3.969,1.578,0,3.156,3.968-1.578,0-3.156" transform="translate(-891.434 -152.87)" fill="#fff"/>
    <path id="Path_5250" data-name="Path 5250" d="M1318.615,177.559q3.785-1.5,0-3.009-3.785,1.5,0,3.009" transform="translate(-837.223 -123.99)" fill="#fff"/>
    <path id="Path_5251" data-name="Path 5251" d="M943.253,203.031q1.766,2.809,3.532,0-1.766-2.809-3.532,0" transform="translate(-599.756 -143.223)" fill="#fff"/>
    <path id="Path_5252" data-name="Path 5252" d="M933.976,176.141q2.083,3.314,4.167,0-2.083-3.314-4.167,0" transform="translate(-593.858 -123.943)" fill="#fff"/>
    <path id="Path_5253" data-name="Path 5253" d="M505.844,229.088q-3.706,1.473,0,2.946,3.706-1.473,0-2.946" transform="translate(-320.457 -162.73)" fill="#fff"/>
    <path id="Path_5254" data-name="Path 5254" d="M363.178,225.094q3.474-1.381,0-2.762-3.474,1.381,0,2.762" transform="translate(-229.818 -157.931)" fill="#fff"/>
    <path id="Path_5255" data-name="Path 5255" d="M189.272,204.006q3.894-1.548,0-3.1-3.894,1.548,0,3.1" transform="translate(-119.108 -142.714)" fill="#fff"/>
    <path id="Path_5256" data-name="Path 5256" d="M1794.745,983.537q-1.765-2.807-3.529,0,1.764,2.806,3.529,0" transform="translate(-1138.924 -697.643)" fill="#fff"/>
    <path id="Path_5257" data-name="Path 5257" d="M1727.482,984.586q4.183-1.663,0-3.326-4.183,1.663,0,3.326" transform="translate(-1097.07 -697.023)" fill="#fff"/>
    <path id="Path_5258" data-name="Path 5258" d="M1576.862,1000.7q3.633-1.444,0-2.889-3.633,1.445,0,2.889" transform="translate(-1001.474 -708.78)" fill="#fff"/>
    <path id="Path_5259" data-name="Path 5259" d="M1463.5,975.017q-1.952-3.1-3.9,0,1.953,3.1,3.9,0" transform="translate(-928.067 -691.485)" fill="#fff"/>
    <path id="Path_5260" data-name="Path 5260" d="M1326.971,994.737q-3.407,1.354,0,2.71,3.408-1.355,0-2.71" transform="translate(-842.656 -706.596)" fill="#fff"/>
    <path id="Path_5261" data-name="Path 5261" d="M1238.679,927.177q1.751,2.784,3.5,0-1.75-2.785-3.5,0" transform="translate(-787.6 -657.616)" fill="#fff"/>
    <path id="Path_5262" data-name="Path 5262" d="M768.327,820.983q-4.208,1.673,0,3.346,4.208-1.673,0-3.346" transform="translate(-487.194 -583.172)" fill="#fff"/>
    <path id="Path_5263" data-name="Path 5263" d="M714.649,823.2q-1.686-2.68-3.371,0,1.686,2.68,3.371,0" transform="translate(-452.258 -583.794)" fill="#fff"/>
    <path id="Path_5264" data-name="Path 5264" d="M673.191,822.841q-1.783-2.835-3.566,0,1.783,2.836,3.566,0" transform="translate(-425.773 -583.485)" fill="#fff"/>
    <path id="Path_5265" data-name="Path 5265" d="M543.592,840.073q3.589-1.427,0-2.854-3.59,1.427,0,2.854" transform="translate(-344.495 -594.705)" fill="#fff"/>
    <path id="Path_5266" data-name="Path 5266" d="M443.55,814.717q-1.753-2.787-3.505,0,1.752,2.787,3.505,0" transform="translate(-279.797 -577.732)" fill="#fff"/>
    <path id="Path_5267" data-name="Path 5267" d="M262.151,760.717q-1.816-2.888-3.633,0,1.817,2.888,3.633,0" transform="translate(-164.376 -539.338)" fill="#fff"/>
    <path id="Path_5268" data-name="Path 5268" d="M116.582,742.125q1.684,2.678,3.368,0-1.684-2.678-3.368,0" transform="translate(-74.127 -526.206)" fill="#fff"/>
    <path id="Path_5269" data-name="Path 5269" d="M1873.235,1035.276q-1.819-2.893-3.638,0,1.819,2.893,3.638,0" transform="translate(-1188.761 -734.364)" fill="#fff"/>
    <path id="Path_5270" data-name="Path 5270" d="M1783.5,987.821q-4.18,1.662,0,3.324,4.179-1.662,0-3.324" transform="translate(-1132.686 -701.683)" fill="#fff"/>
    <path id="Path_5271" data-name="Path 5271" d="M1753.7,1023.638q-3.932,1.563,0,3.126,3.932-1.563,0-3.126" transform="translate(-1113.817 -727.125)" fill="#fff"/>
    <path id="Path_5272" data-name="Path 5272" d="M1724.411,992.627q-4.19,1.666,0,3.332,4.191-1.666,0-3.332" transform="translate(-1095.114 -705.097)" fill="#fff"/>
    <path id="Path_5273" data-name="Path 5273" d="M1677.059,1005.994q-1.889-3-3.776,0,1.888,3,3.776,0" transform="translate(-1063.938 -713.525)" fill="#fff"/>
    <path id="Path_5274" data-name="Path 5274" d="M1655.531,991.185q-1.753-2.786-3.5,0,1.752,2.786,3.5,0" transform="translate(-1050.422 -703.083)" fill="#fff"/>
    <path id="Path_5275" data-name="Path 5275" d="M1603.308,1005.157q-4.021,1.6,0,3.2,4.021-1.6,0-3.2" transform="translate(-1018.166 -713.997)" fill="#fff"/>
    <path id="Path_5276" data-name="Path 5276" d="M1532.295,978.124q4.228-1.681,0-3.362-4.228,1.681,0,3.362" transform="translate(-972.948 -692.407)" fill="#fff"/>
    <path id="Path_5277" data-name="Path 5277" d="M1484.812,1001.631q-2-3.176-3.994,0,2,3.176,3.994,0" transform="translate(-941.561 -710.365)" fill="#fff"/>
    <path id="Path_5278" data-name="Path 5278" d="M1390.882,992.4q-3.43,1.364,0,2.728,3.431-1.365,0-2.728" transform="translate(-883.286 -704.938)" fill="#fff"/>
    <path id="Path_5279" data-name="Path 5279" d="M1360.669,983.228q-3.878,1.542,0,3.083,3.878-1.542,0-3.083" transform="translate(-863.932 -698.42)" fill="#fff"/>
    <path id="Path_5280" data-name="Path 5280" d="M1316.736,978.978q-3.958,1.573,0,3.147,3.957-1.574,0-3.147" transform="translate(-835.973 -695.402)" fill="#fff"/>
    <path id="Path_5281" data-name="Path 5281" d="M1174.431,969.985q-4.064,1.616,0,3.231,4.063-1.615,0-3.231" transform="translate(-745.456 -689.013)" fill="#fff"/>
    <path id="Path_5282" data-name="Path 5282" d="M1134.472,984.966q-1.953-3.106-3.907,0,1.953,3.106,3.907,0" transform="translate(-718.857 -698.552)" fill="#fff"/>
    <path id="Path_5283" data-name="Path 5283" d="M997.487,968.712q-3.607,1.434,0,2.868,3.607-1.434,0-2.868" transform="translate(-633.093 -688.109)" fill="#fff"/>
    <path id="Path_5284" data-name="Path 5284" d="M962.879,936.976q-3.391,1.348,0,2.7,3.391-1.348,0-2.7" transform="translate(-611.157 -665.566)" fill="#fff"/>
    <path id="Path_5285" data-name="Path 5285" d="M869.744,987.406q-1.759-2.8-3.518,0,1.759,2.8,3.518,0" transform="translate(-550.78 -700.395)" fill="#fff"/>
    <path id="Path_5286" data-name="Path 5286" d="M746.648,982.726q-3.4,1.353,0,2.707,3.4-1.354,0-2.707" transform="translate(-473.665 -698.064)" fill="#fff"/>
    <path id="Path_5287" data-name="Path 5287" d="M707.981,950.108q-1.818-2.89-3.635,0,1.818,2.891,3.635,0" transform="translate(-447.85 -673.868)" fill="#fff"/>
    <path id="Path_5288" data-name="Path 5288" d="M546.4,1008.084q-1.9-3.026-3.8,0c0,1.744,3.8,2.279,3.8,0" transform="translate(-345 -715.002)" fill="#fff"/>
    <path id="Path_5289" data-name="Path 5289" d="M490.908,994.437q4.078-1.621,0-3.242-4.077,1.621,0,3.242" transform="translate(-310.842 -704.08)" fill="#fff"/>
    <path id="Path_5290" data-name="Path 5290" d="M1866.911,1090.44q-3.365,1.338,0,2.676,3.365-1.338,0-2.676" transform="translate(-1185.984 -774.577)" fill="#fff"/>
    <path id="Path_5291" data-name="Path 5291" d="M1678.692,1087.366q-1.778-2.827-3.555,0,1.777,2.827,3.555,0" transform="translate(-1065.116 -771.389)" fill="#fff"/>
    <path id="Path_5292" data-name="Path 5292" d="M1623.59,1069.728q-3.763,1.5,0,2.992,3.763-1.5,0-2.992" transform="translate(-1031.145 -759.864)" fill="#fff"/>
    <path id="Path_5293" data-name="Path 5293" d="M1271.128,1068.5q4.148-1.65,0-3.3-4.149,1.649,0,3.3" transform="translate(-806.913 -756.647)" fill="#fff"/>
    <path id="Path_5294" data-name="Path 5294" d="M1055.5,1061.181q4.213-1.675,0-3.35-4.213,1.675,0,3.35" transform="translate(-669.787 -751.413)" fill="#fff"/>
    <path id="Path_5295" data-name="Path 5295" d="M924.18,1068q3.584-1.425,0-2.85-3.584,1.425,0,2.85" transform="translate(-586.49 -756.614)" fill="#fff"/>
    <path id="Path_5296" data-name="Path 5296" d="M797,1070.29q4.221-1.678,0-3.356-4.221,1.678,0,3.356" transform="translate(-505.42 -757.879)" fill="#fff"/>
    <path id="Path_5297" data-name="Path 5297" d="M1979.8,1164.494q-3.563,1.417,0,2.833,3.563-1.416,0-2.833" transform="translate(-1257.701 -827.18)" fill="#fff"/>
    <path id="Path_5298" data-name="Path 5298" d="M1959.952,1216.612q-3.954,1.572,0,3.144,3.953-1.572,0-3.144" transform="translate(-1244.956 -864.201)" fill="#fff"/>
    <path id="Path_5299" data-name="Path 5299" d="M1930.719,1159.119q-3.815,1.516,0,3.033,3.814-1.517,0-3.033" transform="translate(-1226.413 -823.362)" fill="#fff"/>
    <path id="Path_5300" data-name="Path 5300" d="M1766.405,1186.8q-4.02,1.6,0,3.2,4.02-1.6,0-3.2" transform="translate(-1121.87 -843.021)" fill="#fff"/>
    <path id="Path_5301" data-name="Path 5301" d="M1537.322,1209.778q-3.926,1.561,0,3.121,3.926-1.56,0-3.121" transform="translate(-976.24 -859.346)" fill="#fff"/>
    <path id="Path_5302" data-name="Path 5302" d="M1150.183,1220.72q-3.48,1.383,0,2.767,3.48-1.383,0-2.767" transform="translate(-730.224 -867.119)" fill="#fff"/>
    <path id="Path_5303" data-name="Path 5303" d="M1063.93,1197.026q-3.825,1.521,0,3.041,3.825-1.521,0-3.041" transform="translate(-675.272 -850.288)" fill="#fff"/>
    <path id="Path_5304" data-name="Path 5304" d="M790.862,1204.874q-3.212,1.617.367,2.97c5.872,0-.5-3.223-.367-2.97" transform="translate(-501.894 -855.853)" fill="#fff"/>
    <path id="Path_5305" data-name="Path 5305" d="M757.027,1190.677c-3.156,0-2.089,3.145,0,3.145q3.955-1.573,0-3.145" transform="translate(-480.083 -845.778)" fill="#fff"/>
    <path id="Path_5306" data-name="Path 5306" d="M714.374,1230.266q-3.771,1.5,0,3,3.771-1.5,0-3" transform="translate(-453.027 -873.9)" fill="#fff"/>
    <path id="Path_5307" data-name="Path 5307" d="M342.924,1208.932q-3.583,1.424,0,2.849,3.583-1.424,0-2.849" transform="translate(-216.905 -858.745)" fill="#fff"/>
    <path id="Path_5308" data-name="Path 5308" d="M283.582,1147.278q-2.111-3.357-4.222,0,2.111,3.357,4.222,0" transform="translate(-177.628 -813.758)" fill="#fff"/>
    <path id="Path_5309" data-name="Path 5309" d="M203.391,1178.77q-3.587,1.426,0,2.852,3.587-1.427,0-2.852" transform="translate(-128.184 -837.32)" fill="#fff"/>
    <path id="Path_5310" data-name="Path 5310" d="M2.465,1189.2q-3.9,1.551,0,3.1,3.9-1.55,0-3.1" transform="translate(-0.327 -844.73)" fill="#fff"/>
    <path id="Path_5311" data-name="Path 5311" d="M1558.006,1072.606q-1.962-3.119-3.923,0,1.961,3.119,3.923,0" transform="translate(-988.146 -760.801)" fill="#fff"/>
    <path id="Path_5312" data-name="Path 5312" d="M1505.85,1098.656q-4.039,1.606,0,3.212,4.039-1.606,0-3.212" transform="translate(-956.193 -780.413)" fill="#fff"/>
    <path id="Path_5313" data-name="Path 5313" d="M1388.21,1133.169q3.784-1.5,0-3.008-3.783,1.5,0,3.008" transform="translate(-881.475 -802.792)" fill="#fff"/>
    <path id="Path_5314" data-name="Path 5314" d="M1367.538,1086.594q-3.633,1.444,0,2.889,3.633-1.444,0-2.889" transform="translate(-868.378 -771.845)" fill="#fff"/>
    <path id="Path_5315" data-name="Path 5315" d="M1162.023,1128.34c1.151-2.346-4.564-2.892-3.612-.149-.221.275,1.9,1.47,3.612.149" transform="translate(-736.494 -800.084)" fill="#fff"/>
    <path id="Path_5316" data-name="Path 5316" d="M687.932,1060.278q-3.38,1.344,0,2.688,3.38-1.344,0-2.688" transform="translate(-436.339 -753.151)" fill="#fff"/>
    <path id="Path_5317" data-name="Path 5317" d="M107.81,934.683q-1.8-2.863-3.6,0,1.8,2.863,3.6,0" transform="translate(-66.26 -662.92)" fill="#fff"/>
    <path id="Path_5318" data-name="Path 5318" d="M1591.45,897.048q-3.414,1.358,0,2.715,3.415-1.358,0-2.715" transform="translate(-1010.82 -637.204)" fill="#fff"/>
    <path id="Path_5319" data-name="Path 5319" d="M1550.633,927.262q-4.225,1.679,0,3.359,4.225-1.68,0-3.359" transform="translate(-984.609 -658.666)" fill="#fff"/>
    <path id="Path_5320" data-name="Path 5320" d="M1492.469,901.665q-4.072,1.619,0,3.238,4.072-1.619,0-3.238" transform="translate(-947.674 -640.484)" fill="#fff"/>
    <path id="Path_5321" data-name="Path 5321" d="M1397.877,904.864c0-1.3-3.126-2.492-3.126,0s3.126,1.306,3.126,0" transform="translate(-886.836 -641.72)" fill="#fff"/>
    <path id="Path_5322" data-name="Path 5322" d="M1358.1,922.754q-2.1-3.344-4.206,0,2.1,3.344,4.206,0" transform="translate(-860.855 -654.276)" fill="#fff"/>
    <path id="Path_5323" data-name="Path 5323" d="M1135.745,1011.9q4.077-1.621,0-3.242-4.077,1.621,0,3.242" transform="translate(-720.854 -716.484)" fill="#fff"/>
    <path id="Path_5324" data-name="Path 5324" d="M972.656,1005.611q4.095-1.628,0-3.256-4.095,1.628,0,3.256" transform="translate(-617.15 -712.007)" fill="#fff"/>
    <path id="Path_5325" data-name="Path 5325" d="M819.333,998.419q-1.877-2.984-3.753,0,1.877,2.984,3.753,0" transform="translate(-518.577 -708.151)" fill="#fff"/>
    <path id="Path_5326" data-name="Path 5326" d="M776.546,1045.971q-3.911,1.555,0,3.11,3.911-1.555,0-3.11" transform="translate(-492.514 -742.989)" fill="#fff"/>
    <path id="Path_5327" data-name="Path 5327" d="M770.909,1018.519q-1.907-3.033-3.815,0,1.908,3.032,3.815,0" transform="translate(-487.748 -722.411)" fill="#fff"/>
    <path id="Path_5328" data-name="Path 5328" d="M628.821,973.357q-3.866,1.537,0,3.074,3.866-1.537,0-3.074" transform="translate(-398.6 -691.409)" fill="#fff"/>
    <path id="Path_5329" data-name="Path 5329" d="M594.232,1009.747q-4.048,1.609,0,3.218,4.049-1.609,0-3.218" transform="translate(-376.549 -717.258)" fill="#fff"/>
    <path id="Path_5330" data-name="Path 5330" d="M482.763,980.8q3.926-1.561,0-3.121-3.926,1.56,0,3.121" transform="translate(-305.711 -694.479)" fill="#fff"/>
    <path id="Path_5331" data-name="Path 5331" d="M246.49,935.583q4.086-1.625,0-3.249-4.086,1.625,0,3.249" transform="translate(-155.429 -662.268)" fill="#fff"/>
    <path id="Path_5332" data-name="Path 5332" d="M216.136,920.285q3.714-1.476,0-2.953c-1.811,0-3.059,2.953,0,2.953" transform="translate(-136.248 -651.612)" fill="#fff"/>
    <path id="Path_5333" data-name="Path 5333" d="M142.264,886.065q-1.85-2.942-3.7,0,1.85,2.942,3.7,0" transform="translate(-88.105 -628.358)" fill="#fff"/>
    <path id="Path_5334" data-name="Path 5334" d="M82.3,886.839q-1.843-2.93-3.685,0,1.842,2.93,3.685,0" transform="translate(-49.983 -628.912)" fill="#fff"/>
    <path id="Path_5335" data-name="Path 5335" d="M59.331,887.631q3.429-1.364,0-2.727-3.429,1.363,0,2.727" transform="translate(-36.635 -628.578)" fill="#fff"/>
    <path id="Path_5336" data-name="Path 5336" d="M38.286,892.191q-1.758-2.8-3.517,0,1.758,2.8,3.517,0" transform="translate(-22.107 -632.761)" fill="#fff"/>
    <path id="Path_5337" data-name="Path 5337" d="M1970.576,114.161q4.168-1.657,0-3.313-4.167,1.656,0,3.313" transform="translate(-1251.643 -78.74)" fill="#fff"/>
    <path id="Path_5338" data-name="Path 5338" d="M1528.083,154.842q-4.137,1.645,0,3.289,4.136-1.645,0-3.289" transform="translate(-970.299 -109.991)" fill="#fff"/>
    <path id="Path_5339" data-name="Path 5339" d="M1353.532,149.093c-2.915,0-2.635,3.324,0,3.324q4.179-1.662,0-3.324" transform="translate(-859.303 -105.907)" fill="#fff"/>
    <path id="Path_5340" data-name="Path 5340" d="M1345.039,135.556q3.894-1.548,0-3.1-3.894,1.548,0,3.1" transform="translate(-853.99 -94.092)" fill="#fff"/>
    <path id="Path_5341" data-name="Path 5341" d="M1119.119,225.952q2.007,3.192,4.014,0c0-2.139-4.014-2.029-4.014,0" transform="translate(-711.579 -159.392)" fill="#fff"/>
    <path id="Path_5342" data-name="Path 5342" d="M1000.063,216.245q1.8,2.859,3.6,0-1.8-2.859-3.6,0" transform="translate(-635.878 -152.591)" fill="#fff"/>
    <path id="Path_5343" data-name="Path 5343" d="M941.19,229.78q-4.192,1.666,0,3.333,4.192-1.666,0-3.333" transform="translate(-597.112 -163.221)" fill="#fff"/>
    <path id="Path_5344" data-name="Path 5344" d="M758.6,220.763q3.984-1.584,0-3.168-3.984,1.584,0,3.168" transform="translate(-481.083 -154.566)" fill="#fff"/>
    <path id="Path_5345" data-name="Path 5345" d="M671.692,253.227q-3.607,1.435,0,2.868,3.607-1.433,0-2.868" transform="translate(-425.94 -179.877)" fill="#fff"/>
    <path id="Path_5346" data-name="Path 5346" d="M568.19,299c0-1.755,3.891,4.312,3.891,0q-1.946-3.094-3.891,0" transform="translate(-361.277 -211.292)" fill="#fff"/>
    <path id="Path_5347" data-name="Path 5347" d="M469.034,347.726c-1.182,0-2.969,2.685.275,2.685,3.676,0,.969-2.685-.275-2.685" transform="translate(-297.233 -247.002)" fill="#fff"/>
    <path id="Path_5348" data-name="Path 5348" d="M224.838,318.765q-3.727,1.482,0,2.964,3.727-1.482,0-2.964" transform="translate(-141.776 -226.43)" fill="#fff"/>
    <path id="Path_5349" data-name="Path 5349" d="M189.761,273.683c0-1.568-1.847-1.837-1.847.084,0,2.2,1.847,1.37,1.847-.084" transform="translate(-119.483 -193.507)" fill="#fff"/>
    <path id="Path_5350" data-name="Path 5350" d="M36.228,244.88q1.871,2.975,3.741,0-1.87-2.975-3.741,0" transform="translate(-23.035 -172.891)" fill="#fff"/>
    <path id="Path_5351" data-name="Path 5351" d="M1520.451,2.912q3.656-1.454,0-2.907-3.658,1.454,0,2.907" transform="translate(-965.598 -0.005)" fill="#fff"/>
    <path id="Path_5352" data-name="Path 5352" d="M1383.29,40.1q3.436-1.367,0-2.732-3.436,1.366,0,2.732" transform="translate(-878.456 -26.542)" fill="#fff"/>
    <path id="Path_5353" data-name="Path 5353" d="M1384.914,79.908q2.08,3.307,4.16,0-2.08-3.307-4.16,0" transform="translate(-880.582 -55.588)" fill="#fff"/>
    <path id="Path_5354" data-name="Path 5354" d="M1297.22,44.811c2.4,0,3.115-3.291,0-3.291q-4.139,1.645,0,3.291" transform="translate(-823.506 -29.494)" fill="#fff"/>
    <path id="Path_5355" data-name="Path 5355" d="M1175.105,112.06c0,1.489,3.062,1.014,3.062-.7a1.526,1.526,0,0,0-.625-1.161c-2.791-2.13-2.436,1.495-2.436,1.859" transform="translate(-747.168 -77.807)" fill="#fff"/>
    <path id="Path_5356" data-name="Path 5356" d="M1105.526,120.954q3.942-1.567,0-3.134-3.941,1.567,0,3.134" transform="translate(-701.683 -83.693)" fill="#fff"/>
    <path id="Path_5357" data-name="Path 5357" d="M954.622,118.635q3.508-1.394,0-2.789-3.508,1.395,0,2.789" transform="translate(-605.87 -82.29)" fill="#fff"/>
    <path id="Path_5358" data-name="Path 5358" d="M711.607,70.287c0,1.087,3.421,1.341,3.421,0q-1.71-2.72-3.421,0" transform="translate(-452.467 -48.962)" fill="#fff"/>
    <path id="Path_5359" data-name="Path 5359" d="M696.539,35.209q3.713-1.476,0-2.953-3.713,1.476,0,2.953" transform="translate(-441.706 -22.914)" fill="#fff"/>
    <path id="Path_5360" data-name="Path 5360" d="M557.283,61.664c0,.359-5.018,3.077.221,3.077,5.458,0-.221-3.12-.221-3.077" transform="translate(-352.965 -43.803)" fill="#fff"/>
    <path id="Path_5361" data-name="Path 5361" d="M451.483,49.9q1.856,2.953,3.713,0-1.856-2.952-3.713,0" transform="translate(-287.07 -34.4)" fill="#fff"/>
    <path id="Path_5362" data-name="Path 5362" d="M444.521,16.349q-4,1.591,0,3.183,4-1.592,0-3.183" transform="translate(-281.371 -11.614)" fill="#fff"/>
    <path id="Path_5363" data-name="Path 5363" d="M402.411,36.761q3.571-1.42,0-2.84-3.571,1.42,0,2.84" transform="translate(-254.733 -24.096)" fill="#fff"/>
    <path id="Path_5364" data-name="Path 5364" d="M386.4,28.595q3.724-1.481,0-2.962-3.725,1.481,0,2.962" transform="translate(-244.503 -18.209)" fill="#fff"/>
    <path id="Path_5365" data-name="Path 5365" d="M345.753,33.488q3.676-1.462,0-2.923-3.676,1.462,0,2.923" transform="translate(-218.675 -21.712)" fill="#fff"/>
    <path id="Path_5366" data-name="Path 5366" d="M217.992,38.345q3.994-1.588,0-3.176-3.995,1.588,0,3.176" transform="translate(-137.337 -24.983)" fill="#fff"/>
    <path id="Path_5367" data-name="Path 5367" d="M876.337,106.416q1.787,2.842,3.574,0-1.787-2.842-3.574,0" transform="translate(-557.209 -74.583)" fill="#fff"/>
    <path id="Path_5368" data-name="Path 5368" d="M832.5,105.094q1.909,3.035,3.817,0-1.909-3.035-3.817,0" transform="translate(-529.335 -73.575)" fill="#fff"/>
    <path id="Path_5369" data-name="Path 5369" d="M795.194,180.041q3.737-1.486,0-2.972-3.737,1.486,0,2.972" transform="translate(-504.427 -125.779)" fill="#fff"/>
    <path id="Path_5370" data-name="Path 5370" d="M503.507,53.307q1.939,3.083,3.878,0-1.939-3.084-3.878,0" transform="translate(-320.149 -36.772)" fill="#fff"/>
    <path id="Path_5371" data-name="Path 5371" d="M441.169,6.5c2.279,0,2.939-3.168,0-3.168q-3.984,1.584,0,3.168" transform="translate(-279.246 -2.372)" fill="#fff"/>
    <path id="Path_5372" data-name="Path 5372" d="M1579.749,1074.686q-4.2,1.669,0,3.337,4.2-1.668,0-3.337" transform="translate(-1003.131 -763.386)" fill="#fff"/>
    <path id="Path_5373" data-name="Path 5373" d="M1487.07,1083.416q-4.017,1.6,0,3.193,4.017-1.6,0-3.193" transform="translate(-944.259 -769.587)" fill="#fff"/>
    <path id="Path_5374" data-name="Path 5374" d="M1319.645,1085.756q-1.878-2.987-3.756,0,1.878,2.987,3.756,0" transform="translate(-836.693 -770.189)" fill="#fff"/>
    <path id="Path_5375" data-name="Path 5375" d="M1241.813,1117.566q-2.043-3.248-4.085,0,2.042,3.248,4.085,0" transform="translate(-786.995 -792.691)" fill="#fff"/>
    <path id="Path_5376" data-name="Path 5376" d="M883.393,1155.848q-1.835-2.918-3.67,0,1.835,2.919,3.67,0" transform="translate(-559.362 -820.002)" fill="#fff"/>
    <path id="Path_5377" data-name="Path 5377" d="M148.682,1169.46q-3.754,1.493,0,2.985,3.754-1.493,0-2.985" transform="translate(-93.344 -830.707)" fill="#fff"/>
    <path id="Path_5378" data-name="Path 5378" d="M169.388,1229.347q-4.223,1.678,0,3.358,4.222-1.679,0-3.358" transform="translate(-106.361 -873.247)" fill="#fff"/>
    <path id="Path_5379" data-name="Path 5379" d="M341.957,1192.486q3.5-1.391,0-2.783-3.5,1.392,0,2.783" transform="translate(-216.316 -845.086)" fill="#fff"/>
    <path id="Path_5380" data-name="Path 5380" d="M382.88,1227.576q-3.667,1.458,0,2.916,3.667-1.458,0-2.916" transform="translate(-242.284 -871.989)" fill="#fff"/>
    <path id="Path_5381" data-name="Path 5381" d="M566.383,1196.058q-2.048-3.257-4.1,0,2.048,3.257,4.1,0" transform="translate(-357.524 -848.444)" fill="#fff"/>
    <path id="Path_5382" data-name="Path 5382" d="M628.839,1218.873q-3.791,1.507,0,3.015,3.791-1.507,0-3.015" transform="translate(-398.635 -865.807)" fill="#fff"/>
    <path id="Path_5383" data-name="Path 5383" d="M1213.928,1207.339q-3.849,1.529,0,3.06,3.849-1.53,0-3.06" transform="translate(-770.638 -857.614)" fill="#fff"/>
    <path id="Path_5384" data-name="Path 5384" d="M1389.656,1205.38q-3.629,1.443,0,2.885,3.629-1.443,0-2.885" transform="translate(-882.443 -856.222)" fill="#fff"/>
    <path id="Path_5385" data-name="Path 5385" d="M1472.292,1224.372q-3.791,1.507,0,3.014,3.79-1.507,0-3.014" transform="translate(-934.935 -869.713)" fill="#fff"/>
    <path id="Path_5386" data-name="Path 5386" d="M1892.465,365.5q-1.826-2.9-3.652,0,1.826,2.9,3.652,0" transform="translate(-1200.979 -258.599)" fill="#fff"/>
    <path id="Path_5387" data-name="Path 5387" d="M1840.092,376.593q-1.742-2.77-3.483,0,1.741,2.769,3.483,0" transform="translate(-1167.786 -266.524)" fill="#fff"/>
    <path id="Path_5388" data-name="Path 5388" d="M1585.335,322.273q-1.935-3.077-3.87,0,1.935,3.077,3.87,0" transform="translate(-1005.556 -227.829)" fill="#fff"/>
    <path id="Path_5389" data-name="Path 5389" d="M1558.021,321.364q-3.974,1.58,0,3.16,3.975-1.58,0-3.16" transform="translate(-989.386 -228.277)" fill="#fff"/>
    <path id="Path_5390" data-name="Path 5390" d="M1450.509,287.221q4.061-1.614,0-3.229-4.06,1.614,0,3.229" transform="translate(-920.999 -201.73)" fill="#fff"/>
    <path id="Path_5391" data-name="Path 5391" d="M1393.11,304.084q-3.573,1.42,0,2.841,3.572-1.421,0-2.841" transform="translate(-884.657 -216.002)" fill="#fff"/>
    <path id="Path_5392" data-name="Path 5392" d="M1247.208,251.724q-3.5,1.39,0,2.78,3.5-1.39,0-2.78" transform="translate(-791.912 -178.809)" fill="#fff"/>
    <path id="Path_5393" data-name="Path 5393" d="M1213.3,252.547q4.054-1.612,0-3.224-4.055,1.612,0,3.224" transform="translate(-770.172 -177.104)" fill="#fff"/>
    <path id="Path_5394" data-name="Path 5394" d="M1147.939,247.534q-3.714,1.476,0,2.953,3.713-1.476,0-2.953" transform="translate(-728.723 -175.833)" fill="#fff"/>
    <path id="Path_5395" data-name="Path 5395" d="M1082.657,247.923c-2.132,0-2.3,2.686,0,2.686q3.378-1.343,0-2.686" transform="translate(-687.338 -176.109)" fill="#fff"/>
    <path id="Path_5396" data-name="Path 5396" d="M1980.495,836.185q-4.226,1.68,0,3.359,4.224-1.68,0-3.359" transform="translate(-1257.931 -593.971)" fill="#fff"/>
    <path id="Path_5397" data-name="Path 5397" d="M1907.278,822.932c0-.905-3.406-2.442-3.406.479s3.406.381,3.406-.479" transform="translate(-1210.555 -583.689)" fill="#fff"/>
    <path id="Path_5398" data-name="Path 5398" d="M1842.863,804.284q1.81,2.878,3.62,0-1.809-2.878-3.62,0" transform="translate(-1171.763 -570.288)" fill="#fff"/>
    <path id="Path_5399" data-name="Path 5399" d="M1816.942,788.315q-1.7-2.7-3.39,0,1.7,2.7,3.39,0" transform="translate(-1153.126 -559.01)" fill="#fff"/>
    <path id="Path_5400" data-name="Path 5400" d="M1560.821,872.375c2.394,0-3.472-4.8-3.472-.512q1.234,2.836,3.472.512" transform="translate(-990.222 -618.049)" fill="#fff"/>
    <path id="Path_5401" data-name="Path 5401" d="M1419.364,874.839q-2.06-3.275-4.12,0,2.06,3.276,4.12,0" transform="translate(-899.866 -620.265)" fill="#fff"/>
    <path id="Path_5402" data-name="Path 5402" d="M1392.118,857.758q-1.8-2.861-3.6,0,1.8,2.861,3.6,0" transform="translate(-882.874 -608.279)" fill="#fff"/>
    <path id="Path_5403" data-name="Path 5403" d="M1307.065,878.432q-3.439,1.367,0,2.734,3.44-1.367,0-2.734" transform="translate(-829.989 -623.98)" fill="#fff"/>
    <path id="Path_5404" data-name="Path 5404" d="M1236.229,884.635q2.386-1.766-.994-2.931c-6.352,0,1.224,3.44.994,2.931" transform="translate(-783.793 -626.305)" fill="#fff"/>
    <path id="Path_5405" data-name="Path 5405" d="M1024.251,847.23c-1.811,0-2.855,2.778,0,2.778q3.494-1.389,0-2.778" transform="translate(-650.132 -601.817)" fill="#fff"/>
    <path id="Path_5406" data-name="Path 5406" d="M889.312,862.387q-2.1-3.336-4.2,0,2.1,3.336,4.2,0" transform="translate(-562.791 -611.398)" fill="#fff"/>
    <path id="Path_5407" data-name="Path 5407" d="M804.086,836.655q-3.692,1.468,0,2.935,3.692-1.468,0-2.935" transform="translate(-510.095 -594.305)" fill="#fff"/>
    <path id="Path_5408" data-name="Path 5408" d="M723.983,841.778c0-3.71-1.711,2.778-4.006.213.459,2.728,4.006.832,4.006-.213" transform="translate(-457.789 -597.109)" fill="#fff"/>
    <path id="Path_5409" data-name="Path 5409" d="M702.118,851.732c1.343.256,4.843-3.187.473-3.187-5.424,0-.59,2.9-.473,3.187" transform="translate(-445.102 -602.751)" fill="#fff"/>
    <path id="Path_5410" data-name="Path 5410" d="M643.267,835.456q3.822-1.519,0-3.039-3.822,1.52,0,3.039" transform="translate(-407.799 -591.294)" fill="#fff"/>
    <path id="Path_5411" data-name="Path 5411" d="M194.564,860.078q3.562-1.237.993-3.08c1.564,1.769-6.446,3.08-.993,3.08" transform="translate(-122.486 -608.755)" fill="#fff"/>
    <path id="Path_5412" data-name="Path 5412" d="M174.289,815.044q-3.932,1.563,0,3.126,3.932-1.563,0-3.126" transform="translate(-109.57 -578.954)" fill="#fff"/>
    <path id="Path_5413" data-name="Path 5413" d="M44.469,847.5q-4.02,1.6,0,3.2,4.019-1.6,0-3.2" transform="translate(-26.997 -602.006)" fill="#fff"/>
    <path id="Path_5414" data-name="Path 5414" d="M1598.4,318.042q-1.961-3.12-3.923,0,1.961,3.12,3.923,0" transform="translate(-1013.83 -224.809)" fill="#fff"/>
    <path id="Path_5415" data-name="Path 5415" d="M1576.958,309.671q3.792-1.508,0-3.015-3.792,1.508,0,3.015" transform="translate(-1001.485 -217.829)" fill="#fff"/>
    <path id="Path_5416" data-name="Path 5416" d="M1294.027,298.349q-1.832-2.913-3.664,0,1.832,2.913,3.664,0" transform="translate(-820.462 -210.894)" fill="#fff"/>
    <path id="Path_5417" data-name="Path 5417" d="M1268.656,361.555q-3.457,1.375,0,2.749,3.457-1.375,0-2.749" transform="translate(-805.561 -256.826)" fill="#fff"/>
    <path id="Path_5418" data-name="Path 5418" d="M1197.351,392.159q3.67-1.459,0-2.918-3.67,1.459,0,2.918" transform="translate(-760.155 -276.492)" fill="#fff"/>
    <path id="Path_5419" data-name="Path 5419" d="M1172.676,353.759q-3.786,1.506,0,3.011,3.786-1.505,0-3.011" transform="translate(-744.429 -251.288)" fill="#fff"/>
    <path id="Path_5420" data-name="Path 5420" d="M1120.486,357.345q4.209-1.674,0-3.347-4.21,1.674,0,3.347" transform="translate(-711.109 -251.458)" fill="#fff"/>
    <path id="Path_5421" data-name="Path 5421" d="M1008.185,412.076q1.943,3.09,3.886,0-1.943-3.09-3.886,0" transform="translate(-641.043 -291.615)" fill="#fff"/>
    <path id="Path_5422" data-name="Path 5422" d="M932.148,404.015q3.79-1.507,0-3.014-3.79,1.507,0,3.014" transform="translate(-591.49 -284.845)" fill="#fff"/>
    <path id="Path_5423" data-name="Path 5423" d="M928.177,458.554q1.721,2.737,3.442,0-1.721-2.737-3.442,0" transform="translate(-590.171 -324.755)" fill="#fff"/>
    <path id="Path_5424" data-name="Path 5424" d="M883.8,458.021q1.877,2.985,3.754,0-1.877-2.985-3.754,0" transform="translate(-561.953 -324.288)" fill="#fff"/>
    <path id="Path_5425" data-name="Path 5425" d="M851.879,449.747q3.557-1.414,0-2.828-3.556,1.414,0,2.828" transform="translate(-540.527 -317.462)" fill="#fff"/>
    <path id="Path_5426" data-name="Path 5426" d="M512.849,398.283q1.71,2.72,3.421,0-1.71-2.72-3.421,0" transform="translate(-326.089 -281.948)" fill="#fff"/>
    <path id="Path_5427" data-name="Path 5427" d="M359.335,450.717q-1.98-3.149-3.96,0,1.98,3.149,3.96,0" transform="translate(-225.961 -319.042)" fill="#fff"/>
    <path id="Path_5428" data-name="Path 5428" d="M14.333,417.287q-2.068-3.288-4.135,0,2.068,3.288,4.135,0" transform="translate(-6.484 -295.246)" fill="#fff"/>
    <path id="Path_5429" data-name="Path 5429" d="M1508.782,345.968q1.861,2.959,3.722,0-1.861-2.96-3.722,0" transform="translate(-959.341 -244.702)" fill="#fff"/>
    <path id="Path_5430" data-name="Path 5430" d="M1303.365,383.929c3.174,0,2.313-3.335,0-3.335q-4.195,1.668,0,3.335" transform="translate(-827.396 -270.35)" fill="#fff"/>
    <path id="Path_5431" data-name="Path 5431" d="M1192.045,350.355q4.041-1.607,0-3.214-4.042,1.607,0,3.214" transform="translate(-756.663 -246.587)" fill="#fff"/>
    <path id="Path_5432" data-name="Path 5432" d="M1101.292,357.719q2.006,3.191,4.013,0-2.007-3.191-4.013,0" transform="translate(-700.243 -252.968)" fill="#fff"/>
    <path id="Path_5433" data-name="Path 5433" d="M798.258,354.7q3.592-1.428,0-2.856-3.591,1.428,0,2.856" transform="translate(-506.422 -249.93)" fill="#fff"/>
    <path id="Path_5434" data-name="Path 5434" d="M659.519,338.55q-4.145,1.648,0,3.3,4.146-1.648,0-3.3" transform="translate(-418.03 -240.484)" fill="#fff"/>
    <path id="Path_5435" data-name="Path 5435" d="M910.14,205.426q-4.087,1.625,0,3.25,4.087-1.625,0-3.25" transform="translate(-577.403 -145.922)" fill="#fff"/>
    <path id="Path_5436" data-name="Path 5436" d="M792.751,191.636q-1.695-2.694-3.388,0,1.694,2.694,3.388,0" transform="translate(-501.907 -135.17)" fill="#fff"/>
    <path id="Path_5437" data-name="Path 5437" d="M577.383,121.358q3.647-1.45,0-2.9-3.647,1.45,0,2.9" transform="translate(-365.963 -84.146)" fill="#fff"/>
    <path id="Path_5438" data-name="Path 5438" d="M561.065,58.078c0,1.927,3.376,1.637,3.376,0,0-2.96-3.376-.613-3.376,0" transform="translate(-356.747 -40.217)" fill="#fff"/>
    <path id="Path_5439" data-name="Path 5439" d="M517.714,62.026q3.839-1.526,0-3.053-3.839,1.526,0,3.053" transform="translate(-327.962 -41.892)" fill="#fff"/>
    <path id="Path_5440" data-name="Path 5440" d="M9.13,56.627q1.809,2.875,3.616,0-1.808-2.875-3.616,0" transform="translate(-5.805 -39.204)" fill="#fff"/>
    <path id="Path_5441" data-name="Path 5441" d="M1272.32,11.14q3.614-1.437,0-2.874-3.614,1.437,0,2.874" transform="translate(-807.841 -5.873)" fill="#fff"/>
    <path id="Path_5442" data-name="Path 5442" d="M1576.444,15.417c1.151,0,4.239-3.26,0-3.26-3.034,0-2.365,3.26,0,3.26" transform="translate(-1001.071 -8.637)" fill="#fff"/>
    <path id="Path_5443" data-name="Path 5443" d="M1593.611,54.836q3.621-1.44,0-2.879-3.62,1.44,0,2.879" transform="translate(-1012.128 -36.908)" fill="#fff"/>
    <path id="Path_5444" data-name="Path 5444" d="M1934.668,208.839q3.757-1.494,0-2.988-3.758,1.494,0,2.988" transform="translate(-1228.941 -146.224)" fill="#fff"/>
    <path id="Path_5445" data-name="Path 5445" d="M1972.153,214.81q2.008,3.194,4.017,0-2.008-3.194-4.017,0" transform="translate(-1253.971 -151.453)" fill="#fff"/>
    <path id="Path_5446" data-name="Path 5446" d="M1812.542,92.645q3.528-1.4,0-2.805-3.527,1.4,0,2.805" transform="translate(-1151.362 -63.817)" fill="#fff"/>
    <path id="Path_5447" data-name="Path 5447" d="M1799.818,1163.561q-2.023-3.218-4.047,0,2.023,3.218,4.047,0" transform="translate(-1141.82 -825.374)" fill="#fff"/>
    <path id="Path_5448" data-name="Path 5448" d="M1687.605,1134.032q-1.709-2.717-3.417,0,1.709,2.717,3.417,0" transform="translate(-1070.871 -804.576)" fill="#fff"/>
    <path id="Path_5449" data-name="Path 5449" d="M1486.141,1149q-3.931,1.563,0,3.126,3.931-1.563,0-3.126" transform="translate(-943.696 -816.17)" fill="#fff"/>
    <path id="Path_5450" data-name="Path 5450" d="M379.151,927.52q1.718,2.733,3.437,0-1.719-2.733-3.437,0" transform="translate(-241.079 -657.878)" fill="#fff"/>
    <path id="Path_5451" data-name="Path 5451" d="M620.113,864.279q-2-3.184-4,0,2,3.183,4,0" transform="translate(-391.746 -612.796)" fill="#fff"/>
    <path id="Path_5452" data-name="Path 5452" d="M720.912,840.358c2.827,0,2.056-2.924,0-2.924-2.756,0-2.067,2.924,0,2.924" transform="translate(-457.228 -594.858)" fill="#fff"/>
    <path id="Path_5453" data-name="Path 5453" d="M735.485,814.829q-3.422,1.361,0,2.721,3.422-1.36,0-2.721" transform="translate(-466.562 -578.801)" fill="#fff"/>
    <path id="Path_5454" data-name="Path 5454" d="M805.58,808.949q-3.53,1.4,0,2.807,3.53-1.4,0-2.807" transform="translate(-511.096 -574.624)" fill="#fff"/>
    <path id="Path_5455" data-name="Path 5455" d="M901.716,770.263q3.479-1.383,0-2.767-3.48,1.384,0,2.767" transform="translate(-572.24 -545.179)" fill="#fff"/>
    <path id="Path_5456" data-name="Path 5456" d="M925.627,810.255q4.225-1.68,0-3.36-4.225,1.68,0,3.36" transform="translate(-587.206 -573.165)" fill="#fff"/>
    <path id="Path_5457" data-name="Path 5457" d="M992.347,756.576q-1.73-2.751-3.46,0,1.73,2.751,3.46,0" transform="translate(-628.772 -536.445)" fill="#fff"/>
    <path id="Path_5458" data-name="Path 5458" d="M1147.354,794q-3.549,1.411,0,2.822,3.549-1.411,0-2.822" transform="translate(-728.403 -564.008)" fill="#fff"/>
    <path id="Path_5459" data-name="Path 5459" d="M1260.32,799.378q2.012,3.2,4.024,0-2.013-3.2-4.024,0" transform="translate(-801.36 -566.689)" fill="#fff"/>
    <path id="Path_5460" data-name="Path 5460" d="M1274.96,736.372q2.046,3.253,4.091,0-2.046-3.253-4.091,0" transform="translate(-810.669 -521.915)" fill="#fff"/>
    <path id="Path_5461" data-name="Path 5461" d="M1362.582,757.97q-4.1,1.632,0,3.264,4.1-1.632,0-3.264" transform="translate(-865.077 -538.412)" fill="#fff"/>
    <path id="Path_5462" data-name="Path 5462" d="M1466.295,731.168c-2.527,0-2.084,3.19,0,3.19q4.012-1.6,0-3.19" transform="translate(-931.225 -519.374)" fill="#fff"/>
    <path id="Path_5463" data-name="Path 5463" d="M1531.553,733.845q1.767,2.81,3.534,0-1.767-2.81-3.534,0" transform="translate(-973.82 -520.277)" fill="#fff"/>
    <path id="Path_5464" data-name="Path 5464" d="M1576.791,716.882q-1.964-3.123-3.927,0,1.964,3.123,3.927,0" transform="translate(-1000.087 -508.117)" fill="#fff"/>
    <path id="Path_5465" data-name="Path 5465" d="M1802.138,725.026q1.774,2.822,3.549,0-1.774-2.822-3.549,0" transform="translate(-1145.868 -514.009)" fill="#fff"/>
    <path id="Path_5466" data-name="Path 5466" d="M1841.87,724.823q3.809-1.508.035-3.039c.031-.1-5.407,3.039-.035,3.039" transform="translate(-1169.623 -512.706)" fill="#fff"/>
    <path id="Path_5467" data-name="Path 5467" d="M762.473,896.284q3.365-1.338,0-2.676-3.366,1.338,0,2.676" transform="translate(-483.739 -634.76)" fill="#fff"/>
    <path id="Path_5468" data-name="Path 5468" d="M813.923,920.69q-1.974-3.14-3.949,0,1.975,3.141,3.949,0" transform="translate(-515.013 -652.882)" fill="#fff"/>
    <path id="Path_5469" data-name="Path 5469" d="M859.044,914.533q3.98-1.583,0-3.165-3.981,1.583,0,3.165" transform="translate(-544.948 -647.376)" fill="#fff"/>
    <path id="Path_5470" data-name="Path 5470" d="M1471.034,915.773q-3.685,1.465,0,2.93,3.685-1.465,0-2.93" transform="translate(-934.168 -650.505)" fill="#fff"/>
    <path id="Path_5471" data-name="Path 5471" d="M1563.675,878.023c-2.786-.465-3.7,3.28-.43,3.28q3.944-1.486.43-3.28" transform="translate(-992.647 -623.661)" fill="#fff"/>
    <path id="Path_5472" data-name="Path 5472" d="M1614.8,931.328q-1.944-3.091-3.887,0,1.944,3.091,3.887,0" transform="translate(-1024.283 -660.456)" fill="#fff"/>
    <path id="Path_5473" data-name="Path 5473" d="M1736.664,923.955q-4.042,1.607,0,3.214,4.041-1.607,0-3.214" transform="translate(-1102.952 -656.317)" fill="#fff"/>
    <path id="Path_5474" data-name="Path 5474" d="M1755.953,891.985q1.967,3.126,3.932,0-1.967-3.127-3.932,0" transform="translate(-1116.502 -632.497)" fill="#fff"/>
    <path id="Path_5475" data-name="Path 5475" d="M1898.846,923.862q-3.415,1.357,0,2.715,3.414-1.358,0-2.715" transform="translate(-1206.273 -656.251)" fill="#fff"/>
    <path id="Path_5476" data-name="Path 5476" d="M1839.083,717.641c.612-2.043-4.022-2.317-4.022-.376,0,2.474,3.6,1.769,4.022.376" transform="translate(-1166.802 -508.563)" fill="#fff"/>
    <path id="Path_5477" data-name="Path 5477" d="M1728.113,700.47q4.065-1.616,0-3.232-4.065,1.616,0,3.232" transform="translate(-1097.508 -495.272)" fill="#fff"/>
    <path id="Path_5478" data-name="Path 5478" d="M1690.887,722.678q-1.84-2.926-3.679,0,1.839,2.925,3.679,0" transform="translate(-1072.791 -512.304)" fill="#fff"/>
    <path id="Path_5479" data-name="Path 5479" d="M1588.813,804.933c2.809-1.1-.507-3.81-2.175-2.8,0,2.806-.73,1.035,2.175,2.8" transform="translate(-1008.794 -569.626)" fill="#fff"/>
    <path id="Path_5480" data-name="Path 5480" d="M1548.243,785.389q-3.946,1.568,0,3.136,3.944-1.568,0-3.136" transform="translate(-983.178 -557.889)" fill="#fff"/>
    <path id="Path_5481" data-name="Path 5481" d="M1535.447,783.358q-4.053,1.611,0,3.222,4.052-1.611,0-3.222" transform="translate(-975.008 -556.446)" fill="#fff"/>
    <path id="Path_5482" data-name="Path 5482" d="M1413.641,789.858q3.79-1.508,0-3.014-3.79,1.507,0,3.014" transform="translate(-897.642 -558.922)" fill="#fff"/>
    <path id="Path_5483" data-name="Path 5483" d="M1399.258,844.932q3.784-1.5,0-3.008-3.783,1.5,0,3.008" transform="translate(-888.499 -598.048)" fill="#fff"/>
    <path id="Path_5484" data-name="Path 5484" d="M1339.194,835.415q-3.385,1.346,0,2.692,3.385-1.346,0-2.692" transform="translate(-850.435 -593.424)" fill="#fff"/>
    <path id="Path_5485" data-name="Path 5485" d="M1279.641,824.21q-1.732-2.753-3.463,0,1.732,2.753,3.463,0" transform="translate(-811.443 -584.487)" fill="#fff"/>
    <path id="Path_5486" data-name="Path 5486" d="M1260.831,848.66q-1.82-2.893-3.638,0,1.819,2.892,3.638,0" transform="translate(-799.372 -601.805)" fill="#fff"/>
    <path id="Path_5487" data-name="Path 5487" d="M1249.779,884.4q-1.964-3.123-3.928,0,1.964,3.123,3.928,0" transform="translate(-792.16 -627.107)" fill="#fff"/>
    <path id="Path_5488" data-name="Path 5488" d="M1004.995,925.709q3.711-1.476,0-2.951-3.711,1.475,0,2.951" transform="translate(-637.834 -655.467)" fill="#fff"/>
    <path id="Path_5489" data-name="Path 5489" d="M620.486,953.414q-1.719-2.734-3.438,0c0,1.461,3.438,2.184,3.438,0" transform="translate(-392.343 -676.272)" fill="#fff"/>
    <path id="Path_5490" data-name="Path 5490" d="M554.183,972.162q4.224-1.68,0-3.359-4.224,1.68,0,3.359" transform="translate(-351.028 -688.174)" fill="#fff"/>
    <path id="Path_5491" data-name="Path 5491" d="M456.718,972.434q-1.782-2.833-3.563,0,1.781,2.832,3.563,0" transform="translate(-288.133 -689.747)" fill="#fff"/>
    <path id="Path_5492" data-name="Path 5492" d="M335.589,975.137c0-1.972-4.388-2.009-4.048.2.233,1.514,4.048,2.394,4.048-.2" transform="translate(-210.794 -691.63)" fill="#fff"/>
    <path id="Path_5493" data-name="Path 5493" d="M109.65,891.664q-1.824-2.9-3.647,0c0,1.84,3.647,2.02,3.647,0" transform="translate(-67.401 -632.349)" fill="#fff"/>
    <path id="Path_5494" data-name="Path 5494" d="M121.589,847.1q-1.877-2.985-3.755,0,1.877,2.985,3.755,0" transform="translate(-74.923 -600.664)" fill="#fff"/>
    <path id="Path_5495" data-name="Path 5495" d="M193.2,857.784c2.811,0,2.118-2.987,0-2.987-2.844,0-2.076,2.987,0,2.987" transform="translate(-121.664 -607.192)" fill="#fff"/>
    <path id="Path_5496" data-name="Path 5496" d="M425.152,710.985q1.735,2.759,3.469,0-1.734-2.759-3.469,0" transform="translate(-270.328 -504.057)" fill="#fff"/>
    <path id="Path_5497" data-name="Path 5497" d="M722.336,710.3q3.827-1.522,0-3.043-3.827,1.522,0,3.043" transform="translate(-458.072 -502.386)" fill="#fff"/>
    <path id="Path_5498" data-name="Path 5498" d="M769.257,671.52q-1.883-3-3.767,0,1.884,3,3.767,0" transform="translate(-486.728 -475.94)" fill="#fff"/>
    <path id="Path_5499" data-name="Path 5499" d="M854.27,643.91q-2.018-3.21-4.037,0,2.019,3.21,4.037,0" transform="translate(-540.611 -456.252)" fill="#fff"/>
    <path id="Path_5500" data-name="Path 5500" d="M1050.536,720.756q-1.834-2.917-3.667,0,1.834,2.916,3.667,0" transform="translate(-665.64 -510.942)" fill="#fff"/>
    <path id="Path_5501" data-name="Path 5501" d="M1342.4,736.325q3.76-1.495,0-2.99-3.76,1.495,0,2.99" transform="translate(-852.354 -520.913)" fill="#fff"/>
    <path id="Path_5502" data-name="Path 5502" d="M1398.309,743.591q-3.39,1.347,0,2.7,3.389-1.348,0-2.7" transform="translate(-888.021 -528.198)" fill="#fff"/>
    <path id="Path_5503" data-name="Path 5503" d="M1580.7,799c0-.618-3.483-3.073-3.483,0,0,2.058,3.483,1.583,3.483,0" transform="translate(-1002.857 -566.479)" fill="#fff"/>
    <path id="Path_5504" data-name="Path 5504" d="M1752.3,791.436q3.519-1.4,0-2.8-3.519,1.4,0,2.8" transform="translate(-1113.062 -560.197)" fill="#fff"/>
    <path id="Path_5505" data-name="Path 5505" d="M1948.127,593.409q-4.115,1.636,0,3.273,4.116-1.637,0-3.273" transform="translate(-1237.385 -421.519)" fill="#fff"/>
    <path id="Path_5506" data-name="Path 5506" d="M1839.207,598.842q3.683-1.465,0-2.929-3.683,1.464,0,2.929" transform="translate(-1168.268 -423.298)" fill="#fff"/>
    <path id="Path_5507" data-name="Path 5507" d="M1814.944,637.615q3.738-1.486,0-2.972-3.738,1.486,0,2.972" transform="translate(-1152.823 -450.809)" fill="#fff"/>
    <path id="Path_5508" data-name="Path 5508" d="M1451.229,693.411q-1.828-2.907-3.657,0,1.829,2.908,3.657,0" transform="translate(-920.422 -491.522)" fill="#fff"/>
    <path id="Path_5509" data-name="Path 5509" d="M1439.432,669.147q-1.922-3.055-3.843,0,1.921,3.055,3.843,0" transform="translate(-912.803 -474.233)" fill="#fff"/>
    <path id="Path_5510" data-name="Path 5510" d="M1351.609,678.643q3.845-1.529,0-3.057-3.845,1.529,0,3.057" transform="translate(-858.183 -479.892)" fill="#fff"/>
    <path id="Path_5511" data-name="Path 5511" d="M1269.917,670.942q-2.014-3.2-4.027,0,2.014,3.2,4.027,0" transform="translate(-804.901 -475.456)" fill="#fff"/>
    <path id="Path_5512" data-name="Path 5512" d="M1219.592,729.364q-3.773,1.5,0,3,3.772-1.5,0-3" transform="translate(-774.264 -518.092)" fill="#fff"/>
    <path id="Path_5513" data-name="Path 5513" d="M1140.218,684.1q-1.9-3.019-3.8,0,1.9,3.02,3.8,0" transform="translate(-722.579 -484.868)" fill="#fff"/>
    <path id="Path_5514" data-name="Path 5514" d="M1097,754.177c2.276,0,3.118-3.234,0-3.234q-4.067,1.617,0,3.234" transform="translate(-696.22 -533.421)" fill="#fff"/>
    <path id="Path_5515" data-name="Path 5515" d="M684.3,805.991q3.5-1.39,0-2.781-3.5,1.391,0,2.781" transform="translate(-433.99 -570.548)" fill="#fff"/>
    <path id="Path_5516" data-name="Path 5516" d="M601.33,825.221q-1.937-3.08-3.873,0,1.937,3.08,3.873,0" transform="translate(-379.886 -585.089)" fill="#fff"/>
    <path id="Path_5517" data-name="Path 5517" d="M344.553,886.345q-3.513,1.4,0,2.794,3.513-1.4,0-2.794" transform="translate(-217.963 -629.601)" fill="#fff"/>
    <path id="Path_5518" data-name="Path 5518" d="M213.253,972.281q-4.187,1.665,0,3.329,4.187-1.665,0-3.329" transform="translate(-134.263 -690.644)" fill="#fff"/>
    <path id="Path_5519" data-name="Path 5519" d="M325.891,552.49q-1.966-3.127-3.933,0,1.966,3.126,3.933,0" transform="translate(-204.713 -391.343)" fill="#fff"/>
    <path id="Path_5520" data-name="Path 5520" d="M511.88,498.364q4.1-1.628,0-3.258-4.1,1.628,0,3.258" transform="translate(-324.17 -351.691)" fill="#fff"/>
    <path id="Path_5521" data-name="Path 5521" d="M606.994,536.192q1.893,3.012,3.787,0-1.893-3.011-3.787,0" transform="translate(-385.95 -379.806)" fill="#fff"/>
    <path id="Path_5522" data-name="Path 5522" d="M671.773,509.263q3.842-1.528,0-3.055-3.842,1.528,0,3.055" transform="translate(-425.917 -359.577)" fill="#fff"/>
    <path id="Path_5523" data-name="Path 5523" d="M684.79,512.961q-3.678,1.462,0,2.925,3.678-1.463,0-2.925" transform="translate(-434.247 -364.374)" fill="#fff"/>
    <path id="Path_5524" data-name="Path 5524" d="M717.647,497.314q-3.825,1.52,0,3.041,3.824-1.52,0-3.041" transform="translate(-455.091 -353.26)" fill="#fff"/>
    <path id="Path_5525" data-name="Path 5525" d="M1027.592,505.3q3.623-1.44,0-2.881-3.623,1.44,0,2.881" transform="translate(-652.23 -356.888)" fill="#fff"/>
    <path id="Path_5526" data-name="Path 5526" d="M1150.5,514.572q-2.023-3.216-4.045,0,2.022,3.216,4.045,0" transform="translate(-728.961 -364.376)" fill="#fff"/>
    <path id="Path_5527" data-name="Path 5527" d="M1272.3,486.322q-1.745-2.775-3.49,0,1.745,2.775,3.49,0" transform="translate(-806.755 -344.466)" fill="#fff"/>
    <path id="Path_5528" data-name="Path 5528" d="M1283.783,531.842c2.586,0,2.554-3.262,0-3.262q-4.1,1.631,0,3.262" transform="translate(-814.974 -375.469)" fill="#fff"/>
    <path id="Path_5529" data-name="Path 5529" d="M1331.746,496.666q-1.8-2.865-3.6,0,1.8,2.866,3.6,0" transform="translate(-844.484 -351.782)" fill="#fff"/>
    <path id="Path_5530" data-name="Path 5530" d="M1419.957,497.052q-3.476,1.382,0,2.764,3.476-1.382,0-2.764" transform="translate(-901.758 -353.074)" fill="#fff"/>
    <path id="Path_5531" data-name="Path 5531" d="M1527.158,509.585q4.169-1.657,0-3.314-4.167,1.657,0,3.314" transform="translate(-969.701 -359.622)" fill="#fff"/>
    <path id="Path_5532" data-name="Path 5532" d="M1576.708,513.029q3.438-1.367,0-2.734-3.438,1.367,0,2.734" transform="translate(-1001.438 -362.481)" fill="#fff"/>
    <path id="Path_5533" data-name="Path 5533" d="M1696.9,510.935q-4.009,1.594,0,3.188,4.008-1.594,0-3.188" transform="translate(-1077.679 -362.935)" fill="#fff"/>
    <path id="Path_5534" data-name="Path 5534" d="M1791.581,438.017q-3.577,1.422,0,2.844,3.577-1.422,0-2.844" transform="translate(-1138.019 -311.139)" fill="#fff"/>
    <path id="Path_5535" data-name="Path 5535" d="M1803.522,437.758q-4.185,1.664,0,3.328,4.186-1.664,0-3.328" transform="translate(-1145.418 -310.955)" fill="#fff"/>
    <path id="Path_5536" data-name="Path 5536" d="M1878.438,414.66c2.792,0,1.857-2.881-.12-2.772q-3.318,1.429.12,2.772" transform="translate(-1193.271 -292.576)" fill="#fff"/>
    <path id="Path_5537" data-name="Path 5537" d="M1679.787,321.217q-3.919,1.558,0,3.116,3.919-1.558,0-3.116" transform="translate(-1066.827 -228.172)" fill="#fff"/>
    <path id="Path_5538" data-name="Path 5538" d="M1674.366,334.038q3.676-1.461,0-2.922-3.675,1.461,0,2.922" transform="translate(-1063.458 -235.204)" fill="#fff"/>
    <path id="Path_5539" data-name="Path 5539" d="M1188.71,385.411q-2-3.182-4,0,2,3.182,4,0" transform="translate(-753.283 -272.641)" fill="#fff"/>
    <path id="Path_5540" data-name="Path 5540" d="M1095.765,391.824q-1.961-3.118-3.922,0,1.961,3.118,3.922,0" transform="translate(-694.236 -277.219)" fill="#fff"/>
    <path id="Path_5541" data-name="Path 5541" d="M1037.37,420.883q1.962,3.121,3.924,0-1.961-3.12-3.924,0" transform="translate(-659.6 -297.86)" fill="#fff"/>
    <path id="Path_5542" data-name="Path 5542" d="M877.009,445.824q1.9,3.024,3.8,0-1.9-3.024-3.8,0" transform="translate(-557.636 -315.611)" fill="#fff"/>
    <path id="Path_5543" data-name="Path 5543" d="M853.322,426.661q-3.829,1.522,0,3.044,3.828-1.522,0-3.044" transform="translate(-541.358 -303.073)" fill="#fff"/>
    <path id="Path_5544" data-name="Path 5544" d="M842.218,469.734q3.878-1.542,0-3.084-3.879,1.542,0,3.084" transform="translate(-534.281 -331.478)" fill="#fff"/>
    <path id="Path_5545" data-name="Path 5545" d="M819.1,468.971q1.7,2.7,3.4,0-1.7-2.7-3.4,0" transform="translate(-520.814 -332.167)" fill="#fff"/>
    <path id="Path_5546" data-name="Path 5546" d="M700.376,443.991q-4.214,1.675,0,3.35,4.213-1.675,0-3.35" transform="translate(-443.987 -315.383)" fill="#fff"/>
    <path id="Path_5547" data-name="Path 5547" d="M1920.937,243.254q-1.774-2.821-3.547,0,1.774,2.82,3.547,0" transform="translate(-1219.15 -171.791)" fill="#fff"/>
    <path id="Path_5548" data-name="Path 5548" d="M1902.966,231.6q3.8-1.512,0-3.024-3.8,1.512,0,3.024" transform="translate(-1208.77 -162.368)" fill="#fff"/>
    <path id="Path_5549" data-name="Path 5549" d="M1782.039,211.417q-3.669,1.458,0,2.917,3.669-1.459,0-2.917" transform="translate(-1131.922 -150.178)" fill="#fff"/>
    <path id="Path_5550" data-name="Path 5550" d="M1689.82,244.314q4.087-1.625,0-3.25-4.087,1.625,0,3.25" transform="translate(-1073.153 -171.237)" fill="#fff"/>
    <path id="Path_5551" data-name="Path 5551" d="M1656.6,244.232q3.623-1.44,0-2.88-3.623,1.44,0,2.88" transform="translate(-1052.178 -171.441)" fill="#fff"/>
    <path id="Path_5552" data-name="Path 5552" d="M1488.572,235.169c3.005,0,2.041-3.022,0-3.022q-3.8,1.511,0,3.022" transform="translate(-945.283 -164.903)" fill="#fff"/>
    <path id="Path_5553" data-name="Path 5553" d="M1350.323,202.147q-3.618,1.439,0,2.876,3.617-1.438,0-2.876" transform="translate(-857.437 -143.593)" fill="#fff"/>
    <path id="Path_5554" data-name="Path 5554" d="M1055.1,166.427q-3.694,1.469,0,2.937,3.694-1.469,0-2.937" transform="translate(-669.696 -118.22)" fill="#fff"/>
    <path id="Path_5555" data-name="Path 5555" d="M1657.972,203.048q1.9,3.022,3.8,0-1.9-3.022-3.8,0" transform="translate(-1054.202 -143.159)" fill="#fff"/>
    <path id="Path_5556" data-name="Path 5556" d="M1390.724,140.027q-4.226,1.68,0,3.36,4.226-1.68,0-3.36" transform="translate(-882.932 -99.467)" fill="#fff"/>
    <path id="Path_5557" data-name="Path 5557" d="M1272.19,154.793q-1.783-2.834-3.565,0,1.783,2.835,3.565,0" transform="translate(-806.641 -108.949)" fill="#fff"/>
    <path id="Path_5558" data-name="Path 5558" d="M1139.971,1093.566q-3.472,1.381,0,2.761,3.473-1.381,0-2.761" transform="translate(-723.734 -776.797)" fill="#fff"/>
    <path id="Path_5559" data-name="Path 5559" d="M1124.387,1107.264q-3.373,1.341,0,2.682,3.374-1.341,0-2.682" transform="translate(-713.856 -786.527)" fill="#fff"/>
    <path id="Path_5560" data-name="Path 5560" d="M996.328,1127.654q-3.861,1.535,0,3.071,3.862-1.536,0-3.071" transform="translate(-632.276 -801.011)" fill="#fff"/>
    <path id="Path_5561" data-name="Path 5561" d="M943.5,1071.4q-4.177,1.661,0,3.322,4.176-1.661,0-3.322" transform="translate(-598.586 -761.055)" fill="#fff"/>
    <path id="Path_5562" data-name="Path 5562" d="M932.76,1112.765q-4.1,1.63,0,3.26,4.1-1.63,0-3.26" transform="translate(-591.781 -790.435)" fill="#fff"/>
    <path id="Path_5563" data-name="Path 5563" d="M884.15,1101.208q2.1,3.337,4.2,0c0-2.692-4.2-1.73-4.2,0" transform="translate(-562.176 -781.034)" fill="#fff"/>
    <path id="Path_5564" data-name="Path 5564" d="M828.769,1140.134q-3.533,1.4,0,2.809,3.532-1.4,0-2.809" transform="translate(-525.84 -809.876)" fill="#fff"/>
    <path id="Path_5565" data-name="Path 5565" d="M329.031,1106.46q-3.638,1.446,0,2.892,3.637-1.446,0-2.892" transform="translate(-208.054 -785.956)" fill="#fff"/>
    <path id="Path_5566" data-name="Path 5566" d="M232.9,1101.158q-1.839-2.924-3.678,0,1.839,2.924,3.678,0" transform="translate(-145.747 -781.151)" fill="#fff"/>
    <path id="Path_5567" data-name="Path 5567" d="M148.229,1083.269q-1.877-2.986-3.754,0,1.877,2.985,3.754,0" transform="translate(-91.863 -768.423)" fill="#fff"/>
    <path id="Path_5568" data-name="Path 5568" d="M69.041,966.638q-1.717-2.731-3.434,0,1.717,2.731,3.434,0" transform="translate(-41.715 -685.666)" fill="#fff"/>
    <path id="Path_5569" data-name="Path 5569" d="M131.293,943.19q-4.133,1.643,0,3.286,4.132-1.643,0-3.286" transform="translate(-82.167 -669.98)" fill="#fff"/>
    <path id="Path_5570" data-name="Path 5570" d="M153.146,937.721q4.108-1.634,0-3.267-4.108,1.633,0,3.267" transform="translate(-96.07 -663.775)" fill="#fff"/>
    <path id="Path_5571" data-name="Path 5571" d="M253.883,979.813q3.408-1.355,0-2.71-3.408,1.355,0,2.71" transform="translate(-160.345 -694.07)" fill="#fff"/>
    <path id="Path_5572" data-name="Path 5572" d="M435.408,937.416q-1.736-2.76-3.471,0,1.735,2.76,3.471,0" transform="translate(-274.642 -664.898)" fill="#fff"/>
    <path id="Path_5573" data-name="Path 5573" d="M439.353,983.344q-1.921-3.055-3.842,0,1.921,3.055,3.842,0" transform="translate(-276.915 -697.418)" fill="#fff"/>
    <path id="Path_5574" data-name="Path 5574" d="M558.042,1036.962q-1.813-2.884-3.627,0,1.813,2.884,3.627,0" transform="translate(-352.518 -735.565)" fill="#fff"/>
    <path id="Path_5575" data-name="Path 5575" d="M631.5,1035.616q-1.994-3.172-3.989,0,1.994,3.172,3.989,0" transform="translate(-398.994 -734.507)" fill="#fff"/>
    <path id="Path_5576" data-name="Path 5576" d="M506.3,1146.449q-1.868-2.97-3.735,0,1.868,2.97,3.735,0" transform="translate(-319.547 -813.307)" fill="#fff"/>
    <path id="Path_5577" data-name="Path 5577" d="M339.207,1229.069q-3.612,1.436,0,2.872,3.612-1.436,0-2.872" transform="translate(-214.533 -873.049)" fill="#fff"/>
    <path id="Path_5578" data-name="Path 5578" d="M1518.738,1042.992q4.192-1.666,0-3.333-4.191,1.667,0,3.333" transform="translate(-964.34 -738.505)" fill="#fff"/>
    <path id="Path_5579" data-name="Path 5579" d="M1455.484,1099.292c1.636,0,3.718-3.293,0-3.293-2.874,0-2.638,3.293,0,3.293" transform="translate(-924.138 -778.525)" fill="#fff"/>
    <path id="Path_5580" data-name="Path 5580" d="M1422.772,1070.581c-2.528,0-1.9,2.683,0,2.683,1.322,0,3.041-2.683,0-2.683" transform="translate(-903.592 -760.47)" fill="#fff"/>
    <path id="Path_5581" data-name="Path 5581" d="M1407.145,1123.84q-1.721-2.738-3.443,0,1.722,2.739,3.443,0" transform="translate(-892.527 -797.329)" fill="#fff"/>
    <path id="Path_5582" data-name="Path 5582" d="M1274.532,1088.229q-4.193,1.667,0,3.333,4.192-1.667,0-3.333" transform="translate(-809.063 -773.006)" fill="#fff"/>
    <path id="Path_5583" data-name="Path 5583" d="M1102.581,1134.189q-3.476,1.382,0,2.764,3.476-1.382,0-2.764" transform="translate(-699.958 -805.653)" fill="#fff"/>
    <path id="Path_5584" data-name="Path 5584" d="M1063.723,1188.614q3.491-1.388,0-2.776-3.491,1.388,0,2.776" transform="translate(-675.246 -842.341)" fill="#fff"/>
    <path id="Path_5585" data-name="Path 5585" d="M676.122,1206.369q-4.152,1.651,0,3.3,4.153-1.65,0-3.3" transform="translate(-428.585 -856.925)" fill="#fff"/>
    <path id="Path_5586" data-name="Path 5586" d="M652.218,1186.991q-3.562,1.416,0,2.832,3.562-1.416,0-2.832" transform="translate(-413.573 -843.16)" fill="#fff"/>
    <path id="Path_5587" data-name="Path 5587" d="M584.767,1105.023c0-1.333-3.373-2.239-3.373,0q1.687,2.682,3.373,0" transform="translate(-369.673 -783.969)" fill="#fff"/>
    <path id="Path_5588" data-name="Path 5588" d="M462.92,989.945q-3.544,1.409,0,2.818,3.543-1.41,0-2.818" transform="translate(-293.216 -703.192)" fill="#fff"/>
    <path id="Path_5589" data-name="Path 5589" d="M424.944,1045.973q3.979-1.582,0-3.164-3.979,1.582,0,3.164" transform="translate(-268.931 -740.743)" fill="#fff"/>
    <path id="Path_5590" data-name="Path 5590" d="M238.858,1016.072q3.57-1.419,0-2.839-3.57,1.42,0,2.839" transform="translate(-150.74 -719.734)" fill="#fff"/>
    <path id="Path_5591" data-name="Path 5591" d="M547.179,1103.03c-2.039,0-2.717,2.848,0,2.848q3.582-1.423,0-2.848" transform="translate(-346.778 -783.52)" fill="#fff"/>
    <path id="Path_5592" data-name="Path 5592" d="M573.609,1207.221q-4.176,1.661,0,3.322,4.177-1.661,0-3.322" transform="translate(-363.395 -857.53)" fill="#fff"/>
    <path id="Path_5593" data-name="Path 5593" d="M485.112,1199.094q-3.49,1.388,0,2.775,3.49-1.387,0-2.775" transform="translate(-307.343 -851.757)" fill="#fff"/>
    <path id="Path_5594" data-name="Path 5594" d="M421.348,1194.381c-3.091,0-2.507,3.346,0,3.346q4.208-1.673,0-3.346" transform="translate(-266.571 -848.409)" fill="#fff"/>
    <path id="Path_5595" data-name="Path 5595" d="M474.165,1077.992q-4.054,1.612,0,3.223,4.054-1.612,0-3.223" transform="translate(-300.204 -765.734)" fill="#fff"/>
    <path id="Path_5596" data-name="Path 5596" d="M565.885,1013.929q-1.693-2.692-3.386,0,1.693,2.692,3.386,0" transform="translate(-357.658 -719.272)" fill="#fff"/>
    <path id="Path_5597" data-name="Path 5597" d="M694.2,956.382q-3.846,1.529,0,3.059,3.847-1.53,0-3.059" transform="translate(-440.179 -679.351)" fill="#fff"/>
    <path id="Path_5598" data-name="Path 5598" d="M733.212,1000.12q-3.775,1.5,0,3,3.774-1.5,0-3" transform="translate(-465.004 -710.419)" fill="#fff"/>
    <path id="Path_5599" data-name="Path 5599" d="M1070.837,903.826q-1.769-2.813-3.537,0,1.768,2.812,3.537,0" transform="translate(-678.63 -641.019)" fill="#fff"/>
    <path id="Path_5600" data-name="Path 5600" d="M812.153,1233.794c0-2.449-4.087-1.856-4.087,0,0,1.946,4.087,1.946,4.087,0" transform="translate(-513.799 -875.254)" fill="#fff"/>
    <path id="Path_5601" data-name="Path 5601" d="M795.074,1197.541c-2.967,0-2.284,3.421.321,3.076q3.413-1.653-.321-3.076" transform="translate(-504.301 -850.654)" fill="#fff"/>
    <path id="Path_5602" data-name="Path 5602" d="M709.724,1157.2q-1.749-2.783-3.5,0,1.75,2.783,3.5,0" transform="translate(-449.045 -821.013)" fill="#fff"/>
    <path id="Path_5603" data-name="Path 5603" d="M652.319,1174.624q-1.8-2.857-3.593,0,1.8,2.857,3.593,0" transform="translate(-412.485 -833.361)" fill="#fff"/>
    <path id="Path_5604" data-name="Path 5604" d="M683.852,318.079q4.211-1.674,0-3.348-4.211,1.674,0,3.348" transform="translate(-433.48 -223.565)" fill="#fff"/>
    <path id="Path_5605" data-name="Path 5605" d="M538.463,272.774q1.947,3.1,3.9,0-1.948-3.1-3.9,0" transform="translate(-342.375 -192.661)" fill="#fff"/>
    <path id="Path_5606" data-name="Path 5606" d="M462.757,314.766q-3.421,1.361,0,2.721,3.421-1.36,0-2.721" transform="translate(-293.151 -223.59)" fill="#fff"/>
    <path id="Path_5607" data-name="Path 5607" d="M251.32,236.278q1.788,2.844,3.576,0-1.788-2.844-3.576,0" transform="translate(-159.799 -166.827)" fill="#fff"/>
    <path id="Path_5608" data-name="Path 5608" d="M63.771,282.691q-1.958-3.114-3.915,0,1.958,3.113,3.915,0" transform="translate(-38.059 -199.7)" fill="#fff"/>
    <path id="Path_5609" data-name="Path 5609" d="M880.136,498.769q2.078,3.3,4.156,0-2.078-3.3-4.156,0" transform="translate(-559.624 -353.119)" fill="#fff"/>
    <path id="Path_5610" data-name="Path 5610" d="M1129.979,62.03q3.786-1.505,0-3.01-3.786,1.505,0,3.01" transform="translate(-717.281 -41.925)" fill="#fff"/>
    <path id="Path_5611" data-name="Path 5611" d="M1052.68,55.048q4.11-1.633,0-3.267-4.109,1.633,0,3.267" transform="translate(-668.028 -36.783)" fill="#fff"/>
    <path id="Path_5612" data-name="Path 5612" d="M846.026,38.312q1.975,3.141,3.95,0c0-.365-3.95-2.243-3.95,0" transform="translate(-537.936 -26.446)" fill="#fff"/>
    <path id="Path_5613" data-name="Path 5613" d="M781.856,89.869q3.4-1.352,0-2.7-3.4,1.352,0,2.7" transform="translate(-496.053 -61.917)" fill="#fff"/>
    <path id="Path_5614" data-name="Path 5614" d="M601.114,95.24q3.375-1.342,0-2.683-3.375,1.342,0,2.683" transform="translate(-381.138 -65.747)" fill="#fff"/>
    <path id="Path_5615" data-name="Path 5615" d="M1429.008,80.431q3.394-1.349,0-2.7-3.395,1.349,0,2.7" transform="translate(-907.539 -55.217)" fill="#fff"/>
    <path id="Path_5616" data-name="Path 5616" d="M1295.631,70.724q3.386-1.346,0-2.692-3.386,1.347,0,2.692" transform="translate(-822.735 -48.327)" fill="#fff"/>
    <path id="Path_5617" data-name="Path 5617" d="M1120.048,113.885q1.7,2.7,3.39,0c0-1.489-3.39-2.094-3.39,0" transform="translate(-712.169 -79.937)" fill="#fff"/>
    <path id="Path_5618" data-name="Path 5618" d="M1073.275,80.089q4.181-1.662,0-3.325-4.181,1.663,0,3.325" transform="translate(-681.1 -54.529)" fill="#fff"/>
    <path id="Path_5619" data-name="Path 5619" d="M848.777,54.879q3.749-1.491,0-2.982-3.749,1.491,0,2.982" transform="translate(-538.493 -36.865)" fill="#fff"/>
    <path id="Path_5620" data-name="Path 5620" d="M1329.865,210.652q3.73-1.483,0-2.966-3.73,1.483,0,2.966" transform="translate(-844.394 -147.527)" fill="#fff"/>
    <path id="Path_5621" data-name="Path 5621" d="M1298.031,143.426q-1.69-2.688-3.38,0,1.69,2.687,3.38,0" transform="translate(-823.189 -100.927)" fill="#fff"/>
    <path id="Path_5622" data-name="Path 5622" d="M1212.714,198.434q1.782,2.834,3.564,0-1.782-2.833-3.564,0" transform="translate(-771.09 -139.949)" fill="#fff"/>
    <path id="Path_5623" data-name="Path 5623" d="M1146.507,178.981c0,1.739,3.574,1.974,3.574,0q-1.787-2.842-3.574,0" transform="translate(-728.993 -126.128)" fill="#fff"/>
    <path id="Path_5624" data-name="Path 5624" d="M1054.357,138.8q-3.736,1.486,0,2.971,3.736-1.486,0-2.971" transform="translate(-669.213 -98.596)" fill="#fff"/>
    <path id="Path_5625" data-name="Path 5625" d="M953.93,135.241q3.7-1.473,0-2.946-3.7,1.473,0,2.946" transform="translate(-605.368 -93.975)" fill="#fff"/>
    <path id="Path_5626" data-name="Path 5626" d="M1439.2,260.307q3.418-1.359,0-2.718-3.419,1.359,0,2.718" transform="translate(-914.012 -182.975)" fill="#fff"/>
    <path id="Path_5627" data-name="Path 5627" d="M1188.465,216.047q3.592-1.428,0-2.856-3.592,1.428,0,2.856" transform="translate(-754.53 -151.438)" fill="#fff"/>
    <path id="Path_5628" data-name="Path 5628" d="M1176.746,227.61q-2.04-3.244-4.08,0,2.04,3.244,4.08,0" transform="translate(-745.626 -160.528)" fill="#fff"/>
    <path id="Path_5629" data-name="Path 5629" d="M1035.35,254.565q-3.652,1.452,0,2.9,3.652-1.452,0-2.9" transform="translate(-657.154 -180.827)" fill="#fff"/>
    <path id="Path_5630" data-name="Path 5630" d="M262.431,568.7q-3.795,1.509,0,3.017,3.794-1.509,0-3.017" transform="translate(-165.657 -403.969)" fill="#fff"/>
    <path id="Path_5631" data-name="Path 5631" d="M174.252,573.569q-4.12,1.638,0,3.276,4.12-1.638,0-3.276" transform="translate(-109.486 -407.426)" fill="#fff"/>
    <path id="Path_5632" data-name="Path 5632" d="M128.307,587.934q3.743-1.488,0-2.976-3.743,1.488,0,2.976" transform="translate(-80.392 -415.516)" fill="#fff"/>
    <path id="Path_5633" data-name="Path 5633" d="M83.4,570.879q-1.729-2.75-3.459,0,1.729,2.751,3.459,0" transform="translate(-50.828 -404.538)" fill="#fff"/>
    <path id="Path_5634" data-name="Path 5634" d="M547.893,471.97q1.77,2.815,3.541,0-1.771-2.815-3.541,0" transform="translate(-348.371 -334.257)" fill="#fff"/>
    <path id="Path_5635" data-name="Path 5635" d="M589.6,504.717q1.69,2.688,3.38,0-1.69-2.688-3.38,0" transform="translate(-374.893 -357.563)" fill="#fff"/>
    <path id="Path_5636" data-name="Path 5636" d="M738.916,533.66q-1.969-3.131-3.938,0,1.969,3.131,3.938,0" transform="translate(-467.327 -377.965)" fill="#fff"/>
    <path id="Path_5637" data-name="Path 5637" d="M877.814,548.265q-2.08-3.307-4.16,0,2.08,3.308,4.16,0" transform="translate(-555.503 -388.277)" fill="#fff"/>
    <path id="Path_5638" data-name="Path 5638" d="M1211.761,518.427q3.955-1.573,0-3.145-3.955,1.573,0,3.145" transform="translate(-769.227 -366.023)" fill="#fff"/>
    <path id="Path_5639" data-name="Path 5639" d="M738.543,394.258q1.785,2.838,3.569,0-1.785-2.838-3.569,0" transform="translate(-469.594 -279.047)" fill="#fff"/>
    <path id="Path_5640" data-name="Path 5640" d="M694.112,370.461c0-2.377-4.255-1.712-3.778.284q2.05,2.6,3.778-.284" transform="translate(-438.917 -262.074)" fill="#fff"/>
    <path id="Path_5641" data-name="Path 5641" d="M675.63,391.831q-3.473,1.38,0,2.761,3.473-1.381,0-2.761" transform="translate(-428.487 -278.332)" fill="#fff"/>
    <path id="Path_5642" data-name="Path 5642" d="M392.512,426.947q1.714,2.725,3.427,0-1.714-2.725-3.427,0" transform="translate(-249.574 -302.307)" fill="#fff"/>
    <path id="Path_5643" data-name="Path 5643" d="M291.837,454.55c0,1.575,3.859,2.527,3.859,0q-1.93-3.068-3.859,0" transform="translate(-185.561 -321.793)" fill="#fff"/>
    <path id="Path_5644" data-name="Path 5644" d="M234.287,498.573q-3.5,1.391,0,2.782,3.5-1.391,0-2.782" transform="translate(-147.857 -354.154)" fill="#fff"/>
    <path id="Path_5645" data-name="Path 5645" d="M189.933,494.165q2.006,3.19,4.013,0-2.006-3.191-4.013,0" transform="translate(-120.767 -349.889)" fill="#fff"/>
    <path id="Path_5646" data-name="Path 5646" d="M149.208,491.782q4.222-1.678,0-3.358-4.222,1.679,0,3.358" transform="translate(-93.53 -346.945)" fill="#fff"/>
    <path id="Path_5647" data-name="Path 5647" d="M96.087,562.529q-3.416,1.358,0,2.716,3.416-1.358,0-2.716" transform="translate(-60.01 -399.584)" fill="#fff"/>
    <path id="Path_5648" data-name="Path 5648" d="M161,585.2q-2.067-3.286-4.134,0,2.068,3.287,4.134,0" transform="translate(-99.738 -414.519)" fill="#fff"/>
    <path id="Path_5649" data-name="Path 5649" d="M485.754,617.924q3.567-1.418,0-2.836-3.566,1.418,0,2.836" transform="translate(-307.727 -436.918)" fill="#fff"/>
    <path id="Path_5650" data-name="Path 5650" d="M725.659,624.762q1.789,2.845,3.579,0-1.789-2.845-3.579,0" transform="translate(-461.402 -442.78)" fill="#fff"/>
    <path id="Path_5651" data-name="Path 5651" d="M879.59,606.006q-1.855-2.95-3.71,0,1.855,2.95,3.71,0" transform="translate(-556.918 -429.42)" fill="#fff"/>
    <path id="Path_5652" data-name="Path 5652" d="M892.277,608.256q-3.363,1.337,0,2.674,3.362-1.337,0-2.674" transform="translate(-566.275 -432.065)" fill="#fff"/>
    <path id="Path_5653" data-name="Path 5653" d="M925.207,584.854q2.052,3.263,4.1,0-2.052-3.263-4.1,0" transform="translate(-588.282 -414.283)" fill="#fff"/>
    <path id="Path_5654" data-name="Path 5654" d="M1043.669,558.035q-3.549,1.411,0,2.823,3.55-1.411,0-2.823" transform="translate(-662.477 -396.392)" fill="#fff"/>
    <path id="Path_5655" data-name="Path 5655" d="M1214.581,604.331q-1.966-3.125-3.93,0,1.965,3.125,3.93,0" transform="translate(-769.778 -428.168)" fill="#fff"/>
    <path id="Path_5656" data-name="Path 5656" d="M1292.332,530.92q2.222,2.19,3.81-.618c0-2.8-4.873-1.363-3.81.618" transform="translate(-821.618 -375.583)" fill="#fff"/>
    <path id="Path_5657" data-name="Path 5657" d="M1331.557,567.6q4-1.592,0-3.184-4,1.592,0,3.184" transform="translate(-845.382 -400.924)" fill="#fff"/>
    <path id="Path_5658" data-name="Path 5658" d="M1393.292,563.735q-3.966,1.576,0,3.153,3.965-1.576,0-3.153" transform="translate(-884.647 -400.441)" fill="#fff"/>
    <path id="Path_5659" data-name="Path 5659" d="M1457.115,587.24q2.041,3.246,4.081,0-2.04-3.246-4.081,0" transform="translate(-926.49 -415.985)" fill="#fff"/>
    <path id="Path_5660" data-name="Path 5660" d="M1958.233,734.449c-2.206-1.3-5.271,2.971-1.229,2.971,2.471,0,2.456-2.248,1.229-2.971" transform="translate(-1243.083 -521.53)" fill="#fff"/>
    <path id="Path_5661" data-name="Path 5661" d="M1944.749,746.755q4.179-1.661,0-3.323-4.179,1.662,0,3.323" transform="translate(-1235.217 -528.085)" fill="#fff"/>
    <path id="Path_5662" data-name="Path 5662" d="M1886.888,744.282q-2.026-3.222-4.053,0,2.026,3.222,4.053,0" transform="translate(-1197.179 -527.545)" fill="#fff"/>
    <path id="Path_5663" data-name="Path 5663" d="M1803.1,747.233q-4.135,1.644,0,3.288,4.135-1.644,0-3.288" transform="translate(-1145.169 -530.785)" fill="#fff"/>
    <path id="Path_5664" data-name="Path 5664" d="M1701.861,787.011q-2.016-3.206-4.032,0,2.016,3.206,4.032,0" transform="translate(-1079.545 -557.902)" fill="#fff"/>
    <path id="Path_5665" data-name="Path 5665" d="M1685.182,781.138q-1.747-2.778-3.493,0,1.746,2.778,3.493,0" transform="translate(-1069.282 -553.882)" fill="#fff"/>
    <path id="Path_5666" data-name="Path 5666" d="M1659.237,759.091q3.924-1.56,0-3.12-3.925,1.56,0,3.12" transform="translate(-1053.759 -536.992)" fill="#fff"/>
    <path id="Path_5667" data-name="Path 5667" d="M1587.754,812.87c0-2.08-4.158-2.257-4.158,0q2.079,3.306,4.158,0" transform="translate(-1006.911 -576.254)" fill="#fff"/>
    <path id="Path_5668" data-name="Path 5668" d="M1565.946,787.134q-3.576,1.421,0,2.843,3.576-1.422,0-2.843" transform="translate(-994.552 -559.128)" fill="#fff"/>
    <path id="Path_5669" data-name="Path 5669" d="M1279.981,841.277q-1.95-3.1-3.9,0,1.95,3.1,3.9,0" transform="translate(-811.381 -596.486)" fill="#fff"/>
    <path id="Path_5670" data-name="Path 5670" d="M1234.248,891.389c2.738,0,2.3-3.021,0-3.021-1.818,0-3.092,3.021,0,3.021" transform="translate(-783.592 -631.038)" fill="#fff"/>
    <path id="Path_5671" data-name="Path 5671" d="M1074.081,842.888q-1.71-2.719-3.42,0,1.71,2.719,3.42,0" transform="translate(-680.767 -597.767)" fill="#fff"/>
    <path id="Path_5672" data-name="Path 5672" d="M1009.068,854.725q-2.106-3.349-4.212,0,2.105,3.349,4.212,0" transform="translate(-638.927 -605.951)" fill="#fff"/>
    <path id="Path_5673" data-name="Path 5673" d="M895.278,874.406q3.873-1.539,0-3.079-3.873,1.54,0,3.079" transform="translate(-568.021 -618.933)" fill="#fff"/>
    <path id="Path_5674" data-name="Path 5674" d="M868.835,836.623q-1.995-3.172-3.989,0,1.994,3.172,3.989,0" transform="translate(-549.902 -593.155)" fill="#fff"/>
    <path id="Path_5675" data-name="Path 5675" d="M769.979,856.816q-1.953-3.106-3.906,0,1.953,3.106,3.906,0" transform="translate(-487.099 -607.523)" fill="#fff"/>
    <path id="Path_5676" data-name="Path 5676" d="M668.382,670.677q-1.922-3.057-3.845,0,1.923,3.057,3.845,0" transform="translate(-422.538 -475.32)" fill="#fff"/>
    <path id="Path_5677" data-name="Path 5677" d="M555.837,565.064q3.4-1.35,0-2.7-3.4,1.35,0,2.7" transform="translate(-352.343 -399.467)" fill="#fff"/>
    <path id="Path_5678" data-name="Path 5678" d="M557.565,513.28q-3.457,1.374,0,2.749,3.456-1.374,0-2.749" transform="translate(-353.422 -364.601)" fill="#fff"/>
    <path id="Path_5679" data-name="Path 5679" d="M526.337,484.509c0-1.606-3.32-1.9-3.32,0,0,2.034,3.32,1.407,3.32,0" transform="translate(-332.554 -343.229)" fill="#fff"/>
    <path id="Path_5680" data-name="Path 5680" d="M255.516,495q3.753-1.493,0-2.984-3.753,1.493,0,2.984" transform="translate(-161.274 -349.493)" fill="#fff"/>
    <path id="Path_5681" data-name="Path 5681" d="M1955.332,578.487q2.187,2.073,3.714-.657c0-4.747-3.609.529-3.714.657" transform="translate(-1243.275 -409.048)" fill="#fff"/>
    <path id="Path_5682" data-name="Path 5682" d="M1947.537,579.845c2.471,0,2.6-3.064,0-3.064q-3.854,1.532,0,3.064" transform="translate(-1237.094 -409.708)" fill="#fff"/>
    <path id="Path_5683" data-name="Path 5683" d="M1757.651,576.433q4.061-1.615,0-3.229-4.062,1.614,0,3.229" transform="translate(-1116.291 -407.167)" fill="#fff"/>
    <path id="Path_5684" data-name="Path 5684" d="M1683.138,640.485q4.149-1.649,0-3.3-4.15,1.65,0,3.3" transform="translate(-1068.885 -452.615)" fill="#fff"/>
    <path id="Path_5685" data-name="Path 5685" d="M1631.175,586.645q-1.906-3.031-3.812,0,1.906,3.031,3.812,0" transform="translate(-1034.74 -415.638)" fill="#fff"/>
    <path id="Path_5686" data-name="Path 5686" d="M1384.336,640.129q-1.811-2.88-3.622,0,1.811,2.88,3.622,0" transform="translate(-877.911 -453.683)" fill="#fff"/>
    <path id="Path_5687" data-name="Path 5687" d="M1338.467,650.774q-2.052-3.263-4.1,0,2.052,3.263,4.1,0" transform="translate(-848.44 -461.108)" fill="#fff"/>
    <path id="Path_5688" data-name="Path 5688" d="M1240.326,725.614q2.013,3.2,4.025,0-2.013-3.2-4.025,0" transform="translate(-788.647 -514.292)" fill="#fff"/>
    <path id="Path_5689" data-name="Path 5689" d="M1137.08,751.93q-1.737-2.762-3.474,0,1.737,2.762,3.474,0" transform="translate(-720.79 -533.141)" fill="#fff"/>
    <path id="Path_5690" data-name="Path 5690" d="M958.706,772.733q3.368-1.217.658-2.867a3.028,3.028,0,0,0-.658-.1c-2.145,0-2.768,2.967,0,2.967" transform="translate(-608.406 -546.791)" fill="#fff"/>
    <path id="Path_5691" data-name="Path 5691" d="M856.9,716.225q1.767,2.811,3.535,0-1.767-2.811-3.535,0" transform="translate(-544.851 -507.761)" fill="#fff"/>
    <path id="Path_5692" data-name="Path 5692" d="M777.759,719.666q-1.883-3-3.768,0,1.885,3,3.768,0" transform="translate(-492.133 -510.139)" fill="#fff"/>
    <path id="Path_5693" data-name="Path 5693" d="M731.168,734.646q-1.772-2.818-3.544,0,1.772,2.818,3.544,0" transform="translate(-462.651 -520.843)" fill="#fff"/>
    <path id="Path_5694" data-name="Path 5694" d="M715.353,694.219q3.369-1.34,0-2.679-3.37,1.34,0,2.679" transform="translate(-453.778 -491.225)" fill="#fff"/>
    <path id="Path_5695" data-name="Path 5695" d="M490.3,712.1q3.779-1.5,0-3-3.779,1.5,0,3" transform="translate(-310.548 -503.694)" fill="#fff"/>
    <path id="Path_5696" data-name="Path 5696" d="M337.867,797.1q1.806,2.872,3.612,0-1.806-2.872-3.612,0" transform="translate(-214.829 -565.185)" fill="#fff"/>
    <path id="Path_5697" data-name="Path 5697" d="M278.857,809.991q2.18,3.094,4.177-.16c0-2.744-4.4-1.69-4.177.16" transform="translate(-177.303 -574.063)" fill="#fff"/>
    <path id="Path_5698" data-name="Path 5698" d="M92.5,794.359q4.107-1.633,0-3.266-4.108,1.633,0,3.266" transform="translate(-57.506 -561.941)" fill="#fff"/>
    <path id="Path_5699" data-name="Path 5699" d="M37.348,803.781q-1.8-2.859-3.6,0,1.8,2.859,3.6,0" transform="translate(-21.461 -569.938)" fill="#fff"/>
    <path id="Path_5700" data-name="Path 5700" d="M627.676,318.464q3.79-1.373.724-3.224a2,2,0,0,1-.971-.089q-3.818,1.745.246,3.313" transform="translate(-397.768 -223.863)" fill="#fff"/>
    <path id="Path_5701" data-name="Path 5701" d="M492.726,343.189q1.727,2.747,3.454,0-1.727-2.747-3.454,0" transform="translate(-313.294 -242.804)" fill="#fff"/>
    <path id="Path_5702" data-name="Path 5702" d="M238.527,241.028q3.758-1.494,0-2.988-3.758,1.494,0,2.988" transform="translate(-150.47 -169.089)" fill="#fff"/>
    <path id="Path_5703" data-name="Path 5703" d="M155.711,258.679q1.887,3,3.774,0-1.887-3-3.774,0" transform="translate(-99.007 -182.684)" fill="#fff"/>
    <path id="Path_5704" data-name="Path 5704" d="M60.43,259.291q3.7-1.471,0-2.942-3.7,1.471,0,2.942" transform="translate(-37.248 -182.094)" fill="#fff"/>
    <path id="Path_5705" data-name="Path 5705" d="M1622.676,141.588q3.736-1.485,0-2.97-3.736,1.485,0,2.97" transform="translate(-1030.572 -98.466)" fill="#fff"/>
    <path id="Path_5706" data-name="Path 5706" d="M1531.421,145.439q3.822-1.519,0-3.039-3.822,1.519,0,3.039" transform="translate(-972.521 -101.153)" fill="#fff"/>
    <path id="Path_5707" data-name="Path 5707" d="M1288.931,219.4q-3.492,1.388,0,2.776,3.492-1.388,0-2.776" transform="translate(-818.442 -155.847)" fill="#fff"/>
    <path id="Path_5708" data-name="Path 5708" d="M1187.676,238.357q-4.118,1.638,0,3.275,4.118-1.638,0-3.275" transform="translate(-753.861 -169.314)" fill="#fff"/>
    <path id="Path_5709" data-name="Path 5709" d="M1165.889,207.98q-1.951-3.1-3.9,0,1.951,3.1,3.9,0" transform="translate(-738.836 -146.635)" fill="#fff"/>
    <path id="Path_5710" data-name="Path 5710" d="M1158.934,223.454q3.949-1.569,0-3.139-3.949,1.569,0,3.139" transform="translate(-735.639 -156.498)" fill="#fff"/>
    <path id="Path_5711" data-name="Path 5711" d="M1093.7,223.2q1.683,2.677,3.367,0-1.683-2.677-3.367,0" transform="translate(-695.416 -157.597)" fill="#fff"/>
    <path id="Path_5712" data-name="Path 5712" d="M954.69,256.542q3.86-1.535,0-3.069-3.86,1.535,0,3.069" transform="translate(-605.801 -180.051)" fill="#fff"/>
    <path id="Path_5713" data-name="Path 5713" d="M889.964,227.524q3.972-1.579,0-3.159-3.972,1.579,0,3.159" transform="translate(-564.611 -159.375)" fill="#fff"/>
    <path id="Path_5714" data-name="Path 5714" d="M888.018,279.219q4.221-1.678,0-3.356-4.221,1.678,0,3.356" transform="translate(-563.294 -195.956)" fill="#fff"/>
    <path id="Path_5715" data-name="Path 5715" d="M765.627,304.549q4.059-1.613,0-3.227-4.059,1.613,0,3.227" transform="translate(-485.524 -214.04)" fill="#fff"/>
    <path id="Path_5716" data-name="Path 5716" d="M508.8,369.941q2.108,3.352,4.216,0-2.108-3.353-4.216,0" transform="translate(-323.516 -261.592)" fill="#fff"/>
    <path id="Path_5717" data-name="Path 5717" d="M350.9,369.441q-2-3.177-4,0,2,3.177,4,0" transform="translate(-220.575 -261.299)" fill="#fff"/>
    <path id="Path_5718" data-name="Path 5718" d="M215.489,472.321q3.675-1.461,0-2.922-3.675,1.461,0,2.922" transform="translate(-135.847 -333.431)" fill="#fff"/>
    <path id="Path_5719" data-name="Path 5719" d="M150.42,444.514c2.849,0,2.149-3.011,0-3.011q-3.788,1.506,0,3.011" transform="translate(-94.439 -313.615)" fill="#fff"/>
    <path id="Path_5720" data-name="Path 5720" d="M130.051,483.315q3.712-1.476,0-2.951-3.712,1.476,0,2.951" transform="translate(-81.511 -341.22)" fill="#fff"/>
    <path id="Path_5721" data-name="Path 5721" d="M1419.744,11.778q3.612-1.436,0-2.872-3.612,1.436,0,2.872" transform="translate(-901.579 -6.327)" fill="#fff"/>
    <path id="Path_5722" data-name="Path 5722" d="M1166.111,115.934c2.919,0,2.329-3.193,0-3.193q-4.016,1.6,0,3.193" transform="translate(-740.181 -80.085)" fill="#fff"/>
    <path id="Path_5723" data-name="Path 5723" d="M725.68,174.823q3.423-1.361,0-2.722-3.423,1.361,0,2.722" transform="translate(-460.327 -122.25)" fill="#fff"/>
    <path id="Path_5724" data-name="Path 5724" d="M694.431,197.389c2.705,0,1.72-2.675,0-2.675q-3.364,1.337,0,2.675" transform="translate(-440.476 -138.313)" fill="#fff"/>
    <path id="Path_5725" data-name="Path 5725" d="M526.454,170.311q-3.375,1.342,0,2.684,3.376-1.342,0-2.684" transform="translate(-333.667 -120.979)" fill="#fff"/>
    <path id="Path_5726" data-name="Path 5726" d="M485.892,147.114q1.787,2.843,3.575,0-1.787-2.842-3.575,0" transform="translate(-308.949 -103.491)" fill="#fff"/>
    <path id="Path_5727" data-name="Path 5727" d="M1109.924,14.274q3.584-1.424,0-2.849-3.583,1.424,0,2.849" transform="translate(-704.593 -8.117)" fill="#fff"/>
    <path id="Path_5728" data-name="Path 5728" d="M1027.815,23.909q4.1-1.63,0-3.26-4.1,1.63,0,3.26" transform="translate(-652.221 -14.669)" fill="#fff"/>
    <path id="Path_5729" data-name="Path 5729" d="M931.285,36.387q3.7-1.473,0-2.944-3.7,1.472,0,2.944" transform="translate(-590.969 -23.757)" fill="#fff"/>
    <path id="Path_5730" data-name="Path 5730" d="M868.7,35.649c2.18,0,3.129-3.172,0-3.172q-3.99,1.586,0,3.172" transform="translate(-551.084 -23.071)" fill="#fff"/>
    <path id="Path_5731" data-name="Path 5731" d="M860.9,53.035q4.155-1.652,0-3.3-4.155,1.652,0,3.3" transform="translate(-546.073 -35.327)" fill="#fff"/>
    <path id="Path_5732" data-name="Path 5732" d="M655.085,47.592q3.42-1.36,0-2.719-3.421,1.36,0,2.719" transform="translate(-415.441 -31.876)" fill="#fff"/>
    <path id="Path_5733" data-name="Path 5733" d="M541.494,69.612q3.771-1.5,0-3-3.771,1.5,0,3" transform="translate(-343.104 -47.319)" fill="#fff"/>
    <path id="Path_5734" data-name="Path 5734" d="M402.569,86.39q-1.765-2.808-3.531,0,1.765,2.807,3.531,0" transform="translate(-253.724 -60.37)" fill="#fff"/>
    <path id="Path_5735" data-name="Path 5735" d="M307.955,76.082q4.028-1.6,0-3.2-4.028,1.6,0,3.2" transform="translate(-194.529 -51.77)" fill="#fff"/>
    <path id="Path_5736" data-name="Path 5736" d="M801.341,1156.181q-3.789,1.507,0,3.013,3.79-1.506,0-3.013" transform="translate(-508.318 -821.275)" fill="#fff"/>
    <path id="Path_5737" data-name="Path 5737" d="M747.194,1177.922q-3.406,1.354,0,2.708,3.406-1.354,0-2.708" transform="translate(-474.012 -836.718)" fill="#fff"/>
    <path id="Path_5738" data-name="Path 5738" d="M545.628,1179.752q-1.844-2.934-3.689,0,1.845,2.933,3.689,0" transform="translate(-344.586 -836.976)" fill="#fff"/>
    <path id="Path_5739" data-name="Path 5739" d="M509.522,1178.524q-3.578,1.422,0,2.845,3.577-1.422,0-2.845" transform="translate(-322.836 -837.146)" fill="#fff"/>
    <path id="Path_5740" data-name="Path 5740" d="M238.681,1187.434q-4.2,1.67,0,3.341,4.2-1.671,0-3.341" transform="translate(-150.427 -843.475)" fill="#fff"/>
    <path id="Path_5741" data-name="Path 5741" d="M1.785,1119.2q3.569-1.419,0-2.838-3.57,1.419,0,2.838" transform="translate(0 -792.986)" fill="#fff"/>
  </g>
</svg>
